<svg id="svg" version="1.1" viewBox="0 0 281.83333333333337 300" width="281.83333333333337" height="300" xmlns="http://www.w3.org/2000/svg"><g xmlns="http://www.w3.org/2000/svg" id="svg" fill="#000000" fill-rule="evenodd" stroke="none" stroke-width="1" stroke-linecap="butt" stroke-linejoin="miter" stroke-miterlimit="10" stroke-dasharray="" stroke-dashoffset="0" font-family="none" font-weight="none" font-size="none" text-anchor="none" style="mix-blend-mode: normal"><path d="M0.61817,0.334c-0.05817,0.22283 -0.17567,0.30017 -0.35267,0.23217c-0.24267,-0.09317 -0.2655,12.73967 -0.2655,149.666v149.76783h140c111.8875,0 140.0005,-0.04183 140.0025,-0.20833c0.00183,-0.13883 0.0565,-0.125 0.16417,0.04167c0.10767,0.16667 0.16233,0.1805 0.16417,0.04167c0.00333,-0.271 0.4525,-0.271 0.5485,0c0.04833,0.136 0.22667,0.04633 0.514,-0.25867l0.44,-0.46683v-149.57483c0,-143.92383 -0.01133,-149.57467 -0.3,-149.57467c-0.165,0 -0.39933,0.09383 -0.52083,0.20833c-0.17667,0.16667 -0.23617,0.16667 -0.29717,0c-0.06117,-0.1665 -28.22167,-0.20833 -140.04317,-0.20833c-139.9225,0 -139.96667,0.00017 -140.054,0.334M214.33333,58.67183c2.0235,0.16583 3.01433,0.316 3.25,0.49233c0.09167,0.06867 0.54167,0.1735 1,0.233c0.85067,0.11033 1.98583,0.44983 2.19133,0.65533c0.06283,0.06283 0.32233,0.11417 0.57667,0.11417c0.25433,0 0.5095,0.07617 0.567,0.16933c0.05767,0.09317 0.1745,0.12633 0.25983,0.0735c0.08533,-0.05267 0.15517,-0.01633 0.15517,0.08067c0,0.097 0.09567,0.1765 0.2125,0.1765c0.117,0 0.659,0.21883 1.20467,0.4865c0.5455,0.2675 1.04983,0.4505 1.12067,0.40683c0.07083,-0.04383 0.12883,-0.00933 0.12883,0.07667c0,0.08583 0.225,0.2495 0.5,0.36333c0.275,0.11383 0.5,0.273 0.5,0.3535c0,0.08067 0.07667,0.1465 0.17017,0.1465c0.15083,0 1.44683,0.77817 1.66317,0.9985c0.32267,0.32867 0.805,0.46417 1.00133,0.28117c0.16667,-0.15533 0.19183,-0.11783 0.12017,0.17933c-0.07117,0.29517 -0.005,0.39717 0.3095,0.47617c0.22,0.05517 0.35867,0.16733 0.308,0.24933c-0.05067,0.08183 -0.018,0.14883 0.07267,0.14883c0.0905,0 0.28233,0.11783 0.4265,0.26183c0.144,0.14417 0.26183,0.18167 0.26183,0.08333c0,-0.09817 0.0795,-0.1785 0.1765,-0.1785c0.097,0 0.13017,0.075 0.0735,0.16667c-0.05667,0.09167 0.0115,0.16667 0.15167,0.16667c0.142,0 0.21733,0.097 0.17033,0.2195c-0.08417,0.21933 1.467,1.7805 1.76917,1.7805c0.08733,0 0.15883,0.08317 0.15883,0.18483c0,0.29633 0.723,0.97583 1.04167,0.979c0.32867,0.00317 0.407,0.33 0.08333,0.3475c-0.1145,0.00617 -0.04117,0.09183 0.163,0.1905c0.20417,0.0985 0.415,0.317 0.4685,0.48533c0.0535,0.16833 0.18633,0.28883 0.29533,0.26783c0.109,-0.02117 0.1795,0.0555 0.1565,0.17c-0.02283,0.11467 0.02417,0.20833 0.10483,0.20833c0.0805,0 0.2385,0.22217 0.35083,0.49367c0.1125,0.27167 0.40283,0.70683 0.64533,0.96733c0.24233,0.2605 0.58267,0.73217 0.75633,1.048c0.17367,0.31583 0.446,0.72433 0.60517,0.90767c0.159,0.18333 0.38833,0.61467 0.50933,0.95833c0.12117,0.34383 0.281,0.625 0.35533,0.625c0.15667,0 0.9645,1.7625 0.9645,2.104c0,0.12617 0.06017,0.22933 0.13367,0.22933c0.07367,0 0.2675,0.39383 0.43083,0.875c0.1635,0.48117 0.359,1.025 0.4345,1.20833c0.321,0.77867 0.382,1.02017 0.34717,1.37567c-0.02033,0.2065 0.07283,0.41767 0.20667,0.469c0.14817,0.05683 0.2095,0.22417 0.1565,0.427c-0.048,0.1835 -0.01017,0.49733 0.08417,0.69767c0.0945,0.20017 0.26267,0.814 0.37383,1.364c0.11133,0.55 0.24483,1.1125 0.29667,1.25c0.1045,0.27733 0.12817,0.507 0.35967,3.5c0.17583,2.2725 0.0465,7.3005 -0.20567,8c-0.23083,0.64017 -0.282,2.19317 -0.07883,2.39667c0.116,0.11617 0.394,0.44167 0.61783,0.72317c0.22383,0.2815 0.49533,0.478 0.60317,0.4365c0.10783,-0.04133 0.23533,0.07533 0.2835,0.25917c0.10267,0.3925 1.10217,1.04883 1.36117,0.89383c0.09817,-0.05867 0.07417,0.022 -0.05333,0.17917c-0.20517,0.25267 -0.19717,0.2725 0.06833,0.1705c0.246,-0.09433 0.28333,-0.04983 0.20583,0.24617c-0.052,0.19883 -0.04417,0.3615 0.01733,0.3615c0.135,0 0.69033,1.24783 0.69033,1.55117c0,0.1185 0.082,0.2975 0.18217,0.39767c0.21633,0.21633 0.25283,4.09 0.04167,4.41717c-0.07733,0.1195 -0.2295,0.62983 -0.33817,1.134c-0.10883,0.50417 -0.28067,1.25417 -0.38217,1.66667c-0.10133,0.4125 -0.24883,1.3125 -0.32767,2c-0.07867,0.6875 -0.23033,1.83667 -0.33667,2.55383c-0.1875,1.2625 -0.119,2.2795 0.15317,2.2795c0.073,0 0.13267,0.196 0.13267,0.43567c0,0.2395 0.06567,0.48333 0.14617,0.54167c0.08033,0.05833 0.243,0.2935 0.3615,0.52267c0.1185,0.22917 0.93033,1.16667 1.804,2.08333c0.87367,0.91667 1.86083,2.023 2.1935,2.45833c0.33283,0.4355 0.66467,0.79167 0.73733,0.79167c0.07283,0 0.1325,0.157 0.1325,0.349c0,0.208 0.13383,0.38383 0.3315,0.4355c0.18233,0.04767 0.29667,0.143 0.25417,0.21183c-0.0425,0.06867 0.06317,0.4165 0.23483,0.77267c0.17167,0.35617 0.40267,0.98517 0.51317,1.39767c0.1105,0.4125 0.28683,0.80617 0.39183,0.875c0.14333,0.09367 0.14267,0.1565 -0.00283,0.251c-0.12617,0.08183 -0.19083,0.67917 -0.18517,1.70833c0.006,1.06283 -0.07467,1.7795 -0.2455,2.1825c-0.26633,0.6285 -1.071,1.31767 -1.40183,1.2005c-0.2735,-0.09683 -0.402,0.65083 -0.454,2.64c-0.02483,0.94933 -0.13317,1.88983 -0.24067,2.09c-0.2395,0.446 -0.24917,0.6055 -0.02883,0.46933c0.09167,-0.05667 0.16667,-0.03233 0.16667,0.054c0,0.0865 -0.16883,0.20333 -0.375,0.25983c-0.31367,0.086 -0.33417,0.13017 -0.125,0.2695c0.16933,0.11283 0.19183,0.207 0.07,0.29167c-0.099,0.06883 -0.2865,0.374 -0.41667,0.67817c-0.28667,0.67017 -1.9495,1.8635 -2.59667,1.8635c-0.24583,0 -0.58983,-0.12917 -0.76417,-0.287c-0.30533,-0.27633 -0.404,-0.19783 -2.686,2.137c-1.30283,1.33317 -2.60983,2.53067 -2.90433,2.661c-0.2945,0.13033 -0.5355,0.27633 -0.5355,0.3245c0,0.048 -0.67117,0.4235 -1.49167,0.83433c-1.03633,0.51883 -1.49417,0.83883 -1.5,1.04833c-0.0045,0.16583 0.0615,0.25833 0.14667,0.20567c0.08533,-0.05267 0.1525,0.14917 0.1495,0.4485c-0.003,0.29933 0.10383,1.59433 0.23767,2.87767c0.14533,1.3955 0.183,2.4105 0.0935,2.5255c-0.08917,0.11467 -0.08617,0.2155 0.0075,0.25c0.4585,0.169 -0.701,3.56083 -1.48083,4.33183c-0.39667,0.39217 -1.2535,0.80933 -1.66233,0.80933c-0.1925,0 -0.55233,0.1035 -0.8,0.22983c-0.48917,0.25 -3.49883,0.45433 -3.57183,0.24267c-0.02467,-0.0715 -0.58867,-0.18033 -1.25317,-0.24183c-1.05517,-0.09767 -1.20833,-0.07717 -1.20833,0.162c0,0.15067 -0.075,0.274 -0.16667,0.274c-0.09167,0 -0.16667,-0.1125 -0.16667,-0.25c0,-0.1375 0.075,-0.25 0.16667,-0.25c0.09167,0 0.16667,-0.075 0.16667,-0.16667c0,-0.09167 -0.1875,-0.16667 -0.41667,-0.16667c-0.3055,0 -0.41667,0.08883 -0.41667,0.33333c0,0.18333 0.07583,0.33333 0.16867,0.33333c0.10333,0 0.12733,0.25783 0.062,0.66667c-0.08633,0.54017 -0.05683,0.66667 0.15533,0.66667c0.22167,0 0.26383,0.287 0.2745,1.875c0.007,1.03133 0.04583,2.0625 0.08633,2.29167c0.04067,0.22917 0.15133,0.94167 0.24617,1.58333c0.2735,1.851 0.36783,2.25 0.53217,2.25c0.08483,0 0.13367,0.16883 0.1085,0.375c-0.0615,0.50633 0.197,3.31917 0.324,3.52467c0.05583,0.09033 0.12117,0.581 0.14533,1.0905c0.07817,1.64533 0.43517,4.00983 0.6055,4.00983c0.09983,0 0.09183,0.08883 -0.02,0.22367c-0.102,0.123 -0.13567,0.27367 -0.07467,0.33467c0.061,0.061 0.17617,1.10417 0.25567,2.318c0.0795,1.21383 0.21317,3.0695 0.297,4.12367c0.08367,1.05417 0.1955,2.55417 0.2485,3.33333c0.053,0.77917 0.17467,2.27917 0.27033,3.33333c0.09583,1.05417 0.20933,3.04167 0.25233,4.41667c0.043,1.375 0.14383,2.9875 0.224,3.58333c0.08017,0.59583 0.15567,2.76583 0.16783,4.82233c0.01217,2.0565 0.058,3.79717 0.102,3.86833c0.044,0.07117 0.14683,1.426 0.22867,3.011c0.11017,2.13583 0.09783,2.98417 -0.0475,3.27783c-0.31,0.62667 -2.32533,1.56783 -4.946,2.31017c-2.12783,0.60283 -2,0.513 -2,1.40367c0,0.582 0.06533,0.80667 0.23433,0.80667c0.15233,0 0.204,0.11667 0.14733,0.33333c-0.04883,0.18633 -0.00517,0.33333 0.09883,0.33333c0.1025,0 0.18617,0.10267 0.18617,0.22833c0,0.1255 0.15867,0.70683 0.3525,1.29167c0.194,0.58483 0.368,1.2005 0.38683,1.36833c0.01867,0.16767 0.10383,0.35517 0.189,0.41667c0.15483,0.1115 0.21233,0.52167 0.2495,1.77833c0.03617,1.2305 -0.0535,1.76933 -0.2805,1.68233c-0.1175,-0.04517 -0.18117,0.00783 -0.1415,0.11783c0.14,0.387 -2.736,2.1045 -3.53767,2.11283c-0.20083,0.002 -0.4115,0.07867 -0.46817,0.17033c-0.05667,0.09167 -0.361,0.16667 -0.6765,0.16667c-0.3155,0 -0.5735,0.06783 -0.5735,0.1505c0,0.51867 -6.77367,0.51717 -7.09417,-0.0015c-0.05067,-0.082 -0.23767,-0.149 -0.41567,-0.149c-0.178,0 -0.3235,-0.075 -0.3235,-0.16667c0,-0.09167 -0.11183,-0.16667 -0.2485,-0.16667c-0.13683,0 -0.46367,-0.225 -0.7265,-0.5c-0.26267,-0.275 -0.56783,-0.5 -0.67783,-0.5c-0.11017,0 -0.15383,-0.075 -0.09717,-0.16667c0.05667,-0.09167 -0.014,-0.16667 -0.15683,-0.16667c-0.213,0 -0.25967,-0.2325 -0.25883,-1.29167c0.0005,-0.7105 0.08033,-1.578 0.1775,-1.928c0.131,-0.47167 0.1255,-0.69817 -0.02133,-0.875c-0.157,-0.18917 -0.14567,-0.23867 0.05467,-0.23867c0.28667,0 0.52367,-0.441 0.47,-0.875c-0.02083,-0.16883 0.07367,-0.29167 0.22433,-0.29167c0.14333,0 0.2605,-0.06333 0.2605,-0.14067c0,-0.0775 0.17833,-0.34833 0.39617,-0.602c0.38467,-0.4475 0.42233,-1.09067 0.064,-1.09067c-0.101,0 -0.0915,-0.09167 0.02367,-0.2305c0.14883,-0.17933 0.12733,-0.25517 -0.097,-0.34117c-0.43717,-0.16783 -2.84033,-0.07217 -3.70533,0.14733c-0.7175,0.18217 -0.768,0.23183 -0.81617,0.80217c-0.02817,0.3345 0.03467,0.7685 0.13967,0.96467c0.24533,0.45867 0.38383,1.54483 0.181,1.41933c-0.0845,-0.05217 -0.22767,0.11133 -0.31833,0.36333c-0.15167,0.42167 -0.52517,0.87333 -1.068,1.2915c-0.119,0.09167 -0.51633,0.269 -0.883,0.39417c-0.74817,0.25533 -1.68733,0.64017 -2.12267,0.86983c-0.15917,0.084 -0.436,0.15267 -0.61517,0.15267c-0.17917,0 -0.37083,0.07283 -0.42583,0.16183c-0.055,0.089 -0.47367,0.21133 -0.93033,0.272c-0.4565,0.0605 -0.87033,0.17517 -0.9195,0.25483c-0.04933,0.0795 -0.30567,0.14467 -0.56983,0.14467c-0.26417,0 -0.52183,0.067 -0.5725,0.149c-0.05067,0.082 -0.37383,0.18683 -0.71817,0.233c-0.34433,0.04617 -0.926,0.16483 -1.29267,0.26367c-0.36667,0.09883 -1.0185,0.1815 -1.4485,0.18367c-0.43,0.00217 -0.82817,0.079 -0.88483,0.17067c-0.13033,0.21083 -4.314,0.22317 -4.71067,0.01383c-0.15917,-0.084 -0.51433,-0.238 -0.78933,-0.34217c-0.275,-0.10417 -0.86533,-0.51033 -1.31183,-0.9025c-0.79983,-0.7025 -0.81317,-0.73033 -0.891,-1.86617c-0.0635,-0.92517 -0.01017,-1.31217 0.27017,-1.9585c0.19217,-0.443 0.34933,-0.92167 0.34933,-1.06383c0,-0.277 0.60767,-0.88067 0.88667,-0.88067c0.09283,0 0.12083,-0.048 0.06217,-0.10667c-0.05867,-0.05867 0.15283,-0.24583 0.46983,-0.41583c0.55183,-0.29567 1.03967,-0.66867 1.824,-1.39417c0.45233,-0.4185 0.92483,-0.73183 1.29,-0.85533c0.56017,-0.18933 0.35233,-1.39067 -0.241,-1.39333c-0.1605,-0.00067 -0.29167,-0.07633 -0.29167,-0.168c0,-0.09167 -0.183,-0.16667 -0.40683,-0.16667c-0.22383,0 -0.45317,-0.075 -0.50983,-0.16667c-0.05667,-0.09167 -0.3085,-0.16667 -0.55983,-0.16667c-0.25133,0 -0.528,-0.05967 -0.61517,-0.1325c-0.087,-0.07283 -0.58733,-0.27167 -1.11167,-0.442c-0.52433,-0.17033 -1.19917,-0.51483 -1.4995,-0.7655c-0.53417,-0.446 -0.5455,-0.483 -0.51117,-1.683c0.01917,-0.67483 0.11583,-2.3895 0.21467,-3.81033c0.099,-1.42083 0.21733,-3.85833 0.263,-5.41667c0.04567,-1.55833 0.16367,-3.58333 0.26233,-4.5c0.09867,-0.91667 0.24,-3.20417 0.31433,-5.08333c0.16133,-4.08067 0.58217,-10.197 0.83717,-12.16667c0.21417,-1.654 0.4125,-3.4235 0.64433,-5.75c0.09133,-0.91667 0.23833,-1.92917 0.32667,-2.25c0.08833,-0.32083 0.24683,-1.22083 0.352,-2c0.10517,-0.77917 0.25833,-1.82917 0.34033,-2.33333c0.08183,-0.50417 0.2625,-1.62917 0.4015,-2.5c0.13883,-0.87083 0.33317,-1.92083 0.432,-2.33333c0.09867,-0.4125 0.2175,-0.975 0.264,-1.25c0.04633,-0.275 0.146,-0.65 0.22133,-0.83333c0.26367,-0.64217 1.17367,-5.35533 1.17367,-6.079c0,-0.40183 -0.09,-0.97967 -0.20017,-1.28417l-0.20017,-0.5535h-1.96867c-1.27233,0 -2.096,-0.07367 -2.32833,-0.20833c-0.62217,-0.36067 -1.47117,-1.21717 -1.791,-1.807c-0.23917,-0.44117 -0.39583,-0.55483 -0.7015,-0.50917c-1.03333,0.15433 -2.92717,-0.02183 -3.1435,-0.2925c-0.04583,-0.05733 -0.44783,-0.28783 -0.89317,-0.5125c-0.902,-0.45467 -2.11317,-1.7365 -2.60233,-2.75383c-0.51717,-1.07567 -0.72717,-1.65167 -0.68767,-1.88733c0.02017,-0.12133 -0.05417,-0.33033 -0.1655,-0.46433c-0.26017,-0.31367 -0.29633,-4.60117 -0.0415,-4.92433c0.09717,-0.12317 0.22617,-0.4865 0.28683,-0.80733c0.12517,-0.66167 1.01817,-2.59433 1.271,-2.75067c0.236,-0.14583 0.0485,-0.7635 -0.69167,-2.278c-0.3535,-0.72333 -0.64267,-1.38167 -0.64267,-1.46267c0,-0.08117 -0.059,-0.1725 -0.13117,-0.20317c-0.072,-0.0305 -0.348,-0.50283 -0.613,-1.0495c-0.265,-0.54667 -0.6935,-1.3075 -0.95217,-1.69083c-0.25867,-0.38333 -0.47067,-0.7985 -0.471,-0.92267c-0.00033,-0.12417 -0.18633,-0.59167 -0.41317,-1.03867c-0.633,-1.24783 -0.684,-1.80117 -0.23867,-2.59333c0.20933,-0.3725 0.47917,-0.67717 0.59983,-0.67717c0.12067,0 0.22,-0.05617 0.22067,-0.125c0.00467,-0.45817 1.06133,-0.542 6.99017,-0.55483c3.3505,-0.00717 5.99983,-0.05033 5.8875,-0.09583c-0.1125,-0.0455 -0.6375,-0.59217 -1.16667,-1.21467c-1.445,-1.69983 -1.56017,-1.848 -1.93817,-2.49517c-0.19183,-0.32883 -0.48217,-0.74317 -0.64483,-0.921c-0.16283,-0.17767 -0.296,-0.41517 -0.296,-0.52767c0,-0.11267 -0.05983,-0.22967 -0.133,-0.26033c-0.21283,-0.08883 -1.02767,-1.64233 -1.97433,-3.76383c-0.19017,-0.42633 -0.342,-0.54167 -0.71283,-0.54167c-0.25917,0 -0.83683,-0.19983 -1.28383,-0.444c-0.80883,-0.44183 -2.72933,-2.22417 -2.72933,-2.53283c0,-0.08917 -0.09367,-0.1955 -0.20833,-0.2365c-0.1145,-0.04083 -0.16867,-0.118 -0.12033,-0.17133c0.0485,-0.05333 0.6485,0.4245 1.33333,1.06183c1.40533,1.3075 2.3155,1.82283 3.21983,1.82283c0.442,0 0.64683,0.0835 0.7155,0.29167c0.316,0.9585 1.58833,3.49267 2.3545,4.68967c1.68017,2.62533 3.3555,4.455 5.03883,5.50283l0.58333,0.36317l-7.144,-0.04867l-7.144,-0.04867l-0.56967,0.659c-1.05233,1.21717 -1.12167,0.965 1.974,7.17433l1.99433,4l-0.603,1c-0.71617,1.1875 -1.20683,2.687 -1.459,4.4585c-0.15283,1.07317 -0.13667,1.539 0.09517,2.75c0.7645,3.99233 3.21533,6.19917 6.8925,6.20617l1.0365,0.002l0.66317,0.89767c1.1575,1.56683 1.19267,1.58117 3.64583,1.48267l2.13033,-0.08567l0.20233,0.44383c0.30117,0.66117 0.23967,2.64867 -0.1345,4.34483c-0.60133,2.7255 -1.6655,8.29933 -1.98883,10.41667c-0.175,1.14583 -0.504,3.13333 -0.73133,4.41667c-0.22717,1.28333 -0.49317,3.27083 -0.59083,4.41667c-0.09767,1.14583 -0.29067,3.28333 -0.42883,4.75c-0.56,5.94433 -0.76183,8.76083 -0.75933,10.596c0.00133,1.06117 -0.1055,2.71117 -0.23767,3.66667c-0.13217,0.9555 -0.32317,4.13733 -0.4245,7.07067c-0.1015,2.93333 -0.2505,6.12083 -0.33117,7.08333c-0.17667,2.106 -0.10333,2.563 0.47217,2.94167c0.24217,0.1595 1.56533,0.67317 2.94033,1.1415l2.5,0.85167l0.049,0.65767c0.02717,0.3625 -0.04767,0.77683 -0.16667,0.9235c-0.11867,0.14617 -0.98467,0.84817 -1.92467,1.56c-2.555,1.93467 -3.39567,3.08617 -3.40983,4.67067c-0.0295,3.26617 4.00033,4.09933 11.23517,2.32283c3.544,-0.87033 6.35367,-1.83567 7.17283,-2.46467l0.71083,-0.54567l-0.044,-2.388l-0.04417,-2.38817l1.528,0.1085c0.8405,0.05967 2.139,0.1085 2.88567,0.1085h1.3575l0.20017,0.5535c0.30683,0.84867 0.25283,1.11117 -0.47,2.27983c-0.724,1.17083 -1.32983,2.87583 -1.32983,3.74267c0,0.67833 0.2845,1.53083 0.71867,2.15367c1.01483,1.45567 4.9425,1.90433 9.05383,1.0345c2.10733,-0.44583 3.42233,-1.09933 4.3595,-2.16683c0.45617,-0.5195 0.53467,-0.73717 0.53467,-1.4815c0,-1.01733 -0.44183,-2.71533 -1.13617,-4.36583c-0.56783,-1.35 -0.77617,-2.52033 -0.55317,-3.107c0.1175,-0.30933 0.39733,-0.486 1.13117,-0.71467c2.02483,-0.63083 3.3475,-1.1325 4.55817,-1.729l1.25,-0.616l-0.0065,-1.16667c-0.009,-1.6105 -0.52633,-13.25617 -0.81817,-18.41667c-0.50817,-8.98867 -1.89883,-22.361 -3.08517,-29.66667c-0.17117,-1.05417 -0.4325,-2.85417 -0.58083,-4c-0.1485,-1.14583 -0.34483,-2.41217 -0.43667,-2.81417c-0.09167,-0.40183 -0.144,-0.75333 -0.11617,-0.78117c0.02783,-0.02783 0.66017,0.16517 1.40517,0.42883c1.86517,0.66 3.80983,1.04133 4.63183,0.90817c1.07417,-0.174 2.65967,-1.01083 3.33833,-1.762c1.78333,-1.974 2.15967,-5.18217 1.12967,-9.63383c-0.2495,-1.07883 -0.25467,-1.24783 -0.0405,-1.317c0.6125,-0.198 3.44267,-1.754 4.3575,-2.39567c1.53667,-1.07783 3.02183,-2.9185 3.99367,-4.94917c0.467,-0.97583 0.89083,-1.6675 0.97033,-1.58333c0.0775,0.08217 0.26067,0.7365 0.40667,1.454c0.362,1.779 0.40733,1.84383 1.02183,1.46433c1.02283,-0.6315 2.05133,-2.89283 2.501,-5.4985c0.29517,-1.71067 0.17,-3.28933 -0.44067,-5.55233c-0.52017,-1.92767 -0.28067,-1.97383 0.899,-0.17317c0.40417,0.61683 0.85067,1.42167 0.992,1.78833c0.1415,0.36667 0.32183,0.6535 0.40083,0.6375c0.57383,-0.11667 0.7395,-3.61517 0.24617,-5.2c-0.41867,-1.34533 -1.87517,-3.49683 -3.69117,-5.45217c-0.81633,-0.879 -1.83917,-2.13517 -2.27317,-2.79167c-0.76967,-1.164 -1.88383,-3.9635 -1.88683,-4.74083c-0.00083,-0.20933 0.4155,-1.37183 0.92517,-2.58333c1.169,-2.7785 1.57067,-4.41467 1.57217,-6.40367c0.002,-2.60367 -0.95483,-4.55 -2.7305,-5.55433c-0.46833,-0.26483 -1.08933,-0.69083 -1.37967,-0.94667l-0.528,-0.46483l0.26283,-1.66667c0.34583,-2.194 0.39517,-10.37917 0.07417,-12.33333c-1.6535,-10.068 -7.95367,-18.80683 -16.86433,-23.39267c-3.91683,-2.01583 -7.38817,-2.92217 -11.91667,-3.11133c-7.7675,-0.32433 -12.96417,0.94817 -18.5485,4.54217c-0.76,0.48917 -1.79083,1.08283 -2.2905,1.3195c-1.106,0.52367 -4.05733,3.50967 -5.92733,5.997c-3.13183,4.1655 -5.53467,10.19517 -6.33467,15.89533c-0.34683,2.4715 -0.299,8.37583 0.08367,10.33333c0.511,2.613 0.50317,2.45567 0.12817,2.57467c-0.1865,0.05917 -0.793,0.545 -1.34783,1.0795c-0.76183,0.734 -1.18283,1.33417 -1.71933,2.45067l-0.71033,1.4785v2.91667v2.91667l0.625,1.31517c0.67333,1.41667 0.72417,1.6015 0.44067,1.6015c-0.2075,0 -0.88683,-0.80733 -0.905,-1.0755c-0.0255,-0.37817 -0.28667,-1.09117 -0.3995,-1.09117c-0.13483,0 -0.146,-0.19467 -0.1935,-3.33333c-0.03733,-2.46017 0.14117,-3.728 0.68817,-4.892c0.19633,-0.4175 0.30833,-0.8375 0.249,-0.9335c-0.05933,-0.096 -0.02833,-0.1745 0.06867,-0.1745c0.097,0 0.1765,-0.12267 0.1765,-0.2725c0,-0.15 0.19917,-0.45717 0.4425,-0.68267c0.32567,-0.30183 0.38683,-0.44433 0.23217,-0.53983c-0.14883,-0.09217 -0.1565,-0.16333 -0.02583,-0.244c0.1015,-0.06267 0.1845,-0.0345 0.1845,0.0625c0,0.097 0.0795,0.1765 0.1765,0.1765c0.097,0 0.13333,-0.06983 0.08067,-0.15517c-0.05283,-0.08533 -0.0185,-0.203 0.07617,-0.2615c0.09467,-0.0585 0.129,-0.17617 0.07617,-0.2615c-0.13,-0.2105 0.14833,-0.19733 0.36267,0.017c0.1185,0.1185 0.17233,0.00833 0.17233,-0.35333c0,-0.34433 0.12467,-0.6195 0.3615,-0.79833c0.34667,-0.26133 0.354,-0.32467 0.1745,-1.52167c-0.51583,-3.44233 -0.06567,-12.209 0.704,-13.70483c0.08183,-0.15917 0.14883,-0.5155 0.14883,-0.79167c0,-0.27633 0.075,-0.50233 0.16667,-0.50233c0.09167,0 0.16667,-0.17167 0.16667,-0.38167c0,-0.60717 0.47967,-2.28733 0.93783,-3.285c0.23167,-0.50417 0.52017,-1.14167 0.64133,-1.41667c0.923,-2.095 2.52433,-5.091 2.6525,-4.96267c0.056,0.05583 0.10167,0.01333 0.10167,-0.09433c0,-0.207 0.71083,-1.272 1.40817,-2.10967c1.0165,-1.221 3.695,-4.18633 3.95533,-4.37867c0.15767,-0.11667 0.39933,-0.32467 0.537,-0.46233c0.28683,-0.28683 1.91233,-1.07167 2.2245,-1.074c0.11467,-0.001 0.20833,-0.07667 0.20833,-0.16833c0,-0.09167 0.08,-0.16667 0.17783,-0.16667c0.09767,0 0.4235,-0.1875 0.724,-0.41667c0.3005,-0.22917 0.633,-0.41667 0.73883,-0.41667c0.106,0 0.19267,-0.06583 0.19267,-0.14617c0,-0.0805 0.43133,-0.36167 0.95833,-0.625c0.527,-0.26333 0.99583,-0.51733 1.04167,-0.56433c0.15267,-0.15683 1.57733,-0.808 2,-0.91417c0.22917,-0.0575 0.56667,-0.17 0.75,-0.24983c0.79433,-0.34617 2.39183,-0.82983 3.08333,-0.9335c0.4125,-0.06183 0.825,-0.16783 0.91667,-0.2355c0.2515,-0.1855 1.147,-0.33267 3.08333,-0.50667c0.9625,-0.0865 1.8625,-0.19167 2,-0.2335c0.2895,-0.08833 3.2965,0.03917 5.83333,0.24717M233.5,67.5c0,0.09167 -0.1125,0.16667 -0.25,0.16667c-0.1375,0 -0.25,-0.075 -0.25,-0.16667c0,-0.09167 0.1125,-0.16667 0.25,-0.16667c0.1375,0 0.25,0.075 0.25,0.16667M197.89133,78.35833c1.5435,6.32067 5.89217,10.44233 12.91717,12.243c1.99633,0.51167 2.67267,0.60283 5.52483,0.74433c1.7875,0.0885 3.4375,0.17833 3.66667,0.19933c0.34233,0.0315 0.41667,-0.03517 0.41667,-0.37367c0,-0.30767 -0.304,-0.66467 -1.20083,-1.41017c-0.6605,-0.54917 -1.16967,-1.02967 -1.13133,-1.06783c0.03817,-0.03833 0.42867,0.1585 0.8675,0.43717c1.1165,0.709 3.98783,2.1635 5.96467,3.02167c2.70233,1.173 4.836,2.318 5.64233,3.028c0.7645,0.67283 1.43917,2.06167 1.97533,4.06667c0.25733,0.96183 0.19,1.01333 -1.516,1.16283c-0.69767,0.06117 -1.396,0.14783 -1.552,0.19283c-0.20733,0.0595 -0.46883,-0.212 -0.9725,-1.00933c-0.8435,-1.3355 -2.2735,-2.65617 -3.77883,-3.4895c-0.73633,-0.40783 -1.3635,-0.91867 -1.7955,-1.46283c-1.4215,-1.7905 -2.64717,-2.32833 -5.33617,-2.3415c-1.67017,-0.00817 -2.37033,0.20533 -3.43133,1.04567c-1.06733,0.84533 -0.79533,1.26167 0.477,0.73c1.682,-0.70283 4.36433,-0.81433 5.67367,-0.236c0.82167,0.36283 1.90733,1.28933 1.7705,1.51067c-0.04417,0.07167 -0.33567,0.02367 -0.6475,-0.10667c-0.88233,-0.36867 -3.57717,-0.62267 -5.81133,-0.54783c-1.9835,0.0665 -2.06467,0.0845 -3.473,0.76667c-2.241,1.0855 -3.31133,2.314 -3.8655,4.4365c-0.139,0.532 -0.29017,1.00483 -0.33583,1.05067c-0.04583,0.04567 -0.57017,-0.1115 -1.16517,-0.3495c-1.41233,-0.56517 -3.39667,-0.61133 -4.23717,-0.09883c-0.30017,0.183 -0.60917,0.33267 -0.68683,0.33267c-0.07767,0 -0.1885,-0.35633 -0.24633,-0.79167c-0.15083,-1.13683 -0.96683,-2.74617 -1.8305,-3.60967c-0.8905,-0.8905 -1.9985,-1.47933 -3.35733,-1.78383c-1.33283,-0.29867 -5.81933,-0.3 -7.29917,-0.00217c-0.62283,0.12533 -1.17683,0.1835 -1.23117,0.12917c-0.197,-0.197 0.985,-1.09883 1.878,-1.43283c1.45,-0.5425 3.89433,-0.47983 5.73567,0.14717c1.56633,0.5335 1.94217,0.459 1.3935,-0.27583c-0.74733,-1.001 -3.31917,-1.69933 -5.45483,-1.48117c-1.90967,0.195 -3.97917,1.57317 -4.8285,3.2155c-0.14567,0.28167 -0.755,0.89733 -1.35417,1.36817c-1.245,0.97833 -1.30433,0.91283 -0.76117,-0.84033c0.56717,-1.83067 2.77617,-5.38967 5.93333,-9.55917c3.83033,-5.05833 5.28317,-7.01233 5.35967,-7.20833c0.21567,-0.55333 0.29633,-0.0245 0.30483,2c0.008,1.916 0.06633,2.37917 0.44033,3.499c0.74,2.21617 1.99967,3.757 3.306,4.04383c0.83267,0.183 0.87383,-0.06433 0.14783,-0.88817c-1.84533,-2.09417 -2.63117,-4.2825 -2.77533,-7.72783c-0.12417,-2.97367 0.143,-3.4755 0.67983,-1.27683M81.24517,81.55517c2.03083,1.109 2.77533,2.14967 5.50467,7.69483c0.99267,2.01667 1.8675,3.69167 1.94417,3.72217c0.07667,0.03067 0.13933,0.141 0.13933,0.24533c0,0.10417 0.40367,1.01667 0.89717,2.02767c0.4935,1.011 1.103,2.28817 1.35433,2.83817c0.2515,0.55 0.71033,1.51633 1.0195,2.14733c0.30933,0.63117 0.56233,1.2195 0.56233,1.30767c0,0.08817 0.15467,0.3775 0.34383,0.64317c0.18917,0.2655 0.29683,0.559 0.2395,0.65183c-0.0575,0.093 0.0045,0.21083 0.13767,0.262c0.1435,0.055 0.20783,0.22433 0.15783,0.4155c-0.0465,0.17733 -0.00067,0.3225 0.10167,0.3225c0.1025,0 0.18617,0.11467 0.18617,0.25483c0,0.14 0.225,0.70033 0.5,1.24517c0.275,0.54483 0.5,1.10617 0.5,1.2475c0,0.24467 0.05733,0.39333 0.45283,1.17467c0.09433,0.18633 0.22717,0.59883 0.29517,0.91667c0.06817,0.31783 0.181,0.65283 0.25083,0.7445c0.145,0.19017 0.824,2.183 1.24933,3.66667c0.15767,0.55 0.32867,1.1125 0.37983,1.25c0.05133,0.1375 0.107,0.2875 0.12383,0.33333c0.08667,0.235 0.3125,1.60033 0.28267,1.70833c-0.019,0.06883 0.03233,0.125 0.114,0.125c0.0815,0 0.18983,0.24367 0.24067,0.54167c0.05083,0.298 0.17517,0.91667 0.2765,1.375c0.10117,0.45833 0.25433,1.39583 0.34017,2.08333c0.08583,0.6875 0.1895,1.3885 0.23033,1.55767c0.041,0.16933 0.034,0.41317 -0.01533,0.54167c-0.1905,0.4965 -0.34333,0.18983 -0.44417,-0.891c-0.39533,-4.23717 -2.6985,-11.64183 -5.74483,-18.469c-0.44733,-1.0025 -1.36383,-3.06017 -2.03667,-4.57267c-2.21833,-4.98683 -6.5835,-13.47183 -7.624,-14.81983c-1.32783,-1.72033 -2.3815,-2.2725 -4.27833,-2.24183c-1.51733,0.02433 -4.4435,0.64383 -8.62983,1.82667c-3.996,1.12917 -13.28083,4.25917 -15.29633,5.1565c-0.9625,0.4285 -2.3265,1.0295 -3.031,1.33533c-2.8375,1.23233 -7.251,3.58283 -8.13567,4.333c-0.50417,0.4275 -1.19567,1.18633 -1.5365,1.68617c-0.99017,1.452 -1.33,2.81283 -2.6355,10.55733c-0.37867,2.24583 -0.8635,5.09583 -1.07733,6.33333c-0.21383,1.2375 -0.58333,3.6 -0.82083,5.25c-0.2375,1.65 -0.54383,3.67933 -0.68083,4.50967c-0.37417,2.26867 -0.331,3.00017 0.24183,4.08667c0.3545,0.67267 0.52133,1.27517 0.60317,2.178c0.10567,1.165 0.08683,1.27583 -0.28217,1.66233c-0.21733,0.22783 -0.82283,0.62033 -1.34567,0.87217c-1.305,0.62883 -3.14183,2.63583 -3.709,4.05283c-1.0205,2.549 -0.92667,5.383 0.297,8.97167c0.55867,1.63817 1.09717,2.64233 2.25433,4.20283c1.07633,1.45183 2.42633,2.5185 3.89267,3.07567c0.97917,0.372 2.9505,0.40117 4.38083,0.06467c0.54917,-0.12917 1.01017,-0.22167 1.0245,-0.20567c0.01417,0.016 0.4925,0.89167 1.06283,1.94583c0.57033,1.05417 1.3175,2.29167 1.66033,2.75c0.78633,1.051 2.58017,2.88633 4.06283,4.15683c1.072,0.9185 1.137,1.01367 1.05183,1.53867c-0.12883,0.794 -0.64733,1.3745 -1.655,1.8535c-1.151,0.547 -3.70983,2.61117 -4.85017,3.9125c-0.81533,0.93067 -2.7725,3.70367 -2.7725,3.92833c0,0.04883 -0.28583,0.431 -0.63533,0.8495c-1.543,1.84767 -4.59833,7.0665 -5.52983,9.44567c-1.38667,3.54167 -1.865,6.33067 -1.42483,8.30883c0.7845,3.52683 2.929,6.32533 6.8925,8.99483c0.9435,0.6355 1.755,1.2195 1.80333,1.29783c0.12283,0.19867 -0.546,1.451 -1.07917,2.0205c-0.92833,0.9915 -2.11467,1.406 -6.27667,2.1925c-1.65,0.31183 -4.6875,0.91083 -6.75,1.33117l-3.75,0.7645l-5.08333,0.16317c-2.79583,0.08983 -6.20833,0.15167 -7.58333,0.13733c-1.618,-0.01683 -2.67633,0.04467 -3,0.17433c-0.91833,0.36817 -1.5725,1.17567 -1.9445,2.40067c-0.31517,1.0375 -0.32833,1.255 -0.1445,2.39417c0.43233,2.67983 1.521,4.779 2.75283,5.30767c0.42883,0.184 0.61167,0.168 1.33333,-0.11667c1.85467,-0.732 3.234,-1.18633 4.47033,-1.47267l1.30083,-0.30117l0.4065,0.91917c0.64167,1.45083 1.07517,3.01483 1.07517,3.87883c0,0.7635 -0.0215,0.79933 -0.54167,0.90383c-0.29783,0.05983 -1.43667,0.182 -2.5305,0.27167c-2.044,0.16733 -2.58417,0.35233 -2.933,1.00433c-0.26633,0.49733 -0.057,1.24917 0.71417,2.565c0.83133,1.41883 1.77783,2.4685 2.56033,2.83983c0.552,0.26183 0.67117,0.26183 1.8685,0c0.70333,-0.15383 2.32883,-0.67983 3.61217,-1.16883c1.28333,-0.489 3.94583,-1.495 5.91667,-2.23533c1.97083,-0.7405 3.95833,-1.493 4.41667,-1.67217c1.934,-0.75633 5.05167,-1.80367 5.68967,-1.9115c0.66583,-0.1125 0.73717,-0.0775 2.249,1.10417c4.28083,3.346 8.868,5.29417 15.978,6.78567c3.46233,0.72633 9.74083,1.51667 12.04867,1.51667c1.00467,0 1.27833,-0.06583 1.81217,-0.43567c0.34567,-0.23967 0.82733,-0.69633 1.07033,-1.01483c0.40267,-0.52783 0.4955,-0.56933 1.047,-0.469c0.6595,0.12 5.33983,1.46183 6.07883,1.74283c0.2515,0.0955 1.59767,0.472 2.99167,0.83633c4.9525,1.29467 7.29667,1.27383 10.08283,-0.08967c2.056,-1.00617 2.7265,-1.89733 3.52967,-4.69183c0.28433,-0.989 0.47167,-1.31783 1.04467,-1.83333c0.80467,-0.72417 2.34683,-2.10783 2.97433,-2.66867l0.43033,-0.38467l2.06567,0.5945c3.90083,1.12283 7.2155,2.19733 12.7405,4.12983c3.5115,1.22817 7.014,2.28417 7.57633,2.28417c0.76533,0 1.33917,-0.3575 2.38217,-1.484c0.94833,-1.02433 2.12483,-3.10433 2.12483,-3.7565c0,-0.56633 -0.3665,-0.93167 -1.1,-1.0965c-0.64167,-0.144 -4.57017,-0.663 -5.02,-0.663c-0.499,0 -0.06967,-2.67067 0.71667,-4.45833c0.25983,-0.5905 0.48283,-0.875 0.68583,-0.87483c0.54633,0.0005 3.73333,0.829 4.7765,1.24183c1.51767,0.60067 1.84383,0.65017 2.39833,0.36333c1.21417,-0.62783 2.524,-2.90783 2.99183,-5.20717c0.3325,-1.635 0.13317,-2.8535 -0.61533,-3.7615c-0.976,-1.184 -1.04717,-1.19567 -7.7505,-1.25983c-8.98083,-0.086 -13.09167,-0.58317 -19.45617,-2.353c-0.94083,-0.2615 -2.3105,-0.642 -3.04383,-0.84533c-0.73333,-0.2035 -1.82083,-0.6145 -2.41667,-0.91333c-1.28117,-0.64283 -1.26983,-0.57783 -0.6105,-3.49467c0.2305,-1.01967 0.5315,-2.52883 0.669,-3.35383c0.1375,-0.825 0.56033,-2.9625 0.9395,-4.75c0.37933,-1.7875 0.869,-4.1875 1.08833,-5.33333c0.21933,-1.14583 0.81467,-4.053 1.32283,-6.46033c0.50833,-2.40717 0.92417,-4.67017 0.92417,-5.02883c0,-0.7445 -0.60933,-1.48967 -1.48733,-1.81867c-0.282,-0.10567 -0.73233,-0.27417 -1.001,-0.37417c-0.2685,-0.10017 -1.18733,-0.81983 -2.04167,-1.5995c-2.402,-2.19167 -4.17283,-3.43467 -6.80333,-4.77533c-2.31767,-1.18117 -5.318,-2.31433 -6.80933,-2.5715c-0.388,-0.067 -0.72083,-0.19667 -0.73967,-0.28833c-0.01883,-0.09167 0.56567,-0.56267 1.299,-1.04667c2.95733,-1.952 5.65233,-4.2165 6.99317,-5.87583c1.41717,-1.754 2.9325,-4.494 3.53683,-6.395c0.12033,-0.37883 0.31167,-0.53067 0.87933,-0.69833c2.541,-0.75033 4.95717,-4.05033 5.36233,-7.32383c0.226,-1.82683 0.1075,-4.1635 -0.279,-5.49767c-0.53067,-1.8325 -1.9555,-3.58567 -3.44967,-4.245c-0.92017,-0.406 -0.87333,-0.262 -1.10967,-3.41767c-0.096,-1.28333 -0.2225,-2.93683 -0.28083,-3.67433l-0.10633,-1.34117l0.61283,-0.46733c0.33717,-0.25717 0.65617,-0.42417 0.70917,-0.37133c0.05283,0.053 -0.02667,0.1435 -0.17667,0.201c-0.15017,0.05767 -0.22433,0.1835 -0.16483,0.27967c0.0635,0.10267 0.028,0.1255 -0.0855,0.05533c-0.10817,-0.06683 -0.2375,-0.00517 -0.29317,0.14c-0.05483,0.14283 -0.16567,0.21883 -0.24633,0.169c-0.08067,-0.05 -0.11083,0.11917 -0.067,0.37583c0.3125,1.82867 0.46883,3.24583 0.56017,5.0785c0.05783,1.16133 0.14267,2.142 0.1885,2.179c0.04583,0.037 0.38333,0.204 0.75,0.37117c0.36667,0.16717 0.70417,0.35667 0.75,0.421c0.04583,0.0645 0.40217,0.31683 0.79167,0.56083c0.3895,0.244 0.70833,0.53733 0.70833,0.65167c0,0.11433 0.1875,0.41017 0.41667,0.65733c0.22917,0.247 0.41667,0.6425 0.41667,0.8785c0,0.23617 0.11783,0.70817 0.26183,1.049c0.42583,1.00767 0.75117,4.20633 0.52917,5.203c-0.05117,0.22917 -0.141,0.82917 -0.19983,1.33333c-0.12067,1.03283 -0.42283,2.0225 -0.67367,2.20583c-0.09217,0.06733 -0.109,0.1235 -0.0375,0.125c0.16017,0.00317 -0.80767,1.79367 -1.21733,2.2525c-1.17767,1.31867 -1.94767,1.9525 -2.9685,2.4435c-0.99283,0.4775 -1.17217,0.631 -1.26333,1.0815c-0.0585,0.28867 -0.21683,0.6165 -0.35183,0.72867c-0.13517,0.11217 -0.24567,0.30083 -0.24567,0.4195c0,0.11867 -0.05617,0.24067 -0.125,0.27133c-0.06883,0.0305 -0.34733,0.5055 -0.61917,1.0555c-0.27167,0.55 -0.70067,1.35583 -0.95333,1.79067c-0.42467,0.731 -0.47583,1.29267 -0.118,1.29267c0.238,0 0.17167,0.63683 -0.0815,0.78333c-0.2045,0.11833 -1.06283,0.8705 -3.33267,2.9205c-0.37783,0.34133 -0.74767,0.62267 -0.82183,0.625c-0.074,0.0025 -0.4115,0.21633 -0.75,0.47517c-0.33833,0.25883 -1.04633,0.793 -1.5735,1.18683c-0.52717,0.394 -0.95833,0.80467 -0.95833,0.91267c0,0.10783 0.28133,0.29117 0.625,0.40733c0.68017,0.22983 1.29683,0.4795 1.74333,0.70583c0.15683,0.0795 0.40067,0.10033 0.54167,0.04617c0.14117,-0.05417 0.25667,-0.0155 0.25667,0.086c0,0.1015 0.14367,0.1845 0.3195,0.1845c0.17567,0 0.34433,0.059 0.375,0.13117c0.07167,0.16933 1.96967,1.091 2.2465,1.091c0.116,0 0.17233,0.0625 0.12517,0.139c-0.04717,0.07633 0.1105,0.13883 0.3505,0.13883c0.27667,0 0.39467,0.0675 0.32233,0.1845c-0.07667,0.12417 0.00167,0.14783 0.239,0.0725c0.266,-0.0845 0.3305,-0.05283 0.261,0.12817c-0.06083,0.1585 0.05317,0.27683 0.33433,0.3475c0.23467,0.05883 0.42783,0.19933 0.42917,0.31217c0.00167,0.1325 0.05983,0.11667 0.16417,-0.04483c0.13967,-0.21617 0.16183,-0.21683 0.16417,-0.00533c0.003,0.29667 0.79517,1.00533 1.12367,1.00533c0.276,0 0.73767,0.41883 0.6065,0.55017c-0.0495,0.0495 0.12283,0.226 0.38283,0.3925c0.46733,0.29917 1.44717,1.1555 2.4675,2.15633c0.289,0.28367 0.72733,0.56633 0.97383,0.62817c0.2465,0.06183 0.44817,0.18617 0.44817,0.276c0,0.09 0.1455,0.1635 0.3235,0.1635c0.178,0 0.36983,0.075 0.4265,0.16667c0.05667,0.09167 0.3175,0.16667 0.5795,0.16667c0.73383,0 1.00383,0.16467 1.00383,0.61217c0,0.22533 0.083,0.56483 0.1845,0.75433c0.20533,0.38383 -0.023,2.70267 -0.45633,4.6335c-0.34633,1.5435 -0.74567,3.49167 -0.846,4.1265c-0.04717,0.29883 -0.15233,0.5845 -0.23383,0.63483c-0.08167,0.0505 -0.14833,0.27583 -0.14833,0.50083c0,0.225 -0.0725,0.53933 -0.161,0.6985c-0.13833,0.24833 -0.46717,1.96567 -0.7735,4.03933c-0.04733,0.32083 -0.15083,0.73333 -0.22967,0.91667c-0.079,0.18333 -0.18617,0.63333 -0.23817,1c-0.052,0.36667 -0.21017,1.30417 -0.3515,2.08333c-0.14117,0.77917 -0.30167,1.67917 -0.35633,2c-0.05483,0.32083 -0.15383,0.62083 -0.22,0.66667c-0.06633,0.04583 -0.20367,0.75833 -0.30517,1.58333c-0.10167,0.825 -0.3035,2.0625 -0.44867,2.75c-0.48767,2.31 -0.48733,2.24683 -0.01483,2.71933c0.23767,0.23767 0.43217,0.3865 0.43217,0.33067c0,-0.056 0.13133,0.01433 0.29167,0.156c0.16033,0.14183 0.62917,0.31183 1.04167,0.378c0.4125,0.06617 0.856,0.20567 0.9855,0.30983c0.17767,0.14317 0.2525,0.1385 0.3055,-0.01883c0.10567,-0.314 0.33983,-0.25033 0.459,0.125c0.06667,0.21 0.25217,0.33333 0.50133,0.33333c0.21767,0 0.43667,0.06617 0.48667,0.14717c0.05,0.081 0.50317,0.19867 1.00717,0.26167c0.504,0.063 0.95933,0.18417 1.012,0.2695c0.05267,0.08517 0.39133,0.155 0.75267,0.155c0.36133,0 0.65683,0.075 0.65683,0.16667c0,0.09167 0.258,0.16667 0.5735,0.16667c0.3155,0 0.61367,0.065 0.66283,0.1445c0.04917,0.0795 0.44733,0.1955 0.88483,0.25767c1.31917,0.18767 1.36783,0.198 1.4865,0.31667c0.063,0.063 0.39767,0.1145 0.74367,0.1145c0.346,0 0.67533,0.075 0.732,0.16667c0.05667,0.09167 0.796,0.16667 1.64317,0.16667c0.84717,0 1.61683,0.07667 1.71067,0.1705c0.10567,0.10567 2.22433,0.2015 5.575,0.25217c6.20417,0.09367 8.8525,0.18683 9.58933,0.33717c0.28483,0.05817 0.72783,0.286 0.98417,0.50633c0.25633,0.22033 0.59617,0.4005 0.755,0.4005c0.159,0 0.28133,0.09383 0.272,0.20833c-0.00933,0.11467 0.11417,0.63083 0.27467,1.14717c0.23217,0.74717 0.28183,1.41867 0.24383,3.2905c-0.02633,1.2935 -0.104,2.35233 -0.17283,2.353c-0.06883,0.0005 -0.125,0.0995 -0.125,0.21983c0,0.357 -0.77183,1.84917 -1.25133,2.419c-0.24467,0.29083 -0.58383,0.52883 -0.75367,0.52883c-0.16983,0 -0.355,0.075 -0.41167,0.16667c-0.05667,0.09167 -0.43167,0.16667 -0.83333,0.16667c-0.40167,0 -0.77667,-0.075 -0.83333,-0.16667c-0.05667,-0.09167 -0.3085,-0.16667 -0.55983,-0.16667c-0.25133,0 -0.528,-0.06467 -0.61517,-0.14367c-0.22533,-0.2045 -2.1195,-0.69883 -3.71017,-0.96833c-0.758,-0.1285 -1.42333,0.47167 -1.318,1.18867c0.04183,0.28483 -0.02333,0.59033 -0.15383,0.72083c-0.1245,0.1245 -0.22033,0.50217 -0.21317,0.83933c0.00717,0.33733 0.051,0.5195 0.09717,0.40483c0.13417,-0.33217 0.292,-0.24517 0.52967,0.29167c0.17283,0.39067 0.3275,0.5 0.70733,0.5c0.26733,0 0.486,0.06383 0.486,0.142c0,0.078 0.61867,0.1885 1.375,0.2455c1.2175,0.09183 1.41967,0.15483 1.76433,0.55067c0.32233,0.37017 0.37533,0.57883 0.30833,1.21283c-0.41433,3.91317 -2.43967,6.1035 -5.19767,5.62117c-1.07,-0.18717 -2.5845,-0.58983 -2.956,-0.786c-0.15917,-0.084 -0.436,-0.15283 -0.61517,-0.15283c-0.17917,0 -0.3765,-0.082 -0.4385,-0.18233c-0.062,-0.10033 -0.2915,-0.14817 -0.50983,-0.1065c-0.2185,0.04183 -0.39717,0.01133 -0.39717,-0.06767c0,-0.07883 -0.2205,-0.1435 -0.49017,-0.1435c-0.26967,0 -0.5365,-0.075 -0.59317,-0.16667c-0.05667,-0.09167 -0.24633,-0.16667 -0.4215,-0.16667c-0.175,0 -0.58367,-0.149 -0.908,-0.33117c-0.32433,-0.18217 -0.64533,-0.33233 -0.71333,-0.33383c-0.21683,-0.0045 -1.77917,-0.51333 -2.07983,-0.67717c-0.15917,-0.08683 -0.403,-0.15783 -0.54167,-0.15783c-0.13883,0 -0.25233,-0.075 -0.25233,-0.16667c0,-0.09167 -0.13133,-0.16633 -0.29167,-0.16583c-0.31167,0.00083 -1.76783,-0.4445 -2.24767,-0.68767c-0.15917,-0.0805 -0.403,-0.1465 -0.54167,-0.1465c-0.13883,0 -0.25233,-0.05633 -0.2525,-0.125c-0.00017,-0.06867 -0.58133,-0.263 -1.29167,-0.43183c-1.5565,-0.36983 -2.40367,-0.63217 -2.6165,-0.8105c-0.08717,-0.073 -0.32633,-0.13267 -0.53183,-0.13267c-0.2055,0 -0.41367,-0.06517 -0.463,-0.14467c-0.04917,-0.07967 -0.463,-0.19433 -0.9195,-0.25483c-0.45667,-0.06067 -0.87533,-0.183 -0.93033,-0.272c-0.21667,-0.3505 -1.01383,-0.15033 -1.6655,0.41833c-0.36567,0.319 -0.716,0.5815 -0.77867,0.58333c-0.0625,0.00167 -0.16133,0.15317 -0.2195,0.3365c-0.05817,0.18333 -0.197,0.33333 -0.30833,0.33333c-0.50217,0 -1.9115,1.37333 -2.03917,1.987c-0.049,0.23633 -0.15983,0.55983 -0.24583,0.719c-0.08617,0.15917 -0.15667,0.4435 -0.15667,0.63183c0,0.62583 -0.997,2.26983 -1.8795,3.099c-1.52967,1.43767 -3.14983,2.0015 -6.255,2.17667c-0.76917,0.0435 -1.47283,0.00683 -1.58333,-0.0825c-0.10933,-0.08833 -0.74283,-0.21417 -1.40783,-0.2795c-0.665,-0.06533 -1.25067,-0.18617 -1.3015,-0.2685c-0.05083,-0.08233 -0.30867,-0.14967 -0.57283,-0.14967c-0.26417,0 -0.52667,-0.075 -0.58333,-0.16667c-0.05667,-0.09167 -0.24967,-0.16667 -0.42883,-0.16667c-0.17917,0 -0.456,-0.072 -0.61517,-0.16c-0.29067,-0.16067 -1.48767,-0.45867 -2.49917,-0.62233c-0.29883,-0.04833 -0.5845,-0.1545 -0.63483,-0.236c-0.0505,-0.08167 -0.27033,-0.14833 -0.48867,-0.14833c-0.21833,0 -0.439,-0.068 -0.49033,-0.151c-0.05133,-0.08317 -0.46817,-0.20267 -0.92633,-0.26567c-0.45817,-0.063 -0.875,-0.1825 -0.92633,-0.26567c-0.05133,-0.083 -0.31383,-0.151 -0.5835,-0.151c-0.26967,0 -0.49017,-0.075 -0.49017,-0.16667c0,-0.09167 -0.151,-0.16667 -0.33567,-0.16667c-0.1845,0 -0.49433,-0.09367 -0.68833,-0.20833c-0.28683,-0.16933 -0.368,-0.16633 -0.43367,0.01617c-0.171,0.47467 -1.05333,1.31217 -1.77233,1.68183c-0.69917,0.35967 -0.8815,0.37917 -2.6355,0.283c-3.97583,-0.21817 -5.05633,-0.313 -5.2095,-0.457c-0.08717,-0.082 -0.58883,-0.149 -1.11517,-0.149c-0.52633,0 -0.99767,-0.066 -1.0475,-0.14667c-0.04983,-0.08083 -0.729,-0.2 -1.50917,-0.265c-0.78033,-0.065 -1.46083,-0.1865 -1.51233,-0.26983c-0.05167,-0.0835 -0.385,-0.15183 -0.74083,-0.15183c-0.35583,0 -0.69333,-0.075 -0.75,-0.16667c-0.05667,-0.09167 -0.31917,-0.16667 -0.58333,-0.16667c-0.26417,0 -0.52,-0.06433 -0.56867,-0.14283c-0.0485,-0.07867 -0.47083,-0.18817 -0.9385,-0.24367c-0.85417,-0.10117 -1.82683,-0.36183 -2.3655,-0.634c-0.15917,-0.08033 -0.436,-0.14617 -0.61517,-0.14617c-0.17917,0 -0.36617,-0.06517 -0.41533,-0.14483c-0.04917,-0.0795 -0.39517,-0.19367 -0.76883,-0.25333c-0.603,-0.0965 -1.69667,-0.506 -2.534,-0.94883c-0.15917,-0.08417 -0.36583,-0.153 -0.45917,-0.153c-0.38817,0 -3.7125,-1.81283 -4.0015,-2.18217c-0.04583,-0.0585 -0.38333,-0.26133 -0.75,-0.45083c-0.36667,-0.1895 -0.86967,-0.537 -1.11767,-0.77233c-0.24817,-0.2355 -0.5015,-0.428 -0.56317,-0.428c-0.06167,0 -0.40267,-0.2625 -0.75783,-0.58333c-0.637,-0.5755 -1.19367,-0.74183 -1.39467,-0.41667c-0.05667,0.09167 -0.2485,0.16667 -0.4265,0.16667c-0.178,0 -0.3235,0.075 -0.3235,0.16667c0,0.09167 -0.1135,0.16667 -0.25233,0.16667c-0.13867,0 -0.3825,0.07133 -0.54167,0.15867c-0.26017,0.1425 -0.79333,0.372 -2.03933,0.87783c-0.22917,0.093 -0.54467,0.23383 -0.701,0.31317c-0.1565,0.07917 -0.58933,0.19283 -0.962,0.2525c-0.37283,0.0595 -0.718,0.1735 -0.76717,0.253c-0.04917,0.07967 -0.2275,0.14483 -0.39633,0.14483c-0.345,0 -2.64867,0.9175 -4.444,1.76967c-0.65283,0.31 -1.25667,0.56367 -1.34183,0.56367c-0.258,0 -1.05167,0.40817 -1.053,0.54167c-0.00067,0.06867 -0.18267,0.125 -0.40417,0.125c-0.2215,0 -0.42767,0.05767 -0.45833,0.12833c-0.0305,0.0705 -0.92717,0.413 -1.99267,0.76117c-2.19333,0.71667 -4.05367,0.9435 -5.04767,0.6155c-1.10633,-0.36517 -2.73933,-2.2525 -3.66783,-4.23933c-0.37483,-0.802 -0.27167,-2.18217 0.18883,-2.526c0.48267,-0.36033 1.80533,-0.73967 2.5795,-0.73967c0.396,0 0.98183,-0.07567 1.30217,-0.16833c0.32017,-0.0925 0.86933,-0.18 1.2205,-0.1945c0.63783,-0.02617 0.63817,-0.02667 0.53167,-0.62333c-0.1355,-0.75733 -0.4435,-1.701 -0.64517,-1.97617c-0.08567,-0.11683 -0.11733,-0.25083 -0.07033,-0.29783c0.047,-0.04683 -0.01167,-0.36383 -0.13017,-0.70417c-0.2315,-0.66467 -0.37867,-0.69717 -1.32433,-0.2925c-0.99133,0.42417 -3.28317,1.09017 -3.75167,1.09017c-0.26333,0 -0.525,0.075 -0.58167,0.16667c-0.32517,0.52617 -2.56333,-0.16567 -2.9565,-0.91383c-0.09717,-0.185 -0.22633,-0.37367 -0.287,-0.4195c-0.06067,-0.04583 -0.34717,-0.57083 -0.63683,-1.16667c-0.924,-1.901 -1.25617,-4.41133 -0.777,-5.87283c0.45417,-1.3855 1.14617,-2.24033 2.184,-2.6985c0.53867,-0.23783 4.3865,-0.40717 12.47333,-0.549c2.01667,-0.03533 3.738,-0.13533 3.825,-0.222c0.08717,-0.08667 0.34967,-0.15667 0.58333,-0.1555c0.447,0.00217 2.5655,-0.41733 3.43683,-0.68083c0.2815,-0.085 0.72617,-0.15467 0.98817,-0.15467c0.262,0 0.70667,-0.07033 0.98817,-0.15633c0.2815,-0.086 1.26183,-0.28133 2.1785,-0.43417c0.91667,-0.15283 1.79683,-0.34483 1.956,-0.427c0.15917,-0.082 0.4745,-0.14917 0.7005,-0.14917c0.22617,0 0.5835,-0.06883 0.794,-0.15317c0.2105,-0.08417 0.889,-0.2895 1.50783,-0.45617c0.61883,-0.16683 1.125,-0.36033 1.125,-0.43033c0,-0.06983 0.175,-0.127 0.38883,-0.127c0.543,0 1.59467,-0.975 1.70917,-1.58483c0.06717,-0.35717 0.001,-0.60883 -0.22983,-0.875c-0.17817,-0.20533 -0.3705,-0.3735 -0.4275,-0.3735c-0.057,0 -0.23567,-0.10833 -0.39717,-0.24067c-0.16133,-0.1325 -0.7435,-0.57483 -1.2935,-0.983c-3.70567,-2.75083 -5.9575,-6.5865 -5.95183,-10.13833c0.00183,-1.13917 0.63317,-4.59533 0.89133,-4.87967c0.07917,-0.08717 0.14383,-0.36833 0.14383,-0.625c0,-0.25667 0.07583,-0.46667 0.16867,-0.46667c0.1045,0 0.12633,-0.264 0.0575,-0.69433c-0.095,-0.5945 -0.0725,-0.67967 0.15633,-0.59183c0.18717,0.07183 0.2395,0.03017 0.1745,-0.139c-0.051,-0.13283 -0.00967,-0.2415 0.09183,-0.2415c0.1015,0 0.1845,-0.10633 0.1845,-0.23617c0,-0.12983 0.085,-0.26433 0.18883,-0.299c0.10383,-0.03467 0.19767,-0.30317 0.20833,-0.59683c0.01067,-0.29367 0.10183,-0.534 0.2025,-0.53433c0.10067,-0.00017 0.31833,-0.30033 0.48367,-0.667c0.16533,-0.36667 0.36417,-0.66667 0.442,-0.66667c0.07767,0 0.14133,-0.15 0.14133,-0.33333c0,-0.18333 0.058,-0.33333 0.12883,-0.33333c0.07083,0 0.27483,-0.28117 0.4535,-0.625c0.17867,-0.34367 0.50117,-0.91317 0.7165,-1.2655c0.21533,-0.35233 0.35117,-0.746 0.30167,-0.875c-0.05267,-0.13733 0.0135,-0.2345 0.16,-0.2345c0.1375,0 0.29833,-0.13117 0.3575,-0.29167c0.05933,-0.1605 0.15067,-0.32917 0.20317,-0.375c0.0525,-0.04583 0.2425,-0.25667 0.42217,-0.4685c0.27883,-0.32867 0.291,-0.40783 0.08333,-0.53917c-0.20433,-0.12917 -0.19783,-0.15433 0.04033,-0.1565c0.27567,-0.0025 1.4485,-1.4975 1.18267,-1.5075c-0.07317,-0.00283 -0.00017,-0.0825 0.16217,-0.177c0.16233,-0.0945 0.2505,-0.244 0.196,-0.33233c-0.05467,-0.08833 -0.01167,-0.14 0.09533,-0.11483c0.107,0.02517 0.28133,-0.101 0.38733,-0.2805c0.106,-0.1795 0.28667,-0.4285 0.40117,-0.5535c0.11467,-0.125 0.20833,-0.2855 0.20833,-0.3565c0,-0.071 0.24517,-0.3845 0.54483,-0.6965c0.29983,-0.31183 0.6935,-0.80483 0.875,-1.09533c0.18167,-0.2905 0.40517,-0.553 0.49683,-0.58333c0.2935,-0.09717 1.08,-1.08617 0.95967,-1.20667c-0.06383,-0.06383 0.02583,-0.06167 0.19933,0.005c0.25233,0.09683 0.2935,0.06333 0.20517,-0.1665c-0.0635,-0.1655 -0.04283,-0.24583 0.0485,-0.1895c0.166,0.10267 1.504,-0.70533 1.504,-0.90817c0,-0.064 0.20633,-0.22283 0.45833,-0.35283c0.252,-0.13 0.645,-0.40533 0.87333,-0.6115c0.22817,-0.20617 0.52817,-0.37617 0.66667,-0.3775c0.22333,-0.00233 0.2235,-0.02083 0.00167,-0.16417c-0.20217,-0.13067 -0.17817,-0.162 0.125,-0.16417c0.20633,-0.00133 0.375,-0.0775 0.375,-0.16917c0,-0.09167 0.155,-0.16667 0.3445,-0.16667c0.50467,0 0.27867,-0.61367 -0.48233,-1.3105c-1.155,-1.05733 -2.113,-1.9915 -2.88433,-2.8125c-0.91817,-0.9775 -2.31117,-2.7835 -2.31117,-2.9965c0,-0.083 -0.13133,-0.30017 -0.29167,-0.4825c-0.41233,-0.46867 -0.70833,-1.01733 -0.70833,-1.31233c0,-0.13883 -0.13967,-0.25233 -0.31017,-0.25233c-0.24417,0 -0.29267,-0.09217 -0.2275,-0.433l0.08283,-0.433l-1.231,0.10817c-2.29083,0.20117 -3.64683,0.20883 -3.66067,0.02067c-0.0075,-0.103 -0.04833,-0.09283 -0.0955,0.02383c-0.058,0.14317 -0.187,0.10617 -0.435,-0.125c-0.19383,-0.1805 -0.455,-0.32833 -0.58017,-0.32833c-0.426,0 -2.18617,-1.3285 -2.99083,-2.2575c-0.87017,-1.00433 -2.552,-3.65717 -2.552,-4.0255c0,-0.12517 -0.12367,-0.5065 -0.27483,-0.84733c-0.15133,-0.34083 -0.26017,-0.74433 -0.24217,-0.8965c0.01817,-0.15233 -0.04567,-0.3255 -0.14167,-0.38483c-0.096,-0.0595 -0.17467,-0.291 -0.17467,-0.51483c0,-0.22383 -0.06433,-0.40683 -0.14283,-0.40683c-0.2415,0 -0.45767,-3.30033 -0.31533,-4.81733c0.07383,-0.788 0.14867,-1.58267 0.166,-1.766c0.01733,-0.18333 0.16917,-0.483 0.33733,-0.66583c0.16817,-0.18283 0.2725,-0.45933 0.232,-0.61417c-0.0405,-0.155 0.039,-0.325 0.17667,-0.37783c0.213,-0.08183 0.2165,-0.13783 0.02333,-0.37533c-0.19983,-0.24567 -0.18967,-0.26517 0.08467,-0.16217c0.25317,0.095 0.29517,0.054 0.22383,-0.21883c-0.05783,-0.22117 -0.00633,-0.33583 0.15067,-0.33583c0.13117,0 0.30983,-0.1875 0.397,-0.41667c0.08717,-0.22917 0.2165,-0.41783 0.2875,-0.41933c0.071,-0.00133 0.504,-0.33917 0.962,-0.7505c0.458,-0.41133 1.0955,-0.87133 1.41667,-1.022c0.32117,-0.15067 0.74517,-0.39933 0.9425,-0.55233c0.32617,-0.25283 0.33367,-0.29517 0.08333,-0.4655c-0.24183,-0.16467 -0.22883,-0.18867 0.10783,-0.19717c0.36183,-0.00933 0.37867,-0.06067 0.30467,-0.92417c-0.04417,-0.515 -0.21783,-1.11533 -0.39767,-1.375c-0.46067,-0.6645 -0.7565,-1.90417 -0.6535,-2.73883c0.049,-0.397 0.16233,-1.35933 0.252,-2.1385c0.0895,-0.77917 0.20783,-1.60417 0.263,-1.83333c0.055,-0.22917 0.17633,-1.01667 0.26967,-1.75c0.09333,-0.73333 0.279,-2.04583 0.41283,-2.91667c0.13383,-0.87083 0.29283,-1.97933 0.35333,-2.46317c0.06067,-0.484 0.1745,-0.91967 0.253,-0.96817c0.0785,-0.04867 0.14333,-0.36517 0.14383,-0.7035c0.0005,-0.33833 0.07283,-0.87767 0.16083,-1.1985c0.088,-0.32083 0.2325,-1.10833 0.32117,-1.75c0.08867,-0.64167 0.20583,-1.42917 0.2605,-1.75c0.0545,-0.32083 0.16567,-1.07083 0.24683,-1.66667c0.08133,-0.59583 0.25833,-1.57083 0.39333,-2.16667c0.23133,-1.02067 0.53767,-2.68817 0.73483,-4c0.04817,-0.32083 0.13933,-0.65833 0.20233,-0.75c0.063,-0.09167 0.10683,-0.37517 0.0975,-0.62983c-0.0125,-0.33383 0.04817,-0.438 0.21733,-0.37317c0.17833,0.0685 0.2095,-0.01033 0.12967,-0.3285c-0.05767,-0.23017 -0.04,-0.4185 0.0395,-0.4185c0.0795,0 0.27983,-0.3 0.44517,-0.66667c0.16533,-0.36667 0.373,-0.66667 0.4615,-0.66667c0.08833,0 0.123,-0.14433 0.07683,-0.32083c-0.0545,-0.20867 -0.01233,-0.2935 0.1205,-0.2425c0.1125,0.04317 0.302,-0.03917 0.42133,-0.18283c0.1865,-0.22467 0.1735,-0.24483 -0.09283,-0.14267c-0.27483,0.1055 -0.28233,0.0895 -0.06617,-0.14183c0.13417,-0.1435 0.31917,-0.23333 0.41133,-0.19967c0.09217,0.03367 0.44233,-0.16917 0.77833,-0.45083c0.6505,-0.5455 1.26533,-0.9255 2.4725,-1.52783c0.4125,-0.20583 0.7875,-0.412 0.83333,-0.458c0.04583,-0.04583 0.30833,-0.18583 0.58333,-0.311c0.54717,-0.249 0.92733,-0.43717 1.375,-0.68067c0.16033,-0.08717 0.59167,-0.28133 0.95833,-0.4315c0.36667,-0.15017 0.86567,-0.37883 1.109,-0.50817c0.24333,-0.12917 0.56217,-0.235 0.70833,-0.235c0.14633,0 0.266,-0.11017 0.266,-0.24483c0,-0.14117 0.09867,-0.20683 0.23317,-0.15517c0.12817,0.04917 0.28267,0.00933 0.34317,-0.08867c0.0605,-0.09783 0.2555,-0.178 0.4335,-0.178c0.178,0 0.3235,-0.06667 0.3235,-0.14817c0,-0.08133 0.26133,-0.19717 0.58083,-0.257c0.3195,-0.06 0.86333,-0.25017 1.20833,-0.42267c0.34517,-0.1725 0.87117,-0.41267 1.16917,-0.5335c0.298,-0.121 0.54167,-0.28117 0.54167,-0.35583c0,-0.07467 0.08217,-0.085 0.1825,-0.023c0.1005,0.062 0.34417,0.039 0.54167,-0.05117c1.57383,-0.71883 3.4905,-1.37533 4.0155,-1.37533c0.14317,0 0.26033,-0.075 0.26033,-0.16667c0,-0.09167 0.151,-0.16667 0.33567,-0.16667c0.1845,0 0.46583,-0.07067 0.625,-0.15683c0.15917,-0.08633 0.73933,-0.28133 1.28933,-0.43333c0.55,-0.15217 1.15,-0.339 1.33333,-0.4155c0.18333,-0.0765 0.59583,-0.21833 0.91667,-0.31533c0.32083,-0.097 0.94217,-0.2895 1.38083,-0.42767c0.43867,-0.13817 0.90833,-0.25133 1.044,-0.25133c0.1355,0 0.37667,-0.06767 0.53583,-0.1505c0.15917,-0.08267 0.62683,-0.2435 1.03933,-0.35733c0.4125,-0.11383 1.07133,-0.3085 1.46417,-0.43283c0.39283,-0.12433 0.884,-0.226 1.09167,-0.226c0.20767,0 0.44867,-0.06733 0.53583,-0.14967c0.087,-0.08217 0.45833,-0.19117 0.825,-0.242c1.05983,-0.14717 2.60917,-0.42417 3.33333,-0.596c1.01,-0.2395 2.8875,-0.04667 3.66183,0.37617M70.7,88.62183c0.738,1.5335 1.4475,3.08767 1.57667,3.4535c0.129,0.36583 0.37,0.81733 0.53533,1.00333c0.16533,0.18583 1.21933,1.988 2.34217,4.00467c3.12867,5.61917 6.88467,11.5825 8.398,13.33317l0.5565,0.64383l1.42367,-2.90517c0.78283,-1.59783 1.89683,-3.90067 2.47517,-5.11733c0.57833,-1.21667 1.10933,-2.15417 1.18,-2.08333c0.252,0.25283 2.28733,5.00833 3.265,7.62883c1.02333,2.74283 1.37433,3.88367 1.05133,3.41667c-0.14733,-0.213 -0.22167,-0.18833 -0.50133,0.16667c-0.43517,0.55233 -1.42683,2.57033 -1.6995,3.45833c-0.11967,0.3895 -0.3,0.70833 -0.40083,0.70833c-0.10083,0 -0.5975,-0.1425 -1.10367,-0.31667c-1.12633,-0.3875 -4.07483,-0.8835 -8.01033,-1.34733c-1.629,-0.192 -3.07067,-0.39083 -3.2035,-0.44183c-0.133,-0.051 -0.22517,-0.24117 -0.20483,-0.42267c0.02833,-0.25367 -0.15017,-0.40167 -0.77367,-0.64167c-1.0335,-0.39767 -1.03833,-0.40417 -0.702,-0.9175c0.15533,-0.23717 0.32483,-0.78333 0.37633,-1.2135c0.0515,-0.43017 0.15083,-0.80433 0.22067,-0.83133c0.06983,-0.027 0.064,-0.327 -0.013,-0.66667c-0.08533,-0.37583 -0.07767,-0.63917 0.01917,-0.673c0.08767,-0.03067 0.15933,-0.15383 0.15933,-0.27383c0,-0.18817 0.489,-0.51083 0.58017,-0.383c1.1795,1.656 1.30133,2.148 0.7765,3.1315c-0.44767,0.83883 -0.5805,1.33083 -0.35933,1.33083c0.1025,0 0.29733,-0.28117 0.433,-0.625c0.13583,-0.34367 0.357,-0.824 0.4915,-1.06733c0.27833,-0.50317 0.313,-1.1065 0.0965,-1.67633c-0.22017,-0.579 -1.14533,-1.50883 -1.36567,-1.37267c-0.1045,0.0645 -0.24383,0.03017 -0.30967,-0.07633c-0.59167,-0.95733 -2.6365,3.06333 -2.25333,4.43083c0.07233,0.25867 0.12633,0.50767 0.11983,0.5535c-0.00667,0.04583 -0.03767,0.22517 -0.069,0.3985c-0.04183,0.23017 0.1,0.37583 0.52617,0.5405c0.53167,0.2055 0.40067,0.221 -1.479,0.175c-2.27833,-0.05567 -2.41283,-0.118 -2.61867,-1.21517c-0.13,-0.69283 1.36717,-4.36967 3.47767,-8.54117l1.4635,-2.89233l-1.83867,-3.3195c-1.01117,-1.82583 -2.03617,-3.63283 -2.27783,-4.01567l-0.43933,-0.69583l-0.35217,0.442c-0.58,0.728 -5.18117,8.325 -5.23817,8.64867c-0.029,0.16467 0.892,2.05917 2.0465,4.21017c2.769,5.159 2.815,5.2675 2.6825,6.328c-0.05883,0.471 -0.1605,0.94317 -0.22617,1.04917c-0.07483,0.12133 -1.191,0.26267 -3.00717,0.38117c-1.58833,0.1035 -4.02533,0.33483 -5.4155,0.51383c-3.4515,0.44467 -3.17683,0.4915 -3.05683,-0.52167c0.1135,-0.95883 1.41617,-3.70333 3.71217,-7.822c0.79133,-1.41917 1.51567,-2.74583 1.60967,-2.948c0.19783,-0.4255 -0.2245,-1.19933 -2.8475,-5.21567c-1.792,-2.74367 -2.71533,-4.4265 -2.752,-5.015c-0.01433,-0.23183 0.54183,-1.41067 1.30767,-2.77117l1.33267,-2.36767l1.41667,-0.60417c1.8495,-0.78867 4.64633,-1.7355 5.13733,-1.73917c0.33717,-0.0025 0.56117,0.35817 1.72933,2.78567M79.70433,90c0.6285,0.93283 0.95583,1.58817 0.95833,1.91883c0.00467,0.57717 -0.95233,2.10233 -1.57483,2.51017c-0.37467,0.24567 -0.44483,0.2425 -0.92467,-0.04c-0.626,-0.36867 -1.436,-1.5455 -1.67533,-2.434c-0.149,-0.55367 -0.122,-0.74917 0.18583,-1.34317c0.54033,-1.04283 1.489,-2.13667 1.803,-2.07883c0.15033,0.02767 0.70283,0.68783 1.22767,1.467M66.45183,89.5225l-0.70183,0.689l0.61383,-0.439c0.7695,-0.5505 0.8995,-0.5485 1.2075,0.01917c0.13683,0.25217 0.25167,0.36083 0.25533,0.24167c0.00767,-0.24783 -0.4585,-1.2 -0.58733,-1.2c-0.04717,0 -0.4015,0.31017 -0.7875,0.68917M204.33333,92.5c-0.89683,0.89683 0.16933,2.20567 1.40917,1.72983c0.26683,-0.1025 0.7575,-0.8895 0.7575,-1.215c0,-0.09267 -0.16417,-0.3215 -0.36483,-0.50833c-0.4745,-0.44217 -1.363,-0.44533 -1.80183,-0.0065M68.66917,92.95833c-0.00133,0.20617 0.0725,0.375 0.16417,0.375c0.20883,0 0.20883,-0.17683 0,-0.5c-0.13067,-0.20217 -0.162,-0.17817 -0.16417,0.125M64.001,93.63333c-0.00117,0.23933 0.46433,1.2 0.58133,1.2c0.08867,0 -0.0675,-0.4285 -0.364,-1c-0.119,-0.22917 -0.21667,-0.31917 -0.21733,-0.2M48.90667,94.11717c0.1675,0.43667 -0.82633,2.2445 -2.36283,4.298c-0.755,1.00917 -1.6455,2.351 -1.97883,2.98183c-0.53667,1.01533 -0.595,1.24217 -0.50783,1.9775c0.13067,1.103 1.63833,4.22367 3.14167,6.503l1.1835,1.79433l0.448,-0.87767c0.24633,-0.48267 0.86767,-1.5655 1.38083,-2.40633c0.513,-0.841 1.43217,-2.4725 2.04233,-3.62583c0.61,-1.15317 1.18383,-2.05067 1.275,-1.99433c0.09117,0.05633 0.42717,0.511 0.7465,1.01033l0.58083,0.90783l-0.486,1.032c-0.26717,0.56767 -1.00833,1.85717 -1.64683,2.8655c-0.63833,1.00833 -1.52317,2.50833 -1.96583,3.33333c-0.44283,0.825 -0.90617,1.58283 -1.02967,1.684c-0.18783,0.15383 -0.1805,0.4045 0.04517,1.52917c0.403,2.00983 0.3655,2.07517 -1.564,2.714c-2.02467,0.67033 -3.68567,1.43433 -6.4425,2.96333c-1.18283,0.65617 -2.23867,1.19283 -2.3465,1.19283c-0.20717,0 -0.1785,-0.34333 0.34017,-4.08333c0.347,-2.50033 0.33583,-2.47083 0.81333,-2.158c0.7075,0.46367 1.454,0.59517 1.86133,0.32833c0.45567,-0.29867 0.64783,-0.8815 0.976,-2.96017c0.29767,-1.88583 0.31033,-2.14167 0.10417,-2.08517c-0.17117,0.047 -0.74933,-0.31183 -1.20883,-0.75c-0.3775,-0.36 -0.4525,-0.36133 -0.83433,-0.01583c-0.28867,0.26117 -0.30483,0.25017 -0.30333,-0.20833c0.00167,-0.58983 1.1455,-7.07017 1.728,-9.79167c0.66633,-3.112 1.29633,-4.12283 3.2985,-5.29217c0.98933,-0.57783 2.131,-1.09867 2.49583,-1.13867c0.059,-0.00633 0.15617,0.116 0.21617,0.27217M65.67117,96.50633c0.38883,0.54617 0.5015,0.58767 0.7955,0.29367c0.271,-0.271 0.25317,-0.52267 -0.02933,-0.41433c-0.126,0.04833 -0.42917,-0.01583 -0.6735,-0.1425l-0.44417,-0.2305l0.3515,0.49367M196.451,96.56883c1.59583,0.50217 3.12833,2.07 3.5715,3.654c0.33617,1.20167 0.26233,3.70483 -0.14833,5.03417c-0.64383,2.08333 -2.2165,4.06483 -3.7705,4.75033c-1.76583,0.779 -5.6255,0.86767 -7.46233,0.17133c-2.97567,-1.128 -4.09367,-3.06567 -4.26433,-7.39083l-0.0905,-2.2955l0.62017,-1.25483c0.92633,-1.87433 2.05117,-2.55767 4.7635,-2.89317c1.86917,-0.23133 5.73967,-0.103 6.78083,0.2245M220.91667,96.59267c2.36833,0.47567 5.16633,2.274 5.90167,3.79317c0.42333,0.87417 0.45933,2.33833 0.10333,4.1985c-0.8825,4.61217 -4.0405,6.78983 -9.47683,6.53433c-1.1425,-0.05367 -2.425,-0.21667 -2.937,-0.3735c-2.37383,-0.72667 -4.08067,-2.58883 -4.75867,-5.19183c-0.32833,-1.26033 -0.32,-3.69567 0.01667,-4.8955c0.99617,-3.55017 5.51383,-5.19717 11.15083,-4.06517M178.95483,98.26733c-0.05533,0.05533 -0.19917,0.06133 -0.31933,0.01317c-0.133,-0.05317 -0.0935,-0.09267 0.10067,-0.10067c0.17567,-0.00717 0.274,0.03217 0.21867,0.0875M192.913,98.9785c-1.9385,0.88067 -2.969,3.1905 -2.559,5.736c0.30233,1.87733 1.55133,3.544 2.9755,3.97067c1.43983,0.43133 3.427,-0.70083 4.1885,-2.38617c0.34267,-0.75867 0.3985,-1.13933 0.39867,-2.71567c0,-1.573 -0.05233,-1.93117 -0.3685,-2.52233c-0.74367,-1.39033 -2.15567,-2.387 -3.3815,-2.387c-0.32083,0 -0.885,0.137 -1.25367,0.3045M215.65117,99.30733c-0.99333,0.62983 -1.882,1.69367 -2.14417,2.56633c-0.51283,1.70733 -0.08583,4.38283 0.8715,5.4615c1.72483,1.94333 3.92633,2.11517 5.7435,0.44817c1.32133,-1.21217 1.75183,-2.81083 1.31783,-4.89267c-0.31517,-1.5115 -0.74033,-2.33817 -1.60317,-3.11783c-0.8635,-0.78017 -1.2845,-0.9395 -2.4815,-0.9395c-0.76483,0 -1.10633,0.095 -1.704,0.474M178.66667,99.5c0,0.09167 0.0705,0.16667 0.15683,0.16667c0.08633,0 0.20317,-0.075 0.25983,-0.16667c0.05667,-0.09167 -0.014,-0.16667 -0.15683,-0.16667c-0.14283,0 -0.25983,0.075 -0.25983,0.16667M72.11283,100.54167c1.17533,1.8485 2.0795,3.80767 2.17233,4.7065c0.127,1.2305 -0.15517,1.21617 -1.31283,-0.0665c-1.14017,-1.26317 -1.97833,-2.6565 -2.08733,-3.46983c-0.09083,-0.67667 0.29583,-1.8785 0.60433,-1.8785c0.09533,0 0.37583,0.31883 0.6235,0.70833M194.79167,100.74717c0.84533,0.90733 0.71067,2.26033 -0.3175,3.18933c-1.2185,1.101 -3.13833,0.1105 -3.14017,-1.62017c-0.00133,-1.19967 1.33033,-2.43417 2.416,-2.24c0.275,0.04917 0.74383,0.351 1.04167,0.67083M217.517,100.54717c1.1825,0.79433 1.24617,2.49733 0.13467,3.60883c-0.91583,0.91583 -2.02017,0.94367 -2.8395,0.07133c-0.33633,-0.35783 -0.3955,-0.59083 -0.3955,-1.55667c0,-1.236 0.18783,-1.58933 1.16667,-2.19383c0.66617,-0.4115 1.248,-0.39033 1.93367,0.07033M49.49133,100.91867c0.13417,0.274 0.27067,0.9855 0.3035,1.58133c0.07617,1.3865 -0.43967,2.552 -1.16667,2.63583c-0.38517,0.04433 -0.53267,-0.06967 -0.95833,-0.741c-0.27817,-0.43867 -0.50317,-1.02217 -0.50317,-1.305c0,-0.939 1.26783,-2.82567 1.82667,-2.718c0.13967,0.02683 0.36383,0.273 0.498,0.54683M180.59017,101.54167c0.09767,0.25583 0.38,5.51467 0.30117,5.6105c-0.03117,0.03767 -0.538,-0.3935 -1.12617,-0.95833c-0.5925,-0.569 -1.22033,-1.02717 -1.4075,-1.02717c-0.186,0 -0.38017,-0.06817 -0.43167,-0.15167c-0.1725,-0.279 0.52567,-1.60633 1.3935,-2.64917c0.86517,-1.0395 1.12417,-1.2075 1.27067,-0.82417M241.97083,101.95467c1.35083,1.087 1.864,2.43017 1.85967,4.86733c-0.0035,1.93317 -0.32417,3.54217 -0.98917,4.96317c-1.34583,2.87583 -3.1055,4.44583 -5.462,4.87317c-1.70333,0.30883 -3.40983,-0.37833 -4.211,-1.69567c-0.2895,-0.47617 -0.332,-0.49583 -0.43717,-0.20333c-2.4405,6.78167 -5.98633,10.87833 -12.02383,13.8915c-2.64283,1.319 -4.53967,1.87717 -8.20733,2.415c-5.55933,0.81517 -9.16467,0.6105 -13.48433,-0.7655c-2.1295,-0.67833 -6.46633,-2.77517 -7.82317,-3.78233c-1.26633,-0.94017 -3.47267,-3.1635 -4.4895,-4.52433c-1.44617,-1.93533 -3.01533,-5.818 -3.702,-9.16033c-0.364,-1.77183 -0.825,-6.15267 -0.82417,-7.83333c0.00033,-0.81383 0.02617,-0.88267 0.22983,-0.614c0.12617,0.1665 0.35733,0.8415 0.51383,1.5c0.3975,1.67467 1.25367,3.3975 2.12967,4.28617c3.02033,3.06367 10.29767,3.1895 13.746,0.23767c0.87883,-0.75217 1.9585,-2.91067 2.67917,-5.35617c0.61117,-2.073 0.738,-2.31867 1.41033,-2.72867c0.85017,-0.51833 2.06483,-0.435 3.5315,0.24267c1.165,0.53833 1.2335,0.60067 1.3265,1.20833c0.55433,3.623 1.08583,4.91033 2.69367,6.5225c1.21567,1.21917 2.74683,2.00483 4.77833,2.45217c1.97433,0.43467 5.59883,0.28433 7.24183,-0.3005c2.64067,-0.93983 4.21433,-2.15133 5.12267,-3.94383c0.54683,-1.07933 1.2315,-3.417 1.35967,-4.64267c0.07367,-0.7045 0.19617,-1.09117 0.37633,-1.187c0.147,-0.07833 0.93583,-0.22383 1.75333,-0.3235c2.04383,-0.24917 1.98967,-0.32 1.84333,2.41083c-0.11233,2.097 -0.1015,2.214 0.23483,2.55033c0.76217,0.76217 1.32233,0.27867 2.51417,-2.17067c0.79133,-1.62617 1.03917,-1.98217 1.75483,-2.52c1.812,-1.36183 3.4025,-1.5955 4.55417,-0.669M178.523,106.54167c0.50167,0.79567 0.55717,1.014 0.6135,2.40933c0.069,1.7115 0.2395,2.034 0.84983,1.6065c0.34367,-0.24083 0.3695,-0.352 0.26817,-1.16183c-0.11433,-0.9155 0.0115,-1.092 0.53933,-0.757c0.3215,0.20417 1.40283,6.72033 1.15617,6.96683c-0.19133,0.19133 -1.58833,-0.76933 -2.27267,-1.56267c-0.72533,-0.841 -1.38217,-2.07933 -1.778,-3.3525c-0.459,-1.4765 -0.5085,-5.02367 -0.07017,-5.02367c0.07833,0 0.3905,0.39367 0.69383,0.875M239.04533,105.93017c-1.33433,0.681 -2.5155,2.54767 -2.96183,4.68067c-0.20167,0.96383 -0.20317,1.17417 -0.01017,1.36717c0.33583,0.336 0.54933,0.121 1.192,-1.1995c0.3185,-0.65417 0.64833,-1.25883 0.73317,-1.34367c0.254,-0.254 0.6855,0.23933 1.18683,1.35683c0.42967,0.9575 0.81217,1.28367 1.0515,0.89633c0.11517,-0.1865 -0.6515,-2.836 -0.88983,-3.07433c-0.30067,-0.30067 -0.2045,-0.69567 0.278,-1.14133c0.616,-0.569 0.923,-0.65483 1.52717,-0.42683c0.3935,0.1485 0.55667,0.14567 0.71467,-0.01233c0.16217,-0.16217 0.09717,-0.31267 -0.31067,-0.72067c-0.63883,-0.63883 -1.6935,-0.79933 -2.51083,-0.38233M202.0965,107.2125c-1.7235,1.8065 -2.10967,4.27017 -0.877,5.59533c0.65633,0.70583 1.61317,1.09383 2.69717,1.09383c1.1895,0 2.02233,-0.38533 2.98667,-1.38183c0.559,-0.57767 0.6115,-0.69117 0.36433,-0.78617c-0.31533,-0.121 -0.71367,0.05167 -1.584,0.6865c-0.4395,0.32067 -0.77083,0.41317 -1.48017,0.41317c-0.857,0 -0.9595,-0.0455 -1.64217,-0.728c-0.70233,-0.7025 -0.728,-0.7645 -0.728,-1.75667c0,-1.16733 0.3475,-2.004 1.17717,-2.8335c0.429,-0.429 0.48667,-0.56783 0.31933,-0.76933c-0.31183,-0.37567 -0.49633,-0.30583 -1.23333,0.46667M88.09617,108.375c-0.1345,0.20617 -0.44367,0.81033 -0.68683,1.3425c-0.38017,0.832 -0.415,1.03317 -0.248,1.4365c0.21667,0.52283 1.0935,1.4075 1.55633,1.57017c0.59783,0.21017 1.44483,-1.14617 1.448,-2.31883c0.00183,-0.67367 -0.514,-2.06833 -0.827,-2.23583c-0.51167,-0.27383 -0.98017,-0.19633 -1.2425,0.2055M88.7785,109.1105c-0.04933,0.04917 -0.17767,0.03517 -0.28517,-0.03133c-0.145,-0.08967 -0.13717,-0.15717 0.0305,-0.26133c0.22233,-0.138 0.43767,0.1095 0.25467,0.29267M83.63933,112.45733c-0.953,1.12733 -1.487,1.876 -1.338,1.876c0.19333,0 1.7615,-1.99283 1.65333,-2.101c-0.03733,-0.03717 -0.17917,0.064 -0.31533,0.225M85.5,114.313c0,0.08033 0.12483,0.24917 0.27733,0.375c0.25133,0.20733 0.25867,0.19367 0.0775,-0.14633c-0.20667,-0.38783 -0.35483,-0.48333 -0.35483,-0.22867M213.141,116.00433c-1.17683,0.68717 -6.62483,1.324 -11.34933,1.327c-3.58233,0.00233 -3.54267,-0.019 -2.60067,1.403c0.612,0.924 1.85933,1.9135 3.14767,2.49683c2.739,1.24033 6.873,0.78533 8.97383,-0.98783c1.09283,-0.92233 2.15033,-2.36333 2.42317,-3.30217c0.14533,-0.5 0.26433,-0.95383 0.26433,-1.0085c0,-0.15367 -0.55167,-0.10767 -0.859,0.07167M81.33333,117.088c3.586,0.44267 8.02067,1.25683 9.61133,1.7645c2.61417,0.83433 3.75117,1.84733 3.9415,3.51117c0.42933,3.75483 0.52283,6.04283 0.5265,12.88633c0.00383,7.07333 -0.0175,7.6185 -0.37283,9.58333c-1.22417,6.767 -4.305,11.69033 -9.42617,15.064c-2.224,1.465 -3.40167,2.072 -5.8555,3.01767c-4.21683,1.62533 -7.58383,2.05033 -11.87467,1.49883c-5.97567,-0.76817 -9.43683,-1.95033 -13.48383,-4.60567c-3.99133,-2.61867 -6.35233,-5.4885 -7.8465,-9.53783c-0.30867,-0.83617 -0.634,-1.69183 -0.723,-1.90133l-0.16183,-0.381l-0.87583,0.64633c-1.48283,1.09433 -2.64867,1.356 -4.20917,0.945c-1.372,-0.36133 -2.31983,-0.94867 -3.5145,-2.17767c-3.13733,-3.22783 -3.961,-9.46267 -1.6955,-12.83417c0.55933,-0.8325 1.39233,-1.50233 2.08417,-1.676c0.26467,-0.06633 0.75067,0.08217 1.48117,0.453c1.44517,0.7335 3.069,2.48367 4.48517,4.83417c0.60133,0.998 1.25617,1.9285 1.45517,2.06783c0.56117,0.39317 1.33483,0.319 1.79617,-0.17233c0.38833,-0.41317 0.401,-0.5125 0.43217,-3.375c0.03867,-3.55767 0.165,-5.48233 0.48383,-7.36583c0.669,-3.95333 2.40183,-8.25483 3.63167,-9.015c1.941,-1.20017 11.27917,-3.024 18.19383,-3.5535c1.84483,-0.14133 9.931,0.078 11.91667,0.32317M212.66667,117.14267c0,0.29967 -1.22583,1.72967 -2.0225,2.35933c-1.15767,0.91517 -2.6365,1.34617 -4.64417,1.3535c-2.11967,0.00783 -3.573,-0.44067 -4.78583,-1.47683c-0.4845,-0.41383 -0.88083,-0.81833 -0.88083,-0.89883c0,-0.08067 1.4925,-0.1465 3.31683,-0.1465c3.55733,0 6.24917,-0.328 8.04067,-0.97967c0.49083,-0.17867 0.91117,-0.33117 0.93417,-0.33917c0.023,-0.008 0.04167,0.04967 0.04167,0.12817M83.5455,122.08433c-1.51283,0.767 -2.1275,1.951 -1.4755,2.84217c0.216,0.295 0.45417,0.3235 2.70833,0.3235c2.9195,0 3.36417,0.14483 5.04267,1.6425c0.58,0.5175 1.11417,0.94083 1.18717,0.94083c0.2485,0 1.14017,-0.84667 1.2475,-1.18433c0.17033,-0.53683 -0.66117,-2.01133 -1.67517,-2.97033c-1.35833,-1.2845 -2.783,-1.88617 -4.66383,-1.9695c-1.36467,-0.0605 -1.57867,-0.02667 -2.37117,0.37517M60.20433,122.02333c-1.12717,0.18183 -2.3655,0.81233 -3.32967,1.6955c-1.69117,1.549 -2.15917,3.05267 -1.2765,4.10167c0.23733,0.282 0.508,0.51283 0.60167,0.51283c0.0935,0 0.58483,-0.379 1.09167,-0.84233c1.766,-1.614 3.4505,-2.154 5.66983,-1.8175l1.277,0.1935l0.38083,-0.44283c0.25617,-0.29783 0.38083,-0.656 0.38083,-1.09433c0,-1.63767 -2.24567,-2.71767 -4.79567,-2.3065M192.33333,128.98217c0,0.08183 -0.11867,0.19433 -0.26367,0.25c-0.4645,0.17833 -15.56967,0.11633 -15.56967,-0.06383c0,-0.10583 2.735,-0.18117 7.625,-0.21c4.19367,-0.02483 7.75617,-0.06317 7.91667,-0.085c0.1605,-0.022 0.29167,0.027 0.29167,0.10883M194.09683,130.76333c0.284,0.726 1.401,3.1575 2.48217,5.40333c1.08117,2.24583 2.56117,5.43333 3.289,7.08333c0.728,1.65 2.14283,4.62867 3.14433,6.61917c1.0015,1.9905 1.821,3.8 1.821,4.02117c0,0.22117 -0.10217,0.487 -0.22717,0.59067c-0.18333,0.15217 -0.30033,-0.01283 -0.6065,-0.8545c-0.20867,-0.57383 -0.97717,-2.28067 -1.70767,-3.79317c-5.05633,-10.46817 -8.962,-19.0225 -9.0845,-19.89717c-0.1515,-1.08083 0.31083,-0.65083 0.88933,0.82717M192.60767,130.79167c1.17283,2.84817 2.36383,5.538 3.92967,8.875c1.01083,2.15417 2.09817,4.51667 2.41617,5.25c0.318,0.73333 1.46383,3.17083 2.54633,5.41667c1.08233,2.24583 2.01483,4.24283 2.072,4.43767c0.0805,0.274 0.018,0.3775 -0.2755,0.456c-0.52183,0.13983 -15.11183,0.101 -15.62967,-0.0415c-0.6355,-0.175 -1.27267,-1.50033 -1.50367,-3.12817c-0.107,-0.75417 -0.15167,-1.441 -0.099,-1.52617c0.05267,-0.08517 0.3035,-0.1965 0.5575,-0.24733c0.7915,-0.1585 1.87933,-1.07683 2.239,-1.88967c0.53867,-1.218 0.46517,-2.49867 -0.26567,-4.62933c-0.65317,-1.90367 -1.49133,-3.2645 -2.41667,-3.92333c-0.7005,-0.49883 -1.64033,-0.61967 -3.5575,-0.45717c-1.43933,0.122 -1.6905,0.10417 -1.9605,-0.14017c-0.306,-0.277 -4.21017,-7.97817 -4.41167,-8.7025l-0.10433,-0.375h8.10317h8.103l0.25733,0.625M197.0775,131.087c0.6385,0.20783 1.18233,0.44233 1.2085,0.52083c0.02617,0.07867 -0.40567,0.42617 -0.9595,0.7725l-1.00717,0.6295l-0.387,-0.87983c-0.213,-0.484 -0.4435,-1.06017 -0.51233,-1.28017c-0.10817,-0.34617 -0.08317,-0.38267 0.18583,-0.2705c0.171,0.07133 0.83317,0.29967 1.47167,0.50767M59.4095,131.47717c-0.6755,0.412 -1.37933,1.2685 -1.798,2.18817c-0.276,0.60617 -0.34383,1.1055 -0.35183,2.58467c-0.00833,1.595 0.03917,1.92483 0.36633,2.537c0.82217,1.5385 2.11883,2.539 3.29067,2.539c1.3165,0 3.13967,-1.58533 3.687,-3.206c0.81483,-2.4125 -0.23133,-5.73517 -2.11217,-6.70767c-0.69183,-0.35783 -2.44967,-0.32083 -3.082,0.06483M82.805,131.5045c-1.115,0.589 -1.8765,2.16317 -2.07383,4.28717c-0.14267,1.5345 0.20917,2.7375 1.0945,3.7435c1.251,1.42117 2.81733,1.7175 4.20817,0.79633c1.37333,-0.90967 1.96367,-2.18917 1.96517,-4.2595c0.00133,-1.53833 -0.349,-2.67 -1.0965,-3.54333c-1.13317,-1.32383 -2.76017,-1.7305 -4.0975,-1.02417M213.67017,134.34683c-1.144,1.10583 -3.11533,2.80233 -4.38083,3.77017c-2.32767,1.78017 -2.62267,2.0845 -2.62267,2.70533c0,0.18933 -0.05633,0.34183 -0.125,0.33867c-0.18,-0.00817 -1.43767,-2.23583 -1.926,-3.411c-0.37867,-0.91167 -1.11567,-3.884 -1.11567,-4.4995c0,-0.222 0.29867,-0.2415 2.29167,-0.14983c2.17367,0.1 6.1585,-0.17133 8.625,-0.5875c0.45833,-0.07733 0.94583,-0.14867 1.08333,-0.15867c0.1375,-0.00983 -0.686,0.88667 -1.82983,1.99233M60.8205,133.09817c0.432,0.3635 0.51283,0.549 0.51283,1.17767c0,1.29867 -0.7005,2.22417 -1.68367,2.22417c-2.0105,0 -1.639,-3.74633 0.37917,-3.82283c0.1535,-0.00567 0.50967,0.18367 0.79167,0.421M84.21667,133.26217c0.583,0.583 0.69167,1.21033 0.35533,2.05067c-0.67883,1.69683 -2.30367,1.80267 -2.741,0.1785c-0.50433,-1.87283 1.17383,-3.441 2.38567,-2.22917M98.63167,135.24617c0.66717,0.56133 1.142,1.74067 1.38917,3.45017c0.178,1.2305 0.1685,1.62217 -0.068,2.82233c-0.15183,0.77133 -0.535,1.92083 -0.858,2.57417c-0.63833,1.29167 -1.8915,2.84383 -2.11533,2.62c-0.14,-0.14 0.45117,-7.36567 0.61617,-7.53067c0.04733,-0.04733 0.243,0.01167 0.43467,0.13133c0.29867,0.18667 0.4105,0.17133 0.784,-0.1075c0.69017,-0.51533 0.56417,-0.791 -0.356,-0.77883l-0.79167,0.0105v-1.80217c0,-2.00733 0.085,-2.12983 0.965,-1.38933M75,135.98617c0,0.17567 0.3765,1.0945 0.83667,2.04167c1.03633,2.13283 1.18567,3.09233 0.62917,4.04083c-0.547,0.93217 -1.42483,1.33933 -2.88067,1.33617c-0.91433,-0.002 -1.38133,-0.10083 -2.147,-0.45367c-1.16933,-0.53917 -1.5335,-0.56267 -1.77317,-0.11467c-0.225,0.42033 0.06633,1.0825 0.66833,1.51883c1.5255,1.106 5.42817,1.04133 6.94417,-0.115c1.99933,-1.52483 1.43617,-5.0745 -1.25367,-7.902c-0.6985,-0.73433 -1.02383,-0.84617 -1.02383,-0.35217M86.57383,137.20383c0.34817,0.49683 0.32683,0.83233 -0.086,1.357c-0.71433,0.90817 -1.988,0.29183 -1.7255,-0.83483c0.061,-0.26183 0.22883,-0.56967 0.37283,-0.68433c0.4205,-0.3345 1.14833,-0.25267 1.43867,0.16217M36.54167,138.00133c-0.54317,0.22383 -0.46733,0.41283 0.36033,0.898c0.4045,0.237 0.96083,0.6205 1.23633,0.85233l0.50083,0.4215l-0.50383,0.977c-0.608,1.179 -0.83783,2.97433 -0.4245,3.31733c0.2135,0.17717 0.34517,0.01717 0.89483,-1.0875c0.37067,-0.74517 0.765,-1.31783 0.9285,-1.34833c0.30767,-0.05767 0.39383,0.03067 1.55617,1.59617c0.91967,1.23867 1.33383,1.5195 1.70017,1.153c0.65117,-0.65117 -0.52967,-3.4985 -2.12867,-5.1325c-1.318,-1.347 -3.11,-2.06333 -4.12017,-1.647M188.85883,139.125c-0.46833,0.39633 -0.61783,1.091 -0.29283,1.36067c0.4175,0.34633 1.46983,0.40683 2.14833,0.12333c0.50783,-0.21217 0.619,-0.3435 0.619,-0.73117c0,-0.60133 -0.86283,-1.19917 -1.25767,-0.87133c-0.17083,0.14167 -0.24233,0.14583 -0.24233,0.01383c0,-0.28567 -0.58767,-0.22267 -0.9745,0.10467M185.001,140.41717c0.2665,0.13783 0.75033,0.59867 1.07517,1.024c0.651,0.85267 0.7715,1.60767 0.29883,1.87217c-0.258,0.1445 -0.23767,0.18383 0.1775,0.34167c0.258,0.098 0.53383,0.17833 0.613,0.17833c0.079,0 0.29917,0.19767 0.489,0.43917c0.38533,0.48967 0.456,1.15333 0.13717,1.28733c-0.14917,0.06267 -0.1255,0.13983 0.08333,0.27217c0.40667,0.25733 0.38017,1.38183 -0.0505,2.14817c-1.04317,1.856 -3.505,1.9355 -5.2935,0.171c-1.2475,-1.23067 -1.88483,-2.974 -1.914,-5.2345c-0.01983,-1.55067 0.1015,-2.00983 0.60267,-2.27917c0.9275,-0.49833 3.00917,-0.61967 3.78133,-0.22033M191.08417,140.99633c-0.14217,0.64717 0.01967,1.128 0.42283,1.25583c0.70933,0.22517 0.86133,-0.336 0.32817,-1.2105c-0.41017,-0.67267 -0.61067,-0.68467 -0.751,-0.04533M210.82217,141.16783c2.93583,-0.29933 5.214,-0.16167 6.41383,0.38767c1.82333,0.83467 3.97217,2.67767 4.14767,3.55733c0.29833,1.49417 -1.341,5.8945 -2.87617,7.7205c-0.41933,0.49883 -0.53383,0.5545 -0.79067,0.38383c-1.038,-0.68967 -2.29717,-1.39767 -2.63817,-1.48317c-0.67667,-0.16983 -0.8085,-0.48767 -0.3315,-0.80017c0.541,-0.3545 0.5715,-0.84117 0.0445,-0.70983c-1.62883,0.40583 -2.69083,0.2335 -2.59483,-0.421c0.04183,-0.2855 0.3205,-0.45967 1.30317,-0.81417c1.1515,-0.4155 1.5975,-0.80583 1.20067,-1.05117c-0.083,-0.05133 -0.603,-0.00933 -1.1555,0.0935c-1.35517,0.252 -1.48133,0.18283 -1.4055,-0.77017c0.05517,-0.69233 0.13467,-0.8275 0.71117,-1.209c0.77633,-0.51383 0.87967,-0.96667 0.19083,-0.8365c-0.25217,0.04767 -0.63267,0.14133 -0.8455,0.20817c-0.3585,0.1125 -0.38333,0.08 -0.33333,-0.4385c0.04733,-0.4925 0.16417,-0.61583 0.9705,-1.02383c0.57383,-0.29033 1.32183,-0.504 2,-0.57133c1.10967,-0.11017 1.32633,-0.2385 1.33083,-0.788c0.00233,-0.29133 -0.09283,-0.30617 -1.28917,-0.19917c-1.53567,0.13733 -3.28833,0.51317 -4.513,0.96783l-0.888,0.32967l-0.362,-0.34283c-0.527,-0.49917 -1.1695,-1.80067 -1.04683,-2.1205c0.087,-0.22633 0.15033,-0.23733 0.36067,-0.06267c0.2065,0.17133 0.664,0.17017 2.39633,-0.0065M63.82567,146.34767c-0.295,0.55133 -0.37717,1.98167 -0.17567,3.06283c0.6855,3.67933 4.07417,6.42283 7.93333,6.42283c2.55317,0 5.52033,-1.48433 7.002,-3.50267c0.68583,-0.93417 1.45283,-2.86783 1.3815,-3.48217l-0.05017,-0.43183l-3.216,-0.19817c-1.769,-0.10883 -3.794,-0.28367 -4.5,-0.38817c-1.44717,-0.2145 -5.8505,-1.18767 -7.11733,-1.57317c-1.05633,-0.32133 -1.0365,-0.32283 -1.25767,0.0905M66.30533,148.1685c2.42267,0.75933 7.653,1.49817 10.60683,1.49817c0.6595,0 1.2455,0.04667 1.3025,0.10367c0.24683,0.24667 -1.13967,2.44383 -1.93867,3.07233l-0.44233,0.34783l-2.54183,-0.43767c-3.10167,-0.53417 -6.18817,-1.20817 -6.91483,-1.51c-0.59617,-0.24767 -1.243,-1.4565 -1.457,-2.72283c-0.13733,-0.81283 -0.10917,-0.82 1.38533,-0.3515M201.6945,163.15133c6.86917,1.21367 9.3005,1.392 12.72217,0.93383c2.172,-0.291 6.83233,-1.11067 8.55333,-1.50467c0.67117,-0.1535 1.2695,-0.23 1.32967,-0.16967c0.06033,0.06017 0.23733,0.98617 0.39333,2.05767c0.25517,1.75317 0.25783,1.968 0.0265,2.147c-0.345,0.26683 -3.35583,0.96117 -5.7195,1.319c-2.47133,0.37417 -13.206,0.44217 -15.58333,0.09883c-5.23,-0.7555 -10.87717,-1.92717 -11.29317,-2.34317c-0.13033,-0.13033 0.32983,-3.16767 0.63717,-4.20583c0.06883,-0.23233 0.4505,-0.17683 3.034,0.4405c1.6255,0.3885 4.28033,0.9405 5.89983,1.2265M48.75,163.66667c-0.05667,0.09167 -0.1735,0.16667 -0.25983,0.16667c-0.08633,0 -0.15683,-0.075 -0.15683,-0.16667c0,-0.09167 0.117,-0.16667 0.25983,-0.16667c0.14283,0 0.2135,0.075 0.15683,0.16667M48.16667,164.16667c0,0.09167 -0.0795,0.16667 -0.1765,0.16667c-0.097,0 -0.13017,-0.075 -0.0735,-0.16667c0.05667,-0.09167 0.136,-0.16667 0.1765,-0.16667c0.0405,0 0.0735,0.075 0.0735,0.16667M51.894,165.44c0.14733,1.07467 0.1285,6.26667 -0.02367,6.50583c-0.08717,0.137 -1.18483,0.21217 -3.6535,0.25l-3.529,0.05417l-0.50283,0.48217c-0.82367,0.78967 -1.01833,1.39183 -1.01833,3.15033c0,1.40433 0.07767,2.50817 0.4205,5.98167l0.09367,0.94767l-1.18167,0.11633c-0.96167,0.09483 -1.17217,0.16667 -1.13033,0.38583c0.03967,0.2085 0.29533,0.28067 1.13283,0.31983c0.595,0.02767 1.14333,0.11183 1.2185,0.18683c0.07533,0.075 0.31417,1.66483 0.53083,3.53283c0.21667,1.86817 0.58517,5.0465 0.819,7.06317c0.23383,2.01667 0.47033,3.948 0.52567,4.29167c0.05517,0.34383 0.05067,0.625 -0.01017,0.625c-0.262,0 -2.61367,-1.63483 -3.87583,-2.6945c-2.33417,-1.95967 -4.06367,-4.42567 -4.6145,-6.5795c-0.34883,-1.3645 -0.3275,-3.37183 0.05133,-4.80933c1.3625,-5.17167 5.85367,-12.708 10.17583,-17.07567c1.508,-1.524 3.96683,-3.50767 4.34783,-3.50767c0.06483,0 0.1655,0.348 0.22383,0.77333M84.6495,165.24567c3.80583,0.96467 6.7825,2.229 9.39667,3.99083c1.56583,1.0555 3.78717,2.72917 3.78717,2.85383c0,0.03283 -2.764,0.0635 -6.14233,0.068l-6.14217,0.00817l-0.60217,-1.878c-0.331,-1.033 -0.9795,-2.65017 -1.441,-3.59383c-0.4615,-0.94367 -0.839,-1.7485 -0.839,-1.7885c0,-0.1345 0.348,-0.075 1.98283,0.3395M62.142,165.61767c0.39883,0.229 0.99883,0.69117 1.33333,1.02717c0.94333,0.948 4.69133,5.33933 4.69133,5.49683c0,0.11183 -3.88183,0.08533 -4.37617,-0.02967c-0.24217,-0.0565 -3.12383,-6.46067 -3.12383,-6.94267c0,-0.25117 0.54583,-0.08533 1.47533,0.44833M69.16667,166.7595c1.5125,0.05417 3.5,0.03 4.41667,-0.054c0.91667,-0.084 1.697,-0.12817 1.73383,-0.098c0.1155,0.094 -2.348,3.2465 -3.46233,4.43083c-0.6725,0.7145 -1.19333,1.12833 -1.42033,1.12833c-0.48433,0 -2.81983,-2.397 -5.26083,-5.39933c-0.247,-0.30367 -0.22767,-0.312 0.493,-0.21133c0.4125,0.0575 1.9875,0.14917 3.5,0.2035M77.056,166.739c0.10717,0.27933 0.379,2.33517 0.53217,4.02667l0.10717,1.18217l-2.46817,0.1c-1.3575,0.055 -2.49667,0.0715 -2.53167,0.03667c-0.03483,-0.035 0.42017,-0.687 1.01117,-1.449c0.591,-0.762 1.505,-2.00417 2.03117,-2.7605c0.97533,-1.40183 1.15633,-1.55783 1.31817,-1.136M38.94717,176.36467c-0.05317,0.13283 -0.09267,0.09333 -0.10067,-0.10083c-0.00717,-0.17567 0.03217,-0.274 0.0875,-0.21867c0.05533,0.05533 0.06133,0.19917 0.01317,0.3195M74.5155,187.55117c0.45083,0.236 0.94367,0.69383 1.27617,1.1855c0.45383,0.67117 0.54167,0.95483 0.54167,1.7495c0,1.26583 -0.62383,2.53717 -1.54367,3.14583c-0.89917,0.595 -2.59,0.71033 -3.45217,0.23533c-1.38467,-0.76283 -2.1095,-2.55033 -1.67033,-4.119c0.59467,-2.12433 2.94917,-3.19133 4.84833,-2.19717M40,198.83333c0,0.09167 -0.0705,0.16667 -0.15683,0.16667c-0.08633,0 -0.20317,-0.075 -0.25983,-0.16667c-0.05667,-0.09167 0.014,-0.16667 0.15683,-0.16667c0.14283,0 0.25983,0.075 0.25983,0.16667M40.41667,199.33333c0.05667,0.09167 0.0235,0.16667 -0.0735,0.16667c-0.097,0 -0.1765,-0.075 -0.1765,-0.16667c0,-0.09167 0.033,-0.16667 0.0735,-0.16667c0.0405,0 0.11983,0.075 0.1765,0.16667M41,199.66667c0,0.09167 -0.075,0.16667 -0.16667,0.16667c-0.09167,0 -0.16667,-0.075 -0.16667,-0.16667c0,-0.09167 0.075,-0.16667 0.16667,-0.16667c0.09167,0 0.16667,0.075 0.16667,0.16667M41.58333,200.5c0.05667,0.09167 0.0235,0.16667 -0.0735,0.16667c-0.097,0 -0.1765,-0.075 -0.1765,-0.16667c0,-0.09167 0.033,-0.16667 0.0735,-0.16667c0.0405,0 0.11983,0.075 0.1765,0.16667M42.5,201.5735c0,0.17583 -0.31983,0.24983 -0.415,0.09583c-0.0575,-0.09317 0.01233,-0.16933 0.15517,-0.16933c0.14283,0 0.25983,0.033 0.25983,0.0735M46.07867,202.95833c0.06283,0.1605 0.1705,1.4375 0.2395,2.838c0.12067,2.45367 0.14317,2.572 0.61617,3.25c0.92167,1.32133 0.73283,1.2935 8.68733,1.27917l7.03833,-0.01283l0.71167,0.48867c0.98317,0.67517 2.98933,1.68183 6.71167,3.368l3.16667,1.43467l-0.03567,0.573c-0.01967,0.31517 -0.60783,2.373 -1.30683,4.573c-0.69917,2.2 -1.3105,4.13117 -1.35867,4.29167c-0.12483,0.41533 -0.32783,0.36117 -0.312,-0.08333c0.01283,-0.367 -0.02083,-0.37383 -1.57017,-0.32367c-0.87083,0.02833 -3.04583,0.21217 -4.83333,0.40883c-4.64733,0.511 -7.37217,0.48117 -9.91667,-0.10883c-3.82867,-0.88783 -7.79067,-2.31217 -10.41667,-3.74483c-3.28717,-1.79333 -5.5,-5.0945 -5.5,-8.205c0,-2.09967 1.23967,-5.323 2.78233,-7.23483c0.89567,-1.11 2.4125,-2.21217 3.754,-2.72767c1.09667,-0.42133 1.39733,-0.43383 1.54233,-0.064M39.72717,204.70833c-0.06933,0.11467 -0.45933,0.69583 -0.86683,1.29167c-1.03733,1.51633 -1.6755,3.00117 -2.04183,4.75c-0.60783,2.90283 -0.3145,5.17867 1.00433,7.7915l0.82017,1.62483l-0.4465,0.10133c-2.84717,0.64633 -4.40017,1.17883 -10.77983,3.69683c-4.62917,1.827 -6.97683,2.70217 -7.24917,2.70217c-0.1275,0 -0.159,-0.10867 -0.08483,-0.29167c0.466,-1.14917 0.749,-2.1945 0.83583,-3.08633c0.1765,-1.81517 0.16183,-1.78867 0.981,-1.78867c0.78583,0 1.17233,-0.28567 0.99867,-0.73817c-0.08933,-0.23267 -0.25333,-0.26267 -0.96117,-0.17583l-0.85367,0.10483l-0.66067,-2.30317c-1.25817,-4.3855 -3.18683,-7.48383 -5.99967,-9.63833c-0.691,-0.52917 -1.25633,-1.008 -1.25633,-1.06417c0,-0.056 2.56867,-0.10183 5.70833,-0.10183c6.26683,0 7.39767,-0.09383 12.20833,-1.013c2.24017,-0.428 7.004,-1.551 8.71817,-2.05517c0.02833,-0.00833 -0.00517,0.07867 -0.07433,0.19317M98.76317,205.0075c1.37583,0.78733 2.62517,2.52317 3.29983,4.5855c0.42783,1.30733 0.40817,3.918 -0.03817,5.07817c-0.70817,1.84083 -3.15183,5.26117 -5.15883,7.2205l-0.82817,0.8085l-0.292,-0.89183c-0.98717,-3.01467 -3.22267,-5.32383 -5.98817,-6.18517c-1.78633,-0.55633 -4.437,-0.51067 -6.74117,0.11617c-1.61767,0.44017 -1.80733,0.4585 -2.83333,0.2735c-1.518,-0.27367 -5.2665,-1.6975 -5.2665,-2.0005c0,-0.24467 1.89367,-1.458 4.45733,-2.856l1.45733,-0.79467l6.989,-0.05583c6.78517,-0.05417 7.00267,-0.066 7.45933,-0.4045c0.85583,-0.63433 1.15233,-1.285 1.54433,-3.388c0.434,-2.32833 0.46267,-2.3505 1.93917,-1.50583M103.17567,205.42017c3.44383,1.16083 7.75933,2.04867 11.82433,2.43283c1.14583,0.10833 4.227,0.20083 6.84717,0.20567l4.764,0.009l-0.764,0.61167c-2.666,2.135 -5.231,6.70967 -6.25367,11.154c-0.15817,0.6875 -0.31217,1.33233 -0.34217,1.43283c-0.038,0.12733 -0.372,0.13933 -1.101,0.03967c-1.76683,-0.24167 -1.77533,0.521 -0.0095,0.856c0.48667,0.09217 0.95417,0.2105 1.03867,0.26283c0.08467,0.05217 0.15383,0.457 0.15383,0.89967c0,0.4425 0.1815,1.4315 0.4035,2.19767c0.222,0.76633 0.3705,1.42617 0.33033,1.4665c-0.09383,0.09383 -1.11267,-0.24883 -3.81717,-1.28367c-1.19167,-0.456 -2.84167,-1.05833 -3.66667,-1.3385c-0.825,-0.28017 -2.5875,-0.896 -3.91667,-1.36833c-1.32917,-0.47233 -3.60617,-1.18583 -5.05983,-1.5855c-1.45367,-0.39967 -2.6815,-0.765 -2.7285,-0.81183c-0.04683,-0.047 0.25117,-0.5575 0.66217,-1.13467c2.09517,-2.94167 3.03517,-6.624 2.3905,-9.36383c-0.3065,-1.3025 -1.11833,-2.93983 -2.09783,-4.2305c-0.3665,-0.48317 -0.6665,-0.91433 -0.6665,-0.95833c0,-0.14817 0.2615,-0.08217 2.009,0.50683M12.64133,208.61333c1.2055,0.771 2.18517,1.587 2.189,1.823c0.00167,0.1025 -0.4425,0.3115 -0.98717,0.46417c-1.16867,0.328 -1.8435,0.99483 -1.8425,1.82067c0.00033,0.29083 0.11467,1.2315 0.254,2.09033c0.2685,1.65567 0.19083,2.02183 -0.42883,2.02183c-0.47367,0 -1.4325,-1.26383 -2.0085,-2.64767c-1.0235,-2.45817 -1.06083,-4.3735 -0.10683,-5.46017c0.93017,-1.05933 1.42083,-1.07817 2.93083,-0.11217M130.1265,208.49917c0.29883,0.18217 0.69217,0.5755 0.87433,0.87433c0.86367,1.41633 -0.03067,5.15333 -1.6835,7.036c-0.565,0.64333 -0.8305,0.72017 -1.203,0.34767c-0.20933,-0.20933 -0.21183,-0.3865 -0.01767,-1.29167c0.12367,-0.57683 0.22767,-1.542 0.23083,-2.14483c0.005,-0.9285 -0.0515,-1.148 -0.36917,-1.4375c-0.55183,-0.5025 -0.942,-0.66467 -1.91667,-0.79633c-0.48133,-0.065 -0.875,-0.18 -0.875,-0.25583c0,-0.26583 1.91717,-1.843 2.73683,-2.2515c1.00133,-0.499 1.50667,-0.51717 2.223,-0.08033M76.8325,210.37283c0.0005,0.06767 -0.54067,0.39567 -1.20233,0.72883c-0.66183,0.33333 -1.66417,0.89717 -2.2275,1.25283l-1.02433,0.647l-1.27367,-0.58033c-0.70033,-0.31917 -1.85433,-0.90083 -2.564,-1.2925l-1.29067,-0.712l2.5,-0.08333c3.63767,-0.12133 7.08167,-0.102 7.0825,0.0395M16.96117,212.82067c0.576,0.86383 1.0225,1.64517 0.992,1.73633c-0.04533,0.13633 -2.27383,0.78817 -4.13783,1.21017c-0.526,0.119 -0.59867,-0.0765 -0.751,-2.01717c-0.092,-1.172 -0.067,-1.36717 0.20717,-1.61267c0.407,-0.36467 1.886,-0.9505 2.31033,-0.915c0.2195,0.01833 0.68667,0.55983 1.37933,1.59833M125.15483,211.68783c1.58633,0.50033 2.028,0.69783 2.17467,0.9715c0.17867,0.334 -0.16967,2.91417 -0.42833,3.17283c-0.09467,0.09467 -0.6375,0.0335 -1.40267,-0.158c-0.68667,-0.17183 -1.64217,-0.36333 -2.12333,-0.4255c-0.48117,-0.06233 -0.90733,-0.16583 -0.947,-0.23c-0.12167,-0.19683 0.48883,-1.40167 1.258,-2.48283c0.40183,-0.56483 0.76267,-1.029 0.802,-1.03133c0.03933,-0.0025 0.33933,0.08 0.66667,0.18333M101.492,213.54167c-2.104,3.392 -2.61667,4.035 -4.78167,5.9955c-0.946,0.85667 -1.03033,0.9875 -0.9375,1.45217c0.113,0.565 0.352,0.62883 1.02717,0.27433c1.27533,-0.6695 2.82083,-2.92917 4.45517,-6.51367c1.07683,-2.36183 1.13433,-2.65533 0.23683,-1.20833M195.62783,219.3555c0.89217,0.1955 2.20583,0.44067 2.91933,0.54483c0.7135,0.10417 1.3135,0.263 1.33333,0.35283c0.0635,0.28683 -1.91983,1.23717 -2.59217,1.24217c-0.6965,0.00517 -2.34433,-0.6085 -3.12317,-1.163c-0.277,-0.19733 -0.61683,-0.57767 -0.75533,-0.8455c-0.24633,-0.47633 -0.24267,-0.48683 0.17217,-0.48683c0.233,0 1.15383,0.16 2.04583,0.3555M222.5615,220.2225c0.253,1.008 -0.5005,2.1875 -1.86033,2.91233c-1.921,1.02383 -4.048,1.27417 -5.918,0.69667c-1.5565,-0.48083 -2.49617,-1.6425 -1.98267,-2.45083c0.07767,-0.12217 0.92167,-0.2745 2.1225,-0.38333c2.3705,-0.21467 4.84083,-0.5875 5.99367,-0.90483c1.24467,-0.34267 1.532,-0.31983 1.64483,0.13M20,222.72733c0,1.0455 -0.28567,2.4025 -0.6755,3.20767c-0.37167,0.76783 -1.05867,1.16783 -1.72017,1.00183c-0.8905,-0.2235 -2.79133,-2.66317 -3.03867,-3.9l-0.10133,-0.5065l1.14283,-0.116c0.6285,-0.06383 1.55533,-0.174 2.0595,-0.24483c0.50417,-0.07083 1.23533,-0.138 1.625,-0.14917l0.70833,-0.02033v0.72733M188.5,222.16667c0,0.09167 -0.0795,0.16667 -0.1765,0.16667c-0.097,0 -0.13017,-0.075 -0.0735,-0.16667c0.05667,-0.09167 0.136,-0.16667 0.1765,-0.16667c0.0405,0 0.0735,0.075 0.0735,0.16667M125.88233,222.66167c0.19183,0.17333 -0.938,2.2575 -1.66167,3.06517c-1.25733,1.40317 -2.18833,1.78683 -2.77183,1.142c-0.67117,-0.7415 -1.31,-3.061 -1.14717,-4.16517l0.056,-0.3795l2.69617,0.10883c1.48283,0.06 2.75567,0.16283 2.8285,0.22867M62.94517,225.74167c-0.03317,0.09617 -0.28983,0.17467 -0.5705,0.17433c-0.28067,-0.00033 -0.47867,0.05067 -0.43983,0.1135c0.03883,0.06283 -0.00567,0.16117 -0.09883,0.21883c-0.09317,0.0575 -0.16933,0.02517 -0.16933,-0.07183c0,-0.097 -0.1125,-0.1765 -0.25,-0.1765c-0.1375,0 -0.25,0.075 -0.25,0.16667c0,0.09167 -0.068,0.16667 -0.151,0.16667c-0.08317,0 -0.11217,-0.14917 -0.0645,-0.3315c0.04767,-0.18233 0.1345,-0.30417 0.19283,-0.27083c0.05833,0.03333 0.24517,0.01 0.41517,-0.05183c0.486,-0.17683 1.4535,-0.13317 1.386,0.0625M63.58333,225.83333c0.05667,0.09167 0.0235,0.16667 -0.0735,0.16667c-0.097,0 -0.1765,-0.075 -0.1765,-0.16667c0,-0.09167 0.033,-0.16667 0.0735,-0.16667c0.0405,0 0.11983,0.075 0.1765,0.16667M56.5,226.48467c0.59583,0.08267 1.19583,0.14917 1.33333,0.14767c0.1375,-0.0015 0.7375,0.19617 1.33333,0.43917l1.08333,0.442l-0.83333,-0.089c-1.162,-0.12417 -4.798,-0.947 -5,-1.1315c-0.10183,-0.09317 0.06,-0.11467 0.41667,-0.0555c0.32083,0.05317 1.07083,0.16433 1.66667,0.24717M69.94717,227.36467c-0.05317,0.13283 -0.09267,0.09333 -0.10067,-0.10083c-0.00717,-0.17567 0.03217,-0.274 0.0875,-0.21867c0.05533,0.05533 0.06133,0.19917 0.01317,0.3195M69.79267,228.20833c-0.0375,0.11467 -0.325,0.22433 -0.63883,0.24383l-0.5705,0.03533l0.5,-0.23617c0.628,-0.29683 0.796,-0.307 0.70933,-0.043M67.54167,228.277c-0.1145,0.04633 -0.302,0.04633 -0.41667,0c-0.1145,-0.04617 -0.02083,-0.084 0.20833,-0.084c0.22917,0 0.323,0.03783 0.20833,0.084M281.5,299.83333c0,0.09167 0.0795,0.16667 0.1765,0.16667c0.097,0 0.13017,-0.075 0.0735,-0.16667c-0.05667,-0.09167 -0.136,-0.16667 -0.1765,-0.16667c-0.0405,0 -0.0735,0.075 -0.0735,0.16667"/></g></svg>