<svg id="svg" version="1.1" viewBox="0 0 281.83333333333337 300" width="281.83333333333337" height="300" xmlns="http://www.w3.org/2000/svg"><svg xmlns="http://www.w3.org/2000/svg"><defs><clipPath id="clip-1"><rect x="0" y="0" transform="scale(0.14648,0.14648)" width="1924" height="2048" fill="none"/></clipPath><linearGradient x1="70.59969" y1="150.83789" x2="71.34045" y2="154.76221" gradientUnits="userSpaceOnUse" id="color-1"><stop offset="0" stop-color="#ae4240"/><stop offset="1" stop-color="#d95e57"/></linearGradient><linearGradient x1="81.38963" y1="133.04194" x2="87.06599" y2="138.83027" gradientUnits="userSpaceOnUse" id="color-2"><stop offset="0" stop-color="#030303"/><stop offset="1" stop-color="#262424"/></linearGradient><linearGradient x1="47.79917" y1="114.87495" x2="49.6283" y2="114.98701" gradientUnits="userSpaceOnUse" id="color-3"><stop offset="0" stop-color="#ed9740"/><stop offset="1" stop-color="#d1a357"/></linearGradient><linearGradient x1="56.61261" y1="219.94775" x2="57.7458" y2="229.60986" gradientUnits="userSpaceOnUse" id="color-4"><stop offset="0" stop-color="#6c625a"/><stop offset="1" stop-color="#948072"/></linearGradient><linearGradient x1="98.60475" y1="217.43555" x2="95.82319" y2="221.50049" gradientUnits="userSpaceOnUse" id="color-5"><stop offset="0" stop-color="#5f564e"/><stop offset="1" stop-color="#887e70"/></linearGradient><linearGradient x1="206.14409" y1="122.00757" x2="216.81098" y2="59.65078" gradientUnits="userSpaceOnUse" id="color-6"><stop offset="0" stop-color="#13100f"/><stop offset="1" stop-color="#3e2c22"/></linearGradient><linearGradient x1="215.97017" y1="99.27217" x2="218.69769" y2="108.32446" gradientUnits="userSpaceOnUse" id="color-7"><stop offset="0" stop-color="#161414"/><stop offset="1" stop-color="#3a3737"/></linearGradient><linearGradient x1="227.30063" y1="146.28823" x2="226.64" y2="147.72949" gradientUnits="userSpaceOnUse" id="color-8"><stop offset="0" stop-color="#120604"/><stop offset="1" stop-color="#421913"/></linearGradient><linearGradient x1="208.77346" y1="155.3335" x2="226.10533" y2="146.66016" gradientUnits="userSpaceOnUse" id="color-9"><stop offset="0" stop-color="#070102"/><stop offset="1" stop-color="#3c1911"/></linearGradient><linearGradient x1="212.60839" y1="230.90918" x2="198.1637" y2="214.28906" gradientUnits="userSpaceOnUse" id="color-10"><stop offset="0" stop-color="#120f0f"/><stop offset="1" stop-color="#2a2c33"/></linearGradient></defs><g clip-path="url(#clip-1)" fill="none" fill-rule="nonzero" stroke="none" stroke-width="1" stroke-linecap="butt" stroke-linejoin="miter" stroke-miterlimit="10" stroke-dasharray="" stroke-dashoffset="0" font-family="none" font-weight="none" font-size="none" text-anchor="none" style="mix-blend-mode: normal"><path d="M37.90439,130.47715c0.15937,-2.79434 -0.57099,-3.00132 -0.99565,-5.45024c-0.15747,-0.9082 0.38247,-3.9186 0.54492,-5.05679c0.47592,-3.35259 1.00824,-6.69697 1.59666,-10.03169c0.6309,-3.71118 1.04882,-7.70142 2.10057,-11.30918c0.39492,-1.35513 0.78134,-2.53608 1.78914,-3.56895c4.51549,-4.62773 29.52907,-13.40728 35.94957,-13.46543c1.48504,-0.01348 2.47117,0.28257 3.5383,1.35366c2.27723,2.28574 3.65797,5.88018 5.08018,8.75464c3.76286,7.60576 11.04072,22.59448 11.07705,31.00986c-0.42421,0.42847 -0.90146,0.76685 -1.38075,1.13379c0.36767,2.33013 0.53774,5.70234 0.69506,8.09766c7.22366,2.37393 5.98544,15.96372 -1.49662,17.68491c-1.03314,3.75293 -3.77487,7.51465 -6.72547,9.95068c-0.55634,0.45996 -1.65775,1.62305 -2.20252,1.9585c-1.43026,0.88037 -1.89403,0.7998 -3.32443,1.94824c5.34766,0.81299 10.94257,3.98437 14.83419,7.69189c0.59457,0.56689 1.10785,1.05908 1.83324,1.45459c0.48837,0.17432 1.21552,0.39404 1.62259,0.67529c0.36167,0.31055 0.90424,0.75732 0.86308,1.28613c-0.19805,2.55029 -0.82822,5.20605 -1.39086,7.7168c-1.50174,6.70313 -2.61296,13.57617 -4.14371,20.26025c1.6721,1.0708 3.15832,1.34473 5.02261,1.93945c7.38729,2.35693 14.87813,3.0498 22.5994,2.90186c4.76246,-0.09229 7.72566,-0.35596 6.88177,5.53271c0.01494,2.61035 -0.22544,4.72119 -3.27228,4.92188c-1.49574,-0.18604 -3.64391,-1.2876 -6.08666,-1.65088c-0.86674,0.64746 -1.87952,3.9917 -1.34779,4.85449l0.72128,0.39844c1.08866,0.14941 3.57741,0.27686 4.27218,0.94629c1.05395,1.94971 -1.93929,6.61084 -4.34586,5.92383c-7.52762,-2.14893 -14.74791,-4.83838 -22.30482,-7.02246c-0.73871,0.7207 -3.51632,3.04834 -3.85543,3.60205c-1.21039,1.97168 -0.66723,3.85547 -3.15495,5.52539c-5.92993,3.98145 -14.50988,-1.17334 -20.4918,-2.11963l-0.18559,-0.02783c-0.64731,0.81885 -1.52445,2.03906 -2.66526,2.00977c-7.83743,-0.20068 -16.30283,-1.68164 -23.47903,-4.92187c-2.46106,-1.11182 -4.82251,-2.97949 -6.75755,-4.58057l-0.13359,0.0249c-5.45649,1.02832 -11.24272,4.29785 -16.38808,6.2915c-1.39174,0.53906 -3.67394,0.78662 -5.2041,1.04297l-0.08716,-0.04541c-1.58539,-0.81592 -2.87113,-2.53564 -3.5827,-4.13965c-1.33326,-3.00293 4.10769,-2.47705 5.84088,-2.86523l0.18852,-0.04248c-0.0709,-1.5791 -0.63559,-3.86719 -1.47713,-5.21631c-0.2518,-0.4043 -1.66068,0.36621 -2.05662,0.52881c-1.35306,0.55518 -4.8993,1.88818 -6.03856,0.43066c-1.66386,-2.12842 -3.13761,-6.71484 -0.70083,-8.80518c1.47095,-1.27441 3.67627,-0.93164 5.4647,-0.76465c0.89648,-0.03223 1.9825,-0.1626 2.84236,-0.13916c7.53289,0.20361 14.36954,-1.39893 21.70292,-2.98535c1.26429,-0.44824 5.80908,-2.3042 3.8443,-4.06055c-2.96335,-1.86328 -5.32598,-3.66797 -7.06707,-6.76611c-0.4812,-1.10449 -1.26752,-2.98096 -1.23485,-4.27441c0.1935,-7.6377 6.58134,-17.00244 11.59355,-22.50732c1.48006,-1.61133 3.86364,-2.53271 5.2832,-4.06934c0.9602,-1.03857 -1.50687,-2.53271 -2.21365,-3.15381c-2.56155,-2.24707 -3.94083,-4.80615 -5.45386,-7.77246c-1.91116,0.47168 -3.61901,0.88623 -5.54922,0.15088c-2.6096,-0.99316 -4.6441,-3.7998 -5.67329,-6.2729c-1.19457,-2.87065 -1.96551,-7.01074 -0.63412,-9.96035c1.1518,-2.55117 2.79109,-3.92417 5.31968,-4.95659zM72.39,213.00146c0.93852,-0.61963 1.89783,-1.20703 2.87619,-1.76074c0.60043,-0.30762 1.34589,-0.66504 1.91204,-1.00781c-1.87938,0.0835 -3.81032,0.07764 -5.69365,0.07764c-1.26459,0 -3.23654,0.12158 -4.45015,-0.05713c1.85257,1.11768 3.40866,1.86914 5.35557,2.74805z" fill="#141314"/><path d="M100.81782,172.6333c0.48837,0.17432 1.21552,0.39404 1.62259,0.67529c-0.7226,1.59668 -1.09936,5.29687 -1.52123,7.10596c-0.35683,1.53076 -1.02963,3.01611 -1.32714,4.53516c-1.36713,6.97705 -2.39002,14.31299 -4.24625,21.18457c-3.53595,-0.05713 -7.08802,0.17285 -10.6543,0.06885c-4.26778,-0.02051 -8.52766,-0.5874 -12.79031,-0.28125c-6.06264,0.43652 -12.17523,-0.19043 -18.25852,-0.00439c-1.68514,0.05127 -4.02462,-0.15527 -5.64033,0.15674c-0.38247,-1.69629 -0.71293,-4.47803 -0.95536,-6.25928c-0.54448,-3.8877 -1.04062,-7.78125 -1.48797,-11.68213c-0.53613,-4.39307 -1.19325,-8.81836 -1.39071,-13.23779c-0.07705,-1.72266 1.15604,-1.5249 2.5469,-1.68311c5.933,-0.67822 53.03813,1.00928 54.37962,-0.23291z" fill="#252428"/><path d="M71.03562,187.77246c1.08881,-0.70459 2.47908,-0.74561 3.60773,-0.10693c1.12865,0.63867 1.80848,1.85156 1.76424,3.14795c-0.04424,1.29639 -0.80536,2.46094 -1.97503,3.02197c-1.65628,0.79248 -3.6442,0.16406 -4.542,-1.43848c-0.89779,-1.60254 -0.39653,-3.62695 1.14506,-4.62451z" fill="#d9d9d8"/><path d="M71.03562,187.77246c1.08881,-0.70459 2.47908,-0.74561 3.60773,-0.10693c1.12865,0.63867 1.80848,1.85156 1.76424,3.14795c-0.04424,1.29639 -0.80536,2.46094 -1.97503,3.02197c-0.33032,-0.71045 0.06387,-2.50488 -0.25869,-3.57275c-0.83305,-2.7583 -2.33611,-1.24658 -3.47926,-1.88086z" fill="#fdfcfc"/><path d="M15.14444,207.24463c0.89648,-0.03223 1.9825,-0.1626 2.84236,-0.13916c7.53289,0.20361 14.36954,-1.39893 21.70292,-2.98535c0.03516,0.29883 0.09477,0.28271 -0.01436,0.44971c-0.14267,0.70166 -1.12118,1.74023 -1.49354,2.45361c-2.40598,4.61426 -2.2097,8.78613 0.53291,13.14258c-6.02529,1.29932 -12.82635,4.53223 -18.83435,6.67529c0.94555,-2.23682 0.99096,-2.90918 1.23558,-5.30859c0.64995,-0.03369 1.13803,0.03369 1.60501,-0.36914l0.0977,-0.29004c-0.53891,-0.52441 -1.05746,-0.27979 -1.75106,-0.15381c-1.21361,-4.64209 -2.52493,-8.67041 -6.39721,-11.78467c-0.34498,-0.27686 -1.38996,-0.97705 -1.51805,-1.29785c0.34363,-0.10547 0.23784,-0.09375 0.59478,-0.10693c0.36867,-0.15527 0.97908,-0.22119 1.39729,-0.28564z" fill="#d9d9d8"/><path d="M15.14444,207.24463c0.89648,-0.03223 1.9825,-0.1626 2.84236,-0.13916c7.53289,0.20361 14.36954,-1.39893 21.70292,-2.98535c0.03516,0.29883 0.09477,0.28271 -0.01436,0.44971c-10.8248,2.74219 -14.76402,3.43799 -25.92821,2.96045c0.36867,-0.15527 0.97908,-0.22119 1.39729,-0.28564z" fill="#141314"/><path d="M30.109,208.20996c0.82968,-0.1377 1.83353,-0.16846 2.39207,0.51123c0.15615,1.31689 -1.42484,2.30273 -2.48801,2.7041c-1.20321,0.02637 -2.54983,-0.09229 -2.94226,-1.44287c0.1207,-1.61426 1.79779,-1.63623 3.0382,-1.77246z" fill="#fdfcfc"/><path d="M37.56879,191.65869c-0.24521,-0.6665 -0.56206,-1.54102 -0.67441,-2.25293c-0.87699,-5.56641 3.85499,-12.67529 6.87752,-17.12402c1.17494,-1.72998 6.1287,-7.33154 7.96765,-7.63184c0.43828,0.86426 0.23203,6.26367 0.21167,7.48828c-1.47992,0.0249 -3.29279,-0.01172 -4.72862,0.01172c-4.28067,0.06592 -4.31451,1.96289 -3.97203,5.5708c0.14692,1.54834 0.28242,3.35449 0.49482,4.97021c0.25635,0.27246 0.29707,0.30469 0.48603,0.62256c-0.09477,0.25928 -0.05845,0.26074 -0.22588,0.45557c-0.08789,1.29199 0.56425,6.4541 0.77255,7.88525c0.30146,2.06982 0.59252,5.8418 1.0059,7.81494l-1.51112,-0.81592c-0.67324,0.41162 -0.65829,0.64307 -0.73886,1.40625c-2.96335,-1.86328 -5.32598,-3.66797 -7.06707,-6.76611c0.36694,-0.35596 0.63076,-0.57422 1.0308,-0.89502c0.09551,-0.3252 0.08027,-0.15088 -0.14018,-0.56836z" fill="#c5b49a"/><path d="M37.56879,191.65869c1.7786,3.20801 3.70426,4.93506 6.70409,6.99463c-0.67324,0.41162 -0.65829,0.64307 -0.73886,1.40625c-2.96335,-1.86328 -5.32598,-3.66797 -7.06707,-6.76611c0.36694,-0.35596 0.63076,-0.57422 1.0308,-0.89502c0.09551,-0.3252 0.08027,-0.15088 -0.14018,-0.56836z" fill="#141314"/><path d="M43.7454,182.69092c0.25635,0.27246 0.29707,0.30469 0.48603,0.62256c-0.09477,0.25928 -0.05845,0.26074 -0.22588,0.45557c-0.90776,-0.13037 -2.09983,0.09668 -2.65925,-0.43799c0.34394,-0.89795 1.60443,0.08643 2.3991,-0.64014z" fill="#252428"/><path d="M120.37286,221.29102c0.09726,-1.2085 0.64101,-4.82959 1.82782,-5.34229c0.38159,0.08057 0.39419,0.05713 0.71308,0.26807c-0.86674,0.64746 -1.87952,3.9917 -1.34779,4.85449l0.72128,0.39844c-0.577,-0.02051 -1.32567,-0.11865 -1.91439,-0.17871z" fill="#d9d9d8"/><path d="M129.00042,217.86768c1.99495,-1.31982 2.41697,-2.80811 3.27228,-4.92187c0.01494,2.61035 -0.22544,4.72119 -3.27228,4.92188z" fill="#d9d9d8"/><path d="M71.54289,116.66484c6.63553,-0.10327 15.58653,0.38848 21.72299,3.15396c2.05325,0.92534 1.99437,5.29204 2.05032,7.37051c0.15967,5.94771 0.76684,13.19648 -0.50258,19.02334c-0.6413,2.92603 -1.81991,5.70776 -3.47604,8.20386c-1.59081,2.37158 -3.20812,3.7749 -5.52241,5.42139c-9.53883,6.78223 -22.38407,6.09961 -31.95849,-0.33691c-4.81504,-3.38086 -6.34213,-6.12451 -8.1676,-11.55615c-8.66916,7.67578 -16.52285,-11.26128 -8.06726,-15.22515c2.77263,1.01777 4.14093,2.69751 5.65688,5.1665c0.61098,0.99507 1.58421,3.11938 3.00261,2.452c0.55913,-0.26294 0.60981,-0.66035 0.73432,-1.21831c-0.03149,-5.79009 0.17475,-14.20386 4.04513,-18.84478c4.91553,-2.14512 15.0044,-3.37515 20.48213,-3.61025z" fill="#fcb164"/><path d="M63.98525,146.00654c4.1194,1.1707 8.03972,2.03936 12.30589,2.25762c0.76713,0.03809 3.04524,0.04541 3.58927,0.31494c0.60014,1.4751 -1.61454,4.14844 -2.63479,5.11377c-0.64423,0.51855 -1.34764,0.95801 -2.09529,1.31104c-6.19989,2.85352 -13.61208,-2.81689 -11.16508,-8.99736z" fill="#141314"/><path d="M65.94314,151.11475c-0.48618,-0.92139 -0.98627,-1.8501 -1.07519,-2.90332l0.127,-0.32959c0.30366,0 3.23786,0.83203 4.1443,0.97998c3.09592,0.50977 6.11039,0.87012 9.2567,0.87451c-0.78559,1.58496 -1.0182,2.08594 -2.27195,3.28271l-0.12612,0.12158c-3.73063,3.20508 -7.71848,2.18408 -10.05474,-2.02588z" fill="#fdfcfc"/><path d="M65.94314,151.11475c1.80291,0.5083 3.63044,0.92432 5.47554,1.24805c1.35863,0.23438 3.3029,0.47168 4.57921,0.77783c-3.73063,3.20508 -7.71848,2.18408 -10.05474,-2.02588z" fill="url(#color-1)"/><path d="M60.39129,131.12109c5.30195,-0.16479 6.28954,7.92246 1.13993,10.13247c-5.01543,0.58931 -6.15844,-8.56597 -1.13993,-10.13247z" fill="#141314"/><path d="M59.46478,132.71587c2.59861,-0.0416 2.30579,2.44438 0.7519,3.81855c-2.66013,0.06738 -2.326,-2.46167 -0.7519,-3.81855z" fill="#fdfcfc"/><path d="M83.21437,131.27534c5.47759,-0.55327 6.55306,6.75439 2.19607,9.4396c-5.23545,1.16675 -6.29159,-6.94775 -2.19607,-9.4396z" fill="url(#color-2)"/><path d="M82.90602,132.67676c2.46384,0.32944 2.2532,2.54253 0.63207,3.94966c-2.44553,0.24404 -2.18523,-2.55732 -0.63207,-3.94966z" fill="#fdfcfc"/><path d="M85.58988,136.77905c0.61494,-0.08071 1.18021,0.34893 1.26693,0.96313c0.08672,0.61421 -0.3375,1.18359 -0.95067,1.27632c-0.62182,0.0939 -1.20087,-0.33735 -1.28876,-0.96006c-0.08789,-0.62271 0.34892,-1.19751 0.9725,-1.27939z" fill="#b1a193"/><path d="M60.0223,122.03921c1.83031,-0.16523 5.27588,-0.20771 4.92022,2.95811c-0.16348,0.75059 -1.17714,0.7916 -1.73494,0.72275c-2.02132,-0.24976 -2.79709,-0.2332 -4.6003,0.67559c-1.12645,0.74751 -1.71839,1.83633 -2.81086,1.82549c-1.73626,-1.0415 0.43374,-4.31646 1.71605,-5.03555c1.04193,-0.58418 1.33036,-0.78867 2.50984,-1.14639z" fill="#141314"/><path d="M84.40381,121.74419c2.97009,-0.31128 8.00032,1.20059 7.56057,5.33188c-0.03047,0.28726 -0.45205,0.52573 -0.70883,0.629c-0.64335,-0.06636 -0.40634,0.00117 -0.96195,-0.43564c-2.00608,-1.92964 -3.34435,-2.53696 -6.08915,-1.98457c-0.88241,0.17769 -2.12005,0.04614 -2.50442,-0.91318c0.1749,-1.37256 1.48988,-2.22334 2.70378,-2.62749z" fill="#141314"/><path d="M56.03459,142.7187c1.30868,0.1311 2.65178,0.53921 3.08772,1.95601c0.17475,0.55767 0.09917,1.16353 -0.20713,1.66113c-0.60512,1.00547 -1.68939,1.37461 -2.77673,1.61191c-3.67863,0.2417 -4.73624,-4.59683 -0.10386,-5.22905z" fill="#f5773b"/><path d="M74.90453,135.71177c0.98744,0.18999 2.12752,1.60312 2.55042,2.45156c3.05051,6.12026 -1.62376,8.06733 -6.6701,6.4207c-0.75908,-0.41045 -1.23998,-0.7144 -1.13876,-1.68091c0.8934,-0.65625 3.4154,1.06729 5.10039,0.46304c4.47066,-1.60342 0.57817,-5.24561 0.15806,-7.65439z" fill="#141314"/><path d="M88.72652,142.57529c3.36061,0.277 4.54127,4.2416 0.4185,5.24355c-1.36757,-0.09961 -2.55276,-0.71924 -2.90183,-2.14233c-0.16509,-0.65786 -0.04761,-1.35469 0.32402,-1.92187c0.53715,-0.81255 1.26635,-1.004 2.15931,-1.17935z" fill="#f5773b"/><path d="M36.26553,138.01465c3.44865,-0.44312 6.09926,2.71304 6.58251,5.9001c0.05391,0.35566 -0.09448,0.56792 -0.31303,0.80347l-0.37295,-0.02915c-0.62285,-0.36812 -0.93954,-0.90967 -1.37841,-1.50015c-0.3394,-0.54199 -0.72451,-0.98379 -1.12821,-1.47817c-0.7724,0.8603 -1.3828,2.50049 -1.97811,2.69414l-0.15015,-0.27598c-0.04394,-1.67988 0.24521,-2.54473 1.18827,-3.87524c-0.79335,-0.82017 -1.58304,-1.13672 -2.46648,-1.84658z" fill="#141314"/><path d="M75.62523,84.14839c1.40638,-0.31157 3.17663,-0.86968 4.50318,-0.01846c2.13865,1.37197 7.70047,13.77041 9.0235,16.62979c-1.34589,2.70322 -3.71276,8.0959 -5.16865,10.3771c-0.07236,0.26104 -0.12876,0.28125 -0.07559,0.48018c-0.37631,1.04268 -1.48358,1.97666 -2.05926,3.15176c-1.04369,-0.14194 -2.08855,-0.27524 -3.13444,-0.39976l-0.35566,-0.06929c-1.39056,-0.11616 -2.78244,-0.21401 -4.1755,-0.29355c-0.46582,-0.01597 -0.77988,-0.03823 -1.24262,-0.0939c-0.48032,-0.2439 -0.54389,-0.56367 -0.76742,-1.06714l-0.34204,0.00146c-0.17563,0.78911 -0.03823,0.7437 -0.51313,1.23838c-1.14535,0.42217 -2.26228,0.24785 -3.53698,0.32344c-0.96869,0.08994 -1.97108,0.16934 -2.93464,0.27788c-1.22489,0.11968 -3.65168,0.35479 -4.76656,0.67236c-2.30828,0.38438 -4.67369,0.74692 -6.95033,1.26768c-0.80214,0.17168 -2.48801,0.48091 -3.2071,0.71162l-1.60472,0.577c-1.52108,0.40781 -3.42609,1.27354 -4.85752,2.01328l-4.26017,2.30449c0.14121,-2.06235 0.53964,-4.41504 0.86073,-6.45615c0.37954,-2.39297 0.7746,-5.16709 1.29608,-7.49927c0.5644,-3.10913 1.10126,-6.71763 1.9056,-9.75073c0.6665,-2.51309 2.76428,-3.55327 4.8814,-4.61133c5.49634,-2.70146 8.78986,-4.00415 14.54034,-5.96631c2.25906,-0.84521 4.11647,-1.57764 6.43456,-2.26772c1.27528,-0.3832 5.28687,-1.35059 6.50692,-1.53281z" fill="#fcb164"/><path d="M48.1434,93.91523c0.34438,0.28081 0.51254,0.36445 0.7582,0.72524l0.26762,-0.26206c1.73919,0.52002 3.13664,6.95288 4.16715,8.29629c0.762,0.74209 1.0119,1.41313 1.53397,1.94604c0.72905,0.68936 4.02184,7.23281 5.32554,8.97202c-0.11968,0.75806 -0.13682,0.99902 -0.11645,1.76587c-2.30828,0.38438 -4.67369,0.74692 -6.95033,1.26768c-0.80214,0.17168 -2.48801,0.48091 -3.2071,0.71162l-1.60472,0.577c-1.52108,0.40781 -3.42609,1.27354 -4.85752,2.01328l-4.26017,2.30449c0.14121,-2.06235 0.53964,-4.41504 0.86073,-6.45615c0.37954,-2.39297 0.7746,-5.16709 1.29608,-7.49927c0.5644,-3.10913 1.10126,-6.71763 1.9056,-9.75073c0.6665,-2.51309 2.76428,-3.55327 4.8814,-4.61133z" fill="#fcb164"/><path d="M48.9016,94.64048l0.26762,-0.26206c1.73919,0.52002 3.13664,6.95288 4.16715,8.29629c-1.00736,2.71538 -3.74044,6.30835 -4.93179,9.06299c-1.90853,-2.81396 -3.65973,-5.41787 -4.56163,-8.76182c0.97792,-2.80576 3.48556,-5.34287 5.05864,-8.3354z" fill="#506a70"/><path d="M48.88519,100.27017c1.29315,0.74443 1.4619,4.61997 -0.49541,4.97856c-0.76259,-0.74238 -0.96371,-1.27339 -1.37357,-2.21953c0.52763,-1.20952 0.8433,-1.87764 1.86898,-2.75903z" fill="#fac081"/><path d="M54.87034,104.62075c0.72905,0.68936 4.02184,7.23281 5.32554,8.97202c-0.11968,0.75806 -0.13682,0.99902 -0.11645,1.76587c-2.30828,0.38438 -4.67369,0.74692 -6.95033,1.26768c0.0501,-0.83628 0.34043,-2.279 0.48618,-3.14385c0.41938,-2.48789 0.65786,-4.54907 0.44047,-7.07241c0.30615,-0.58462 0.55283,-1.18374 0.81459,-1.78931z" fill="#506a70"/><path d="M54.05575,106.41006c0.21738,2.52334 -0.02109,4.58452 -0.44047,7.07241c-0.14575,0.86484 -0.43608,2.30757 -0.48618,3.14385c-0.80214,0.17168 -2.48801,0.48091 -3.2071,0.71162c0.26147,-1.15532 -0.18061,-2.25146 -0.30717,-3.42671l-0.02593,-0.25093c0.08188,-0.02856 0.16377,-0.05728 0.24551,-0.08584c1.01835,-2.00742 3.11892,-5.39634 4.22135,-7.1644z" fill="#bf462c"/><path d="M46.63829,114.55386c0.58798,-0.80757 1.27675,-2.12695 2.33582,-2.054c0.43139,0.30059 0.45922,0.64351 0.61479,1.16045l0.02593,0.25093c0.12656,1.17524 0.56865,2.27139 0.30717,3.42671l-1.60472,0.577c-1.52108,0.40781 -3.42609,1.27354 -4.85752,2.01328c0.41967,-2.20957 1.7972,-3.5981 3.17854,-5.37437z" fill="#f5773b"/><path d="M46.63829,114.55386c0.58798,-0.80757 1.27675,-2.12695 2.33582,-2.054c0.43139,0.30059 0.45922,0.64351 0.61479,1.16045l0.02593,0.25093c0.12656,1.17524 0.56865,2.27139 0.30717,3.42671l-1.60472,0.577c-0.3123,-0.69258 -0.02432,-2.55 -0.67558,-4.12793c-0.40224,0.44692 -0.4664,0.49629 -1.00341,0.76685z" fill="url(#color-3)"/><path d="M40.06032,115.77656c0.37954,-2.39297 0.7746,-5.16709 1.29608,-7.49927c0.65434,0.91831 2.26961,0.16948 2.37097,1.75898c0.09902,1.55054 -0.08994,5.31357 -1.38251,6.23423c-0.90351,0.18354 -1.4619,-0.29648 -2.28455,-0.49395z" fill="#e16237"/><path d="M75.62523,84.14839c1.40638,-0.31157 3.17663,-0.86968 4.50318,-0.01846c2.13865,1.37197 7.70047,13.77041 9.0235,16.62979c-1.34589,2.70322 -3.71276,8.0959 -5.16865,10.3771c-0.55488,-0.9665 -2.37346,-3.34497 -3.12331,-4.47451c-0.8058,-1.21377 -2.98899,-5.07056 -3.7529,-5.85879c-1.13612,-1.40654 -2.89187,-5.79316 -3.99781,-6.94497c-0.19585,-0.16831 -0.3123,-0.36021 -0.46816,-0.57114c-0.10444,-1.21919 -2.75974,-6.31011 -3.52277,-7.6062c1.27528,-0.3832 5.28687,-1.35059 6.50692,-1.53281z" fill="#bf462c"/><path d="M69.11831,85.6812c1.27528,-0.3832 5.28687,-1.35059 6.50692,-1.53281c-1.16249,2.52319 -3.22351,6.89473 -2.51599,9.71016c-0.19585,-0.16831 -0.3123,-0.36021 -0.46816,-0.57114c-0.10444,-1.21919 -2.75974,-6.31011 -3.52277,-7.6062z" fill="#506a70"/><path d="M78.33267,88.40537c0.8707,0.46128 2.00887,2.58516 2.47805,3.49219c-0.59692,1.37051 -0.91244,1.75796 -1.96141,2.77749c-0.52558,-0.13931 -0.80492,-0.30718 -1.20892,-0.67441c-2.10452,-1.91367 -0.89091,-3.96577 0.69228,-5.59526z" fill="#fcb164"/><path d="M83.48858,100.4751c0.31494,0.09595 0.62739,0.23291 0.84272,0.49307c0.30571,0.36328 0.43945,0.84097 0.36665,1.31016c-0.10225,0.68921 -0.4021,0.96782 -0.92299,1.37007c-1.61937,-0.20039 -1.52298,-2.1813 -0.28637,-3.17329z" fill="#727859"/><path d="M48.1434,93.91523c5.49634,-2.70146 8.78986,-4.00415 14.54034,-5.96631c-0.81664,1.34883 -2.40203,3.87173 -2.97317,5.28091c1.04252,2.78818 4.1985,7.06494 5.86064,9.94453c-1.77596,3.65054 -3.70382,6.51343 -5.37534,10.41841c-1.3037,-1.73921 -4.59649,-8.28267 -5.32554,-8.97202c-0.52207,-0.53291 -0.77197,-1.20396 -1.53397,-1.94604c-1.03051,-1.34341 -2.42796,-7.77627 -4.16715,-8.29629l-0.26762,0.26206c-0.24565,-0.36079 -0.41381,-0.44443 -0.7582,-0.72524z" fill="#bf462c"/><path d="M59.96971,101.47896c2.47058,0.28696 2.11507,2.0272 0.58066,3.39434l-0.49218,0.16274c-1.12455,-0.19277 -1.18593,-1.15005 -1.11049,-2.11011c0.06196,-0.78765 0.41074,-0.99668 1.02201,-1.44697z" fill="#727859"/><path d="M54.49681,93.4415c0.83349,-0.05786 1.41122,-0.08174 1.68573,0.81826c-0.17153,1.00591 -0.56118,1.27104 -1.28012,1.98545l-0.42758,0.30293l-0.29443,-0.0687c-0.84345,-1.00386 -0.68159,-2.22026 0.3164,-3.03794z" fill="#727859"/><path d="M72.64108,93.2874c0.15586,0.21094 0.27231,0.40283 0.46816,0.57114c1.10595,1.15181 2.86169,5.53843 3.99781,6.94497c0.76391,0.78823 2.94709,4.64502 3.7529,5.85879c0.74985,1.12954 2.56843,3.50801 3.12331,4.47451c-0.07236,0.26104 -0.12876,0.28125 -0.07559,0.48018c-0.37631,1.04268 -1.48358,1.97666 -2.05926,3.15176c-1.04369,-0.14194 -2.08855,-0.27524 -3.13444,-0.39976l-0.35566,-0.06929c-1.39056,-0.11616 -2.78244,-0.21401 -4.1755,-0.29355c-0.46582,-0.01597 -0.77988,-0.03823 -1.24262,-0.0939c-0.48032,-0.2439 -0.54389,-0.56367 -0.76742,-1.06714l-0.34204,0.00146c0.1935,-1.60239 -3.96749,-8.29512 -4.95655,-10.4729c0.85795,-1.50132 4.81387,-8.15024 5.76689,-9.08628z" fill="#506a70"/><path d="M77.10705,100.80352c0.76391,0.78823 2.94709,4.64502 3.7529,5.85879c0.74985,1.12954 2.56843,3.50801 3.12331,4.47451c-0.07236,0.26104 -0.12876,0.28125 -0.07559,0.48018c-0.37631,1.04268 -1.48358,1.97666 -2.05926,3.15176c-1.04369,-0.14194 -2.08855,-0.27524 -3.13444,-0.39976l-0.35566,-0.06929c-1.39056,-0.11616 -2.78244,-0.21401 -4.1755,-0.29355c-0.46582,-0.01597 -0.77988,-0.03823 -1.24262,-0.0939c-0.48032,-0.2439 -0.54389,-0.56367 -0.76742,-1.06714c-0.13389,-2.23257 5.20469,-10.96318 4.93428,-12.0416z" fill="#fcb164"/><path d="M75.79105,113.12183c-0.92079,-3.179 2.12327,-8.47251 4.13917,-3.57363c0.54799,1.33169 -1.60677,3.33413 -1.21625,4.8208l-0.35566,-0.06929c-1.39056,-0.11616 -2.78244,-0.21401 -4.1755,-0.29355c0.20801,-0.3356 0.13213,-0.23701 0.41879,-0.50391c0.54404,-0.08716 0.70707,-0.12056 1.18944,-0.38042z" fill="#f5773b"/><path d="M75.79105,113.12183c0.59501,-0.46465 1.77083,0.09785 2.34021,0.4856c0.16889,0.32637 0.20698,0.33384 0.22705,0.69229c-1.39056,-0.11616 -2.78244,-0.21401 -4.1755,-0.29355c0.20801,-0.3356 0.13213,-0.23701 0.41879,-0.50391c0.54404,-0.08716 0.70707,-0.12056 1.18944,-0.38042z" fill="#e16237"/><path d="M71.45881,99.68584c1.1247,1.09307 3.09943,4.82153 2.78757,6.43447l-0.2373,0.12173c-1.85418,-1.53384 -4.06549,-4.13174 -2.55027,-6.5562z" fill="#fcb164"/><path d="M64.84598,114.68628c-0.01875,-0.93413 0.5833,-6.92871 2.24441,-6.14253c0.98056,1.32773 0.70634,4.16968 0.69023,5.86465c-0.96869,0.08994 -1.97108,0.16934 -2.93464,0.27788z" fill="#f5773b"/><path d="M67.10519,88.72383l0.28564,0.11689c0.8039,1.07754 1.35072,3.06094 1.77611,4.3875c-0.47065,0.77358 -2.36013,3.73359 -3.15349,3.94673c-0.19409,-0.18545 -0.33823,-0.34116 -0.51167,-0.54551c-3.24694,-3.8272 -1.67913,-5.16519 1.6034,-7.90562z" fill="#f5773b"/><path d="M41.04689,219.60645c-1.82987,-2.00977 -3.22936,-4.1748 -3.03835,-6.98584c0.31391,-4.62158 3.31974,-9.16846 8.02507,-10.03711l0.04307,0.21387c0.49409,2.49902 -0.46626,7.53809 3.1488,7.51758c4.18824,-0.02344 9.22946,0.25488 13.34299,-0.11279c2.8699,2.14746 7.59558,3.89355 10.91562,5.4668c-0.80536,2.8418 -1.93021,5.98242 -2.64446,8.74512c-0.37046,1.4165 -0.72451,2.83594 -1.06186,4.25977c-0.86308,-0.08496 -1.79574,-0.18311 -2.65618,-0.22705c-5.98325,-0.30029 -23.68001,-2.91064 -26.07471,-8.84033z" fill="#c5b49a"/><path d="M41.04689,219.60645c4.53453,3.23877 12.72762,6.06885 18.4094,5.73779c3.74821,-0.21826 7.53582,-0.99463 11.38334,-0.93018c-0.37046,1.4165 -0.72451,2.83594 -1.06186,4.25977c-0.86308,-0.08496 -1.79574,-0.18311 -2.65618,-0.22705c-5.98325,-0.30029 -23.68001,-2.91064 -26.07471,-8.84033z" fill="url(#color-4)"/><path d="M101.06274,204.76758c2.1076,0.55371 4.04894,1.29785 6.30375,1.83545c6.5412,1.56299 12.73084,1.64795 19.38805,1.37256c-4.33663,3.30762 -6.50473,8.25879 -7.51678,13.50293c-0.80654,-0.14355 -1.76995,-0.43213 -2.45388,0.10547c0.29384,0.41016 0.73901,0.45264 1.22577,0.56689c0.18838,0.01611 1.10946,0.11426 1.13891,0.28125c0.29267,1.65234 0.54697,3.0835 1.07035,4.68896c-1.41415,-0.38818 -3.02253,-1.05029 -4.41676,-1.58643c-5.01909,-1.93359 -9.91338,-3.5083 -15.09654,-4.90283c4.44093,-6.16992 4.71426,-9.75293 0.35713,-15.86426z" fill="#d9d9d8"/><path d="M95.25366,220.62891c-1.97064,-4.18945 -5.88364,-6.05713 -10.35576,-5.22656c-2.86623,0.5332 -4.4232,1.27734 -7.295,-0.11133c-0.73432,-0.35449 -2.67903,-0.4834 -2.53782,-1.5c0.54741,-0.65039 1.46937,-1.0415 2.20149,-1.47803c1.06684,-0.63574 2.26433,-1.48389 3.46608,-1.81055c2.94812,-0.80127 13.01487,0.41016 14.57916,-0.66064c1.5079,-1.03271 1.57645,-3.90967 1.94617,-5.56201c3.5005,1.30225 5.09951,4.26123 5.17656,7.87207c0.04292,2.37305 -0.94262,4.05908 -2.31004,5.9458c-0.91596,1.54541 -2.53796,3.26221 -3.83961,4.51318l-0.19175,0.09521c-0.33574,-0.26367 -0.6788,-1.5835 -0.83949,-2.07715z" fill="#c5b49a"/><path d="M99.88985,217.28613c0.06548,0.24463 0.14297,0.58594 0.23467,0.81152c-0.91596,1.54541 -2.53796,3.26221 -3.83961,4.51318l-0.19175,0.09521c-0.33574,-0.26367 -0.6788,-1.5835 -0.83949,-2.07715c0.5871,-0.23438 2.86931,-2.43896 3.46301,-2.99268l0.68774,0.3501z" fill="url(#color-5)"/><path d="M99.88985,217.28613c0.06548,0.24463 0.14297,0.58594 0.23467,0.81152c-0.91596,1.54541 -2.53796,3.26221 -3.83961,4.51318c-0.62709,-1.01953 2.25642,-3.52148 3.1195,-4.62451z" fill="#8b7f6e"/><path d="M101.9639,212.86523c0.08481,-0.31201 0.2521,-0.44531 0.47065,-0.71338c0.04292,2.37305 -0.94262,4.05908 -2.31004,5.9458c-0.0917,-0.22559 -0.16919,-0.56689 -0.23467,-0.81152c0.64277,-0.95215 1.75531,-3.33838 2.07405,-4.4209z" fill="#b1a193"/><path d="M101.9639,212.86523c-0.31875,1.08252 -1.43129,3.46875 -2.07405,4.4209l-0.48544,0.7002l-0.68774,-0.3501c1.36976,-1.69922 2.05838,-2.9751 3.24724,-4.771z" fill="#424248"/><path d="M83.98326,111.13682c1.45589,-2.2812 3.82277,-7.67388 5.16865,-10.3771c1.74535,3.61377 2.9528,6.79233 4.36212,10.55654c1.13876,2.86216 1.52635,4.00225 2.19065,6.98965l-4.88741,-1.88965c-1.61732,-0.64072 -2.70378,-0.82544 -4.42745,-1.09849l-4.54141,-0.54902c0.57568,-1.1751 1.68294,-2.10908 2.05926,-3.15176c-0.05317,-0.19893 0.00322,-0.21914 0.07559,-0.48018z" fill="#fcb164"/><path d="M93.51403,111.31626c1.13876,2.86216 1.52635,4.00225 2.19065,6.98965l-4.88741,-1.88965c1.13056,-2.23066 1.00839,-2.73735 2.69675,-5.1z" fill="#bf462c"/><path d="M83.90767,111.61699c0.84404,0.94805 2.07347,2.48877 2.48215,3.70078l-4.54141,-0.54902c0.57568,-1.1751 1.68294,-2.10908 2.05926,-3.15176z" fill="#f5773b"/><path d="M88.36251,107.91475c2.61047,0.00439 2.22083,3.51899 0.59443,5.06367c-0.36416,-0.18896 -0.84008,-0.51328 -1.14989,-0.78223c-0.44619,-0.38101 -0.71323,-0.93091 -0.73666,-1.51714c-0.04072,-0.97383 0.67573,-2.05811 1.29213,-2.76431z" fill="#727859"/><path d="M48.63778,120.46655l0.05127,0.11572c-0.32373,1.05894 -0.84902,1.94897 -1.20043,2.93027c-0.39741,1.11006 -0.81928,2.6083 -1.1121,3.75527c-0.37133,1.46411 -0.6895,2.94126 -0.9536,4.42837c-0.19746,1.16646 -0.39404,3.63926 -0.81972,4.57764c-0.73637,-0.79248 -1.31102,-1.47861 -1.99246,-2.32134c-1.09936,-1.3626 -2.61062,-2.68228 -2.96994,-4.46382c-0.30791,-1.50996 0.04014,-3.07983 0.95756,-4.31821c1.49427,-2.05942 5.68134,-4.3125 8.03943,-4.70391z" fill="#252428"/><path d="M82.46452,164.72021c0.46772,0.03809 1.0308,0.19629 1.49076,0.30469c4.48502,1.05615 8.3781,2.67627 12.0598,5.48877c0.62197,0.47607 1.52357,1.10889 1.91234,1.74609c-4.18048,-0.21826 -8.23249,-0.11133 -12.41619,-0.05713c-0.87406,-3.15088 -1.57396,-4.64502 -3.0467,-7.48242z" fill="#c5b49a"/><path d="M48.56703,207.19629c2.45608,-0.0498 5.38384,0.10986 7.96882,0.09814l21.9329,-0.15088l10.59233,-0.02197c1.0497,-0.00293 5.50674,-0.23584 6.03715,0.35596c-0.24375,1.11768 -1.31161,1.1001 -2.19139,1.07373c-7.13519,0.01172 -13.93552,-0.27832 -21.12329,-0.17139c0.28286,0.0835 0.15293,0.02344 0.39199,0.17139c-0.15879,0.0542 -0.30893,0.15527 -0.47651,0.16113c-0.52661,0.01758 -1.87659,-0.6665 -3.21706,-0.61523c-2.38621,0.09082 -18.79568,0.56104 -19.98761,0.04102c-0.26719,-0.11719 -0.2313,-0.20068 -0.33442,-0.45557c0.15923,-0.29443 0.14575,-0.27686 0.40708,-0.48633z" fill="#424248"/><path d="M64.77699,166.40186c3.30436,0.47461 7.46038,0.41895 10.7728,0.104c-0.76039,1.03418 -1.54188,2.05225 -2.34387,3.05566c-0.87904,1.08984 -1.72074,1.98779 -2.80427,2.87256c-1.61131,-1.18213 -4.20948,-4.36963 -5.62466,-6.03223z" fill="#fcb164"/><path d="M128.68489,208.17334c0.84711,-0.04248 1.80233,0.22559 2.24324,1.01807c1.19179,2.14014 -0.27583,6.26367 -2.12474,7.70068c-0.29516,0.22852 -0.68788,-0.07471 -0.95727,-0.21973c0.64526,-3.70166 1.63358,-5.23535 -2.85085,-5.7085c1.02099,-1.30664 2.21775,-2.09473 3.68961,-2.79053z" fill="#d9d9d8"/><path d="M10.72178,207.85986c1.48737,0.00732 3.30069,1.67578 4.3229,2.67334c-3.74712,1.11621 -3.22624,1.81201 -2.6051,5.35254l0.00297,0.47461c-0.29094,0.46875 -0.09075,0.32959 -0.60146,0.45557c-0.61724,-0.23437 -1.17324,-0.89502 -1.47706,-1.46338c-1.31905,-2.4668 -2.53022,-5.68066 0.35774,-7.49268z" fill="#d9d9d8"/><path d="M97.63035,134.6729c2.12913,0.54243 2.58411,3.42202 2.53298,5.29146c-0.07412,2.71055 -1.13891,5.05591 -3.08772,6.92139c-0.42641,-0.5187 0.19175,-6.95361 0.55722,-7.78242c0.35771,0.15586 0.46186,0.18926 0.83979,0.28945c0.52661,-0.26265 0.7705,-0.32271 0.68554,-0.93984c-0.47036,-0.19468 -0.90439,-0.02944 -1.49706,0.04028c-0.20039,-0.67661 -0.05889,-3.02725 -0.03076,-3.82031z" fill="#fcb164"/><path d="M60.58816,164.93701c2.98225,0.84521 5.69277,4.88086 7.84006,7.33887l-4.7566,-0.06299c-0.86703,-1.97607 -2.59172,-5.35107 -3.08347,-7.27588z" fill="#c5b49a"/><path d="M19.25387,221.98682l0.50346,-0.00586l0.18545,0.24756c0.20332,1.30078 -0.10693,4.46045 -1.79032,4.75781c-0.6454,0.11279 -1.13275,-0.36475 -1.61219,-0.74268c-1.17567,-1.15723 -1.61527,-2.19434 -2.2376,-3.69287c1.64845,-0.20508 3.29887,-0.39258 4.9512,-0.56396z" fill="#d9d9d8"/><path d="M120.2608,222.27686c1.88582,0.13916 3.87872,0.14209 5.80307,0.25635c-0.47827,1.27441 -0.91039,2.04346 -1.7389,3.10547c-3.13459,3.85986 -4.11339,-0.57275 -4.06417,-3.36182z" fill="#d9d9d8"/><path d="M15.56162,211.08105c0.74824,0.34717 2.1054,2.81396 2.47732,3.60791l-3.01535,0.76611l-1.62826,0.44971c-0.78267,-3.26514 -0.95804,-3.64893 2.16629,-4.82373z" fill="#d9d9d8"/><path d="M124.52815,211.40918c1.00707,0.56104 2.22024,0.45557 2.77483,1.27588c0.24946,0.96387 0.20156,2.70264 -0.72451,3.26953l-0.70766,-0.20361c-1.21889,-0.25488 -2.44026,-0.49658 -3.66398,-0.72656c0.57846,-1.33154 1.42748,-2.47998 2.32132,-3.61523z" fill="#d9d9d8"/><path d="M76.77981,166.33594c0.73783,0.75439 0.82485,4.6377 0.87113,5.76563c-1.43334,-0.00586 -2.86653,0.00293 -4.29957,0.0249c-0.33852,0.01025 -0.26836,0.00293 -0.60776,-0.07471c0.04849,-0.26514 3.51691,-4.96582 4.03619,-5.71582z" fill="#efc89c"/><path d="M180.05839,99.52969c-3.06882,-11.504 1.40477,-26.06514 10.38858,-33.71865c1.13671,-0.96826 2.66746,-1.59771 3.88766,-2.41787c6.21381,-4.17495 13.51159,-4.85889 20.77422,-4.18447c7.69329,0.77183 14.97789,5.48687 19.75617,11.50708c7.21136,9.08672 7.51018,18.12187 6.18598,28.98311c0.85107,0.61274 1.73436,1.14785 2.59714,1.78418c4.11617,4.12148 1.17479,9.48179 -0.56982,13.92905c0.24902,0.90176 0.53466,2.02793 0.90819,2.86699c2.69529,6.04629 9.50235,8.00771 6.7763,15.78193c-0.83788,-2.09297 -1.32567,-2.98931 -2.90915,-4.59419c1.32128,3.85767 1.84129,7.03579 0.10693,11.01021c-0.36767,0.84331 -1.14403,1.91455 -2.02,2.27549c-0.45263,-0.45688 -0.74413,-2.62939 -0.99315,-3.46274c-2.5825,5.12856 -3.79538,7.02715 -9.56388,9.3186c1.04882,3.7998 2.08299,10.02539 -2.47703,12.05566c-2.38767,1.27734 -5.54292,0.12891 -7.84417,-0.92725c0.44824,1.29639 1.11034,6.59766 1.30223,8.23535c0.97851,4.45166 1.69774,12.38232 2.10789,16.9292c0.76318,8.47119 1.47069,17.86816 1.5161,26.37451l-0.26074,0.06738c0.09814,0.8833 0.38525,4.25977 0.2959,4.98486c-0.83349,0.85547 -3.78805,1.92773 -5.0229,2.31152c-0.19336,0.06006 -0.54492,-0.10254 -0.73827,-0.20068l0.22265,-0.0498c0.88622,-0.20215 1.24218,-0.42188 2.02293,-0.84229c0.69286,-0.37354 2.14012,-0.25635 2.55906,-1.0166c0.49658,-0.90234 0.43652,-4.12939 0.25342,-5.07715c-0.07617,0.68848 -0.09961,1.17188 -0.11133,1.86621l-0.00732,2.57666c-0.54345,0.20947 -1.30809,0.53467 -1.84569,0.6958l-1.53514,0.52881c-0.92284,-1.86328 -0.16846,-2.93408 -0.83642,-4.50146c-0.38232,-0.3457 -0.32959,-0.23145 -0.98876,-0.27393l-2.08152,0.60498c-1.76366,0.31348 -4.19527,0.66504 -5.89448,1.05029c0.03076,1.65674 0.03516,3.43506 0.12598,5.07715l-0.35009,0.12451c-2.04197,0.33105 -4.83101,0.52295 -6.92425,0.5127l-0.18457,0.17285c0.08203,0.29443 0.08935,0.21826 0.0791,0.50977c-1.71825,0.08643 -7.72405,-2.20166 -9.08634,-0.74561c-0.29736,0.2373 -0.29004,0.28857 -0.65624,0.30762c-1.78709,-0.23877 -4.15279,-0.77637 -5.96332,-1.13525l-0.05566,0.20068c-0.09961,0.375 -0.08935,0.61963 -0.2959,0.94482c-0.04394,-0.43945 0.01465,-0.65625 -0.02783,-1.10596c-0.8203,-0.9126 -4.18648,-1.28027 -6.08344,-2.63525c-0.06885,-2.30859 0.28857,-5.82568 0.38232,-8.26172c0.25927,-6.80713 0.69726,-13.84131 1.24364,-20.62793c-0.01611,-1.20557 0.62695,-7.32275 0.82763,-8.65576l0.10547,-0.91113c0.63281,-3.77344 1.26561,-8.65576 2.16795,-12.26953c-0.01318,-3.09668 2.18553,-5.38477 0.76904,-9.06152c-1.37548,-0.00439 -2.86667,0.1333 -4.33297,0.1377c-1.02538,-0.82471 -1.38719,-1.42822 -2.13426,-2.50195c-0.5874,0.01758 -1.30223,0.06592 -1.87205,0.00732c-5.90473,-0.60498 -7.34319,-7.44141 -5.30854,-12.07646c0.3955,-0.90103 0.70751,-1.3979 1.25682,-2.20884c-1.48534,-3.33032 -3.49948,-6.53408 -4.80757,-10.00459c0.52294,-0.929 0.81445,-1.24116 1.58641,-1.91396l14.0653,0.14531c-2.84909,-1.77202 -4.51168,-4.01206 -6.22553,-6.87349c-0.51416,-0.93135 -0.8789,-1.72412 -1.31835,-2.69619c-0.20361,-0.54917 -0.24609,-0.73154 -0.57275,-1.20469c-6.49359,-0.40928 -9.94473,-13.22344 -2.37156,-17.72139z" fill="#252428"/><path d="M180.05839,99.52969c-3.06882,-11.504 1.40477,-26.06514 10.38858,-33.71865c1.13671,-0.96826 2.66746,-1.59771 3.88766,-2.41787c6.21381,-4.17495 13.51159,-4.85889 20.77422,-4.18447c7.69329,0.77183 14.97789,5.48687 19.75617,11.50708c7.21136,9.08672 7.51018,18.12187 6.18598,28.98311c0.85107,0.61274 1.73436,1.14785 2.59714,1.78418c-0.54345,0.35581 -0.61962,0.41558 -1.02685,0.92007c3.31638,4.76719 -0.12158,15.02036 -6.86273,14.34375c-1.1997,-0.12041 -2.33201,-1.28555 -2.93698,-2.2938c-3.41012,10.35103 -10.93789,15.63574 -21.57109,16.83735c-5.0522,0.571 -8.12688,0.38379 -13.01209,-1.17788c-5.59419,-2.23594 -9.60636,-4.48564 -12.70447,-9.92578c-0.46142,0.41675 -0.68701,0.6479 -1.21288,0.96519c-0.51416,-0.93135 -0.8789,-1.72412 -1.31835,-2.69619c-0.20361,-0.54917 -0.24609,-0.73154 -0.57275,-1.20469c-6.49359,-0.40928 -9.94473,-13.22344 -2.37156,-17.72139z" fill="url(#color-6)"/><path d="M232.97539,102.22222c0.08935,1.50776 -0.54785,4.67036 0.63134,5.59277c1.32274,-0.57686 1.98777,-3.18647 2.92673,-4.27529c1.84276,-2.1356 3.78659,-3.06123 6.08783,-1.13657c3.31638,4.76719 -0.12158,15.02036 -6.86273,14.34375c-1.1997,-0.12041 -2.33201,-1.28555 -2.93698,-2.2938c-3.41012,10.35103 -10.93789,15.63574 -21.57109,16.83735c-5.0522,0.571 -8.12688,0.38379 -13.01209,-1.17788c-5.59419,-2.23594 -9.60636,-4.48564 -12.70447,-9.92578c-0.46142,0.41675 -0.68701,0.6479 -1.21288,0.96519c-0.51416,-0.93135 -0.8789,-1.72412 -1.31835,-2.69619c0.69433,-0.20376 0.85839,-0.23335 1.47362,-0.58594c-1.46922,-3.70869 -2.02147,-6.99668 -2.22801,-10.96318c-0.03223,-0.61201 -0.17724,-1.93564 0.05566,-2.4769c0.85839,0.9416 0.58886,3.70063 3.21823,6.19995c2.2866,1.4272 4.28756,2.01152 7.01214,1.91821c3.1113,-0.26484 6.11567,-0.96035 7.62737,-4.03696c2.16209,-4.40156 1.04442,-8.77075 7.53655,-5.31548c0.78954,6.28418 3.10837,9.50361 9.86417,9.79731c3.46872,-0.00703 6.07905,-0.39375 8.79484,-2.76812c1.82225,-2.14922 2.53269,-4.78022 2.63962,-7.55874c1.42381,-0.31494 2.53123,-0.41499 3.97848,-0.4437z" fill="#fac081"/><path d="M185.52221,110.62969c2.2866,1.4272 4.28756,2.01152 7.01214,1.91821l-0.51855,0.196c0.11426,0.6249 -0.21679,1.49106 -0.70312,1.87573c-3.26071,2.57988 -6.28266,-0.63237 -5.79047,-3.98994z" fill="#fcb164"/><path d="M226.35728,110.22466c0.45996,2.11392 -2.78318,6.96621 -5.38472,5.00156c-0.6621,-0.4998 -1.08397,-1.29639 -1.52635,-1.98428c-0.16406,-0.24961 -1.48827,0.0145 -1.88377,-0.24917c3.46872,-0.00703 6.07905,-0.39375 8.79484,-2.76812z" fill="#fcb164"/><path d="M184.47632,117.86982l1.05761,2.31694c-0.46142,0.41675 -0.68701,0.6479 -1.21288,0.96519c-0.51416,-0.93135 -0.8789,-1.72412 -1.31835,-2.69619c0.69433,-0.20376 0.85839,-0.23335 1.47362,-0.58594z" fill="#141314"/><path d="M213.59861,115.88027l0.16992,0.0252l0.14502,0.24009c-0.12891,0.80845 -0.23144,1.06831 -0.64013,1.76938c-2.63376,4.52197 -8.38176,5.13691 -12.51551,2.39297c-1.31688,-1.10112 -1.50731,-1.40596 -2.33054,-2.92383c4.44137,-0.01377 11.06386,0.13887 15.17125,-1.50381z" fill="#141314"/><path d="M212.52636,117.07163c0.08642,0.09214 0.02783,0.01802 0.07031,0.27363c-1.35204,2.12036 -3.28415,3.3249 -5.79047,3.55151c-1.4619,0.13228 -3.83346,-0.07734 -4.99214,-1.03945c-0.60351,-0.45015 -1.13817,-0.98057 -1.68895,-1.49517c4.22311,0.00527 8.39787,0.27495 12.40125,-1.29053z" fill="#fdfcfc"/><path d="M239.36058,105.78428c0.90673,-0.0769 1.68895,-0.06138 2.36717,0.61904c0.18896,0.54243 0.21094,0.30117 0.07764,0.75293l-0.2666,0.0397c-3.90084,-1.7168 -1.24218,3.59209 -1.41649,4.63887l-0.28125,-0.07793c-0.55664,-0.41777 -0.62695,-0.89795 -0.85986,-1.57632c-0.39697,-0.57524 -0.26367,-0.577 -0.79833,-0.78735c-1.01513,0.49995 -0.88476,1.83428 -1.69188,2.73003c-0.78222,-0.1667 -0.59326,-1.42354 -0.39404,-1.98428c0.65917,-1.86665 1.46337,-3.36768 3.26364,-4.35469z" fill="#141314"/><path d="M202.76912,106.56431c0.20947,0.03296 0.35742,0.11704 0.56249,0.20229c0.18164,0.5436 -1.22606,1.41914 -1.47655,2.52832c-0.6914,3.06196 2.20164,4.88613 4.48677,2.66748c0.27246,-0.26411 0.59033,-0.25342 0.92724,-0.19219l0.12744,0.20918l-0.28418,0.3189c-4.37105,4.3396 -9.60636,-0.79204 -4.34322,-5.73398z" fill="#141314"/><path d="M196.33998,77.96309c-0.55664,3.30029 -0.48779,7.70259 2.69089,9.89355c0.49951,0.34497 0.86571,0.51343 1.4619,0.38218c0.01758,-0.40342 -0.20361,-0.50332 -0.49218,-0.81094c-2.08885,-2.22187 -2.83298,-5.14409 -2.86521,-8.12842c-0.00879,-0.72305 -0.10693,-1.53457 0.17871,-2.22393c0.36035,0.02344 0.46582,0.73799 0.56835,1.19165c0.69286,3.10942 2.62644,6.74414 5.25728,8.66382c2.08152,1.63169 4.59078,2.99561 7.2055,3.51006c1.52489,0.68862 8.43303,1.28232 10.11172,0.98437l0.09961,-0.20698c-0.21972,-0.58271 -0.60497,-0.83291 -1.07812,-1.25479l0.10693,-0.39756c2.47849,1.25156 4.9482,2.3688 7.47503,3.51255c2.45799,1.11226 4.12789,1.95894 5.01704,4.66772c0.25927,0.80684 0.50683,1.61763 0.7412,2.43193l-3.67379,0.49351c-2.46531,-4.05674 -3.90963,-3.59092 -6.90814,-6.70767l-0.19629,0.13345c-0.51562,-0.41411 -1.05761,-0.99316 -1.64207,-1.01191l-0.19336,0.28916c0.42334,0.49424 1.25243,0.51167 1.62303,1.0856l-0.21679,0.02021c0.20654,0.29546 0.35595,0.41895 0.34716,0.76699c-0.68847,0.15249 -2.05955,-0.38613 -2.81833,-0.45688c-5.65131,-0.52676 -9.80264,0.22046 -11.16494,6.41968c-2.09617,-1.31382 -4.08834,-1.57178 -6.22699,-0.21021c-0.95507,-6.1998 -5.09321,-6.92476 -10.53652,-6.55532c-0.77636,0.05273 -2.53123,0.42583 -3.20944,0.17183c0.27832,-1.43672 4.87495,-2.17866 6.1435,-1.49209c0.49072,0.26602 2.47996,0.83613 2.89157,0.54199c0.02783,-1.31616 -2.34373,-1.68853 -3.35886,-1.8394c-2.07713,-0.30908 -4.62447,0.02212 -6.0058,1.79619c-1.26268,1.621 -2.06248,2.49448 -3.6987,3.75117c1.44286,-6.38936 8.44328,-13.94077 12.3661,-19.41152z" fill="#fac081"/><path d="M221.61123,94.48066c-2.47263,-1.1313 -3.36179,-1.45312 -6.1933,-0.69858c-0.57861,0.15396 -1.03271,0.35903 -1.61717,0.28184l-0.06738,-0.20581c1.71092,-2.35312 6.54633,-2.06191 8.50334,0.10605l-0.19629,0.13345c-0.51562,-0.41411 -1.05761,-0.99316 -1.64207,-1.01191l-0.19336,0.28916c0.42334,0.49424 1.25243,0.51167 1.62303,1.0856z" fill="#141314"/><path d="M204.6192,92.11436c1.6787,-0.06064 2.43308,0.62695 1.24511,2.17368c-1.68895,0.4292 -2.50339,-0.81226 -1.24511,-2.17368z" fill="#bf462c"/><path d="M204.93414,92.4917c0.60351,0.09053 0.61962,0.13345 0.94189,0.49746c0.01025,0.62974 0.03516,0.40225 -0.29736,1.00195c-0.47021,-0.12261 -0.76757,-0.17271 -1.05321,-0.56221c-0.01172,-0.55313 -0.00293,-0.38276 0.40869,-0.93721z" fill="#e16237"/><path d="M216.00386,96.29268c2.499,-0.398 6.05707,0.20142 8.24406,1.53984c2.65867,1.59331 3.35886,3.6542 2.79197,6.60908c-0.72949,3.80479 -2.7158,5.70439 -6.43207,6.56719c-5.17232,0.93647 -10.34024,-0.68291 -11.1371,-6.51299c-0.66943,-4.89536 1.78856,-7.6106 6.53314,-8.20312z" fill="#fac081"/><path d="M216.3437,98.89204c0.58007,-0.03662 1.47362,-0.11177 2.03172,0.06562c2.76853,0.88154 3.82614,4.51245 2.94138,7.06187c-0.52148,1.5022 -1.46483,2.16211 -2.85349,2.77529c-5.02437,1.01206 -6.73822,-5.8418 -3.67819,-8.85264c0.43798,-0.43228 1.02245,-0.74722 1.55858,-1.05015z" fill="url(#color-7)"/><path d="M216.0815,100.1918c3.09519,0.10591 3.06296,3.21387 0.50683,4.70215c-0.34424,0.01494 -0.55957,0.01069 -0.88769,-0.09199c-0.52001,-0.1623 -0.9536,-0.5272 -1.20116,-1.01265c-0.75585,-1.51113 0.22412,-2.90947 1.58202,-3.59751z" fill="#fdfcfc"/><path d="M192.3908,96.15645c3.936,-0.09844 7.43694,0.84756 7.90862,5.55513c0.24023,2.39136 -0.50683,4.8561 -2.08738,6.68013c-1.6494,1.90166 -3.39841,2.1498 -5.75971,2.32207c-2.0449,0.01318 -4.16598,-0.24697 -5.78168,-1.60635c-2.69968,-2.27095 -3.39108,-8.3502 -1.06493,-11.06118c1.58202,-1.84307 4.55123,-1.77363 6.78509,-1.88979z" fill="#fac081"/><path d="M193.38396,98.75068c5.37153,-0.43652 6.5683,7.69043 1.4868,9.9041c-4.53658,0.94336 -6.97406,-7.25962 -1.4868,-9.9041z" fill="#252428"/><path d="M193.06902,100.05381c2.95749,0.1415 2.99704,3.22749 0.57275,4.40112c-2.82126,-0.19409 -3.15085,-3.16758 -0.57275,-4.40112z" fill="#fdfcfc"/><path d="M177.6883,105.53555c2.32615,1.65776 0.83788,4.47202 1.93944,5.17822c1.44579,-0.54067 0.20654,-1.25786 0.63281,-2.17104l0.56542,0.05171c0.44531,0.49321 0.86425,4.09673 0.9829,4.96509l0.3706,2.26113c-4.05172,-1.76426 -5.2353,-6.23218 -4.49117,-10.28511z" fill="#fac081"/><path d="M180.41435,101.1917c0.5332,0.74736 0.51269,5.10937 0.53906,6.21167l-1.35497,-1.43687c-0.62402,-0.62344 -1.00634,-0.72803 -1.83983,-0.99478c0.73681,-1.79722 1.29491,-2.4561 2.65574,-3.78003z" fill="#efc89c"/><path d="M203.13972,86.93101c0.53613,-0.15029 0.33838,-0.20625 0.72363,-0.05757l0.48193,0.18354c1.36815,0.52017 2.85935,0.50508 4.37691,1.11592c1.10595,0.44487 2.74802,0.61963 4.00485,1.13584c-0.82616,0.39639 -3.0073,-0.52559 -3.9609,-0.65903c0.0835,0.01172 -0.45556,0.37969 -0.6372,0.45044c-0.03516,-0.38745 -0.03662,-0.24346 0.07471,-0.63325l-0.18457,-0.19014c-1.23485,-0.01787 -1.08837,0.38276 -2.02733,-0.03091c0.49365,0.3958 0.7456,0.58374 1.27587,0.91157c0.68115,0.42144 2.77439,0.78838 3.12302,1.16191l-0.04541,0.12173c-2.61472,-0.51445 -5.12398,-1.87837 -7.2055,-3.51006z" fill="#252428"/><path d="M217.39106,88.08105c0.83202,0.51709 1.41356,0.89736 2.19432,1.48506l-0.10693,0.39756c-0.84814,-0.51753 -1.42821,-1.15972 -2.08738,-1.88262z" fill="#fcb164"/><path d="M192.40105,161.71289l0.23144,0.14941l-0.70898,3.8042c3.86129,1.40332 10.89248,2.48438 15.00279,2.66309c2.55759,0.05273 5.11665,0.03662 7.67425,-0.04541c2.57078,-0.07617 4.16891,-0.27246 6.65912,-0.6709c1.36669,-0.27246 2.28367,-0.5376 3.60202,-0.94189c-0.17139,0.88916 0.07471,1.53955 0.47168,2.34082l-0.03809,0.0542c0.20508,1.07813 0.38232,2.47852 -0.19775,3.42627l-0.13769,0.08057c-1.16161,2.01416 -4.39596,5.69092 -6.01166,7.91895c0.27832,0.50244 0.39404,5.20605 0.53466,6.44238c0.7998,7.06201 1.75926,14.13428 2.19285,21.22998c0.05127,0.854 0.35302,4.13379 0.23877,4.78564c-1.76366,0.31348 -4.19527,0.66504 -5.89448,1.05029c0.03076,1.65674 0.03516,3.43506 0.12598,5.07715l-0.35009,0.12451c-2.04197,0.33105 -4.83101,0.52295 -6.92425,0.5127l-0.18457,0.17285c0.08203,0.29443 0.08935,0.21826 0.0791,0.50977c-1.71825,0.08643 -7.72405,-2.20166 -9.08634,-0.74561c-0.29736,0.2373 -0.29004,0.28857 -0.65624,0.30762c-1.78709,-0.23877 -4.15279,-0.77637 -5.96332,-1.13525l-0.05566,0.20068c-0.09961,0.375 -0.08935,0.61963 -0.2959,0.94482c-0.04394,-0.43945 0.01465,-0.65625 -0.02783,-1.10596c-0.8203,-0.9126 -4.18648,-1.28027 -6.08344,-2.63525c-0.06885,-2.30859 0.28857,-5.82568 0.38232,-8.26172c0.25927,-6.80713 0.69726,-13.84131 1.24364,-20.62793c-0.01611,-1.20557 0.62695,-7.32275 0.82763,-8.65576l0.10547,-0.91113c0.63281,-3.77344 1.26561,-8.65576 2.16795,-12.26953l0.23144,-0.13037c0.26953,-1.2085 0.53173,-2.4668 0.84521,-3.65918z" fill="#252428"/><path d="M218.94817,180.49219c0.27832,0.50244 0.39404,5.20605 0.53466,6.44238c0.7998,7.06201 1.75926,14.13428 2.19285,21.22998c0.05127,0.854 0.35302,4.13379 0.23877,4.78564c-1.76366,0.31348 -4.19527,0.66504 -5.89448,1.05029c0.03076,1.65674 0.03516,3.43506 0.12598,5.07715l-0.35009,0.12451c-2.04197,0.33105 -4.83101,0.52295 -6.92425,0.5127l-0.18457,0.17285c0.08203,0.29443 0.08935,0.21826 0.0791,0.50977c-1.71825,0.08643 -7.72405,-2.20166 -9.08634,-0.74561l-0.15674,-0.15234c0.22851,-0.27246 0.24463,-0.22266 0.35302,-0.53467c-0.61523,-0.46289 -1.43553,-0.38086 -2.35398,-0.61377l0.07324,-0.24463c2.59421,0.63574 5.23677,1.06201 7.90129,1.27588l0.06299,-4.87207c0.18164,-5.40527 0.04102,-13.54248 -0.14062,-19.00342c-2.17967,2.37451 -5.73335,3.62695 -8.49748,5.66309c-0.27685,2.63818 -0.17871,5.49463 -0.2915,8.15918c-0.04248,1.00635 0.01465,2.39648 -0.16699,3.3501c-0.35449,-1.04736 -0.03809,-9.55518 -0.07031,-11.38477c-1.03856,0.63428 -1.50438,1.19678 -2.603,0.53027c10.35635,-5.35693 17.59115,-12.6123 25.15846,-21.33252z" fill="#141314"/><path d="M205.99907,194.95605c2.29685,-1.72852 5.73335,-4.17041 7.49407,-6.32812c0.80859,7.46191 1.85155,18.04102 1.99363,25.48828c-1.47508,0.16406 -9.17863,0.4292 -9.5463,0.61084c-0.12744,-1.57764 0.00293,-4.56738 -0.01758,-6.32959c-0.05566,-4.44434 -0.18017,-9.01758 0.07617,-13.44141z" fill="#252428"/><path d="M218.61859,183.25342c0.40576,6.45557 1.56004,12.90967 2.21922,19.34473c0.14648,1.44287 0.59765,9.74707 1.07665,10.35205c-1.76366,0.31348 -4.19527,0.66504 -5.89448,1.05029c-0.22998,-1.13965 -0.39257,-6.01318 -0.5083,-7.52637c-0.47021,-6.11279 -1.14696,-12.35303 -1.56883,-18.45117c1.88084,-1.70947 2.97946,-2.80518 4.67574,-4.76953z" fill="#252428"/><path d="M205.94048,214.72705c0.36767,-0.18164 8.07121,-0.44678 9.5463,-0.61084c0.08642,1.59668 0.14795,3.51855 0.30908,5.08594c-2.04197,0.33105 -4.83101,0.52295 -6.92425,0.5127c-0.87743,-0.01465 -1.94383,-0.10986 -2.83591,-0.16846c-0.01318,-1.59814 -0.00293,-3.22559 -0.09521,-4.81934z" fill="#bf462c"/><path d="M220.03947,176.63965l0.41455,0.16553c0.63134,-0.23145 3.71188,-4.37842 4.74019,-5.37598c-0.16699,0.44824 -0.27392,0.65186 -0.23437,1.14404c-1.16161,2.01416 -4.39596,5.69092 -6.01166,7.91895c-7.56731,8.72021 -14.80211,15.97559 -25.15846,21.33252c-2.07566,1.07666 -3.80416,1.8208 -6.02924,2.52832c0.16992,-1.16748 0.1831,-1.96582 0.20801,-3.15527c10.57168,-4.24658 16.99789,-10.00195 25.16432,-17.81689c1.63329,-1.56299 3.55514,-4.0752 5.00093,-5.41992l0.1582,-0.14502c0.90234,-0.41895 1.03271,-0.47314 1.74754,-1.17627z" fill="#bf462c"/><path d="M196.6183,213.36475c0.69433,0.11426 1.33446,0.19043 2.03172,0.26953c1.9116,0.43359 4.93941,0.74561 6.9096,0.87598l-0.06299,4.87207c-2.66453,-0.21387 -5.30708,-0.64014 -7.90129,-1.27588c-0.33838,-0.09375 -0.41455,-0.12451 -0.73388,-0.27246c-0.49218,-0.81592 -0.26074,-3.33398 -0.24316,-4.46924z" fill="#bf462c"/><path d="M225.29528,169.06641c0.20508,1.07813 0.38232,2.47852 -0.19775,3.42627l-0.13769,0.08057c-0.03955,-0.49219 0.06738,-0.6958 0.23437,-1.14404c-1.02831,0.99756 -4.10885,5.14453 -4.74019,5.37598l-0.41455,-0.16553c-0.71484,0.70313 -0.84521,0.75732 -1.74754,1.17627c0.48486,-0.73828 1.71385,-2.06396 2.32615,-2.84473c1.49706,-1.90576 2.82859,-3.81299 4.47066,-5.59863z" fill="#bf462c"/><path d="M225.29528,169.06641c0.20508,1.07813 0.38232,2.47852 -0.19775,3.42627l-0.13769,0.08057c-0.03955,-0.49219 0.06738,-0.6958 0.23437,-1.14404c-1.02831,0.99756 -4.10885,5.14453 -4.74019,5.37598l-0.41455,-0.16553c1.64061,-1.90723 3.52585,-3.97705 4.88374,-6.09375c0.35449,-0.55225 0.30176,-0.6665 0.16553,-1.17334z" fill="#973a29"/><path d="M206.97758,168.50244c-0.26806,0.47607 -1.80028,1.27002 -2.45799,1.72119c-2.04051,1.39893 -3.98873,2.86377 -6.09809,4.16309c-2.90476,1.78857 -6.12738,2.95166 -9.2504,4.27734c-0.03955,0.00586 -0.08057,0.01318 -0.12012,0.01904l0.10547,-0.91113c0.87743,-0.09521 1.42967,-0.37207 2.21922,-0.63281c5.53706,-1.82373 9.99307,-5.32617 14.7816,-8.47998c0.28564,-0.1875 0.49511,-0.18311 0.8203,-0.15674z" fill="#141314"/><path d="M187.51145,211.01074c2.38035,0.48926 6.10102,1.58203 8.47404,2.23242c0.00732,1.49268 0.00293,2.98389 -0.01465,4.47656c-2.81394,-0.66943 -5.97504,-1.34473 -8.63371,-2.41992c0.01904,-1.50732 0.02783,-2.78467 0.17431,-4.28906z" fill="#bf462c"/><path d="M217.37055,132.44253c0.3999,-0.24536 1.1455,-0.70386 1.57469,-0.76509c9.06144,-1.29668 16.89828,16.10918 15.82163,22.75664c-0.03076,1.18652 -0.60644,2.48877 -1.09423,3.56689c-1.07372,1.25684 -1.2993,1.34619 -2.83591,1.9834c-4.7021,-0.67236 -8.27629,-3.32373 -12.11268,-5.95752l-0.00439,-0.44531c0.46582,-0.24463 1.01366,-0.98437 1.37987,-1.4165c0.29297,-0.5127 0.58007,-1.06055 0.86425,-1.58057c-0.36328,-0.08643 -0.45263,-0.22119 -0.76904,-0.46729c1.81199,-4.07109 2.00242,-4.98486 -1.42528,-7.80835c0.52294,-0.1355 0.54052,-0.17842 0.95067,-0.55723c-4.43697,-2.89336 -6.46723,-1.31499 -10.83828,-1.68442l-0.26513,-0.02476c0.05127,-0.35273 0.12012,-0.57173 0.00146,-0.90688l-0.44091,-0.15645c1.70213,-1.22388 3.33102,-2.5459 4.87935,-3.95962c0.89208,-0.91069 1.80174,-1.80469 2.72751,-2.6814l-0.72509,-0.1645c0.63134,-0.34951 1.71532,-0.17681 2.3115,0.26895z" fill="#bf462c"/><path d="M220.09953,152.16504c1.66258,1.98926 8.17229,5.15039 10.87636,5.71436c1.06054,0.21973 1.88963,-1.40479 2.28074,-1.01367c0.7705,0.77197 1.10595,-1.4165 1.28759,-2.39941l0.22265,-0.03223c-0.03076,1.18652 -0.60644,2.48877 -1.09423,3.56689c-1.07372,1.25684 -1.2993,1.34619 -2.83591,1.9834c-4.7021,-0.67236 -8.27629,-3.32373 -12.11268,-5.95752l-0.00439,-0.44531c0.46582,-0.24463 1.01366,-0.98437 1.37987,-1.4165z" fill="#973a29"/><path d="M221.89541,144.22485l0.48339,-0.33325c3.58151,1.95894 8.60881,2.4687 9.80557,6.56982c0.09082,0.31494 0.17578,0.63135 0.25488,0.94922c-0.36474,-0.58154 -1.28466,-2.05371 -1.68895,-2.42871c-0.97997,-0.9126 -7.45159,-3.91963 -8.43303,-4.18564c-0.10547,-0.1144 -0.31933,-0.42979 -0.42187,-0.57144z" fill="url(#color-8)"/><path d="M219.72014,141.75161c0.59472,0.53232 1.02831,0.91772 1.56883,1.51787c0.07031,0.10576 0.59619,0.94497 0.60644,0.95537c0.10254,0.14165 0.3164,0.45703 0.42187,0.57144c0.17871,2.30918 -0.35888,3.69639 -1.3535,5.78818c-0.36328,-0.08643 -0.45263,-0.22119 -0.76904,-0.46729c1.81199,-4.07109 2.00242,-4.98486 -1.42528,-7.80835c0.52294,-0.1355 0.54052,-0.17842 0.95067,-0.55723z" fill="#210904"/><path d="M213.05663,135.01948c0.39111,0.22866 0.47314,0.22881 0.70019,0.62373c-1.26415,1.25947 -4.42379,3.57158 -5.14009,4.39922c0.05127,-0.35273 0.12012,-0.57173 0.00146,-0.90688l-0.44091,-0.15645c1.70213,-1.22388 3.33102,-2.5459 4.87935,-3.95962z" fill="#210904"/><path d="M215.78414,132.33809l-0.72509,-0.1645c0.63134,-0.34951 1.71532,-0.17681 2.3115,0.26895c-1.24657,0.88989 -2.47263,2.14512 -3.61374,3.20068c-0.22705,-0.39492 -0.30908,-0.39507 -0.70019,-0.62373c0.89208,-0.91069 1.80174,-1.80469 2.72751,-2.6814z" fill="#141314"/><path d="M221.28897,143.26948c0.17578,-1.15122 -0.25927,-2.3855 0.00586,-3.24639l0.17285,-0.05332c0.69286,0.72451 0.96386,2.78511 0.82763,3.773l0.0835,0.14883l-0.48339,0.33325c-0.01025,-0.0104 -0.53613,-0.84961 -0.60644,-0.95537z" fill="#3c1e14"/><path d="M201.17832,140.43457c-0.18017,-0.34541 -0.33838,-0.70107 -0.47607,-1.06523c-0.58593,-1.52065 -1.41356,-6.10049 0.58593,-6.80669c1.14843,0.05889 1.3579,1.46572 1.50292,2.31196l0.14795,-0.29355c0.14502,0.45981 0.30176,0.87612 0.47168,1.32759l0.10254,-0.32271l-0.02051,0.33105c0.11133,-0.65186 -0.06885,-0.92197 0.09961,-1.67241c0.73827,3.37148 1.16747,3.96724 2.78757,7.0147l0.17724,-0.05698c0.73095,-1.55127 0.12305,-1.06128 1.6201,-2.22319l0.44091,0.15645c0.11865,0.33516 0.0498,0.55415 -0.00146,0.90688l0.26513,0.02476c4.37105,0.36943 6.40131,-1.20894 10.83828,1.68442c-0.41015,0.37881 -0.42773,0.42173 -0.95067,0.55723c3.4277,2.82349 3.23727,3.73726 1.42528,7.80835c0.3164,0.24609 0.40576,0.38086 0.76904,0.46729c-0.28418,0.52002 -0.57128,1.06787 -0.86425,1.58057c-0.36621,0.43213 -0.91405,1.17187 -1.37987,1.4165l0.00439,0.44531c3.83639,2.63379 7.41058,5.28516 12.11268,5.95752c1.53661,-0.63721 1.76219,-0.72656 2.83591,-1.9834c-0.22705,0.95801 -0.46435,1.72412 -0.76611,2.66309c-2.38767,1.27734 -5.54292,0.12891 -7.84417,-0.92725c0.44824,1.29639 1.11034,6.59766 1.30223,8.23535c-0.92284,-0.94336 -0.81591,-6.5625 -1.37987,-7.32275l-0.28857,0.60352c-1.49706,1.18945 -12.99597,2.84473 -14.75377,1.77832c6.25043,0.0835 8.28069,-0.03809 14.33922,-1.83691c-0.05127,-0.50537 -0.18164,-1.18359 -0.26513,-1.69922c-0.14941,-0.78809 -2.67478,-2.08008 -3.38083,-2.4917c-1.28759,-0.6416 -3.66793,-2.27637 -5.08736,-3.0791c-5.62348,-3.17871 -11.07558,-5.9707 -13.69323,-12.3624l0.06152,-0.18003c-0.22119,-0.32402 -0.49072,-0.63955 -0.73827,-0.94731z" fill="#fac081"/><path d="M201.17832,140.43457c-0.18017,-0.34541 -0.33838,-0.70107 -0.47607,-1.06523c-0.58593,-1.52065 -1.41356,-6.10049 0.58593,-6.80669c1.14843,0.05889 1.3579,1.46572 1.50292,2.31196c0.81738,4.04092 2.95603,7.69497 6.07758,10.38691c0.68994,0.52397 0.88769,0.29648 1.70213,0.03032c0.08642,0.02666 0.30615,0.08555 0.37353,0.12656c0.04834,-1.00181 -0.03076,-1.56694 0.46582,-2.41348c1.30223,-0.29692 3.3237,-0.74165 4.623,-0.53188l0.14355,0.27876c-0.71923,1.12178 -4.29342,0.43608 -4.48677,2.49829l0.20508,0.16392c0.46289,-0.06226 1.15575,-0.26455 1.47508,-0.11836l-0.01904,0.28022c-1.27733,1.096 -1.30809,1.01982 -1.28173,2.75127c0.79247,-0.14941 1.78856,-0.40869 2.56052,-0.31348l0.15381,0.20361c-0.16699,0.37354 -0.2959,0.4043 -0.71923,0.5376c-0.6079,0.21533 -1.4077,0.52588 -2.01707,0.67236c-0.17431,0.41748 -0.05713,0.97705 -0.00879,1.45166c1.50585,1.12646 4.81197,3.64893 6.68549,3.14795c3.83639,2.63379 7.41058,5.28516 12.11268,5.95752c1.53661,-0.63721 1.76219,-0.72656 2.83591,-1.9834c-0.22705,0.95801 -0.46435,1.72412 -0.76611,2.66309c-2.38767,1.27734 -5.54292,0.12891 -7.84417,-0.92725c0.44824,1.29639 1.11034,6.59766 1.30223,8.23535c-0.92284,-0.94336 -0.81591,-6.5625 -1.37987,-7.32275l-0.28857,0.60352c-1.49706,1.18945 -12.99597,2.84473 -14.75377,1.77832c6.25043,0.0835 8.28069,-0.03809 14.33922,-1.83691c-0.05127,-0.50537 -0.18164,-1.18359 -0.26513,-1.69922c-0.14941,-0.78809 -2.67478,-2.08008 -3.38083,-2.4917c-1.28759,-0.6416 -3.66793,-2.27637 -5.08736,-3.0791c-5.62348,-3.17871 -11.07558,-5.9707 -13.69323,-12.3624l0.06152,-0.18003c-0.22119,-0.32402 -0.49072,-0.63955 -0.73827,-0.94731z" fill="url(#color-9)"/><path d="M201.17832,140.43457c-0.18017,-0.34541 -0.33838,-0.70107 -0.47607,-1.06523c-0.58593,-1.52065 -1.41356,-6.10049 0.58593,-6.80669c1.14843,0.05889 1.3579,1.46572 1.50292,2.31196c0.81738,4.04092 2.95603,7.69497 6.07758,10.38691c0.68994,0.52397 0.88769,0.29648 1.70213,0.03032c0.08642,0.02666 0.30615,0.08555 0.37353,0.12656c-0.06006,1.35894 0.09668,3.53569 0.14502,4.95366c-5.18403,-3.10693 -5.43306,-5.06455 -9.17277,-8.99019c-0.22119,-0.32402 -0.49072,-0.63955 -0.73827,-0.94731z" fill="#bf462c"/><path d="M220.63566,157.00342c1.28905,-0.25195 2.01561,0.17871 3.14792,0.96094c0.08789,0.06152 0.17431,0.12305 0.25927,0.18896l-0.25927,0.104l0.37207,0.01611l-0.06592,0.09668c-0.68554,-0.20361 -0.89941,-0.3252 -1.54686,-0.65771c0.48193,0.35596 1.53368,1.01221 1.83543,1.3623c-0.11426,0.1333 -0.24463,0.29297 -0.36181,0.42041c-0.14941,-0.78809 -2.67478,-2.08008 -3.38083,-2.4917z" fill="#3c1e14"/><path d="M202.79109,134.87461l0.14795,-0.29355c0.14502,0.45981 0.30176,0.87612 0.47168,1.32759l0.10254,-0.32271l-0.02051,0.33105c0.11133,-0.65186 -0.06885,-0.92197 0.09961,-1.67241c0.73827,3.37148 1.16747,3.96724 2.78757,7.0147l0.17724,-0.05698c0.73095,-1.55127 0.12305,-1.06128 1.6201,-2.22319l0.44091,0.15645c0.11865,0.33516 0.0498,0.55415 -0.00146,0.90688l0.26513,0.02476c4.37105,0.36943 6.40131,-1.20894 10.83828,1.68442c-0.41015,0.37881 -0.42773,0.42173 -0.95067,0.55723c-4.43697,-2.63218 -8.66594,-0.44722 -10.19522,-1.28657c-0.20361,-0.11147 -0.47607,0.01084 -0.70312,0.05815c-0.16113,2.93423 1.53807,2.98579 1.47655,4.04136c-0.27099,0.11748 -0.19922,0.1188 -0.479,0.13975c-3.12155,-2.69194 -5.26021,-6.346 -6.07758,-10.38691z" fill="#141314"/><path d="M212.04736,149.42725c0.60937,-0.14648 1.40917,-0.45703 2.01707,-0.67236c0.66357,0.30469 0.75292,0.2168 1.11767,0.72363c-0.03809,0.39697 0.00586,0.30029 -0.14209,0.65039l0.09814,0.30762c-0.2959,0.48633 -0.54931,0.63281 -1.00487,0.99609c1.77244,0.58447 2.33054,0.94775 3.88034,2.01855c1.10155,-1.24658 1.40184,-1.84863 2.18113,-3.33398c0.3164,0.24609 0.40576,0.38086 0.76904,0.46729c-0.28418,0.52002 -0.57128,1.06787 -0.86425,1.58057c-0.36621,0.43213 -0.91405,1.17187 -1.37987,1.4165l0.00439,0.44531c-1.87352,0.50098 -5.17964,-2.02148 -6.68549,-3.14795c-0.04834,-0.47461 -0.16553,-1.03418 0.00879,-1.45166z" fill="#210904"/><path d="M212.04736,149.42725c0.60937,-0.14648 1.40917,-0.45703 2.01707,-0.67236c0.66357,0.30469 0.75292,0.2168 1.11767,0.72363c-0.03809,0.39697 0.00586,0.30029 -0.14209,0.65039c-1.29198,0.37939 -2.55906,0.93457 -2.99265,-0.70166z" fill="#efc89c"/><path d="M208.86868,145.26152c0.27978,-0.02095 0.20801,-0.02227 0.479,-0.13975c0.06152,-1.05557 -1.63768,-1.10713 -1.47655,-4.04136c0.31054,1.17319 0.72949,1.8769 1.61278,2.70176c0.64013,-0.28506 1.25389,-0.58447 1.92625,-0.77725c-0.49658,0.84653 -0.41748,1.41167 -0.46582,2.41348c-0.06738,-0.04102 -0.28711,-0.0999 -0.37353,-0.12656c-0.81445,0.26616 -1.0122,0.49365 -1.70213,-0.03032z" fill="#3c1e14"/><path d="M203.83698,148.69775c-0.45996,-1.63477 0.40429,-1.74316 -1.15868,-3.11147c-0.19629,-0.17314 -1.21581,-3.84434 -1.18212,-4.16675l0.35888,0.14238c2.61765,6.3917 8.06975,9.18369 13.69323,12.3624c1.41942,0.80273 3.79977,2.4375 5.08736,3.0791c0.70605,0.41162 3.23142,1.70361 3.38083,2.4917c0.0835,0.51563 0.21387,1.19385 0.26513,1.69922c-6.05854,1.79883 -8.08879,1.92041 -14.33922,1.83691c-2.65867,-0.49805 -15.32798,-1.40186 -16.77084,-2.81836c-0.14355,-0.14062 -0.0293,-0.58447 -0.01025,-0.78369l0.34863,-2.97363c3.09079,-0.00732 7.58636,0.18457 10.72988,-0.14795c0.70019,-0.26367 1.49266,-1.29639 1.71092,-1.97607c0.50097,-1.55127 -1.40331,-4.02686 -2.05809,-5.50635z" fill="#bf462c"/><path d="M192.6325,161.8623l0.20801,-0.54053c0.43945,-0.18896 2.86374,0.56104 3.57712,0.73096c4.08541,0.96973 8.94132,1.75195 13.078,2.21338c3.07028,0.34277 8.38908,-0.73242 11.57655,-1.31396c0.4746,0.51416 0.24463,3.26367 0.21094,4.12061l-0.02344,0.54053c-2.49021,0.39844 -4.08834,0.59473 -6.65912,0.6709c-2.55759,0.08203 -5.11665,0.09814 -7.67425,0.04541c-4.11031,-0.17871 -11.1415,-1.25977 -15.00279,-2.66309z" fill="#fac081"/><path d="M203.59236,134.24458c-0.06006,-0.44019 -0.1626,-0.8105 -0.01904,-1.2189c0.67236,-0.10547 1.13817,0.00806 1.79588,0.05625c3.4072,0.24976 7.02972,-0.32769 10.41494,-0.74385c-0.92577,0.87671 -1.83543,1.7707 -2.72751,2.6814c-1.54833,1.41372 -3.17722,2.73574 -4.87935,3.95962c-1.49706,1.16191 -0.88915,0.67192 -1.6201,2.22319l-0.17724,0.05698c-1.6201,-3.04746 -2.0493,-3.64321 -2.78757,-7.0147z" fill="#fac081"/><path d="M185.53393,120.18677c3.09812,5.44014 7.11029,7.68984 12.70447,9.92578l0.20215,0.31187c-0.67675,0.25342 -6.66205,-3.16494 -7.56292,-3.74429c-0.91845,-0.59077 -2.36863,-2.55674 -3.31638,-1.81538c-0.04102,1.06714 2.69089,2.26553 3.15817,3.15146c-1.17772,0.78853 -12.54188,-0.59268 -14.50914,0.44795c-0.39843,0.21094 -0.6372,0.71909 -0.71484,1.15063c-0.39111,2.14189 3.69577,7.28247 4.26998,9.74136c0.36474,1.55815 -4.39303,6.43008 -0.38672,11.97246c0.91405,1.26416 2.1035,1.87061 3.5068,2.41992c0.84228,0.32959 2.02,-0.32812 2.8154,0.01318c0.88476,0.37939 1.02685,2.0083 2.04637,2.44775c1.17186,0.50537 4.1982,-0.67383 4.80025,0.57715c0.61523,1.27588 0.10986,3.58447 -0.14648,4.92627c-0.31347,1.19238 -0.57568,2.45068 -0.84521,3.65918l-0.23144,0.13037c-0.01318,-3.09668 2.18553,-5.38477 0.76904,-9.06152c-1.37548,-0.00439 -2.86667,0.1333 -4.33297,0.1377c-1.02538,-0.82471 -1.38719,-1.42822 -2.13426,-2.50195c-0.5874,0.01758 -1.30223,0.06592 -1.87205,0.00732c-5.90473,-0.60498 -7.34319,-7.44141 -5.30854,-12.07646c0.3955,-0.90103 0.70751,-1.3979 1.25682,-2.20884c-1.48534,-3.33032 -3.49948,-6.53408 -4.80757,-10.00459c0.52294,-0.929 0.81445,-1.24116 1.58641,-1.91396l14.0653,0.14531c-2.84909,-1.77202 -4.51168,-4.01206 -6.22553,-6.87349c0.52587,-0.31729 0.75146,-0.54844 1.21288,-0.96519z" fill="#141314"/><path d="M204.37604,154.78125c-0.75878,-2.48145 -1.96434,-4.71826 -3.09958,-7.04736c-1.55858,-3.24009 -3.09372,-6.49102 -4.60543,-9.75278c-1.15136,-2.4479 -2.73191,-5.53301 -3.44235,-8.05547l0.15967,-0.202l-0.20508,-0.00571l0.10254,-0.16172l-0.12158,0.02402l0.06592,-0.11162c0.79247,0.87803 2.21775,4.40259 2.95896,5.79478c0.46142,-0.21636 0.49804,-0.22324 0.99755,-0.33647c0.33838,0.71001 0.71337,1.46382 1.02538,2.17939c0.60497,1.38237 1.20995,2.83887 1.90281,4.17305c-0.12305,0.54946 -0.17724,0.94058 -0.43505,1.44067l0.35888,0.8688c0.79247,1.85566 4.8105,9.65142 4.85298,10.50249c-0.20654,0.39844 -0.19043,0.38086 -0.51562,0.68994z" fill="#d9d9d8"/><path d="M196.18911,135.26338c0.46142,-0.21636 0.49804,-0.22324 0.99755,-0.33647c0.33838,0.71001 0.71337,1.46382 1.02538,2.17939c0.60497,1.38237 1.20995,2.83887 1.90281,4.17305c-0.12305,0.54946 -0.17724,0.94058 -0.43505,1.44067z" fill="#141314"/><path d="M225.31139,211.98779c1.20263,-0.39844 2.66453,-0.84082 3.81002,-1.33154c0.01172,0.8042 0,1.88672 0.08789,2.66309l-0.00732,2.57666c-0.54345,0.20947 -1.30809,0.53467 -1.84569,0.6958l-1.53514,0.52881c-0.92284,-1.86328 -0.16846,-2.93408 -0.83642,-4.50146c-0.38232,-0.3457 -0.32959,-0.23145 -0.98876,-0.27393c0.38232,-0.08203 0.92577,-0.25049 1.31542,-0.35742z" fill="#973a29"/><path d="M223.99598,212.34521c0.38232,-0.08203 0.92577,-0.25049 1.31542,-0.35742c0.37793,1.00049 -0.03662,3.17432 0.48632,3.87744c0.88476,-0.11279 1.11474,-0.2417 1.55858,0.72656l-1.53514,0.52881c-0.92284,-1.86328 -0.16846,-2.93408 -0.83642,-4.50146c-0.38232,-0.3457 -0.32959,-0.23145 -0.98876,-0.27393z" fill="#bf462c"/><path d="M221.07218,162.95215c1.11181,-0.271 2.22654,-0.52734 3.34567,-0.77051c0.14502,0.87451 0.73534,3.83789 0.44384,4.48975c-1.31835,0.4043 -2.23533,0.66943 -3.60202,0.94189l0.02344,-0.54053c0.03369,-0.85693 0.26367,-3.60645 -0.21094,-4.12061z" fill="#fcb164"/><path d="M200.11485,141.27935l1.1206,2.03877c0.49218,1.05278 2.05516,4.57104 2.60154,5.37964l0.05566,0.12744c0.65478,1.47949 2.55906,3.95508 2.05809,5.50635c-0.21826,0.67969 -1.01073,1.7124 -1.71092,1.97607c-3.14353,0.33252 -7.63909,0.14063 -10.72988,0.14795l-0.34863,2.97363c-0.09082,-0.47754 -0.21972,-3.14355 0.41162,-3.21094c2.9487,-0.31934 6.0849,0.06445 9.06876,0.04834c2.19285,-0.01318 4.46773,-2.02588 2.41697,-3.93164c-0.82763,-0.77051 -0.59326,-1.36963 -0.89648,-2.02588c-0.39843,-0.86572 -1.59813,-4.00972 -2.25584,-4.38354l-0.23437,0.09771c-0.06006,1.50117 3.10251,5.84443 3.36764,7.64326c0.13183,0.9082 0.03809,0.94775 -0.70165,1.27148l0.03809,-0.15674c0.32519,-0.30908 0.30908,-0.2915 0.51562,-0.68994c-0.04248,-0.85107 -4.06051,-8.64683 -4.85298,-10.50249l-0.35888,-0.8688c0.25781,-0.5001 0.31201,-0.89121 0.43505,-1.44067z" fill="#210904"/><path d="M197.18665,134.9269c0.12451,-0.34805 0.22998,-0.35801 0.54345,-0.58521c1.02685,0.21445 0.94482,0.45688 1.14403,1.51831c0.33984,1.1083 1.21727,3.86206 2.03172,4.62935c0.24756,-0.02183 0.16992,0.02798 0.27246,-0.05479c0.24756,0.30776 0.51709,0.62329 0.73827,0.94731l-0.06152,0.18003l-0.35888,-0.14238c-0.03369,0.32241 0.98583,3.9936 1.18212,4.16675c1.56297,1.36831 0.69872,1.47671 1.15868,3.11147c-0.54638,-0.80859 -2.10936,-4.32686 -2.60154,-5.37964l-1.1206,-2.03877c-0.69286,-1.33418 -1.29784,-2.79067 -1.90281,-4.17305c-0.31201,-0.71558 -0.68701,-1.46938 -1.02538,-2.17939z" fill="#973a29"/><path d="M176.07406,130.10522c5.14155,-0.13579 10.97158,0.08804 16.28598,0.00483c1.45897,3.97588 3.40427,7.50527 5.03023,11.32573c1.96434,4.61631 4.50728,9.19116 6.37201,13.77026c-1.4326,0.16992 -2.26756,0.19336 -3.70749,0.19482c-2.13572,-0.03662 -11.21474,0.05859 -12.58289,-0.31201c-1.26561,-1.0708 -1.32567,-2.96338 -1.56737,-4.58057c2.21189,-0.68115 3.54635,-1.89404 3.28268,-4.46616c-0.20801,-2.02251 -1.20848,-4.66904 -2.78757,-5.99897c-1.45018,-1.22109 -3.75729,-0.6873 -5.51362,-0.42275c-1.46337,-2.04888 -3.84957,-7.16147 -4.81197,-9.51519z" fill="#d9d9d8"/><path d="M188.95577,138.8562c0.83349,0.03735 1.5454,-0.03765 2.18992,0.47417c0.26806,0.53057 0.25488,0.40986 0.1084,1.12998l-0.73095,0.24346c-0.86718,0.11147 -1.73875,0.32285 -2.09617,-0.64072c0.06299,-0.60645 0.16699,-0.68218 0.5288,-1.20688z" fill="#141314"/><path d="M190.52314,140.70381c-0.86718,0.11147 -1.73875,0.32285 -2.09617,-0.64072c0.06299,-0.60645 0.16699,-0.68218 0.5288,-1.20688l0.06592,0.14004c0.29883,0.64863 0.33105,1.28071 0.67529,1.60386c0.36914,0.07529 0.4541,0.1002 0.82616,0.10371z" fill="#252428"/><path d="M191.25409,140.46035c0.64745,0.51812 1.06933,1.00034 0.84667,1.88599c-0.51855,-0.08818 -0.63574,-0.06694 -1.00048,-0.45117c-0.17431,-0.55562 -0.02051,-0.86689 0.15381,-1.43481z" fill="#141314"/><path d="M187.89817,145.89858c1.04442,1.00181 -0.51709,3.16978 -1.55418,3.48032c-3.93893,1.1792 -6.89056,-5.09663 -5.54878,-8.18643c0.86571,-1.99146 5.63374,-1.07944 5.90913,1.27969c0.06152,0.53101 -0.12744,0.56646 -0.46142,0.96841c0.85107,0.43271 1.8618,0.72788 1.78563,1.85273l-0.29004,0.22749z" fill="#fac081"/><path d="M187.89817,145.89858c-0.85839,0.32402 -2.63523,1.61558 -3.25778,1.67417l-0.01465,-0.31787c0.43505,-0.57275 2.41697,-1.54204 3.11276,-1.73408z" fill="#fcb164"/><path d="M179.47246,142.3292c0.43066,1.35981 0.38818,3.22808 1.2744,4.89199c1.15722,2.16943 2.07859,2.61182 4.2524,3.36328c-0.03369,0.77637 0.16992,1.66992 -0.23144,2.2793l-0.60058,0.10693c-2.63084,-0.32666 -4.37105,-1.83398 -5.34517,-4.35498c-0.84521,-2.19111 -0.31201,-4.2252 0.65038,-6.28652z" fill="#973a29"/><path d="M176.55452,128.97861c3.27683,-0.24448 7.46477,0.05903 10.8251,-0.05742c0.75585,-0.02622 4.40181,-0.05054 4.85152,0.04424l0.03662,0.25342c-2.04637,0.1519 -5.20161,0.0832 -7.3637,0.09771c-2.19285,0.01465 -6.06293,0.1002 -8.17668,-0.11367z" fill="#d9d9d8"/><path d="M244.029,124.65c1.46044,0.73564 3.99606,2.90977 3.67086,4.73599l-0.32959,0.00425c-0.96972,-1.02979 -2.87839,-3.41704 -3.34128,-4.74023z" fill="#141314"/><path d="M195.29702,130.48403c0.64599,0.23379 2.72898,0.68789 2.90183,1.25171l-0.3999,0.36357l-1.46776,0.9c-0.43066,-0.92988 -0.70312,-1.5498 -1.03417,-2.51528z" fill="#fdfcfc"/><path d="M229.20931,213.31934c0.01172,-0.69434 0.03516,-1.17773 0.11133,-1.86621c0.1831,0.94775 0.24316,4.1748 -0.25342,5.07715c-0.41894,0.76025 -1.86619,0.64307 -2.55906,1.0166c-0.78075,0.42041 -1.13671,0.64014 -2.02293,0.84229l-0.22265,0.0498c0.19336,0.09814 0.54492,0.26074 0.73827,0.20068c1.23485,-0.38379 4.18941,-1.45605 5.0229,-2.31152c0.08935,-0.7251 -0.19775,-4.10156 -0.2959,-4.98486l0.26074,-0.06738c0.19922,1.60107 0.28418,3.75439 0.33398,5.38623c-0.85693,0.59912 -3.03513,1.6084 -4.04733,1.80908c-4.02389,0.79834 -3.30173,1.88672 -2.06688,5.3877c0.28125,0.49658 0.65917,1.94092 0.78661,2.49902c1.30663,5.7627 -16.32846,7.5835 -14.62926,0.60205c0.40869,-1.67871 2.04344,-3.47754 1.89256,-4.85303l-0.28271,-0.92139c-1.92332,-0.04541 -3.90377,-0.13037 -5.81977,-0.14795c0.05713,0.8291 0.10107,1.93799 0.25488,2.73047c-0.00439,0.53467 0.12598,1.69043 -0.27832,2.01563c-3.47604,2.4917 -8.98087,3.30762 -13.15857,3.88477c-2.05223,0.28418 -5.94721,-0.44971 -5.93696,-3.03516c0.01318,-3.31201 3.76608,-4.61865 5.67182,-6.66357c0.20654,-0.3252 0.19629,-0.56982 0.2959,-0.94482l0.05566,-0.20068c1.81053,0.35889 4.17623,0.89648 5.96332,1.13525c0.36621,-0.01904 0.35888,-0.07031 0.65624,-0.30762c1.36229,-1.45605 7.3681,0.83203 9.08634,0.74561c0.01025,-0.2915 0.00293,-0.21533 -0.0791,-0.50977l0.18457,-0.17285c2.09324,0.01025 4.88228,-0.18164 6.92425,-0.5127l0.35009,-0.12451c-0.09082,-1.64209 -0.09521,-3.42041 -0.12598,-5.07715c1.6992,-0.38525 4.13082,-0.73682 5.89448,-1.05029l2.08152,-0.60498c0.65917,0.04248 0.60644,-0.07178 0.98876,0.27393c0.66796,1.56738 -0.08642,2.63818 0.83642,4.50146l1.53514,-0.52881c0.53759,-0.16113 1.30223,-0.48633 1.84569,-0.6958z" fill="url(#color-10)"/><path d="M212.25829,222.10693l0.29736,-0.55811c0.76464,4.00928 5.93256,2.38037 8.44914,1.61133c1.07812,-0.01904 1.27147,-1.37109 2.29539,-0.75146c0.28857,0.49072 0.61376,1.49121 0.80859,1.61133l0.09961,-0.16113c0.28125,0.49658 0.65917,1.94092 0.78661,2.49902c1.30663,5.7627 -16.32846,7.5835 -14.62926,0.60205c0.40869,-1.67871 2.04344,-3.47754 1.89256,-4.85303z" fill="#252428"/><path d="M221.91445,212.9502l2.08152,-0.60498c0.65917,0.04248 0.60644,-0.07178 0.98876,0.27393c0.66796,1.56738 -0.08642,2.63818 0.83642,4.50146c-1.74461,0.45996 -8.28508,2.18555 -9.6752,1.95703c-0.09082,-1.64209 -0.09521,-3.42041 -0.12598,-5.07715c1.6992,-0.38525 4.13082,-0.73682 5.89448,-1.05029z" fill="#bf462c"/><path d="M212.55565,221.54883c0.03955,-0.03369 0.44531,-0.375 0.44531,-0.375c2.48582,-0.37793 4.99947,-0.4043 7.46185,-0.99902c0.56249,-0.13477 1.20995,-0.2666 1.77977,-0.34277c1.25536,1.00049 -0.46289,2.63672 -1.23778,3.32813c-2.51658,0.76904 -7.6845,2.39795 -8.44914,-1.61133z" fill="#fac081"/><path d="M193.06023,218.82422c1.81053,0.35889 4.17623,0.89648 5.96332,1.13525c0.55664,0.08057 0.479,-0.02051 0.7998,0.29883c-0.34277,0.65771 -1.5454,1.04297 -2.27781,1.3623c-1.90428,-0.28711 -3.67379,-0.93457 -4.48531,-2.79639z" fill="#efc89c"/></g></svg></svg>