<svg id="svg" version="1.1" viewBox="0 0 136.66666666666669 300" width="136.66666666666669" height="300" xmlns="http://www.w3.org/2000/svg"><svg xmlns="http://www.w3.org/2000/svg"><defs><clipPath id="clip-1"><rect x="0" y="0" transform="scale(0.14648,0.14648)" width="933" height="2048" fill="none"/></clipPath><linearGradient x1="61.40435" y1="122.01533" x2="70.86965" y2="59.51294" gradientUnits="userSpaceOnUse" id="color-1"><stop offset="0" stop-color="#151211"/><stop offset="1" stop-color="#3f2d23"/></linearGradient><linearGradient x1="70.81208" y1="99.28945" x2="73.65557" y2="108.27451" gradientUnits="userSpaceOnUse" id="color-2"><stop offset="0" stop-color="#171515"/><stop offset="1" stop-color="#3b3838"/></linearGradient><linearGradient x1="82.30497" y1="146.3105" x2="81.59308" y2="147.86133" gradientUnits="userSpaceOnUse" id="color-3"><stop offset="0" stop-color="#130705"/><stop offset="1" stop-color="#421a15"/></linearGradient></defs><g clip-path="url(#clip-1)" fill="none" fill-rule="nonzero" stroke="none" stroke-width="1" stroke-linecap="butt" stroke-linejoin="miter" stroke-miterlimit="10" stroke-dasharray="" stroke-dashoffset="0" font-family="none" font-weight="none" font-size="none" text-anchor="none" style="mix-blend-mode: normal"><path d="M35.02021,99.52236c-3.03186,-11.37847 1.16013,-25.37622 9.82638,-33.22983c1.35817,-1.23091 2.81566,-1.84849 4.2519,-2.81514c5.81456,-3.93413 12.82601,-4.91074 19.64821,-4.37241c16.68432,1.31631 28.93188,17.18379 27.84763,33.55078c-0.15981,2.41216 -0.51049,4.79326 -0.65374,7.1272c0.85779,0.49175 1.74913,1.11841 2.57675,1.67607c3.34811,3.40576 2.04487,7.66245 0.41601,11.53521c-0.2978,0.70811 -0.75701,1.69834 -0.94964,2.41787c0.37455,1.66274 0.91917,3.4084 1.91275,4.80923c3.18303,4.48799 8.25068,7.52139 5.6965,13.87705c-0.78016,-2.15273 -1.2237,-2.97026 -2.85037,-4.60386c1.26091,3.85635 1.89825,7.22871 0.04336,11.08022c-0.33837,0.70269 -1.23762,1.9752 -2.00547,2.17617c-0.43695,-0.37939 -0.71409,-2.73296 -0.95506,-3.52749c-2.68617,5.33145 -3.61222,6.93867 -9.57487,9.39814c1.21506,3.45557 1.72686,8.61182 -1.29299,11.32031c-2.54891,2.39795 -6.22558,0.90381 -8.97737,-0.18457c0.33486,1.08984 0.50726,2.72461 0.66678,3.89063c0.36664,1.90576 0.50126,3.83203 0.81531,5.72754c2.60604,15.72803 2.95086,31.44287 3.74859,47.29834c-2.12119,1.39893 -4.64315,1.78711 -6.85589,2.88281c-0.1084,0.05273 -0.32284,0.50537 -0.32709,0.60791c-0.08291,2.83887 4.04331,7.11182 0.50082,9.39258c-2.42997,1.56445 -6.99402,2.29248 -9.81539,1.72559c-5.37321,-1.08105 -3.39821,-5.62793 -1.31789,-8.55615l-0.55091,-1.60107c-1.93047,-0.00586 -3.8608,-0.03809 -5.79039,-0.09668c0.03662,0.92432 0.56307,4.40186 -0.1352,4.86768c-3.28381,2.18408 -18.17857,6.97559 -18.8997,0.59473c-0.39257,-3.47314 5.40778,-4.58057 5.66603,-7.71387c-1.67252,-0.99463 -3.95762,-1.09131 -6.18325,-2.53418c-0.06518,-1.14844 0.06958,-2.53711 0.16274,-3.70166c0.28549,-3.56689 0.28461,-7.15723 0.48192,-10.72119c0.05317,-1.29492 0.32123,-2.69238 0.33778,-3.96973c0.04424,-3.44092 0.39315,-6.76904 0.67279,-10.19092c0.06474,-1.62598 0.57904,-8.14014 0.90584,-9.45703l-0.0501,-0.30615c0.18413,-0.68408 0.32782,-1.49414 0.4349,-2.1958c0.74705,-4.90137 1.59459,-9.71191 2.72865,-14.53857c0.07939,-2.03027 0.71702,-2.26318 -0.12085,-4.71973c-1.25519,-0.02197 -3.00271,0.11572 -4.3392,0.14209c-1.08513,-0.80127 -1.40387,-1.37988 -2.10932,-2.49463c-1.6274,0.01758 -2.88377,0.09521 -4.39238,-0.73535c-4.70453,-2.59131 -4.5787,-9.68921 -1.54742,-13.52695c-1.04573,-2.18086 -4.29511,-8.11729 -4.75872,-10.12983c0.47738,-0.86631 0.76331,-1.25508 1.58302,-1.80278c4.60258,0.08438 9.33127,0.06226 13.95362,0.11338c-2.58246,-1.50088 -4.45434,-4.0856 -6.02564,-6.55137c-0.47108,-0.72861 -0.93426,-1.82856 -1.30588,-2.64448c-0.15688,-0.19438 -0.56717,-1.27236 -0.68787,-1.56973c-6.4226,-0.23906 -10.07173,-13.21362 -2.40566,-17.72036zM51.24766,133.01528l1.42057,-0.90352l0.46332,-0.38232c-0.21445,-0.54536 -2.33959,-1.04414 -3.00608,-1.32026c0.36723,0.91099 0.70369,1.71812 1.12219,2.6061z" fill="#211d1d"/><path d="M35.02021,99.52236c-3.03186,-11.37847 1.16013,-25.37622 9.82638,-33.22983c1.35817,-1.23091 2.81566,-1.84849 4.2519,-2.81514c5.81456,-3.93413 12.82601,-4.91074 19.64821,-4.37241c16.68432,1.31631 28.93188,17.18379 27.84763,33.55078c-0.15981,2.41216 -0.51049,4.79326 -0.65374,7.1272c0.85779,0.49175 1.74913,1.11841 2.57675,1.67607c-0.33046,0.38452 -0.48749,0.50903 -0.4913,1.01309c0.19584,0.4374 0.57142,1.08721 0.44677,1.49048l0.00425,0.07119c0.03135,0.45835 0.13681,0.89048 0.19731,1.34341c0.43109,3.23291 -0.47548,6.56719 -2.6015,9.0999c-2.21831,2.64258 -6.37353,3.52441 -8.34926,-0.03926c-0.76507,2.24092 -1.53673,4.13745 -2.76292,6.08276c-8.45605,13.41577 -31.17641,14.7334 -41.79056,3.33604c-0.55135,-0.59194 -2.18549,-2.95312 -2.51786,-3.21079c-0.19497,-0.02988 -0.30585,-0.04482 -0.4557,-0.1875c-0.48646,0.22134 -0.59999,0.47358 -0.77693,0.99858c-0.47108,-0.72861 -0.93426,-1.82856 -1.30588,-2.64448c-0.15688,-0.19438 -0.56717,-1.27236 -0.68787,-1.56973c-6.4226,-0.23906 -10.07173,-13.21362 -2.40566,-17.72036z" fill="url(#color-1)"/><path d="M87.88062,102.21973c-0.00586,1.20044 -0.35419,4.63872 0.60218,5.4189c1.17258,-0.12158 2.01382,-2.76738 2.74198,-3.83262c0.55546,-0.80786 1.28171,-1.48359 2.12734,-1.97944c2.39364,-1.38428 3.95821,0.13491 5.12068,2.13604l0.00425,0.07119c0.03135,0.45835 0.13681,0.89048 0.19731,1.34341c0.43109,3.23291 -0.47548,6.56719 -2.6015,9.0999c-2.21831,2.64258 -6.37353,3.52441 -8.34926,-0.03926c-0.76507,2.24092 -1.53673,4.13745 -2.76292,6.08276c-8.45605,13.41577 -31.17641,14.7334 -41.79056,3.33604c-0.55135,-0.59194 -2.18549,-2.95312 -2.51786,-3.21079c-0.19497,-0.02988 -0.30585,-0.04482 -0.4557,-0.1875c-0.48646,0.22134 -0.59999,0.47358 -0.77693,0.99858c-0.47108,-0.72861 -0.93426,-1.82856 -1.30588,-2.64448c0.24609,-0.25269 1.02917,-0.50889 1.42057,-0.68218c-1.38732,-2.97012 -2.06611,-6.93589 -2.26123,-10.19502c-0.04219,-0.70459 -0.32577,-3.24521 0.08408,-3.72363l-0.09345,0.18003c0.02139,0.00937 1.49645,4.69072 3.29318,6.3208c2.36625,1.40933 4.36015,1.94985 7.13421,1.82666c2.85696,-0.30571 5.7359,-0.9564 7.21404,-3.69595c2.42514,-4.49443 1.0113,-9.1916 7.74034,-5.6376c0.23891,2.09868 0.37016,3.82983 1.53439,5.67275c1.80904,2.86348 4.93641,4.03799 8.21758,4.11343c2.65863,-0.00234 5.13035,-0.18486 7.44064,-1.70127c0.51825,-0.2896 0.90774,-0.65903 1.35304,-1.04722c0.63338,-0.68232 0.9533,-1.13687 1.33224,-1.97593c0.89602,-1.30752 1.25183,-4.06377 1.38981,-5.60376c1.39406,-0.31553 2.54789,-0.41162 3.96743,-0.44385z" fill="#f9c083"/><path d="M40.5569,110.71245c2.36625,1.40933 4.36015,1.94985 7.13421,1.82666l-0.78704,0.14795l-0.05859,0.10811l0.1333,0.11777c0.0832,0.53218 0.10708,0.66621 -0.16084,1.15107c-2.31718,1.88423 -4.44555,2.49287 -6.08892,-0.98774c-0.29091,-0.61626 -0.4765,-1.7187 -0.17212,-2.36382z" fill="#e49b59"/><path d="M81.19113,110.24326c0.58387,2.048 -2.82371,8.77588 -7.24582,2.87095l0.13315,0.01978c-0.38832,-0.00469 -1.42628,0.04746 -1.68101,-0.14224c2.65863,-0.00234 5.13035,-0.18486 7.44064,-1.70127c0.51825,-0.2896 0.90774,-0.65903 1.35304,-1.04722z" fill="#e49b59"/><path d="M39.53431,118.13027l1.11794,2.51558c-0.19497,-0.02988 -0.30585,-0.04482 -0.4557,-0.1875c-0.48646,0.22134 -0.59999,0.47358 -0.77693,0.99858c-0.47108,-0.72861 -0.93426,-1.82856 -1.30588,-2.64448c0.24609,-0.25269 1.02917,-0.50889 1.42057,-0.68218z" fill="#090708"/><path d="M68.49915,115.88687l0.21357,0.01919l0.13403,0.23394c-0.10298,0.74033 -0.31244,1.16631 -0.69212,1.81304c-2.57411,4.38545 -8.22285,5.16138 -12.44297,2.37935c-1.27951,-1.05952 -1.56163,-1.49604 -2.40536,-2.94478c4.46855,-0.03765 11.0451,0.15527 15.19285,-1.50073z" fill="#090708"/><path d="M67.4855,117.05977c0.05127,0.50801 -0.46683,1.00723 -0.7494,1.40815c-1.81036,2.5686 -7.73551,3.30176 -10.15025,1.28584c-0.52118,-0.42158 -1.0595,-0.93706 -1.55782,-1.3938c4.33349,0.00806 8.32143,0.28066 12.45747,-1.3002z" fill="#dddcdb"/><path d="M94.3249,105.76978c1.00442,-0.06943 2.20966,0.00469 2.47494,1.17554c-0.35624,0.74092 -1.09275,-0.4834 -2.1376,-0.01025c-1.13479,0.96445 0.58153,3.85649 0.25869,4.82461l-0.26835,-0.07822c-0.47196,-0.36958 -0.63661,-1.05249 -0.8449,-1.63389c-0.27451,-0.427 -0.40209,-0.65186 -0.8969,-0.64321c-0.79759,0.60103 -0.77327,2.25542 -1.73389,2.4813l-0.19541,-0.31333c-0.27758,-2.25366 1.33342,-4.82871 3.34343,-5.80254z" fill="#090708"/><path d="M57.69941,106.57778c0.22924,0.02666 0.32167,0.09126 0.53641,0.18472c0.13608,0.56748 -1.77813,2.30845 -1.72042,3.49175c0.0624,1.28027 1.19265,2.64653 2.50409,2.67158l0.08554,0.00088c1.40812,0.02417 2.05439,-1.26606 3.16325,-1.16221c-0.02695,0.41719 -0.05566,0.32563 -0.39154,0.70811l-0.05215,0.05127c-4.09297,3.98789 -9.44186,-1.13599 -4.12519,-5.94609z" fill="#090708"/><path d="M64.25604,130.25962l0.40912,-0.06284c0.39784,0.29165 1.00427,0.21519 1.51666,0.20874l0.08847,0.26514c0.05376,-0.0252 0.10752,-0.05054 0.16128,-0.07588c-0.38803,0.12437 -1.23703,0.20669 -1.67003,0.26411c-0.75291,-0.16289 -2.02598,-0.12832 -2.83704,-0.13301c0.77474,-0.16729 1.55211,-0.32271 2.33154,-0.46626z" fill="#e49b59"/><path d="M79.83809,111.29048c-0.43461,-0.77549 0.63221,-2.38154 1.40622,-2.39077l-0.17651,0.60601l0.17461,0.1396c0.30688,-0.32139 0.52748,-0.52998 0.74412,-0.9208l0.27846,-0.50552l0.25839,0.04834c-0.37895,0.83906 -0.69886,1.2936 -1.33224,1.97593c-0.4453,0.38818 -0.83479,0.75762 -1.35304,1.04722z" fill="#090708"/><path d="M95.94059,99.78296c-0.09463,0.14063 -0.18925,0.21284 -0.31288,0.32974c-0.91433,0.18911 -3.71007,0.84536 -4.39443,0.57686l-0.03486,-0.12935c1.44635,-0.2313 3.34372,-0.68159 4.74217,-0.77725z" fill="#222227"/><path d="M51.9887,78.35142c0.03896,-0.45586 0.02314,-0.8918 0.29047,-1.25171c0.23276,0.1812 1.36608,3.91787 1.91656,5.0127c3.23942,6.44429 10.26128,9.06577 17.11629,9.24712c0.57772,0.01523 3.36569,0.19878 3.74727,0.14326c0.08994,-0.01245 0.17915,-0.02988 0.26733,-0.05186c0.16772,-0.69038 -0.41161,-1.02715 -0.90569,-1.46748l0.47548,-0.2187c2.28276,1.17217 4.57387,2.18394 6.90804,3.24448c2.57909,1.17158 4.2705,1.9604 5.18909,4.82256c0.2477,0.78208 0.48807,1.5665 0.72142,2.35298c-1.23425,0.15117 -2.46659,0.31655 -3.69688,0.496c-2.29536,-3.94219 -3.78433,-3.61802 -6.68041,-6.4897c-0.46903,0.09097 -0.35741,0.03647 -0.8846,-0.30293l-0.05376,0.21138l0.01333,-0.04849l0.1188,0.12598l-0.05156,0.11909l0.07763,0.28506c0.22851,0.30352 0.25121,0.35361 0.3684,0.71558c-0.35214,0.18516 -1.09978,-0.30176 -1.59225,-0.36006c-5.84591,-0.69185 -10.99119,-0.61509 -12.45102,6.25503c-2.11958,-1.27427 -4.07481,-1.57324 -6.22588,-0.17915c-0.44135,-3.86367 -2.54305,-6.17666 -6.53656,-6.51123l0.01011,0.31919c-1.12702,0.9397 -2.84202,0.66768 -4.1583,0.35684c0.22485,-0.00659 0.62093,0.00103 0.81883,-0.05654l-0.00703,-0.14268c-1.40241,-0.64863 -1.97193,0.29546 -2.81639,-0.27129c-0.36342,0.06987 -0.96399,0.21768 -1.29958,0.16582l-0.14033,-0.02695c0.03369,-0.30498 0.17402,-0.56938 0.29692,-0.85459l-0.20844,-0.48237c-0.28622,0.31084 -0.8096,1.14155 -1.12409,1.54263c-0.75628,0.9646 -1.56705,1.54102 -2.53573,2.26406c1.16789,-6.20464 7.87247,-12.72876 11.29456,-17.95005c0.21342,-0.32578 0.40517,-0.69873 0.77327,-0.83452l0.18252,0.23628l0.10737,-0.16318c0.15849,0.19849 0.04145,1.01558 0.02139,1.35044l0.18544,0.16582l0.1916,-0.12012c0.00425,-0.50684 0.00454,-1.01382 0.00103,-1.52065z" fill="#f9c083"/><path d="M51.2065,78.76714l0.10737,-0.16318c0.15849,0.19849 0.04145,1.01558 0.02139,1.35044l0.18544,0.16582l0.1916,-0.12012c0.00425,-0.50684 0.00454,-1.01382 0.00103,-1.52065l0.27538,-0.12803c0.14941,3.26235 0.24902,5.47251 2.26679,8.23711c0.42392,0.58096 1.30514,1.56826 1.61832,2.06133c-0.40517,-0.13682 -1.07634,-0.3457 -1.44079,-0.53525c-3.00769,-1.56475 -4.03892,-6.28154 -3.22653,-9.34746z" fill="#090708"/><path d="M42.61598,93.50874c1.61993,-1.3834 3.32526,-1.89976 5.44792,-1.72837c1.14724,0.09258 4.01958,0.39434 3.87662,2.02192l-0.20771,0.12583c-2.55302,-0.96504 -7.40578,-2.08521 -9.06497,0.94453l-0.14033,-0.02695c0.03369,-0.30498 0.17402,-0.56938 0.29692,-0.85459z" fill="#090708"/><path d="M74.72752,93.60747c-2.13496,-0.47139 -5.9376,0.65845 -6.28564,0.49526l0.0605,-0.31187c1.76392,-1.90986 4.81439,-1.68076 7.09685,-1.06421z" fill="#090708"/><path d="M43.96741,94.70684c1.98833,-0.37778 4.14424,-0.36797 6.15278,-0.20552l0.01011,0.31919c-1.12702,0.9397 -2.84202,0.66768 -4.1583,0.35684c0.22485,-0.00659 0.62093,0.00103 0.81883,-0.05654l-0.00703,-0.14268c-1.40241,-0.64863 -1.97193,0.29546 -2.81639,-0.27129z" fill="#090708"/><path d="M74.72752,93.60747l0.87171,-0.88081c0.57567,0.37925 1.35114,0.89019 1.73844,1.4644c-0.46903,0.09097 -0.35741,0.03647 -0.8846,-0.30293l-0.05376,0.21138l0.01333,-0.04849l0.1188,0.12598l-0.05156,0.11909l0.07763,0.28506c-0.7494,-0.49438 -0.97966,-0.63882 -1.82999,-0.97368z" fill="#090708"/><path d="M59.56777,92.09663c1.8357,-0.0145 2.40331,0.83672 1.05539,2.2834c-1.76817,0.06489 -2.24116,-1.03901 -1.05539,-2.2834z" fill="#b4422b"/><path d="M59.75658,92.63906c0.20961,-0.13652 0.47694,-0.14839 0.69783,-0.03091c0.22089,0.11733 0.36078,0.34541 0.36503,0.59561c0.00425,0.2502 -0.12758,0.48296 -0.34438,0.60776c-0.32284,0.18604 -0.73519,0.08115 -0.92986,-0.23657c-0.19467,-0.31772 -0.10107,-0.73271 0.21137,-0.93589z" fill="#c55135"/><path d="M70.90466,96.29355c3.60314,-0.48208 10.38008,0.91904 11.07718,5.00376c0.8118,4.75693 -1.79747,8.60669 -6.29648,9.66372c-0.23891,0.0542 -0.47987,0.09873 -0.7223,0.13345c-2.50468,0.37837 -5.54767,0.16758 -7.67838,-1.41372c-3.10232,-2.28472 -4.06191,-7.66143 -1.74488,-10.7814c1.3176,-1.77437 3.29582,-2.34902 5.36486,-2.60581z" fill="#f9c083"/><path d="M71.20275,98.90273c0.71761,-0.06914 1.52282,-0.02944 2.25009,-0.01362c3.85157,2.05825 4.45229,8.14907 -0.2165,9.93721c-3.59874,0.8918 -5.75128,-3.39331 -4.90755,-6.44033c0.52118,-1.88188 1.2883,-2.5415 2.87395,-3.48325z" fill="url(#color-2)"/><path d="M70.91169,100.20527c3.02205,-0.08936 3.25246,3.13022 0.64642,4.66494c-2.66156,0.28315 -3.4174,-3.04321 -0.64642,-4.66494z" fill="#dddcdb"/><path d="M47.30498,96.15718c2.01836,-0.08438 4.3559,0.08613 5.95298,1.47319c3.02893,2.63115 2.35292,7.96172 -0.11748,10.75371c-1.72584,1.95059 -3.44421,2.17046 -5.867,2.33262c-2.0273,-0.00059 -4.11934,-0.27363 -5.71583,-1.65381c-2.66097,-2.30054 -3.35148,-8.40088 -0.9886,-11.07554c1.53615,-1.73877 4.59862,-1.72178 6.73592,-1.83018z" fill="#f9c083"/><path d="M48.34426,98.74263c5.48175,-0.38423 6.45658,8.04126 1.32302,9.93853c-4.29101,0.89604 -6.89735,-7.33799 -1.32302,-9.93853z" fill="#222227"/><path d="M47.89588,100.06758c2.98821,-0.00601 3.13088,3.14897 0.73167,4.37607c-2.75516,-0.05479 -3.25759,-2.94199 -0.73167,-4.37607z" fill="#dddcdb"/><path d="M32.65308,105.4229c0.75379,0.90659 1.17946,1.39614 1.48283,2.57402c0.3372,0.28169 0.57626,0.61978 1.05964,0.37603c0.21445,0.06738 0.40663,0.16201 0.61112,0.25474c0.47518,0.8625 1.35231,6.32168 1.00208,7.0248c-3.90005,-1.48301 -4.76151,-6.59136 -4.15566,-10.22959z" fill="#f9c083"/><path d="M34.13591,107.99692c0.3372,0.28169 0.57626,0.61978 1.05964,0.37603c-0.46376,0.85518 0.70867,1.32568 -0.33134,2.26685c-0.4475,0.08306 -0.28725,0.12056 -0.61566,-0.10312c-0.16391,-0.58198 -0.11455,-1.87441 -0.11264,-2.53975z" fill="#222227"/><path d="M35.21415,101.31987l0.29296,0.15352c0.31947,1.32246 0.35917,4.52651 0.39799,5.96396l-1.21345,-1.33374c-0.7639,-0.7979 -1.52501,-0.82002 -1.83819,-1.29448c0.01934,-1.01909 1.65216,-2.78071 2.36069,-3.48926z" fill="#f9c083"/><path d="M72.30677,88.10669c0.87244,0.53818 1.7358,1.09102 2.58964,1.65806l-0.47548,0.2187c-0.75965,-0.41616 -1.54816,-1.23354 -2.11416,-1.87676z" fill="#e49b59"/><path d="M73.91367,180.40869c0.26367,1.12061 0.28285,5.19727 0.46083,6.71338c0.76712,6.54053 1.68101,13.13086 2.10713,19.69775c0.10488,1.61719 0.41732,4.50879 0.37221,6.04395l-0.3101,0.1333c-1.24597,0.21973 -4.57255,0.71924 -5.63629,1.02686l-0.36401,-0.09814l-0.19965,-0.3457l0.00527,0.53027c0.14707,1.64502 0.1497,3.39697 0.31772,4.99072c-0.91756,0.55078 -6.31626,0.58594 -7.6277,0.62109c0.09258,0.47754 0.4724,0.1582 0.67367,0.69141c-1.0324,0.0791 -1.8316,-0.36182 -2.77786,-0.68994c-0.33456,-0.11719 -1.52648,-0.12598 -2.18813,-0.24609l-0.00791,-0.20947c-1.55944,-0.35156 -3.77965,-0.66357 -5.45715,-0.99609c0.41894,0.8335 1.2801,0.29883 2.01074,0.81006c-1.36139,-0.30322 -0.23085,0.95654 -1.96255,0.43652l-0.45541,0.22119c-1.14416,-0.09961 -3.61295,-0.65479 -4.77733,-0.9375l-0.4119,-0.0249c-1.67252,-0.99463 -3.95762,-1.09131 -6.18325,-2.53418c-0.06518,-1.14844 0.06958,-2.53711 0.16274,-3.70166c0.28549,-3.56689 0.28461,-7.15723 0.48192,-10.72119l0.08349,1.71387c0.03984,-0.41455 0.07383,-1.27002 0.25576,-1.59229c0.10136,0.44092 0.1749,1.06055 0.27875,1.42822c0.00835,0.27539 0.0334,0.54932 0.05478,0.82178l0.15131,0.07031c1.56061,-0.38525 4.09238,-1.62891 5.60685,-2.33789c10.80253,-5.83008 17.35769,-12.23877 25.33607,-21.51562z" fill="#222227"/><path d="M60.86647,194.96045c1.92783,-1.32275 6.25385,-4.58643 7.47038,-6.3457c0.56146,3.76758 0.83641,7.84424 1.15178,11.65576c0.36357,4.39453 0.75467,8.91211 0.85516,13.30957l0.00527,0.53027c0.14707,1.64502 0.1497,3.39697 0.31772,4.99072c-0.91756,0.55078 -6.31626,0.58594 -7.6277,0.62109c-0.67601,-0.07178 -1.42394,-0.11865 -2.10713,-0.17432c-0.0126,-1.19531 0.06108,-3.96094 -0.1226,-4.98926c-0.25458,-0.91846 -0.01919,-17.76416 0.05713,-19.59814z" fill="#222227"/><path d="M60.80934,214.55859c3.18655,0.0835 6.37499,-0.06592 9.53971,-0.44824c0.14707,1.64502 0.1497,3.39697 0.31772,4.99072c-0.91756,0.55078 -6.31626,0.58594 -7.6277,0.62109c-0.67601,-0.07178 -1.42394,-0.11865 -2.10713,-0.17432c-0.0126,-1.19531 0.06108,-3.96094 -0.1226,-4.98926z" fill="#c55135"/><path d="M48.5776,201.92432c0.90716,0.27246 1.04338,0.31934 1.82984,-0.10107c0.31318,-0.16846 0.62284,-0.34424 0.92898,-0.52588c0.00615,0.88037 -0.14604,2.60742 0.35068,3.27832c0.17153,1.46924 -0.13432,6.29883 -0.13066,8.16504c0.71351,0.19043 1.34631,0.36035 2.04795,0.60059c0.03076,0.16992 0.05185,0.14941 0.01494,0.30029c1.88287,0.43066 4.9657,0.74414 6.91273,0.87598c-0.08686,1.61426 -0.09829,3.26953 -0.1289,4.88818c-0.49159,-0.04395 -1.18781,-0.12744 -1.66432,-0.1377c-1.55944,-0.35156 -3.77965,-0.66357 -5.45715,-0.99609c0.41894,0.8335 1.2801,0.29883 2.01074,0.81006c-1.36139,-0.30322 -0.23085,0.95654 -1.96255,0.43652l-0.45541,0.22119c-1.14416,-0.09961 -3.61295,-0.65479 -4.77733,-0.9375l-0.4119,-0.0249c-1.67252,-0.99463 -3.95762,-1.09131 -6.18325,-2.53418c-0.06518,-1.14844 0.06958,-2.53711 0.16274,-3.70166c0.28549,-3.56689 0.28461,-7.15723 0.48192,-10.72119l0.08349,1.71387c0.03984,-0.41455 0.07383,-1.27002 0.25576,-1.59229c0.10136,0.44092 0.1749,1.06055 0.27875,1.42822c0.00835,0.27539 0.0334,0.54932 0.05478,0.82178l0.15131,0.07031c1.56061,-0.38525 4.09238,-1.62891 5.60685,-2.33789z" fill="#222227"/><path d="M51.56801,213.36035c0.70428,0.12598 1.34294,0.20068 2.05132,0.28125c1.88287,0.43066 4.9657,0.74414 6.91273,0.87598c-0.08686,1.61426 -0.09829,3.26953 -0.1289,4.88818c-0.49159,-0.04395 -1.18781,-0.12744 -1.66432,-0.1377c-1.55944,-0.35156 -3.77965,-0.66357 -5.45715,-0.99609l-1.715,-0.4292z" fill="#c55135"/><path d="M42.42174,210.99902c2.83807,0.72217 5.6691,1.47217 8.49296,2.24854c0.02856,1.48975 0.01611,2.97949 -0.0375,4.46777c-2.63402,-0.62402 -6.21504,-1.39453 -8.6327,-2.44775z" fill="#b4422b"/><path d="M60.30032,195.48779c0.31244,6.2666 0.12788,12.73975 0.23173,19.02979c-1.94702,-0.13184 -5.02986,-0.44531 -6.91273,-0.87598c0.03691,-0.15088 0.01582,-0.13037 -0.01494,-0.30029c-0.70164,-0.24023 -1.33444,-0.41016 -2.04795,-0.60059c-0.00366,-1.86621 0.30219,-6.6958 0.13066,-8.16504l0.09228,-3.42773c2.53324,-1.64355 6.8118,-3.61084 8.52094,-5.66016z" fill="#222227"/><path d="M73.91367,180.40869c0.26367,1.12061 0.28285,5.19727 0.46083,6.71338c0.76712,6.54053 1.68101,13.13086 2.10713,19.69775c0.10488,1.61719 0.41732,4.50879 0.37221,6.04395c-0.29267,-0.32812 -0.27597,-0.34717 -0.31449,-0.81445c-0.7866,-9.55518 -1.80142,-19.21875 -3.06365,-28.72412c-1.62521,1.82227 -2.83089,3.09961 -4.6808,4.72412c0.85091,8.64551 1.55519,17.3042 2.11255,25.97461l-0.36401,-0.09814l-0.19965,-0.3457c-0.10049,-4.39746 -0.49159,-8.91504 -0.85516,-13.30957c-0.31537,-3.81152 -0.59032,-7.88818 -1.15178,-11.65576c-1.21652,1.75928 -5.54254,5.02295 -7.47038,6.3457c-0.07632,1.83398 -0.31171,18.67969 -0.05713,19.59814c0.18369,1.02832 0.11001,3.79395 0.1226,4.98926c0.68319,0.05566 1.43112,0.10254 2.10713,0.17432c0.09258,0.47754 0.4724,0.1582 0.67367,0.69141c-1.0324,0.0791 -1.8316,-0.36182 -2.77786,-0.68994c-0.33456,-0.11719 -1.52648,-0.12598 -2.18813,-0.24609l-0.00791,-0.20947c0.4765,0.01025 1.17273,0.09375 1.66432,0.1377c0.03061,-1.61865 0.04204,-3.27393 0.1289,-4.88818c-0.10385,-6.29004 0.08071,-12.76318 -0.23173,-19.02979c-1.70914,2.04932 -5.9877,4.0166 -8.52094,5.66016l-0.09228,3.42773c-0.49672,-0.6709 -0.34452,-2.39795 -0.35068,-3.27832c-0.30615,0.18164 -0.61581,0.35742 -0.92898,0.52588c-0.78646,0.42041 -0.92268,0.37354 -1.82984,0.10107c10.80253,-5.83008 17.35769,-12.23877 25.33607,-21.51562z" fill="#090708"/><path d="M72.19618,132.45747c1.51622,-0.85869 2.48358,-1.13555 4.2872,-0.66826c7.7339,2.00376 14.91424,16.92612 12.8578,24.202c-0.14165,0.51709 -0.32475,1.021 -0.54755,1.50732c0.26952,0.75879 0.18955,1.16748 -0.03384,1.95557l0.19775,0.48779c-2.54891,2.39795 -6.22558,0.90381 -8.97737,-0.18457c-0.23056,-0.18896 -0.45907,-0.37939 -0.68524,-0.57422l-0.43212,0.05566l-0.20419,-0.44531c-0.51136,-0.08643 -3.28073,-1.85156 -3.82564,-2.25439c-0.73358,-0.25488 -2.80906,-1.68896 -3.6714,-2.1958c-4.24721,-2.49463 -7.82428,-4.15137 -11.23611,-7.81494c-0.8824,-1.23794 -3.00418,-3.68188 -3.06877,-5.15273c1.87232,2.05269 6.41469,8.30801 9.13689,8.89541c-0.06826,-0.87451 -0.07265,-1.86182 -0.09389,-2.74805c-0.11967,-0.56836 -0.14018,-1.70098 -0.16962,-2.32002c-0.60145,0.21152 -0.84314,0.28286 -1.46876,0.3895c0.55795,-1.32993 -0.59369,-1.72134 -0.5953,-2.48364l-0.8553,-1.48638c-0.06313,0.68115 -0.01289,1.21978 0.03135,1.89521c-0.49979,-0.79731 -0.30805,-1.59331 -0.18691,-2.48877l-0.41806,-0.05215l0.24887,0.05435l-0.1853,-0.00586c-0.20053,-0.88022 0.86526,-0.87026 1.12658,-1.52959c0.05171,-0.13066 0.1166,-0.20522 0.19819,-0.32168l0.2499,0.05493l0.54725,-0.37881l0.20405,0.12466c0.72918,-0.34043 3.22902,-2.54048 3.85084,-3.18574c1.29987,-1.12837 2.32084,-2.21133 3.71871,-3.33149z" fill="#b4422b"/><path d="M62.81071,141.62241l0.1188,-0.41851c0.15747,-0.08276 0.20668,-0.15249 0.3829,-0.14165c3.72574,0.22822 6.66913,-0.96606 10.18189,1.12939c3.64606,2.89307 3.43996,3.70576 1.53116,8.04712c-0.62796,1.25977 -1.02068,1.93945 -1.93003,3.03369l0.59237,0.29004c-0.09155,0.44531 -0.11733,0.26367 0.11045,0.67822c0.62254,0.2373 2.09761,1.31396 2.65335,1.75195l0.0479,0.3252l0.45819,0.2666l-0.11118,0.2417c-0.26249,-0.15967 -0.52645,-0.31641 -0.79173,-0.47168l-0.17944,0.14355l-0.00146,0.40576c-0.43783,-0.30469 -0.51239,-0.37793 -1.04089,-0.36475c-0.73358,-0.25488 -2.80906,-1.68896 -3.6714,-2.1958c-4.24721,-2.49463 -7.82428,-4.15137 -11.23611,-7.81494c-0.8824,-1.23794 -3.00418,-3.68188 -3.06877,-5.15273c1.87232,2.05269 6.41469,8.30801 9.13689,8.89541c-0.06826,-0.87451 -0.07265,-1.86182 -0.09389,-2.74805c-0.11967,-0.56836 -0.14018,-1.70098 -0.16962,-2.32002c-0.60145,0.21152 -0.84314,0.28286 -1.46876,0.3895c0.55795,-1.32993 -0.59369,-1.72134 -0.5953,-2.48364z" fill="#f9c083"/><path d="M56.8567,141.37559c1.87232,2.05269 6.41469,8.30801 9.13689,8.89541c0.36444,-1.38135 -0.02959,-3.43799 0.44984,-4.61953l0.26718,-0.08452c0.62562,-0.14897 0.92063,-0.37383 1.47887,-0.21299c-0.35946,1.17729 -1.30178,0.41851 -1.2445,2.97026c0.88181,-0.1582 1.65802,-0.34424 2.55038,-0.26221l0.22851,0.16846c-0.22661,0.38379 -0.27626,0.31055 -0.7617,0.53906c0.589,0.26514 0.79056,0.2417 1.1279,0.71338c-0.01318,0.17432 -0.02725,0.49072 -0.05478,0.65186c-0.09785,0.66357 -0.40399,0.78955 -0.96267,1.29199c1.26794,0.41162 3.60109,1.91309 4.0228,1.8457l0.59237,0.29004c-0.09155,0.44531 -0.11733,0.26367 0.11045,0.67822c0.62254,0.2373 2.09761,1.31396 2.65335,1.75195l0.0479,0.3252l0.45819,0.2666l-0.11118,0.2417c-0.26249,-0.15967 -0.52645,-0.31641 -0.79173,-0.47168l-0.17944,0.14355l-0.00146,0.40576c-0.43783,-0.30469 -0.51239,-0.37793 -1.04089,-0.36475c-0.73358,-0.25488 -2.80906,-1.68896 -3.6714,-2.1958c-4.24721,-2.49463 -7.82428,-4.15137 -11.23611,-7.81494c-0.8824,-1.23794 -3.00418,-3.68188 -3.06877,-5.15273z" fill="#222227"/><path d="M66.89445,149.53125c0.37924,-0.18457 1.6107,-0.59766 2.06772,-0.76172c0.589,0.26514 0.79056,0.2417 1.1279,0.71338c-0.01318,0.17432 -0.02725,0.49072 -0.05478,0.65186c-0.09785,0.66357 -0.40399,0.78955 -0.96267,1.29199c1.26794,0.41162 3.60109,1.91309 4.0228,1.8457l0.59237,0.29004c-0.09155,0.44531 -0.11733,0.26367 0.11045,0.67822c-0.26747,0.10107 -1.20202,0.07324 -1.54083,0.07471c-1.58844,-1.10742 -3.52726,-1.83252 -4.89129,-3.17578c-0.54681,-0.5376 -0.49467,-0.85986 -0.47167,-1.6084z" fill="#29110d"/><path d="M66.89445,149.53125c0.37924,-0.18457 1.6107,-0.59766 2.06772,-0.76172c0.589,0.26514 0.79056,0.2417 1.1279,0.71338c-0.01318,0.17432 -0.02725,0.49072 -0.05478,0.65186c-1.27526,0.33691 -2.54613,0.89355 -3.14084,-0.60352z" fill="#f6bf65"/><path d="M65.85927,143.1561c1.25314,-0.3189 4.24209,-1.32085 5.26892,-0.2918l-0.01274,0.20537c-1.27936,0.871 -4.33232,-0.24932 -4.40483,2.49727l-0.26718,0.08452c-0.47943,1.18154 -0.0854,3.23818 -0.44984,4.61953c-0.06826,-0.87451 -0.07265,-1.86182 -0.09389,-2.74805c-0.11967,-0.56836 -0.14018,-1.70098 -0.16962,-2.32002c-0.60145,0.21152 -0.84314,0.28286 -1.46876,0.3895c0.55795,-1.32993 -0.59369,-1.72134 -0.5953,-2.48364c1.04499,0.79438 1.00222,0.57979 2.19326,0.04731z" fill="#29110d"/><path d="M63.66601,143.10879c1.04499,0.79438 1.00222,0.57979 2.19326,0.04731c-0.16582,0.8228 0.22499,3.0498 0.04043,4.36685c-0.11967,-0.56836 -0.14018,-1.70098 -0.16962,-2.32002c-0.60145,0.21152 -0.84314,0.28286 -1.46876,0.3895c0.55795,-1.32993 -0.59369,-1.72134 -0.5953,-2.48364z" fill="#3c1f15"/><path d="M76.4516,155.99268c2.9031,1.73438 5.97774,3.68408 9.401,3.95508c1.43683,-0.6709 2.10786,-0.98877 2.94104,-2.44922c0.26952,0.75879 0.18955,1.16748 -0.03384,1.95557l0.19775,0.48779c-2.54891,2.39795 -6.22558,0.90381 -8.97737,-0.18457c-0.23056,-0.18896 -0.45907,-0.37939 -0.68524,-0.57422l-0.43212,0.05566l-0.20419,-0.44531c-0.51136,-0.08643 -3.28073,-1.85156 -3.82564,-2.25439c0.5285,-0.01318 0.60306,0.06006 1.04089,0.36475l0.00146,-0.40576l0.17944,-0.14355c0.26528,0.15527 0.52924,0.31201 0.79173,0.47168l0.11118,-0.2417l-0.45819,-0.2666z" fill="#29110d"/><path d="M74.83298,156.53906c0.5285,-0.01318 0.60306,0.06006 1.04089,0.36475c0.87361,0.15527 2.33842,0.55811 2.91043,1.26563l0.0019,0.17871c-0.23994,-0.08203 -0.47782,-0.16992 -0.71365,-0.26367l0.01611,0.14941c0.3413,0.23877 0.42553,0.21387 0.56996,0.55957c-0.51136,-0.08643 -3.28073,-1.85156 -3.82564,-2.25439z" fill="#3c1f15"/><path d="M62.81071,141.62241c-0.06313,0.68115 -0.01289,1.21978 0.03135,1.89521c-0.49979,-0.79731 -0.30805,-1.59331 -0.18691,-2.48877l-0.41806,-0.05215l0.24887,0.05435l-0.1853,-0.00586c-0.20053,-0.88022 0.86526,-0.87026 1.12658,-1.52959c0.05171,-0.13066 0.1166,-0.20522 0.19819,-0.32168l0.2499,0.05493l0.54725,-0.37881l0.20405,0.12466c-0.40399,0.41938 -0.86585,0.78179 -1.31584,1.1521c3.87647,-0.15864 7.98174,-0.82515 11.18543,1.57881c-0.3394,0.23877 -0.61668,0.5124 -1.00193,0.48604c-3.51276,-2.09546 -6.45615,-0.90117 -10.18189,-1.12939c-0.17622,-0.01084 -0.22543,0.05889 -0.3829,0.14165z" fill="#090708"/><path d="M76.91184,144.44268l0.29033,-0.5855c0.52572,0.28608 1.05891,0.55166 1.58595,0.83394c3.48786,1.8665 7.00677,1.46646 8.31264,5.89775c0.0854,0.2915 0.16684,0.58301 0.24433,0.87598c-2.26005,-3.86426 -4.14643,-3.8584 -7.97823,-5.72578c-0.64598,-0.31479 -1.50363,-0.73755 -2.16308,-0.97485z" fill="url(#color-3)"/><path d="M74.49622,141.70562c0.78572,0.56133 1.09275,0.90029 1.75777,1.60063c0.15351,0.28403 0.47123,0.91069 0.65785,1.13643l0.29194,0.32153c0.27436,2.22114 -0.42904,3.82368 -1.33722,5.81587l-0.84109,-0.34131c1.90879,-4.34136 2.11489,-5.15405 -1.53116,-8.04712c0.38524,0.02637 0.66253,-0.24727 1.00193,-0.48604z" fill="#29110d"/><path d="M76.25399,143.30625c0.06225,-0.95112 -0.23627,-2.67451 -0.08042,-3.13477l0.20009,-0.15674c0.68846,0.502 0.78939,3.05068 0.8285,3.84243l-0.29033,0.5855c-0.18662,-0.22573 -0.50433,-0.85239 -0.65785,-1.13643z" fill="#3c1f15"/><path d="M73.09543,153.27246c0.90935,-1.09424 1.30207,-1.77393 1.93003,-3.03369l0.84109,0.34131c-0.65272,1.21143 -1.07546,2.10205 -2.17876,2.98242z" fill="#29110d"/><path d="M47.17651,161.16211l0.28139,1.08545c-0.11631,1.01953 -0.38407,2.38916 -0.60819,3.41602c3.69923,1.35059 11.10882,2.55615 15.05794,2.66455c2.56312,0.05566 5.12712,0.03955 7.68937,-0.04687c-0.05815,1.08252 -1.78238,2.59863 -2.61161,3.38525c-5.94595,5.63379 -12.51489,10.63037 -19.8423,14.33643c-0.96546,0.48926 -3.0386,1.59668 -3.98589,1.65674c0.06474,-1.62598 0.57904,-8.14014 0.90584,-9.45703l-0.0501,-0.30615c0.18413,-0.68408 0.32782,-1.49414 0.4349,-2.1958c0.74705,-4.90137 1.59459,-9.71191 2.72865,-14.53857z" fill="#222227"/><path d="M47.17651,161.16211l0.28139,1.08545c-0.11631,1.01953 -0.38407,2.38916 -0.60819,3.41602c3.69923,1.35059 11.10882,2.55615 15.05794,2.66455l0.02153,0.18311c-0.72449,-0.12305 -1.61773,0.52002 -2.18916,0.95654c-4.25424,3.25049 -10.45332,7.13086 -15.72707,8.42871c0.18413,-0.68408 0.32782,-1.49414 0.4349,-2.1958c0.74705,-4.90137 1.59459,-9.71191 2.72865,-14.53857z" fill="#222227"/><path d="M61.92919,168.51123c-0.44032,0.5918 -2.08354,1.32568 -2.7389,1.83984c-4.83153,3.78223 -9.13367,6.02637 -14.88202,8.15039c-0.23642,-0.13623 -0.15703,-0.03955 -0.24521,-0.29883l-0.0501,-0.30615c5.27375,-1.29785 11.47282,-5.17822 15.72707,-8.42871c0.57142,-0.43652 1.46466,-1.07959 2.18916,-0.95654z" fill="#090708"/><path d="M58.81208,148.84717c-0.18852,-1.27148 -0.62254,-1.01953 0.36942,-2.10498c0.12597,-0.13916 -0.02241,-0.47988 -0.07778,-0.66138l0.49013,0.46216l0.33163,-0.01465c3.41183,3.66357 6.9889,5.32031 11.23611,7.81494c0.86233,0.50684 2.93782,1.94092 3.6714,2.1958c0.54491,0.40283 3.31428,2.16797 3.82564,2.25439l0.20419,0.44531c0.11411,0.62695 0.38041,1.38867 0.16728,1.90137l-0.6429,0.34131c-2.85052,0.73096 -5.69986,1.43701 -8.65643,1.54834c-5.37307,0.19922 -10.68519,-0.56104 -15.97125,-1.43555c-1.30192,-0.21533 -4.82098,-0.70898 -5.80958,-1.43555c0.26733,-1.17334 0.35639,-2.49463 0.45468,-3.7002c3.5611,0.00293 7.26794,0.06006 10.81586,-0.02197c1.03123,-0.87158 1.44049,-1.5249 1.91612,-2.75244c-0.45907,-1.32861 -1.65934,-3.53174 -2.32451,-4.83691z" fill="#b4422b"/><path d="M47.4579,162.24756c0.14165,-0.48926 0.12378,-0.79248 0.46273,-1.02686c5.51603,1.37402 12.6703,2.93115 18.36035,3.10107c1.93501,0.05859 7.61232,-0.96387 9.63434,-1.36963l0.29867,0.19189c0.13813,0.90967 -0.0227,3.41602 -0.05361,4.46924c-2.44828,0.39258 -4.04082,0.59033 -6.56337,0.66797c-2.56224,0.08643 -5.12625,0.10254 -7.68937,0.04688c-3.94912,-0.1084 -11.35871,-1.31396 -15.05794,-2.66455c0.22412,-1.02686 0.49188,-2.39648 0.60819,-3.41602z" fill="#f6bf65"/><path d="M80.08286,169.34326l0.13242,-0.08057c0.127,0.72803 0.17373,1.53223 0.23437,2.2749c-0.22543,0.5127 -0.3536,0.87451 -0.71453,1.30225c-1.15749,1.69189 -5.20886,6.40283 -5.82144,7.56885c-7.97837,9.27686 -14.53354,15.68555 -25.33607,21.51563c-1.51447,0.70898 -4.04624,1.95264 -5.60685,2.33789l-0.15131,-0.07031c-0.02139,-0.27246 -0.04643,-0.54639 -0.05478,-0.82178c0.09873,-0.7002 0.12055,-1.47217 0.15747,-2.18262c10.60111,-4.22021 17.36809,-10.31836 25.52884,-18.21094c1.72847,-1.67139 3.31018,-3.7749 4.97771,-5.45508c0.87229,-1.06787 1.72965,-2.06982 2.57484,-3.16113c1.27292,-1.64355 2.56166,-3.60645 4.07935,-5.01709z" fill="#b4422b"/><path d="M73.42867,177.52148c0.87229,-1.06787 1.72965,-2.06982 2.57484,-3.16113c1.27292,-1.64355 2.56166,-3.60645 4.07935,-5.01709c0.1125,1.57324 -3.89537,5.88574 -5.05872,7.15283c-0.83201,0.854 -0.7012,0.50244 -1.59547,1.02539z" fill="#b4422b"/><path d="M80.08286,169.34326l0.13242,-0.08057c0.127,0.72803 0.17373,1.53223 0.23437,2.2749c-0.22543,0.5127 -0.3536,0.87451 -0.71453,1.30225c0.06577,-0.44385 0.26557,-1.22168 0.19145,-1.58643c-0.64041,1.34033 -3.28234,4.29199 -4.38022,5.58545l-0.20727,0.01611l-0.31493,-0.35889c1.16335,-1.26709 5.17121,-5.57959 5.05872,-7.15283z" fill="#82322b"/><path d="M66.75559,132.77754l-0.42143,-0.14531c0.09624,-0.09829 5.07073,-0.98071 5.86202,-0.17476c-1.39787,1.12017 -2.41884,2.20313 -3.71871,3.33149l0.09814,-0.49146l-0.14897,-0.11235l-0.42626,0.19453l-0.2269,-0.14648c-2.00371,1.76602 -4.08315,3.19351 -6.07866,4.91147l-0.26777,1.28789c-2.0935,-4.07725 -2.28422,-3.76626 -3.11111,-8.49419c2.61044,0.20317 5.83477,0.37559 8.43964,-0.16084z" fill="#f9c083"/><path d="M66.75559,132.77754l-0.42143,-0.14531c0.09624,-0.09829 5.07073,-0.98071 5.86202,-0.17476c-1.39787,1.12017 -2.41884,2.20313 -3.71871,3.33149l0.09814,-0.49146l-0.14897,-0.11235l-0.42626,0.19453l-0.2269,-0.14648c0.23378,-0.33384 2.58832,-2.59453 2.94676,-2.93569c-1.31701,0.1957 -2.639,0.35581 -3.96465,0.48003z" fill="#090708"/><path d="M56.14949,140.58281c-0.82615,-1.77305 -1.06462,-3.06812 -1.26398,-5.01489c-0.14589,-1.42471 0.4223,-3.35303 2.23647,-2.65166c0.50272,0.49775 0.53319,1.66611 0.66971,2.34712c0.65287,3.25708 3.46706,8.64917 6.46962,10.32905c0.62562,-0.10664 0.86731,-0.17798 1.46876,-0.3895c0.02944,0.61904 0.04995,1.75166 0.16962,2.32002c0.02124,0.88623 0.02563,1.87354 0.09389,2.74805c-2.7222,-0.5874 -7.26457,-6.84272 -9.13689,-8.89541c-0.27509,-0.40679 -0.35024,-0.47314 -0.70721,-0.79277z" fill="#c55135"/><path d="M80.13647,212.0127c0.19218,0.59033 0.13549,1.56738 0.133,2.21777c-0.07441,1.20117 -0.19497,1.8208 0.42143,2.88281c-1.22502,0.3208 -3.27194,0.79102 -4.41347,1.17041c-0.93924,0.13916 -4.59305,0.94336 -5.1948,0.78369l-0.41586,0.03369c-0.16801,-1.59375 -0.17065,-3.3457 -0.31772,-4.99072l-0.00527,-0.53027l0.19965,0.3457l0.36401,0.09814c1.06374,-0.30762 4.39033,-0.80713 5.63629,-1.02686l0.3101,-0.1333l0.24111,-0.00439z" fill="#c55135"/><path d="M70.34378,213.58008l0.19965,0.3457l0.36401,0.09814l0.17519,5.04346l-0.41586,0.03369c-0.16801,-1.59375 -0.17065,-3.3457 -0.31772,-4.99072z" fill="#29110d"/><path d="M76.85383,212.86377l0.24111,-0.00439c0.01333,1.91016 0.03061,2.75684 -0.19248,4.6626c-0.12114,-1.23047 -0.40326,-3.38818 -0.35873,-4.5249z" fill="#b4422b"/><path d="M53.62006,138.30029c0.08203,-0.52705 0.10268,-1.11665 0.48134,-1.47026c0.38876,1.05454 0.98098,2.86479 1.70709,3.65156l0.34101,0.10122c0.35697,0.31963 0.43212,0.38599 0.70721,0.79277c0.0646,1.47085 2.18637,3.91479 3.06877,5.15273l-0.33163,0.01465l-0.49013,-0.46216c0.05537,0.18149 0.20375,0.52222 0.07778,0.66138c-0.99197,1.08545 -0.55795,0.8335 -0.36942,2.10498c0.66517,1.30518 1.86543,3.5083 2.32451,4.83691c-0.47562,1.22754 -0.88489,1.88086 -1.91612,2.75244c-3.54791,0.08203 -7.25476,0.0249 -10.81586,0.02197c-0.09829,1.20557 -0.18735,2.52686 -0.45468,3.7002c-0.12304,-0.82471 0.09009,-2.9751 0.38568,-3.77197c0.77913,-0.72803 9.33318,0.17139 10.73514,-0.26074c0.49247,-0.15088 1.9728,-2.05811 1.66534,-2.71875c-0.22148,-0.47607 -1.32126,-1.62158 -1.38688,-1.93799c-0.42875,-2.06396 -1.42614,-3.54053 -2.21128,-5.46768c-0.38144,-0.14736 -0.21694,-0.1229 -0.68275,-0.01436l-0.0854,0.24434c0.76024,1.22988 3.81466,6.97646 3.61456,8.21572c-0.2912,0.40137 -0.18252,0.27979 -0.66473,0.49365l0.01465,-0.15088c0.47826,-0.49658 0.57069,-0.94629 0.26557,-1.56299c-1.75645,-3.54639 -3.4984,-6.95391 -5.06428,-10.60342c0.36957,-0.42568 0.35961,-0.9312 0.41498,-1.49429z" fill="#222227"/><path d="M53.62006,138.30029c0.08203,-0.52705 0.10268,-1.11665 0.48134,-1.47026c0.38876,1.05454 0.98098,2.86479 1.70709,3.65156l0.34101,0.10122c0.35697,0.31963 0.43212,0.38599 0.70721,0.79277c0.0646,1.47085 2.18637,3.91479 3.06877,5.15273l-0.33163,0.01465l-0.49013,-0.46216c0.05537,0.18149 0.20375,0.52222 0.07778,0.66138c-0.99197,1.08545 -0.55795,0.8335 -0.36942,2.10498c-0.49906,-0.76465 -1.09451,-2.21924 -1.50011,-3.08818c-0.75906,-1.62642 -1.45763,-3.07515 -2.36142,-4.62964z" fill="#8f3424"/><path d="M59.33428,154.79004c-1.20451,-3.67969 -11.52453,-23.72827 -11.16653,-25.23501c0.59178,0.30322 2.43363,4.7647 2.98396,5.79067c0.33061,-0.39155 0.4122,-0.40913 0.88826,-0.56704l1.05583,2.20093l0.52426,1.3207l1.33049,2.82905c-0.05537,0.56309 -0.04541,1.0686 -0.41498,1.49429c1.56588,3.64951 3.30783,7.05703 5.06428,10.60342c0.30512,0.6167 0.21269,1.06641 -0.26557,1.56299z" fill="#dddcdb"/><path d="M51.15171,135.3457c0.33061,-0.39155 0.4122,-0.40913 0.88826,-0.56704l1.05583,2.20093l0.52426,1.3207l1.33049,2.82905c-0.05537,0.56309 -0.04541,1.0686 -0.41498,1.49429c-1.01116,-2.36499 -2.27236,-4.93916 -3.38385,-7.27793z" fill="#090708"/><path d="M80.13647,212.0127c1.15588,-0.38379 2.80364,-0.87891 3.87618,-1.36963c0.01934,1.75195 0.02637,3.50391 0.02109,5.25732l-1.84302,0.71484l-1.49982,0.49805c-0.61639,-1.06201 -0.49584,-1.68164 -0.42143,-2.88281c0.00249,-0.65039 0.05918,-1.62744 -0.133,-2.21777z" fill="#8f3424"/><path d="M80.26947,214.23047c0.33647,0.88916 0.00234,1.22607 0.33632,1.89111c0.32182,0.08496 0.51312,-0.01758 0.83567,-0.12158c0.51752,0.16699 0.36693,0.12158 0.74925,0.61523l-1.49982,0.49805c-0.61639,-1.06201 -0.49584,-1.68164 -0.42143,-2.88281z" fill="#b4422b"/><path d="M75.91533,162.95215l3.37126,-0.78516c0.27538,1.38135 0.5329,3.02637 0.59735,4.43701c-1.16262,0.39551 -2.50907,0.80566 -3.72354,1.00928c0.03091,-1.05322 0.19174,-3.55957 0.05361,-4.46924z" fill="#e49b59"/><path d="M48.09715,218.80225c1.16438,0.28271 3.63317,0.83789 4.77733,0.9375c0.28564,0.11133 1.89707,0.34863 2.30107,0.41309c-0.54769,0.41748 -1.43375,0.99463 -2.09468,1.1543c-1.90835,0.4585 -4.50297,-0.42187 -4.98372,-2.50488z" fill="#f9c083"/><path d="M84.03374,215.90039c-0.85559,1.39307 -3.06365,1.67285 -4.56596,2.16064c-1.05452,0.34277 -2.09263,0.3457 -3.19035,0.22266c1.14153,-0.37939 3.18845,-0.84961 4.41347,-1.17041l1.49982,-0.49805z" fill="#222227"/><path d="M52.03997,134.77866c0.57787,-0.22866 0.79554,-0.43184 1.3258,-0.30806c0.24184,0.36958 0.25151,0.57832 0.32475,1.00327l0.41088,1.35615c-0.37865,0.35361 -0.39931,0.94321 -0.48134,1.47026l-0.52426,-1.3207z" fill="#8f3424"/><path d="M53.69052,135.47388l0.41088,1.35615c-0.37865,0.35361 -0.39931,0.94321 -0.48134,1.47026l-0.52426,-1.3207c0.53802,-0.47505 0.57025,-0.82324 0.59471,-1.50571z" fill="#82322b"/><path d="M78.86282,159.23877l0.43212,-0.05566c0.22617,0.19482 0.45468,0.38525 0.68524,0.57422c0.33486,1.08984 0.50726,2.72461 0.66678,3.89063c-0.00688,0.28418 0.03545,0.15234 -0.17314,0.39258c-0.2329,-0.97705 0.07046,-2.18262 -0.76478,-2.75391c-0.42758,0.17432 -0.66458,0.24902 -1.1115,0.36914l-0.21035,-0.17432l0.6429,-0.34131c0.21313,-0.5127 -0.05317,-1.27441 -0.16728,-1.90137z" fill="#29110d"/><path d="M31.00795,130.10303c5.34274,-0.08467 10.83578,0.09375 16.29322,0.01201c0.85633,2.88501 2.7266,6.19087 3.91997,9.01509c2.27236,5.37729 5.23039,10.73218 7.4654,16.08179c-1.4818,0.16992 -2.38324,0.18604 -3.85538,0.1875c-2.6472,-0.04687 -9.65558,0.09229 -12.42304,-0.32812c-0.97864,-0.14795 -1.36711,-3.32959 -1.57716,-4.53955c2.42895,-0.78076 3.65675,-2.13135 3.23679,-4.90137c-0.29838,-1.9686 -1.29709,-4.48711 -2.90603,-5.72651c-1.37648,-1.0604 -3.72237,-0.53027 -5.35007,-0.27349c-1.7005,-2.58237 -3.57882,-6.70576 -4.80369,-9.52734z" fill="#dddcdb"/><path d="M43.84759,138.89502c0.77679,-0.00059 1.44313,-0.07031 2.10317,0.3167c0.36108,0.49556 0.42099,0.57759 0.23671,1.23896l-0.59398,0.20566c-0.89353,0.18193 -1.73507,0.38555 -2.20512,-0.52427c-0.02065,-0.55005 0.1645,-0.76128 0.45922,-1.23706z" fill="#211d1d"/><path d="M45.59349,140.65635c-0.89353,0.18193 -1.73507,0.38555 -2.20512,-0.52427c-0.02065,-0.55005 0.1645,-0.76128 0.45922,-1.23706c0.34848,0.6687 0.44706,1.4269 0.82322,1.71035c0.41073,0.07661 0.51766,0.06929 0.92268,0.05098z" fill="#222227"/><path d="M46.18747,140.45068c0.57816,0.53057 1.23103,1.06318 0.75291,1.90503c-0.47504,-0.11411 -0.6306,-0.11514 -0.92649,-0.50391c-0.16552,-0.50156 0.01626,-0.89077 0.17358,-1.40112z" fill="#090708"/><path d="M42.84595,145.86929c1.1632,1.47349 -0.98831,3.75718 -2.53705,3.66196c-3.30139,-0.22998 -4.86683,-3.94966 -4.91414,-6.85562c-0.04497,-2.77119 2.18095,-2.52671 4.24311,-2.48086c1.05217,0.61304 2.70667,2.02881 1.54845,3.23335c0.8241,0.4418 1.89576,0.77622 1.74561,1.88525l-0.25869,0.17783z" fill="#f9c083"/><path d="M42.84595,145.86929c-0.79876,0.37925 -2.33842,1.45298 -3.18464,1.47495l0.12832,-0.25635c0.73782,-0.51855 2.03623,-1.3459 2.88362,-1.59668z" fill="#e49b59"/><path d="M77.15383,219.76758l0.27465,0.34131c0.07383,0.35742 0.22675,1.00488 0.04878,1.32861c-1.08923,1.979 -4.0562,2.77734 -6.17402,2.68945c-1.10725,-0.04541 -1.7837,-0.28564 -2.73465,-0.70898c-0.58563,-0.43945 -1.22678,-1.09717 -0.95227,-1.88818c0.46815,-0.48193 0.99124,-0.45264 1.68497,-0.5083c2.72938,-0.21826 5.19245,-0.60352 7.85255,-1.25391z" fill="#f9c083"/><path d="M34.35782,142.35146c0.33046,0.34087 0.58109,3.61626 1.27673,4.85068c1.21023,2.14746 2.08867,2.61035 4.31328,3.39258c-0.01655,0.56543 -0.00308,1.77539 -0.17446,2.25879l-0.33661,0.1084c-3.92671,-0.12598 -6.38818,-3.75439 -5.99883,-7.49341c0.12802,-1.22842 0.45936,-1.98267 0.9199,-3.11704z" fill="#b4422b"/><path d="M31.50042,128.97246c1.30676,-0.10415 15.22449,-0.13433 15.7029,0.01978l-0.07016,0.23804c-1.34909,0.07222 -14.78783,0.25811 -15.65295,-0.0249z" fill="#dddcdb"/><path d="M98.86024,124.65264c1.44943,0.7415 3.80689,2.82583 3.82066,4.58716c-1.16687,0.0293 -3.39557,-3.53276 -3.82066,-4.58716z" fill="#222227"/></g></svg></svg>