<svg id="svg" version="1.1" viewBox="0 0 141.99999999999997 300" width="141.99999999999997" height="300" xmlns="http://www.w3.org/2000/svg"><svg xmlns="http://www.w3.org/2000/svg"><defs><clipPath id="clip-1"><rect x="0" y="0" transform="scale(0.14654,0.14648)" width="969" height="2048" fill="none"/></clipPath><linearGradient x1="70.55055" y1="150.86279" x2="71.27887" y2="154.77539" gradientUnits="userSpaceOnUse" id="color-1"><stop offset="0" stop-color="#ae4341"/><stop offset="1" stop-color="#d85f58"/></linearGradient><linearGradient x1="81.35882" y1="133.12983" x2="87.0205" y2="138.74561" gradientUnits="userSpaceOnUse" id="color-2"><stop offset="0" stop-color="#050504"/><stop offset="1" stop-color="#272525"/></linearGradient><linearGradient x1="47.69002" y1="114.94717" x2="49.62145" y2="115.04927" gradientUnits="userSpaceOnUse" id="color-3"><stop offset="0" stop-color="#ec9640"/><stop offset="1" stop-color="#d0a258"/></linearGradient><linearGradient x1="56.03446" y1="219.25195" x2="57.60364" y2="229.9585" gradientUnits="userSpaceOnUse" id="color-4"><stop offset="0" stop-color="#6a615a"/><stop offset="1" stop-color="#928172"/></linearGradient><linearGradient x1="96.71123" y1="135.33428" x2="99.17447" y2="145.86665" gradientUnits="userSpaceOnUse" id="color-5"><stop offset="0" stop-color="#dc975a"/><stop offset="1" stop-color="#f1bd85"/></linearGradient></defs><g clip-path="url(#clip-1)" fill="none" fill-rule="nonzero" stroke="none" stroke-width="1" stroke-linecap="butt" stroke-linejoin="miter" stroke-miterlimit="10" stroke-dasharray="" stroke-dashoffset="0" font-family="none" font-weight="none" font-size="none" text-anchor="none" style="mix-blend-mode: normal"><path d="M44.43369,151.51904c-3.17148,0.77197 -5.37798,1.00928 -7.9964,-1.39014c-2.90844,-2.66602 -4.3025,-6.69097 -4.57624,-10.53896c-0.21615,-3.03999 1.03826,-5.79814 3.4335,-7.66436c0.80994,-0.6416 1.84395,-1.06582 2.54691,-1.83604c0.72231,-1.47861 -1.05745,-3.79424 -1.02858,-5.21909c0.01832,-0.90469 0.24971,-2.25688 0.37456,-3.18882c0.41413,-3.11807 0.89171,-6.22749 1.4326,-9.32607c0.75001,-4.45283 1.26554,-9.40254 2.50618,-13.7269c0.34511,-1.20322 0.86797,-2.66587 1.75075,-3.58184c4.31598,-4.47832 29.25303,-13.32012 35.83236,-13.44771c1.41927,-0.02739 2.55248,0.22939 3.5881,1.24131c3.50325,3.4229 12.2479,24.03091 13.97374,29.30933c1.11402,3.40723 2.20503,7.0522 2.24049,10.6522c-0.42453,0.35566 -0.95048,0.72041 -1.40329,1.05103c0.36284,2.14512 0.55525,5.69736 0.79382,8.00757c2.50969,1.20176 3.77275,2.6833 4.42896,5.39722c1.13102,4.67798 -0.80584,11.19683 -6.01646,12.37163c-1.34585,4.89404 -4.7455,8.59424 -8.72076,11.58838c-1.21352,0.91406 -2.14407,1.15723 -3.48127,2.26904c5.16798,0.83789 10.55314,3.72949 14.35079,7.29932c0.98858,0.92871 1.66297,1.65381 2.96676,2.11816l0.72876,0.2417c0.40563,0.30176 1.11475,0.83203 1.07592,1.35205c-0.26935,3.61377 -1.56654,8.57666 -2.28182,12.06152l-3.19566,16.03418c2.30043,1.53955 11.35135,3.67822 14.29203,4.11621c2.69653,0.38379 5.41359,0.60498 8.13679,0.66357c1.92733,0.02783 4.02289,0.04541 5.9514,0.0249c4.50048,-0.0498 6.59399,0.03809 6.09457,5.26465c0.04792,2.19727 -0.22143,5.13721 -3.0327,5.16064c-0.07342,0 -0.14698,0 -0.22055,-0.00146c-0.75352,-0.02197 -4.63837,-1.37549 -6.23071,-1.68311c-0.88995,1.13818 -1.47818,3.15381 -1.35479,4.60986c0.03136,0.36914 0.37779,0.55957 0.68011,0.71924c1.52155,0.20068 4.8957,-0.09961 4.52451,2.03467c-0.32269,1.85742 -0.67424,2.88281 -1.98272,4.23193c-1.82226,0.55664 -2.11813,0.78223 -4.01058,0.24756c-3.44595,-0.97266 -6.75592,-2.22803 -10.13417,-3.39551c-3.51351,-1.18066 -7.05662,-2.27197 -10.62582,-3.271c-0.61138,0.58887 -3.59557,3.14209 -3.81935,3.51855c-1.07196,1.80762 -0.74268,3.73975 -2.88396,5.37158c-5.99551,4.57178 -15.15927,-1.23486 -20.93555,-1.89844l-0.06902,-0.00732c-0.159,0.21973 -0.32371,0.43506 -0.494,0.646c-0.53811,0.67529 -1.261,1.42969 -2.21602,1.37988c-11.05358,-0.5874 -21.36521,-2.24268 -30.11865,-9.50537c-2.55776,0.29443 -8.43676,2.83887 -11.10135,3.83643c-1.32504,0.49658 -3.42368,1.88232 -5.18732,2.39063c-1.27067,0.45264 -4.92838,1.38281 -6.04738,0.79248c-1.22583,-0.646 -4.39378,-4.57617 -2.73336,-5.76709c1.05984,-0.75879 4.13651,-0.65479 5.72562,-1.01221c-0.0655,-0.84521 -0.87808,-5.77148 -2.05307,-5.31445c-1.57431,0.61377 -6.29173,2.93408 -7.65434,1.00049c-1.50982,-2.14307 -2.99865,-6.76465 -0.59917,-8.76562c1.49976,-1.25098 3.78784,-0.8877 5.59713,-0.74268c1.54002,-0.03809 3.23288,-0.15234 4.78081,-0.21826c1.78709,-0.07617 4.65742,0.01172 6.38722,-0.28857c4.11463,-0.71045 8.41434,-1.604 12.5004,-2.44922c0.54998,-0.12891 1.09394,-0.28125 1.63058,-0.45703c2.04222,-0.68262 2.70665,-1.42676 3.61184,-3.25049c-2.62869,-2.18701 -5.49887,-3.2666 -7.45331,-6.81152c-1.75954,-3.19189 -1.8756,-5.41699 -0.88189,-8.96631c1.72202,-6.14941 6.34223,-13.21143 10.6415,-17.90625c1.41355,-1.54248 3.85349,-3.15381 5.64791,-4.17773l0.23227,-1.3623c-4.38192,-3.62109 -5.39761,-4.73584 -7.91859,-9.83203zM72.35069,213.02783c1.04207,-0.70752 1.99738,-1.26709 3.08077,-1.89844c0.54294,-0.27686 1.16677,-0.57568 1.68231,-0.8877c-1.82417,0.04395 -3.69625,0.04834 -5.52247,0.0498c-1.2758,0.00293 -3.41591,0.14795 -4.62724,-0.06445c1.73375,1.14111 3.51058,1.93945 5.38662,2.80078z" fill="#171616"/><path d="M101.4302,172.9043l0.72876,0.2417c-0.35097,1.94092 -0.82709,5.62207 -1.36124,7.37842c-2.54911,8.3877 -3.21368,17.12842 -5.51602,25.58789c-3.55425,0 -6.91975,0.19482 -10.54258,0.08203c-3.48772,-0.10986 -6.94862,-0.28857 -10.42315,-0.40869c-2.12385,-0.07324 -4.8916,0.42334 -7.20024,0.31934c-4.48348,-0.20508 -9.00579,-0.19482 -13.49381,-0.18604c-1.45341,0.00293 -4.42076,-0.08496 -5.73232,0.16553c-0.2478,-2.5415 -0.79778,-5.76709 -1.14479,-8.35107c-0.64508,-4.83691 -1.25148,-9.67676 -1.81904,-14.52393c-0.33734,-2.7832 -0.83427,-6.15967 -0.75865,-8.9502c0.02022,-0.74561 0.6061,-0.88477 1.35523,-0.94482c5.29181,-0.50537 10.65821,-0.09668 15.96525,-0.15527c11.84388,-0.13184 23.66564,0.55371 35.50762,0.18018c1.13541,-0.03662 3.61521,0.20508 4.43497,-0.43506z" fill="#2d2f37"/><path d="M70.94343,187.80322c1.07841,-0.72217 2.46939,-0.78662 3.60906,-0.16406c1.13952,0.62109 1.83882,1.8252 1.8142,3.12305c-0.02447,1.29785 -0.76876,2.47412 -1.93099,3.05127c-1.6448,0.81885 -3.64247,0.21973 -4.5651,-1.36816c-0.92263,-1.58789 -0.45311,-3.61963 1.07284,-4.64209z" fill="#d8d8d9"/><path d="M70.94343,187.80322c1.07841,-0.72217 2.46939,-0.78662 3.60906,-0.16406c1.13952,0.62109 1.83882,1.8252 1.8142,3.12305c-0.02447,1.29785 -0.76876,2.47412 -1.93099,3.05127c-0.59101,-0.89209 0.54177,-2.44922 -1.03708,-5.02002c-1.08105,-0.25342 -1.94462,-0.17871 -2.68862,-0.38232z" fill="#fdfdfd"/><path d="M15.25496,207.23877c1.54002,-0.03809 3.23288,-0.15234 4.78081,-0.21826c1.78709,-0.07617 4.65742,0.01172 6.38722,-0.28857c4.11463,-0.71045 8.41434,-1.604 12.5004,-2.44922l0.70341,0.16553l0.00967,0.1084c0.00234,0.53174 -0.97773,1.604 -1.29251,2.17822c-2.65536,4.8501 -2.4458,8.89453 0.34218,13.42822c-6.02555,1.3125 -12.81195,4.52344 -18.80232,6.68115c0.94447,-2.32471 0.97788,-2.85205 1.19139,-5.31592c0.52492,-0.02344 1.16018,0.01611 1.56083,-0.29297l0.18435,-0.2915c-0.39493,-0.63281 -1.09116,-0.34131 -1.75925,-0.22412c-1.15915,-4.39307 -2.36359,-8.24561 -5.89381,-11.35986c-0.38555,-0.33984 -1.9504,-1.40918 -1.98936,-1.76367l0.44228,-0.07617c0.50475,-0.11572 1.11434,-0.19775 1.63471,-0.28125z" fill="#d8d8d9"/><path d="M15.25496,207.23877c1.54002,-0.03809 3.23288,-0.15234 4.78081,-0.21826c1.78709,-0.07617 4.65742,0.01172 6.38722,-0.28857c4.11463,-0.71045 8.41434,-1.604 12.5004,-2.44922l0.70341,0.16553l0.00967,0.1084c-10.46711,2.7085 -15.13494,3.52148 -26.01622,2.96338c0.50475,-0.11572 1.11434,-0.19775 1.63471,-0.28125z" fill="#171616"/><path d="M30.29656,208.21582c0.89186,-0.02197 1.8375,-0.19775 2.24548,0.69287c-0.04133,1.24219 -1.62443,2.24561 -2.70078,2.52832c-1.05394,0 -2.67646,-0.25342 -2.86227,-1.53369c0.30393,-1.54541 2.05922,-1.57617 3.31758,-1.6875z" fill="#fdfdfd"/><path d="M120.27913,221.29102c0.18816,-1.22754 0.51187,-4.27734 1.53973,-5.17529c0.23505,-0.20508 0.58192,-0.0498 0.92937,0.02344c-0.88995,1.13818 -1.47818,3.15381 -1.35479,4.60986c0.03136,0.36914 0.37779,0.55957 0.68011,0.71924z" fill="#d8d8d9"/><path d="M132.23219,212.66309c0.04792,2.19727 -0.22143,5.13721 -3.0327,5.16064c-0.07342,0 -0.14698,0 -0.22055,-0.00146c1.99298,-1.29785 2.50163,-3.01172 3.25325,-5.15918z" fill="#d8d8d9"/><path d="M71.4748,116.66719c5.87432,-0.08027 16.32575,0.41777 21.74505,3.16274c0.85772,0.43433 1.49562,1.44536 1.59702,2.37129c0.70428,6.43052 1.2569,17.71567 -0.0192,23.79404c-0.58178,2.81382 -1.66473,5.50181 -3.19756,7.93198c-1.86871,2.93701 -3.88045,4.63916 -6.78083,6.52588c-9.41318,6.12158 -21.37386,5.23535 -30.67347,-0.7251c-5.0484,-3.63281 -6.52116,-5.89014 -8.47516,-11.77002c-6.41755,5.49756 -11.8348,-2.82275 -11.66627,-8.77031c-0.06096,-2.02061 1.20854,-6.28184 3.65991,-6.34717c3.48728,-0.09287 6.09281,7.61543 8.37009,7.66772c0.58881,-0.28491 0.79309,-0.64219 0.92776,-1.27983c0.32283,-1.52856 0.04308,-3.31758 0.07386,-4.88262c0.07371,-3.75527 1.09629,-10.72954 3.63412,-13.53794c2.31963,-2.56685 16.82033,-3.97793 20.80469,-4.14067z" fill="#fcb166"/><path d="M63.98543,146.01812c6.54988,1.85786 9.34298,2.12886 16.05391,2.41597c-0.40167,2.28076 -1.02404,3.56982 -2.72321,5.15332c-4.70432,3.72656 -11.06164,2.78467 -13.48956,-3.24609c-0.48989,-1.21729 -0.44256,-3.14941 0.15885,-4.32319z" fill="#171616"/><path d="M65.8965,151.08545c-0.41032,-0.70459 -1.23199,-2.35107 -0.98286,-3.14795c0.41721,-0.17871 1.46308,0.32666 1.93085,0.43506c3.68174,0.85986 7.75343,1.36963 11.52955,1.3623c-0.87999,1.64795 -1.08061,2.16943 -2.45049,3.41162c-1.92176,1.78564 -4.99696,2.4668 -7.31527,1.07813c-1.4263,-0.854 -1.96074,-1.75488 -2.71178,-3.13916z" fill="#fdfdfd"/><path d="M65.8965,151.08545c2.90565,0.9082 5.91916,1.36816 8.92006,1.83398c0.37427,0.05713 0.74239,0.12305 1.10698,0.22705c-1.92176,1.78564 -4.99696,2.4668 -7.31527,1.07813c-1.4263,-0.854 -1.96074,-1.75488 -2.71178,-3.13916z" fill="url(#color-1)"/><path d="M60.21987,131.13281c5.18542,-0.38569 6.51676,7.46191 1.50485,10.05044c-5.0292,0.97954 -6.56263,-8.0417 -1.50485,-10.05044z" fill="#171616"/><path d="M59.47162,132.704c0.10405,0.00103 0.20809,0.0041 0.31199,0.00923c2.24562,0.11631 1.82724,2.66865 0.31477,3.84302c-0.04909,-0.00117 -0.09818,-0.00264 -0.14728,-0.00439c-2.48551,-0.09375 -2.00602,-2.56948 -0.47949,-3.84785z" fill="#fdfdfd"/><path d="M83.21171,131.26348c5.43586,-0.50815 6.50592,6.8729 2.12209,9.45513c-5.24008,1.15723 -6.23085,-7.14155 -2.12209,-9.45513z" fill="url(#color-2)"/><path d="M82.81091,132.69243c2.51936,0.17051 2.28768,2.52026 0.62501,3.96387l-0.10463,0.00601c-2.25735,0.10752 -1.97349,-2.64185 -0.52037,-3.96987z" fill="#fdfdfd"/><path d="M85.52752,136.77773c0.41618,-0.05918 0.83075,0.11733 1.0765,0.45806c0.2459,0.34072 0.28239,0.78955 0.09481,1.16558c-0.18757,0.37588 -0.56815,0.61685 -0.98828,0.62578c-0.59804,0.01245 -1.10244,-0.44268 -1.15095,-1.03857c-0.04851,-0.59604 0.37574,-1.12661 0.96792,-1.21084z" fill="#b1a292"/><path d="M59.85732,122.05693c1.87414,-0.17534 5.36303,-0.28931 5.04137,2.92192c-0.03092,0.30762 -0.46,0.7188 -0.77814,0.71865c-2.4247,-0.00117 -3.19844,-0.48105 -5.4467,0.64395c-0.48623,0.28022 -1.74078,1.37856 -2.26379,1.80381c-0.59731,0.08423 -0.35756,0.11499 -0.91062,-0.10884c-1.35142,-1.39263 1.00089,-4.42236 2.34073,-5.09077c0.78415,-0.39126 1.17498,-0.59766 2.01716,-0.88872z" fill="#171616"/><path d="M84.26154,121.75283c2.86389,-0.33047 5.71195,0.59473 7.2886,3.12993c0.58104,0.93428 0.78532,2.21909 -0.35434,2.78555c-0.64831,-0.03574 -0.44432,-0.00938 -1.02448,-0.44634c-4.14233,-4.00444 -7.34253,-0.49629 -8.48776,-2.83154c-0.01128,-1.3021 1.5173,-2.22026 2.57798,-2.6376z" fill="#171616"/><path d="M55.92836,142.71797c0.48022,0.01846 1.17366,0.1626 1.66473,0.24844c2.8529,2.13354 1.65901,4.24746 -1.42806,4.97842c-3.6007,0.35156 -4.87856,-4.52373 -0.23667,-5.22686z" fill="#f3783c"/><path d="M74.90698,135.72876c1.94389,0.1292 3.98816,4.9043 3.29619,6.98306c-0.28444,0.87217 -0.91501,1.58921 -1.74401,1.98296c-1.80292,0.87773 -4.01161,0.46172 -5.81731,-0.15103c-0.60742,-0.37544 -1.32182,-1.01265 -0.99151,-1.79531c1.09306,-0.571 3.16064,1.16323 4.58635,0.78838c5.25122,-1.38047 0.82533,-5.78159 0.67029,-7.80806z" fill="#171616"/><path d="M88.66588,142.56357c3.44595,0.3624 4.46824,4.27383 0.48491,5.24648c-1.39831,-0.05273 -2.6344,-0.70898 -2.96822,-2.1627c-0.14654,-0.63486 -0.0337,-1.30195 0.31375,-1.85332c0.53005,-0.84082 1.26232,-1.03799 2.16957,-1.23047z" fill="#f3783c"/><path d="M36.17967,138.03735c0.36914,-0.06372 0.74356,-0.09243 1.11827,-0.08555c2.95269,0.07822 6.78361,5.3395 5.19597,6.76538c-0.82313,-0.04102 -1.32958,-0.97383 -1.78724,-1.59741c-0.3202,-0.53496 -0.69344,-0.93706 -1.09907,-1.40537c-0.76539,0.85532 -1.31581,2.48188 -1.99459,2.71523l-0.1357,-0.28535c0.05217,-1.73276 0.23608,-2.53535 1.24151,-3.90835c-0.72876,-0.71426 -1.6593,-1.17993 -2.49284,-1.81992z" fill="#171616"/><path d="M75.53535,84.26045c0.9408,-0.50303 3.14246,-0.76084 4.00487,-0.37661c2.40609,1.07227 5.49667,8.43223 6.64484,10.7644l2.94258,6.12598c-1.56185,2.60596 -3.47717,7.25815 -5.05895,10.24966c-0.13042,0.22749 -0.20868,0.31099 -0.19373,0.57319c-0.31375,0.86968 -1.55306,2.19331 -2.11329,3.16758l-3.05029,-0.40474l-0.41266,-0.0561c-1.40271,-0.11104 -2.806,-0.21416 -4.20988,-0.30923c-1.35347,-0.06006 -1.23755,0.21987 -1.88513,-0.97998l-0.4027,-0.29092c-0.10639,0.45293 -0.23315,1.07212 -0.36504,1.50264l-3.66973,0.18311l-3.00764,0.27466c-1.28489,0.14341 -3.50399,0.34058 -4.69391,0.67266c-2.38073,0.38906 -4.64555,0.75029 -7.00328,1.28203c-0.77712,0.16406 -2.56025,0.49189 -3.2405,0.71821l-1.59468,0.55693c-1.63644,0.53452 -3.22673,1.20117 -4.75502,1.99336c-1.42938,0.7979 -2.87077,1.57397 -4.32389,2.32793c0.23989,-2.20752 0.5532,-4.28716 0.89157,-6.4834c0.37324,-2.37656 0.7695,-4.74946 1.18846,-7.11855c0.78811,-3.01392 1.05379,-6.92183 1.96587,-9.97002c0.81478,-2.72329 2.54794,-3.55898 4.83562,-4.71636c5.7392,-2.73047 8.63665,-3.94351 14.64534,-6.01978c0.27491,-0.05742 2.03651,-0.74868 2.38542,-0.88682c1.38263,-0.54756 2.56318,-0.93794 3.98787,-1.34707c0.7056,-0.24741 6.13443,-1.59199 6.48789,-1.43276z" fill="#fcb166"/><path d="M48.02883,93.94688c0.25997,0.15088 0.67454,0.36899 0.88233,0.56411l0.27389,-0.20742c1.73668,0.77168 3.06099,6.98203 4.12049,8.42754c0.61753,0.53848 1.1231,1.28701 1.47363,2.02515l0.17058,-0.0561c0.63717,0.72891 1.00865,1.9415 1.50368,2.70557c1.27404,1.96655 2.36535,4.25742 3.66636,6.1771c-0.02286,0.57305 -0.06213,1.20571 -0.0551,1.77393c-2.38073,0.38906 -4.64555,0.75029 -7.00328,1.28203c-0.77712,0.16406 -2.56025,0.49189 -3.2405,0.71821l-1.59468,0.55693c-1.63644,0.53452 -3.22673,1.20117 -4.75502,1.99336c-1.42938,0.7979 -2.87077,1.57397 -4.32389,2.32793c0.23989,-2.20752 0.5532,-4.28716 0.89157,-6.4834c0.37324,-2.37656 0.7695,-4.74946 1.18846,-7.11855c0.78811,-3.01392 1.05379,-6.92183 1.96587,-9.97002c0.81478,-2.72329 2.54794,-3.55898 4.83562,-4.71636z" fill="#fcb166"/><path d="M48.91116,94.51099l0.27389,-0.20742c1.73668,0.77168 3.06099,6.98203 4.12049,8.42754c-1.44477,3.16567 -3.5563,6.01187 -4.93805,8.96777c-7.61275,-11.02939 -3.9335,-8.04448 0.54367,-17.18789z" fill="#516b71"/><path d="M48.86544,100.26416c1.3117,0.91597 1.4329,4.5832 -0.48652,4.98179c-0.08441,-0.0835 -0.16721,-0.16831 -0.24868,-0.25459c-1.67044,-1.76646 -0.93494,-3.27422 0.73521,-4.7272z" fill="#fcb166"/><path d="M54.77917,104.75625l0.17058,-0.0561c0.63717,0.72891 1.00865,1.9415 1.50368,2.70557c1.27404,1.96655 2.36535,4.25742 3.66636,6.1771c-0.02286,0.57305 -0.06213,1.20571 -0.0551,1.77393c-2.38073,0.38906 -4.64555,0.75029 -7.00328,1.28203c0.62266,-4.15078 1.16589,-5.83037 0.98609,-10.26108c0.26187,-0.50493 0.50264,-1.09512 0.73169,-1.62144z" fill="#516b71"/><path d="M54.04749,106.37769c0.17981,4.43071 -0.36343,6.1103 -0.98609,10.26108c-0.77712,0.16406 -2.56025,0.49189 -3.2405,0.71821c0.32796,-1.2498 -0.17981,-2.35474 -0.19695,-3.70825c0.28796,-0.15381 3.97351,-6.55591 4.42354,-7.27104z" fill="#b0422f"/><path d="M46.78248,114.38276c0.53869,-0.78574 1.1467,-1.98677 2.1873,-1.88569c0.43523,0.28037 0.49282,0.65259 0.65417,1.15166c0.01715,1.35352 0.52492,2.45845 0.19695,3.70825l-1.59468,0.55693c-1.63644,0.53452 -3.22673,1.20117 -4.75502,1.99336c0.25689,-2.07319 1.99782,-3.93076 3.31128,-5.52451z" fill="#f3783c"/><path d="M46.78248,114.38276c0.53869,-0.78574 1.1467,-1.98677 2.1873,-1.88569c0.43523,0.28037 0.49282,0.65259 0.65417,1.15166c0.01715,1.35352 0.52492,2.45845 0.19695,3.70825l-1.59468,0.55693c-0.30334,-1.02158 0.15534,-2.273 -0.57034,-4.12017c-0.27843,0.32241 -0.49986,0.40283 -0.8734,0.58901z" fill="url(#color-3)"/><path d="M41.22733,108.63325c3.5138,-0.10723 2.59982,3.45557 2.10875,5.7019c-0.59115,2.70498 -1.48008,2.01035 -3.29721,1.41665c0.37324,-2.37656 0.7695,-4.74946 1.18846,-7.11855z" fill="#ca4b2b"/><path d="M75.53535,84.26045c0.9408,-0.50303 3.14246,-0.76084 4.00487,-0.37661c2.40609,1.07227 5.49667,8.43223 6.64484,10.7644l2.94258,6.12598c-1.56185,2.60596 -3.47717,7.25815 -5.05895,10.24966c-1.1656,-0.36211 -5.91652,-9.12847 -6.84795,-9.99141c-1.01085,-1.03682 -3.04765,-6.03867 -4.29898,-7.42778l-0.30012,-0.31406c-0.1782,-1.24629 -2.79267,-6.42817 -3.57418,-7.59741c0.7056,-0.24741 6.13443,-1.59199 6.48789,-1.43276z" fill="#ca4b2b"/><path d="M69.04746,85.69321c0.7056,-0.24741 6.13443,-1.59199 6.48789,-1.43276c-1.64275,3.46187 -2.55527,5.53799 -2.61359,9.34424l-0.30012,-0.31406c-0.1782,-1.24629 -2.79267,-6.42817 -3.57418,-7.59741z" fill="#516b71"/><path d="M78.27512,88.40068c0.8986,0.47461 2.28592,2.42725 2.19184,3.54697c-0.10654,1.26826 -0.81712,1.94136 -1.67381,2.75684c-1.25294,-0.45161 -2.32563,-1.6166 -2.32563,-2.9896c0.00015,-1.35762 0.90534,-2.41157 1.80761,-3.31421z" fill="#e3983e"/><path d="M83.36792,100.47495c1.72627,0.46011 1.61813,2.07949 0.45106,3.15718c-1.75353,-0.08569 -1.60113,-2.07979 -0.45106,-3.15718z" fill="#73785a"/><path d="M48.02883,93.94688c5.7392,-2.73047 8.63665,-3.94351 14.64534,-6.01978c-1.01701,1.62012 -2.21309,3.61069 -3.04296,5.32603c1.27595,2.95957 4.40449,6.92695 5.71649,9.94336c0.20941,0.48164 -1.87619,3.63428 -2.1788,4.25127c-1.10449,2.06733 -2.03094,4.08618 -3.04912,6.13506c-1.30101,-1.91968 -2.39231,-4.21055 -3.66636,-6.1771c-0.49502,-0.76406 -0.86651,-1.97666 -1.50368,-2.70557l-0.17058,0.0561c-0.35053,-0.73813 -0.8561,-1.48667 -1.47363,-2.02515c-1.0595,-1.44551 -2.38381,-7.65586 -4.12049,-8.42754l-0.27389,0.20742c-0.2078,-0.19512 -0.62237,-0.41323 -0.88233,-0.56411z" fill="#ca4b2b"/><path d="M60.00123,101.46768c2.52596,0.25181 1.99108,2.30054 0.30364,3.50669l-0.36445,0.08394c-1.58413,-0.67383 -1.37985,-2.68213 0.06082,-3.59062z" fill="#73785a"/><path d="M54.38322,93.46011c0.84672,-0.08657 1.46938,-0.13535 1.74489,0.79761c-0.14405,1.00928 -0.58778,1.34561 -1.30115,2.03716l-0.39449,0.25415l-0.2777,-0.06255c-0.81082,-0.92637 -0.68172,-2.20752 0.22846,-3.02637z" fill="#73785a"/><path d="M66.83027,102.3252c0.98462,-1.57808 4.80631,-8.17456 5.79137,-9.03457l0.30012,0.31406c1.25133,1.38911 3.28813,6.39097 4.29898,7.42778c0.93143,0.86294 5.68234,9.6293 6.84795,9.99141c-0.13042,0.22749 -0.20868,0.31099 -0.19373,0.57319c-0.31375,0.86968 -1.55306,2.19331 -2.11329,3.16758l-3.05029,-0.40474l-0.41266,-0.0561c-1.40271,-0.11104 -2.806,-0.21416 -4.20988,-0.30923c-1.35347,-0.06006 -1.23755,0.21987 -1.88513,-0.97998l-0.4027,-0.29092c0.17058,-1.56621 -4.10847,-8.18247 -4.97073,-10.39849z" fill="#516b71"/><path d="M77.22074,101.03247c0.93143,0.86294 5.68234,9.6293 6.84795,9.99141c-0.13042,0.22749 -0.20868,0.31099 -0.19373,0.57319c-0.31375,0.86968 -1.55306,2.19331 -2.11329,3.16758l-3.05029,-0.40474l-0.41266,-0.0561c-1.40271,-0.11104 -2.806,-0.21416 -4.20988,-0.30923c-1.35347,-0.06006 -1.23755,0.21987 -1.88513,-0.97998c-0.34863,-2.31416 4.27246,-9.51943 5.01704,-11.98213z" fill="#fcb166"/><path d="M75.83533,113.0165c-0.91736,-1.48623 0.47143,-5.48071 2.20063,-5.51836c1.25455,0.32681 2.16693,1.99307 1.80409,3.24038c-0.30188,1.03784 -1.62311,2.6603 -1.12867,3.62139l-0.41266,-0.0561c-1.40271,-0.11104 -2.806,-0.21416 -4.20988,-0.30923c0.67058,-0.9208 0.8416,-0.21372 1.7465,-0.97808z" fill="#f3783c"/><path d="M75.83533,113.0165c0.58031,-0.2124 2.09586,0.1979 2.39378,0.79629l0.06961,0.49102c-1.40271,-0.11104 -2.806,-0.21416 -4.20988,-0.30923c0.67058,-0.9208 0.8416,-0.21372 1.7465,-0.97808z" fill="#ca4b2b"/><path d="M71.38936,99.70093c0.80643,0.66475 3.74901,5.54736 2.60876,6.54609c-1.4855,-1.16763 -2.73947,-2.98345 -3.31319,-4.78623c0.22509,-0.80317 0.2966,-1.02554 0.70443,-1.75986z" fill="#e3983e"/><path d="M64.75859,114.68408c-0.00073,-1.31689 0.56478,-5.65605 1.8967,-6.14751c0.53591,0.04775 0.32796,-0.02651 0.78371,0.32168c0.52008,1.3043 0.18171,3.87876 0.32723,5.55117z" fill="#f3783c"/><path d="M67.05331,88.72236l0.25953,0.08511c0.71322,0.79028 1.45927,3.28315 1.82959,4.38457c-0.50293,0.87642 -2.33355,3.7103 -3.22218,4.01807c-3.64467,-4.09673 -2.54076,-5.38301 1.13307,-8.48774z" fill="#f3783c"/><path d="M41.04533,219.61963c-1.77185,-1.8501 -3.21735,-4.23047 -3.06553,-6.854c0.27828,-4.80322 3.23068,-9.1626 8.00886,-10.19824c0.51993,2.44629 -0.42629,7.79443 3.20709,7.74463c4.25722,-0.05859 9.16347,0.27539 13.37716,-0.10986c2.79443,2.28223 7.64558,3.76904 10.84314,5.47998c-0.8139,2.94727 -1.75426,5.82129 -2.63689,8.74365c-0.36929,1.40918 -0.7056,2.82568 -1.00836,4.25098c-7.55663,-0.63574 -15.04878,-1.32275 -22.18409,-4.21729c-2.17499,-0.88184 -5.5909,-2.52246 -6.54138,-4.83984z" fill="#c4b399"/><path d="M41.04533,219.61963c4.32536,3.12891 12.6742,6.02344 18.12881,5.74805c3.82272,-0.19336 7.67577,-1.05469 11.60502,-0.94189c-0.36929,1.40918 -0.7056,2.82568 -1.00836,4.25098c-7.55663,-0.63574 -15.04878,-1.32275 -22.18409,-4.21729c-2.17499,-0.88184 -5.5909,-2.52246 -6.54138,-4.83984z" fill="url(#color-4)"/><path d="M100.99981,204.75439c2.06347,0.57861 3.85583,1.25244 6.03038,1.78711c6.56702,1.61572 12.90998,1.72998 19.6171,1.43262c-4.35921,3.43359 -6.44715,8.1709 -7.46445,13.51318c-0.96792,-0.17285 -1.3394,-0.32812 -2.28695,-0.0293l-0.07679,0.21826c0.38907,0.35596 0.66369,0.37646 1.17864,0.49072c0.16281,0.01172 1.09204,0.09375 1.12091,0.29004c0.23886,1.62598 0.51686,3.07617 0.99854,4.65527c-1.39582,-0.38086 -3.0264,-1.05469 -4.40596,-1.58643c-5.01382,-1.92773 -9.89208,-3.50244 -15.0709,-4.89111c1.63044,-2.27344 2.76922,-4.00635 3.29135,-6.8584c0.70018,-3.82471 -0.86534,-6.06006 -2.93188,-9.02197z" fill="#d8d8d9"/><path d="M97.16845,204.28711c2.90272,1.02979 4.80426,3.54346 5.14717,6.59473c0.35727,3.1626 -0.50587,4.59375 -2.18891,7.18359c-1.24063,1.70947 -2.58194,3.43652 -4.20021,4.80762c-0.23051,-0.73096 -0.45809,-1.48242 -0.69798,-2.20898c-2.13073,-4.22168 -5.64292,-6.03955 -10.34006,-5.27637c-1.35581,0.21973 -3.63382,1.05469 -4.94802,0.64453c-1.10098,-0.34424 -4.68747,-1.26855 -5.19582,-2.08594c0.36299,-0.55811 1.64436,-1.12207 2.23859,-1.48242c1.18788,-0.7207 2.50823,-1.64648 3.85745,-2.0083c3.24548,-0.86865 12.39283,0.6665 14.52591,-0.72363c1.38117,-0.89941 1.49884,-3.95508 1.80189,-5.44482z" fill="#c4b399"/><path d="M99.79845,217.37109l0.32826,0.69434c-1.24063,1.70947 -2.58194,3.43652 -4.20021,4.80762c-0.23051,-0.73096 -0.45809,-1.48242 -0.69798,-2.20898l0.58705,-0.42187l2.72921,-2.53418l0.46,0.72363z" fill="#8b7f70"/><path d="M95.81556,220.24219l2.72921,-2.53418l0.46,0.72363c-0.50103,0.64746 -2.44067,3.30615 -3.31216,2.73779c-0.0806,-0.41602 -0.0126,-0.53906 0.12295,-0.92725z" fill="#776d61"/><path d="M102.31562,210.88184c0.35727,3.1626 -0.50587,4.59375 -2.18891,7.18359l-0.32826,-0.69434c0.5891,-1.15723 1.71235,-3.03662 1.95517,-4.25537c0.08924,-0.74854 0.53649,-0.66797 0.56199,-2.23389z" fill="#b1a292"/><path d="M98.54478,217.70801c1.14157,-1.13232 2.24254,-3.18896 3.20885,-4.59229c-0.24282,1.21875 -1.36607,3.09814 -1.95517,4.25537l-0.79368,1.06055z" fill="#2d2f37"/><path d="M45.74964,199.47217c-5.16212,-2.47412 -10.54683,-8.27637 -8.63914,-14.35986c2.29164,-7.30957 8.15203,-16.81494 14.72316,-20.67627c0.20882,2.44189 0.1442,5.24414 0.06858,7.70361c-1.31141,0.01904 -3.37166,0.15674 -4.61844,0.00732c-5.87915,-0.70312 -4.14189,6.375 -3.54502,10.74902c0.40607,0.19482 0.29616,0.07471 0.46161,0.43066c-0.07181,0.18164 -0.12456,0.36475 -0.25352,0.5083c-0.03136,1.45605 0.46615,4.98926 0.66545,6.58008c0.35771,2.85938 0.63072,6.25928 1.13732,9.05713z" fill="#c4b399"/><path d="M43.73878,182.896c0.40607,0.19482 0.29616,0.07471 0.46161,0.43066c-0.07181,0.18164 -0.12456,0.36475 -0.25352,0.5083c-0.72583,-0.28711 -2.05526,0.09229 -2.64158,-0.54785l0.22641,-0.25195c0.76246,-0.08789 1.44286,-0.10986 2.20708,-0.13916z" fill="#2d2f37"/><path d="M84.06869,111.02388c1.58178,-2.9915 3.4971,-7.6437 5.05895,-10.24966c1.81142,3.93457 2.80102,6.65845 4.33987,10.58643c0.97671,2.44102 1.68202,4.32305 2.18217,6.93647c-1.62604,-0.60337 -3.24431,-1.22725 -4.85452,-1.87148c-1.64509,-0.63984 -2.7024,-0.83774 -4.44757,-1.10347c-1.52756,-0.1938 -3.0563,-0.37969 -4.58591,-0.55752c0.56023,-0.97427 1.79955,-2.2979 2.11329,-3.16758c-0.01495,-0.26221 0.06331,-0.3457 0.19373,-0.57319z" fill="#fcb166"/><path d="M93.46751,111.36064c0.97671,2.44102 1.68202,4.32305 2.18217,6.93647c-1.62604,-0.60337 -3.24431,-1.22725 -4.85452,-1.87148c0.87164,-2.16401 1.26613,-3.23921 2.67236,-5.06499z" fill="#ca4b2b"/><path d="M83.87496,111.59707c0.88995,1.02363 1.9688,2.45845 2.47262,3.7251c-1.52756,-0.1938 -3.0563,-0.37969 -4.58591,-0.55752c0.56023,-0.97427 1.79955,-2.2979 2.11329,-3.16758z" fill="#f3783c"/><path d="M88.26436,107.92969c2.57593,-0.11514 2.30849,3.54976 0.62559,5.06367c-2.46998,-1.54614 -2.37795,-2.89746 -0.62559,-5.06367z" fill="#73785a"/><path d="M47.90734,120.57422l0.54206,-0.02915l0.14581,0.14487c-1.20473,3.28052 -2.35905,6.13433 -2.97042,9.61421c-0.36181,2.05928 -0.59907,3.90513 -0.99942,5.97729c-0.69593,-0.69404 -1.29324,-1.42397 -1.92572,-2.175c-0.82152,-1.16807 -2.29501,-2.38184 -2.79662,-3.73271c-2.06215,-5.55293 4.14921,-8.21309 8.00432,-9.79951z" fill="#2d2f37"/><path d="M82.4047,164.71289c2.18935,0.16992 6.59135,1.875 8.57188,2.73047c1.36036,0.5874 6.26837,3.63428 6.8585,4.81934c-3.63675,-0.28857 -8.59767,-0.11279 -12.35591,-0.06006c-0.96352,-3.17285 -1.55438,-4.59814 -3.07447,-7.48975z" fill="#c4b399"/><path d="M48.56591,207.19336l30.14313,-0.05127c5.09148,-0.01465 10.22224,-0.03809 15.31651,-0.0293c0.49766,0.00146 0.58925,0.02637 0.93641,0.28418c0.00264,0.9873 -0.81405,1.10889 -1.57753,1.15576l-20.92895,-0.12891c-1.42513,-0.02197 -2.83634,-0.31348 -4.26615,-0.31494c-2.72174,-0.00146 -18.30525,0.55371 -19.62252,0.06152c-0.32738,-0.12305 -0.31551,-0.19482 -0.4534,-0.49951c0.09818,-0.27393 0.19813,-0.30322 0.45252,-0.47754z" fill="#2d2f37"/><path d="M64.76314,166.40039c3.21793,0.47754 7.49347,0.42188 10.718,0.104c-0.84204,1.18213 -1.63263,2.18701 -2.53666,3.31494c-0.76012,0.95215 -1.61358,1.82666 -2.54765,2.60889c-1.59424,-1.06055 -4.35232,-4.49561 -5.63369,-6.02783z" fill="#fcb166"/><path d="M128.72776,208.1543c4.52158,0.06738 2.10201,7.41943 -0.06067,8.77295c-0.5088,0.06152 -0.36225,0.04102 -0.88658,-0.25928c0.7141,-3.66943 1.4984,-5.31592 -2.89554,-5.68799c1.24869,-1.40039 2.12575,-2.1167 3.84279,-2.82568z" fill="#d8d8d9"/><path d="M10.72909,207.854c1.38917,-0.03516 3.36124,1.75049 4.31089,2.6792c-3.7657,1.08691 -3.20322,1.86182 -2.61671,5.35254l-0.00158,0.54199c-0.25541,0.36475 -0.11405,0.26514 -0.52448,0.38818c-1.76194,-0.47314 -3.37342,-5.12695 -2.84144,-6.81738c0.36847,-1.17187 0.6661,-1.51611 1.67331,-2.14453z" fill="#d8d8d9"/><path d="M97.57393,134.67231c2.19756,0.44561 2.61887,3.75498 2.52405,5.60698c-0.1291,2.53477 -1.25675,4.91543 -3.1366,6.62109c-0.32591,-0.72026 0.2396,-6.82383 0.57269,-7.73716c0.62486,0.18691 0.94711,0.24492 1.50045,-0.04043c0.16354,-0.47607 0.17541,-0.3022 0.03678,-0.69976c-0.56448,-0.23672 -0.83632,0.16611 -1.50118,0.00601c-0.1634,-0.70195 -0.02521,-2.92236 0.00381,-3.75674z" fill="url(#color-5)"/><path d="M60.56879,164.94727c2.32344,0.5332 6.54431,5.37012 7.67709,7.32715l-4.63002,-0.06592c-0.72465,-1.73145 -2.76951,-5.71436 -3.04707,-7.26123z" fill="#c4b399"/><path d="M19.26481,221.98682l0.48227,-0.00146c0.51862,0.56982 0.25337,7.2334 -3.31993,4.15137c-1.1231,-1.14258 -1.528,-2.12109 -2.12307,-3.58447c1.65164,-0.20508 3.30523,-0.39404 4.96072,-0.56543z" fill="#d8d8d9"/><path d="M120.23678,222.25488c1.61666,0.18604 4.05147,0.19775 5.75459,0.27686c-0.44652,1.25244 -0.96923,2.06396 -1.74108,3.12158c-0.77521,0.854 -2.03914,2.28662 -3.19566,0.83057c-0.77873,-0.97852 -0.97422,-2.97949 -0.81786,-4.229z" fill="#d8d8d9"/><path d="M15.55098,211.08398c0.75162,0.35596 2.10186,2.80225 2.48097,3.60498c-1.00616,0.26221 -2.01379,0.51855 -3.02274,0.77051l-1.62507,0.44824c-0.68183,-3.27539 -1.09053,-3.60059 2.16684,-4.82373z" fill="#d8d8d9"/><path d="M124.45325,211.40771c1.52126,0.91553 3.19068,0.1084 2.85773,2.77441c-0.08983,0.71924 -0.14669,1.01807 -0.55408,1.62598c-0.49253,0.20654 -0.39816,0.11865 -1.04207,-0.08496c-1.02258,-0.22998 -3.03344,-0.20215 -3.2723,-1.33447c0.19095,-0.7251 1.5088,-2.31885 2.01071,-2.98096z" fill="#d8d8d9"/><path d="M76.70989,166.33887c0.81097,0.84375 0.82533,4.47803 0.88424,5.76123c-1.40432,-0.00439 -2.80864,0.00439 -4.21281,0.0249c-0.21923,0.01611 -0.47187,-0.02197 -0.69315,-0.04687c0.02418,-0.30908 3.54238,-5.03174 4.02172,-5.73926z" fill="#c4b399"/></g></svg></svg>