<svg id="svg" version="1.1" viewBox="0 0 300 162.33333333333326" width="300" height="162.33333333333326" xmlns="http://www.w3.org/2000/svg"><svg xmlns="http://www.w3.org/2000/svg"><defs><clipPath id="clip-1"><rect x="0" y="0" transform="scale(0.14648,0.14651)" width="2048" height="1108" fill="none"/></clipPath><linearGradient x1="227.81689" y1="59.1598" x2="219.91406" y2="51.52355" gradientUnits="userSpaceOnUse" id="color-1"><stop offset="0" stop-color="#0095bf"/><stop offset="1" stop-color="#00a4ee"/></linearGradient><linearGradient x1="113.5021" y1="59.21445" x2="105.71221" y2="51.473" gradientUnits="userSpaceOnUse" id="color-2"><stop offset="0" stop-color="#4e45fc"/><stop offset="1" stop-color="#357aff"/></linearGradient><linearGradient x1="277.06348" y1="51.5086" x2="284.77881" y2="59.17944" gradientUnits="userSpaceOnUse" id="color-3"><stop offset="0" stop-color="#00b97f"/><stop offset="1" stop-color="#009c89"/></linearGradient></defs><g clip-path="url(#clip-1)" fill="none" fill-rule="nonzero" stroke="none" stroke-width="1" stroke-linecap="butt" stroke-linejoin="miter" stroke-miterlimit="10" stroke-dasharray="" stroke-dashoffset="0" font-family="none" font-weight="none" font-size="none" text-anchor="none" style="mix-blend-mode: normal"><path d="M0,0h55.35029h0.9687h243.68101v162.33333h-224.68037h-5.79697h-13.10713h-0.23804h-56.17749z" fill="#ffffff"/><path d="M55.27441,10.79779c1.36421,0.05022 1.40815,-0.09218 2.69604,-0.29129l0.046,0.23319c-0.43784,0.32078 -1.06641,0.37359 -1.61484,0.46751l-0.02241,64.32117c-0.15337,1.47375 -0.08276,3.75755 -0.08467,5.32037l-0.00879,9.29432l-0.02783,50.06181l0.01069,12.8866c0.00146,1.44752 0.00352,3.14557 -0.01113,4.61507c-0.00015,0.01465 -0.22354,0.378 -0.26484,0.43074l-0.46113,-0.24321c-0.33765,-0.69592 -0.1793,-11.40963 -0.17944,-13.2435l-0.00059,-26.92287l-0.00029,-81.2052l0.00527,-16.92984c0.00117,-2.20337 0.12231,-6.75513 -0.08203,-8.79488z" fill="#e0e9f1"/><path d="M55.99263,158.13728c0.04131,-0.05274 0.2647,-0.41609 0.26484,-0.43074c0.01465,-1.4695 0.0126,-3.16755 0.01113,-4.61507l-0.01069,-12.8866l0.02783,-50.06181l0.00879,-9.29432c0.0019,-1.56282 -0.0687,-3.84663 0.08467,-5.32037c0.15176,3.24901 0.04995,7.21299 0.04746,10.53218l-0.00645,18.60944l-0.00469,57.66335h-0.23804c0.00264,-0.69153 0.06445,-3.80634 -0.18486,-4.19605z" fill="#f2f6f7"/><path d="M69.52266,162.33333c0.53364,-0.9948 0.77813,-1.39331 1.91089,-1.73908c0.88682,-0.26665 1.84351,-0.16995 2.65928,0.26811c0.67808,0.36774 0.90205,0.79995 1.22681,1.47096z" fill="#f2f6f7"/><path d="M55.35029,0h0.9687c0.00732,2.34311 0.06387,4.36817 0.13989,6.69168c-0.48311,0.07145 -0.60176,0.10514 -1.08354,-0.02812c-0.11851,-0.75147 -0.0293,-5.61328 -0.02505,-6.66356z" fill="#e0e9f1"/><path d="M3.62487,132.74281c3.27255,-0.13596 7.33913,-0.03165 10.66799,-0.03135l20.11485,-0.00117l11.33394,-0.00923c1.90854,-0.00059 3.89004,-0.05919 5.7873,0.07824c1.30591,0.2287 1.63403,1.45573 1.63521,2.54298c0.00527,4.71778 0.11221,9.44757 -0.05933,14.15186c-0.02563,0.69885 -0.83921,1.24973 -1.36831,1.58524c-3.38364,0.11867 -7.23325,0.03663 -10.64854,0.03516l-19.55303,-0.00147l-11.51309,0.01319c-2.05811,0.00147 -4.16511,0.05714 -6.21397,-0.08058c-1.25635,-0.08498 -1.6721,-1.51052 -1.66677,-2.55807c0.02423,-4.74781 -0.179,-9.5784 0.11076,-14.30438c0.03809,-0.62135 0.90286,-1.14937 1.37298,-1.42042z" fill="#1a5efa"/><path d="M6.06365,143.27851c3.09371,-0.10754 6.74662,-0.01817 9.87532,-0.01875l19.19912,-0.00205l9.19644,-0.00659c1.3916,0.00015 3.51152,-0.08879 4.85171,0.12541c1.66641,0.26636 1.72412,3.82963 0.21504,4.75997c-2.93877,0.1553 -7.00869,0.04542 -10.0251,0.04688l-18.93281,0.00733l-9.64293,-0.00147c-1.52019,-0.00147 -3.23146,0.06007 -4.70237,-0.07765c-1.3138,-0.12307 -1.37272,-2.40042 -1.10933,-3.31904c0.26892,-0.93781 0.27687,-0.99363 1.07492,-1.51404z" fill="#306ffd"/><path d="M26.80488,145.31573c0.26235,-0.21112 0.64512,-0.17567 0.8644,0.08014c0.21914,0.25566 0.19585,0.63937 -0.05288,0.86661c-0.16802,0.1534 -0.4062,0.20321 -0.62153,0.12995c-0.21548,-0.07326 -0.37383,-0.258 -0.41338,-0.48217c-0.03955,-0.22401 0.046,-0.45198 0.22339,-0.59454z" fill="#f2f6f7"/><path d="M5.90802,135.68664c1.74006,-0.0523 4.93679,-0.64889 4.82728,1.80794c-0.06341,1.42247 0.29265,2.84391 -1.0132,3.73499c-3.39858,0.07824 -5.27861,0.71951 -4.70528,-3.88003c0.11005,-0.88272 0.17294,-1.11802 0.89121,-1.66289z" fill="#306ffd"/><path d="M7.26353,137.09475c0.59537,-0.01055 0.95544,-0.02564 1.39544,0.32804c0.00845,0.38137 0.00608,0.41301 0.12445,0.77138c0.24769,0.06505 0.28677,0.07428 0.52983,0.18856l-0.06653,0.40657l-0.21539,0.14724l-0.74231,-0.2227l-0.0526,0.2813l0.37648,0.13113l-0.01726,0.29888c-0.18801,0.02872 -0.34131,0.11252 -0.52043,0.189c-0.55928,-0.27485 -0.06656,-0.30269 -0.20771,-0.62179c-0.43247,0.01685 -0.35161,0.06754 -0.72649,0.44012l-0.31481,-0.06696c-0.57297,-0.67834 -0.07778,-1.69996 0.43733,-2.27076z" fill="#bbcffc"/><path d="M12.4894,138.9484c0.77739,0.0567 1.07027,0.06183 1.77951,0.38327l0.14383,0.06652c0.36196,-0.55366 0.6123,-0.41169 1.28408,-0.38474c2.05005,0.08219 4.11606,0.00967 6.16099,0.14724c0.71631,0.0482 1.38794,-0.3213 2.11992,-0.04996c-0.17065,1.27728 0.13271,1.38892 -1.68926,1.32255c-0.60835,-0.02212 -0.65347,0.06359 -1.10449,-0.36129l0.04585,-0.32774l-0.06855,-0.01011l0.03779,0.61227l-0.18735,0.12849l-0.34321,-0.18475l-0.38555,0.17523c-0.13521,-0.21127 -0.20229,-0.28291 -0.36357,-0.46883c-0.96519,0.20013 -2.58149,0.86661 -3.48545,0.24936l-0.06694,-0.7957l-0.1812,-0.10226c-0.46392,0.32833 0.00117,0.66369 -0.42935,1.09062c-0.56133,-0.59249 -0.00234,-0.53637 -0.59824,-1.11758l-0.17285,0.10475c-0.0063,0.39148 -0.01758,0.58487 -0.07837,0.97107l-0.25239,0.08981l-0.48283,-0.44788c-0.63296,0.33624 -0.87101,0.48978 -1.53379,0.41741c-0.23181,-0.45565 -0.15844,-0.97547 -0.14856,-1.50774z" fill="#f2f6f7"/><path d="M24.74253,138.98649c1.42485,0.06359 6.66343,0.38855 7.75181,0.04996l0.21812,0.18167c0.09229,0.41609 0.21313,0.97722 -0.19263,1.23757l-0.63545,-0.46649c-0.08613,0.14182 -0.17329,0.28306 -0.26133,0.42371l-0.16201,-0.22314l-0.19028,-0.03238c-0.29121,0.14651 -0.31641,0.166 -0.65112,0.18123c-1.88965,0.08615 -0.99888,0.33683 -1.60459,-1.01722l-0.18223,0.12468c-0.06035,0.32159 -0.09375,0.59014 -0.12993,0.91525l-0.19717,0.08747l-0.21064,-0.17142l-0.06182,-0.78075l-0.18384,-0.13259l-0.18018,0.09611c-0.02505,0.43572 -0.02446,0.56348 -0.1604,0.97517c-0.60879,0.14973 -0.17695,-0.38239 -0.69463,-0.31368c-0.88081,0.11706 -1.24102,0.62736 -2.06147,0.23852c-0.31743,-0.39426 -0.23188,-0.86309 -0.21021,-1.37368z" fill="#f2f6f7"/><path d="M69.65991,100.93324c4.20425,-0.18226 9.65171,-0.03047 13.95249,-0.02857l26.67246,-0.00542l15.00718,-0.01289c2.35459,-0.00044 5.43267,-0.08805 7.87969,0.18153c2.35811,0.25962 1.12441,7.46689 1.30269,9.21447c0.0583,0.57168 -0.88755,1.18673 -1.34297,1.4758c-1.89214,0.20497 -5.85469,0.08673 -7.95615,0.08542l-15.02432,-0.00498l-25.7981,-0.01201c-4.7644,0.00015 -10.0207,0.1093 -14.75215,-0.04659c-0.27275,-0.19061 -0.89062,-0.60304 -1.01265,-0.88185c-0.9167,-2.09436 -0.49072,-5.02677 -0.5105,-7.28464c-0.01172,-1.32958 0.56104,-2.13158 1.58232,-2.68026z" fill="#f2f6f7"/><path d="M71.5752,103.5946c3.82046,-0.30635 5.45713,-0.54883 4.80396,4.06727c-0.11572,0.81826 -0.17329,0.90045 -0.78794,1.45148c-0.93384,0.04219 -3.90029,0.35148 -4.39907,-0.43147c-0.76157,-1.19552 -0.76421,-4.08925 0.38306,-5.08727z" fill="#e0e9f1"/><path d="M91.03315,105.70669c0.38291,-0.15559 0.81987,0.02505 0.98101,0.40583c0.16113,0.38063 -0.01318,0.82031 -0.39141,0.98704c-0.24961,0.11003 -0.53906,0.07706 -0.75762,-0.08629c-0.21855,-0.16336 -0.33208,-0.43177 -0.29736,-0.70237c0.03486,-0.2706 0.2127,-0.5015 0.46538,-0.60421z" fill="#394456"/><path d="M97.37153,105.54758c0.22251,0.07926 0.59648,0.36012 0.80684,0.50517c0.20684,-0.08512 0.28447,-0.12322 0.50596,-0.17376c0.16553,0.48231 0.06445,0.92052 0.0085,1.43888c-0.32695,-0.20658 -0.49512,-0.50561 -0.89443,-0.78017c-0.07529,0.40818 -0.00264,0.3273 -0.23906,0.60846l-0.18911,-0.10417c-0.13125,-0.48392 -0.04453,-0.98982 0.00132,-1.4944z" fill="#394456"/><path d="M89.44775,105.52707c0.30776,0.05948 0.44326,0.05011 0.64951,0.28306c-0.19541,0.18783 -0.39214,0.37419 -0.59033,0.55894c0.14341,0.43352 0.13828,0.32408 0.60586,0.5982l-0.10181,0.15574l-0.37412,0.02666c-0.47124,-0.23105 -0.30879,-0.08732 -0.5877,-0.60494c-0.01978,-0.4914 0.12144,-0.6256 0.39858,-1.01766z" fill="#394456"/><path d="M79.38486,105.53278c0.29839,0.05875 0.39961,0.04967 0.6104,0.27016c-0.18896,0.18929 -0.37881,0.37756 -0.56968,0.56494c0.11807,0.40935 0.14341,0.31969 0.57847,0.59366l-0.09961,0.16497l-0.37119,0.01597c-0.46274,-0.25727 -0.31143,-0.10373 -0.55752,-0.59791c-0.02754,-0.46034 0.15044,-0.63835 0.40913,-1.0118z" fill="#394456"/><path d="M3.61459,15.38782c3.15636,-0.1723 7.30876,-0.04293 10.57025,-0.04322l19.56633,-0.00527h11.47002c2.05342,0.00029 4.88965,-0.10812 6.84434,0.22255c1.65,0.2791 1.09146,5.46893 1.03887,6.69654c-0.02534,0.58912 -0.94468,1.20724 -1.36934,1.4651c-3.1043,0.1909 -7.17012,0.06857 -10.36948,0.06989l-18.90381,0.00293l-12.00933,-0.00381c-1.21592,-0.00088 -7.14335,0.34064 -7.83287,-0.75101c-0.82667,-1.30878 -0.50373,-4.84407 -0.35928,-6.40968c0.04608,-0.49945 0.94374,-1.02982 1.35431,-1.24402z" fill="#f2f6f7"/><path d="M4.65842,17.14536c2.15748,-0.07838 4.38231,-0.62706 4.18355,2.43734c-0.08452,1.30277 0.12998,1.44034 -0.84902,2.3824c-2.50825,0.0775 -4.43205,0.65138 -4.19855,-2.78706c0.07258,-1.06879 0.04409,-1.27024 0.86402,-2.03268z" fill="#e0e9f1"/><path d="M6.16689,19.69376c-0.23826,-0.02256 -0.50379,-0.06315 -0.74375,-0.09479c-0.43686,-0.39294 -0.41336,-0.58311 -0.20259,-1.05912c0.47224,-0.27002 0.33379,-0.1912 0.9485,-0.15032c0.67449,0.00659 0.89454,-0.1197 1.30689,0.21581c0.03942,0.39836 -0.0018,0.45477 -0.12826,0.84683c0.12848,0.43323 0.21754,0.6108 0.0807,1.05282c-0.33667,0.32408 -0.17221,0.25185 -0.61251,0.29214c-0.47651,-0.36759 -0.43648,-0.43338 -0.34078,-1.05605z" fill="#b1bcce"/><path d="M6.16689,19.69376c-0.23826,-0.02256 -0.50379,-0.06315 -0.74375,-0.09479c-0.43686,-0.39294 -0.41336,-0.58311 -0.20259,-1.05912c0.47224,-0.27002 0.33379,-0.1912 0.9485,-0.15032z" fill="#4b596c"/><path d="M7.34769,19.45216c0.12848,0.43323 0.21754,0.6108 0.0807,1.05282c-0.33667,0.32408 -0.17221,0.25185 -0.61251,0.29214c-0.47651,-0.36759 -0.43648,-0.43338 -0.34078,-1.05605l0.19931,-0.15208c-0.0705,0.65637 -0.11603,0.69607 0.41376,1.03363c0.11543,-0.3024 0.10655,-0.80229 -0.11082,-1.05033z" fill="#4b596c"/><path d="M5.86503,19.83719c0.24611,0.09318 0.38571,0.35382 0.32697,0.61036c-0.05874,0.25654 -0.29779,0.43045 -0.55994,0.4073c-0.2047,-0.01817 -0.38017,-0.15369 -0.4495,-0.34708c-0.06933,-0.19354 -0.01985,-0.40964 0.12675,-0.55366c0.14659,-0.14402 0.36354,-0.18973 0.55572,-0.11692z" fill="#4b596c"/><path d="M17.33159,19.26111c0.89678,0.1301 0.44634,-0.00645 1.16616,0.6256c0.56426,-0.05934 0.02534,-0.24951 0.6249,-0.59893c0.34731,0.18475 0.41792,0.42488 0.60264,0.78178c-0.49263,0.62179 -1.81348,0.50986 -2.42827,0.15061c-0.1894,-0.48861 -0.12598,-0.36188 0.03457,-0.95906z" fill="#4b596c"/><path d="M10.72711,18.83726c0.49884,0.02256 0.87015,-0.01406 1.2462,0.31866c0.23568,0.39763 0.14708,0.6527 0.07683,1.10381c-0.56877,0.19867 -0.65361,0.28218 -1.16101,0.15794c-0.27555,-0.38503 -0.18053,-1.08125 -0.16203,-1.58041z" fill="#394456"/><path d="M21.52192,18.90304l0.11221,0.02183c0.01099,0.06842 0.02139,0.13699 0.0312,0.2057c0.07705,0.54121 0.12451,0.84346 -0.21108,1.29442l-0.59253,0.06783l-0.27788,-0.28101c-0.22002,-0.9907 0.52178,-0.51469 0.93809,-1.30878z" fill="#394456"/><path d="M14.5558,18.71155c0.43189,0.49667 1.05577,0.97957 0.92643,1.64546l-0.02769,-0.25654l-0.25459,-0.36554l-0.22646,-0.03443l-0.42094,0.62325c-0.09037,-0.56319 -0.03401,-1.04476 0.00325,-1.6122z" fill="#121b2e"/><path d="M216.479,2.19745c1.58789,-0.12763 3.82617,-0.06095 5.4873,-0.06153l9.65918,-0.00154l8.11377,-0.00422c4.34326,0.00062 7.11768,-0.94626 6.28418,4.72632c-0.09521,0.65017 -0.8335,1.18282 -1.33008,1.49584c-1.7417,0.17454 -4.14404,0.10771 -5.93408,0.1094l-9.74414,0.0042l-7.4458,-0.00063c-2.521,0.00015 -6.70166,0.76467 -6.40283,-2.64672c0.15967,-1.83327 -0.4292,-2.43374 1.3125,-3.62112z" fill="#f2f6f7"/><path d="M218.26758,4.1849c0.3457,-0.05362 0.69434,0.08684 0.90674,0.36598c0.2124,0.27915 0.25488,0.65216 0.10986,0.97192c-0.14355,0.31976 -0.45117,0.53494 -0.80127,0.56065c-0.51123,0.03764 -0.9624,-0.33548 -1.01953,-0.84538c-0.05859,-0.5099 0.2959,-0.97473 0.8042,-1.05317z" fill="#e0e9f1"/><path d="M218.2002,4.50138c0.23145,-0.07252 0.4834,-0.00841 0.65332,0.16576c0.16846,0.17417 0.22559,0.42866 0.14502,0.65786c-0.0791,0.22919 -0.28125,0.39397 -0.52148,0.42593c-0.33105,0.04394 -0.64014,-0.17231 -0.71191,-0.49783c-0.07178,-0.32552 0.11719,-0.65204 0.43506,-0.75173z" fill="#f2f6f7"/><path d="M223.22461,4.9045l0.49805,0.23231c0.18896,0.4662 -0.20654,0.04052 -0.43213,0.64371l0.31934,0.25436c-0.47021,0.04255 -0.29004,0.05206 -0.79687,-0.20311c-0.31494,0.20353 -0.39258,0.21231 -0.75879,0.32042l-0.00439,-0.20853l-0.11719,0.144l-0.00146,-0.07963c0.60791,-0.64823 0.78809,-0.45423 1.29346,-1.10353z" fill="#b1bcce"/><path d="M226.14404,4.8728c0.28271,0.07399 0.32373,0.05544 0.51563,0.28019l-0.48486,0.3644l0.06445,0.2303l0.42188,0.15845l-0.09229,0.19269c-0.41602,0.01588 -0.25195,0.07188 -0.59766,-0.23878c-0.11279,-0.56784 -0.08936,-0.38616 0.17285,-0.98724z" fill="#b1bcce"/><path d="M223.29639,118.64706c9.42188,-0.01377 19.22754,-0.15486 28.6084,0.00059c2.55176,1.55052 2.3042,5.28433 -0.39551,5.54439c-6.12305,0.29829 -12.56396,-0.09699 -18.71924,0.05494c-2.93701,0.07252 -6.19043,0.05113 -9.12012,-0.04307c-1.08838,-0.18914 -1.68457,-0.61534 -1.97461,-1.70684c-0.09229,-0.87657 -0.07617,-1.17677 0.01025,-2.05803c0.17725,-0.9277 0.81152,-1.34965 1.59082,-1.79197z" fill="#f2f6f7"/><path d="M223.66992,124.2039l0.11572,-0.21918c2.07715,-0.23852 27.33252,-0.08307 27.6123,0.11721c0.03955,0.02769 0.07324,0.06007 0.11133,0.0901c-6.12305,0.29829 -12.56396,-0.09699 -18.71924,0.05494c-2.93701,0.07252 -6.19043,0.05113 -9.12012,-0.04307z" fill="#cff7e4"/><path d="M221.70557,120.43903c0.30029,0.47088 0.33545,1.61322 -0.01025,2.05803c-0.09229,-0.87657 -0.07617,-1.17677 0.01025,-2.05803z" fill="#cff7e4"/><path d="M224.12842,120.50525c0.41895,0.00835 0.56396,0.05186 0.97119,0.15457c0.41602,0.37975 0.31641,0.19251 0.4248,0.69578c-0.12305,0.60318 -0.24609,0.70706 -0.63574,1.17648c-1.04297,-0.29331 -1.44287,-1.11187 -0.76025,-2.02682z" fill="#37ba8a"/><path d="M224.4668,120.83988c0.33105,-0.09567 0.67822,0.09377 0.77637,0.42415c0.09814,0.33053 -0.08789,0.67849 -0.41748,0.77943c-0.33398,0.10212 -0.68701,-0.08703 -0.78516,-0.42122c-0.09961,-0.33434 0.09229,-0.68552 0.42627,-0.78236z" fill="#f2f6f7"/><path d="M256.54102,118.63988c9.23438,0.04249 19.24951,0.18094 28.46484,0.00234c1.99951,1.14 1.76514,1.93188 1.70508,4.07079c-0.67236,0.96477 -0.93457,1.39595 -2.2002,1.4903c-1.24805,0.07765 -2.84033,0.06989 -4.09277,0.03853c-7.76221,-0.19427 -15.79541,0.28526 -23.52979,-0.04791c-2.36133,-0.33155 -2.23682,-2.20132 -1.99951,-4.09159c0.55957,-0.85503 0.75293,-0.98264 1.65234,-1.46247z" fill="#f2f6f7"/><path d="M256.88818,124.19394c0.54346,-0.4136 5.21338,-0.2561 6.2915,-0.25654l10.80469,0.00015l6.78076,0.00396c0.78955,0.00059 3.23877,-0.12776 3.74561,0.26181c-1.24805,0.07765 -2.84033,0.06989 -4.09277,0.03853c-7.76221,-0.19427 -15.79541,0.28526 -23.52979,-0.04791z" fill="#e0e9f1"/><path d="M263.53711,26.00161c2.58398,-0.00044 19.0708,-0.3484 20.04346,0.33536c0.59766,0.42107 0.83789,1.30863 0.92871,1.99151c0.15088,1.12461 0.25049,3.11627 -0.52148,4.01922c-0.41895,0.48905 -0.95215,0.61578 -1.56299,0.67922l-12.28564,0.00996c-2.38184,0.00059 -5.17529,0.06373 -7.51025,-0.07472c-0.8877,-0.66984 -1.20996,-1.13458 -1.3125,-2.25245c-0.19629,-2.11429 -0.33252,-4.40644 2.2207,-4.70811z" fill="#1a5efa"/><path d="M275.47705,28.82003c1.21729,-0.01743 1.51758,0.54502 2.62207,0.73211c0.32813,0.05582 1.34326,-0.55689 1.89404,-0.53462c0.3252,0.46532 0.10107,0.34738 0.04248,0.94865c-0.00586,0.06974 0.17725,0.09289 0.2124,0.5081l-0.32373,0.15193c-0.40576,-0.24511 -0.1333,-0.50912 -0.4834,-1.06806l-0.24756,0.11062l-0.11133,0.08087c0.22412,0.30093 0.1875,0.17303 0.22852,0.52377c-0.41162,0.37814 -0.26221,0.36232 -0.68555,0.35631l-0.16553,-0.66501l-0.20801,-0.0775c-0.11865,0.20204 -0.2373,0.40349 -0.35596,0.60435c-0.46729,0.13728 -0.27979,0.14226 -0.7207,0.00938c-0.14355,-0.40027 -0.14209,-0.43821 -0.43213,-0.73358c-0.7251,0.13215 -0.61377,0.68523 -1.14551,0.76596c-0.15967,-0.47469 -0.12012,-1.19274 -0.12012,-1.71329z" fill="#f2f6f7"/><path d="M221.05957,49.83252c2.49756,-0.04263 7.61865,-0.90822 8.26465,2.43046c0.5332,2.75791 0.82764,8.76615 -2.61768,9.78967c-7.83691,2.18007 -9.6167,-3.9423 -7.95557,-10.2292c0.27246,-1.03363 1.40771,-1.65366 2.30859,-1.99093z" fill="#e0e9f1"/><path d="M221.00977,50.5639c4.2627,-0.21259 8.3833,-1.09194 7.90283,4.5427c-0.19189,2.23589 0.40137,4.06405 -2.14014,5.14954c-1.74609,0.25317 -6.81445,0.58194 -7.37256,-1.46041c-0.69727,-2.55148 -1.229,-6.84071 1.60986,-8.23182z" fill="url(#color-1)"/><path d="M222.05713,53.35551c1.16162,-0.05816 1.01221,0.11149 2.0332,0.50033c0.82617,0.315 1.59814,0.28467 2.04639,1.18996c0.13037,0.74149 -0.20068,1.53601 -0.55078,2.17993c-1.32861,0.03707 -2.45801,0.02842 -3.78809,-0.01612c-0.03662,-0.38635 -0.06738,-0.77328 -0.09082,-1.1608c-0.04395,-0.78984 -0.16553,-2.11561 0.3501,-2.6933z" fill="#e0e9f1"/><path d="M222.08057,53.73981c0.31348,0.01143 0.62842,0.02989 0.94043,0.04542c0.54199,0.51161 1.45459,0.46751 2.30859,0.85459c-0.56836,0.37184 -2.82715,-0.34401 -2.72754,1.26731c0.32813,-0.11076 0.48193,-0.48627 0.90674,-0.72273l2.30566,0.00308l-0.34717,1.66641l-3.38818,-0.00571z" fill="#22a0dd"/><path d="M106.82681,49.83062c2.28882,-0.08688 7.56709,-0.77445 8.22202,2.27413c0.68013,3.16535 0.82412,8.56894 -2.95195,9.84051c-4.7001,1.47506 -8.48643,-1.43331 -8.15332,-6.29965c0.18208,-2.66107 -0.17886,-4.72964 2.88325,-5.81499z" fill="#e0e9f1"/><path d="M106.75254,50.56376c1.67827,-0.11765 4.31602,-0.06329 5.98682,0.00938c2.66851,1.56605 2.10308,5.18969 1.62451,7.89309c-0.15513,0.87701 -1.05205,1.43521 -1.83179,1.78684c-1.50747,0.22108 -4.28745,0.19281 -5.75815,-0.07326c-1.77979,-0.45828 -2.14775,-2.57038 -2.09194,-4.07606c0.08818,-2.38167 -0.36152,-4.35106 2.07056,-5.53999z" fill="url(#color-2)"/><path d="M108.08657,53.19684l2.28281,-0.01934c0.36797,0.34195 0.77256,0.76581 1.13379,1.12535c0.01816,0.81049 0.1478,2.70092 -0.23555,3.31787c-1.1083,0.02461 -2.19741,0 -3.30527,-0.02022c-0.08833,-1.05517 -0.24741,-3.44519 0.12422,-4.40366z" fill="#f2f6f7"/><path d="M108.25811,53.48927c0.50156,-0.0145 0.8083,-0.02066 1.31309,0.02227c0.42451,0.81255 0.39639,1.23098 1.35396,1.51433l0.12554,0.03575c0.23804,0.4599 0.10503,1.62524 0.07939,2.21055l-2.88208,0.00073z" fill="#1a5efa"/><path d="M108.67866,56.32806c0.7002,-0.08849 1.48462,-0.29844 1.99482,0.23368c-0.18574,0.01084 -0.37163,0.02022 -0.55752,0.02813c-0.56001,0.023 -1.05762,0.08747 -1.4373,-0.26181z" fill="#f2f6f7"/><path d="M278.02881,49.83062c2.37744,-0.04351 7.57324,-0.87408 8.34521,2.25787c0.76611,3.10953 0.82764,8.35284 -2.83008,9.69678c-1.14697,0.41521 -3.63721,0.52348 -4.82227,0.08146c-3.88623,-1.45074 -3.85254,-6.36367 -3.08057,-9.72257c0.26953,-1.17062 1.35645,-1.85746 2.3877,-2.31354z" fill="#cff7e4"/><path d="M278.00977,50.57548c0.58301,-0.04615 1.29932,-0.04293 1.85449,-0.06344c3.81299,-0.14636 6.32227,-0.39616 6.15674,4.39882c-0.07471,2.16982 0.33838,4.20279 -2.0332,5.28799c-1.27002,0.28804 -4.24219,0.29068 -5.51807,0.07296c-2.21777,-0.4977 -2.52539,-2.54679 -2.40527,-4.44322c0.15674,-2.47925 -0.55811,-3.87007 1.94531,-5.25312z" fill="url(#color-3)"/><path d="M280.96729,53.28196c0.06738,0.06564 0.18457,0.2542 0.24463,0.34195c0.07324,0.98499 0.11426,2.93987 -0.08203,3.87637c-0.13916,-0.11853 -0.18018,-0.21039 -0.28125,-0.36466c-0.07324,-0.92609 -0.15088,-3.0102 0.11865,-3.85366z" fill="#cff7e4"/><path d="M282.31641,54.58151l0.19189,0.15457c0.24463,0.61959 0.09375,2.02477 0.0249,2.73505c-0.47021,-0.58018 -0.25635,-2.05598 -0.2168,-2.88962z" fill="#f2f6f7"/><path d="M163.90283,49.82256c1.87939,-0.07062 3.9126,-0.03721 5.79199,-0.00176c2.82568,1.47712 2.20752,5.12625 1.77539,7.86687c-0.14795,0.93415 -1.07373,1.52502 -1.88525,1.91958c-6.73535,0.56846 -8.96045,-0.00762 -7.44434,-8.07784c0.15674,-0.84053 1.03711,-1.36811 1.76221,-1.70684z" fill="#9045fe"/><path d="M165.97998,52.67936c0.54199,-0.09303 1.05615,0.26797 1.15283,0.80859c0.09814,0.54062 -0.25928,1.05839 -0.79834,1.15963c-0.54639,0.10226 -1.0708,-0.25947 -1.16895,-0.80595c-0.09814,-0.54634 0.26807,-1.06806 0.81445,-1.16227z" fill="#ede9fd"/><path d="M165.82764,53.11963c0.2959,-0.17391 0.67822,-0.07648 0.854,0.21845c0.17725,0.29478 0.0835,0.67702 -0.20947,0.85679c-0.29736,0.18211 -0.68555,0.08688 -0.86572,-0.21215c-0.17871,-0.29903 -0.0791,-0.68669 0.22119,-0.86309z" fill="#9045fe"/><path d="M165.16699,55.12345c1.07813,-0.0463 2.17676,-0.17537 2.69678,1.0474l-0.19043,0.20336l0.04395,0.07633l-0.22119,-0.07926l-0.39404,-0.86778c-0.59766,-0.01802 -1.08105,-0.00835 -1.67725,0.01729c-0.48486,0.29229 -0.41602,0.4577 -0.67969,1.10923l-0.27686,-0.07487l-0.03955,-0.25214c0.21973,-0.63205 0.24609,-0.73636 0.73828,-1.17955z" fill="#ede9fd"/><path d="M167.37158,52.70749c1.2832,0.11457 1.22168,1.25046 0.29736,1.988l-0.13916,-0.15515c0.03369,-0.25449 0.16846,-0.41257 0.30908,-0.63102c0.03076,-0.74295 0.04834,-0.50048 -0.46729,-1.20182z" fill="#ede9fd"/><path d="M288.57129,149.34813c4.35352,-0.09523 7.76953,-0.92887 7.40771,4.7733c-0.14209,2.22842 0.24316,4.10229 -2.30273,5.00772c-1.49414,0.0337 -4.96729,0.24174 -6.104,-0.27837c-2.16064,-0.98894 -1.7915,-5.97176 -1.18359,-7.8383c0.3457,-1.0622 1.24072,-1.46364 2.18262,-1.66436z" fill="#121b2e"/><path d="M290.51514,152.31057c1.04883,-0.252 2.10645,0.3736 2.39209,1.41382c0.28418,1.03876 -0.30615,2.11707 -1.33594,2.435c-0.6958,0.21537 -1.45459,0.0337 -1.97754,-0.47176c-0.52441,-0.50693 -0.72949,-1.25852 -0.5376,-1.96177c0.19189,-0.70325 0.75146,-1.24534 1.45898,-1.41529z" fill="#e0e9f1"/><path d="M290.26611,152.7501c0.55078,-0.26079 1.19824,-0.19925 1.68896,0.1597c0.49219,0.35748 0.74854,0.95671 0.66797,1.55887c-0.0791,0.60362 -0.48047,1.11494 -1.04883,1.33324c-0.8335,0.32232 -1.77246,-0.07326 -2.12402,-0.89518c-0.35303,-0.82192 0.00879,-1.77424 0.81592,-2.15663z" fill="#121b2e"/><path d="M290.69385,153.18816c0.17432,-0.10842 0.37207,-0.12453 0.58447,-0.16995c0.34863,0.19486 0.23584,0.07472 0.38379,0.52597c-0.14502,0.7809 -0.06445,0.52304 -0.65039,1.18527l-0.12451,0.0293l-0.104,-0.17142l0.50098,-0.91276c-0.14062,-0.11574 -0.25049,-0.2227 -0.43506,-0.252z" fill="#e0e9f1"/><path d="M221.72168,111.32887c3.59912,-0.17713 8.30273,-0.04981 11.98828,-0.04864l22.03418,-0.00073l20.5957,0.00088c2.96045,0.00147 5.96191,0.0167 8.92822,-0.04219c0.58301,-0.01172 0.9624,0.05274 1.34912,0.48026l-0.04541,0.53872c-0.86426,0.16277 -6.48633,0.08732 -7.75928,0.08761l-18.25488,0.00117l-26.58838,-0.00322l-7.34473,-0.00249c-1.2334,-0.00059 -3.57129,0.0463 -4.71533,-0.14988c-0.23437,-0.35177 -0.16406,-0.39997 -0.1875,-0.86148z" fill="#9045fe"/><path d="M221.73193,103.74506c4.46631,-0.23339 10.59375,-0.0526 15.19629,-0.0526l28.85889,-0.00029l13.43848,0.01875c1.47949,-0.00264 5.88721,-0.21742 7.12646,0.1197c0.36035,0.34664 0.26953,0.15662 0.28125,0.75673c-1.88086,0.20497 -6.83057,0.07003 -8.8916,0.07018l-18.16113,0.00073l-24.56836,-0.00103c-3.78076,-0.00044 -9.37207,0.172 -13.03711,-0.07604c-0.26367,-0.29536 -0.19336,-0.38225 -0.24316,-0.83613z" fill="#f2f6f7"/><path d="M223.16895,89.5409c1.15137,-0.04234 3.09814,-0.18856 4.17334,0.09948c1.9043,0.50927 1.62451,4.00705 1.21436,5.46469c-0.18896,0.67365 -0.62842,0.9907 -1.19971,1.29134c-1.06787,0.15867 -2.96631,0.23617 -3.98877,0.02315c-2.16943,-0.45154 -1.86621,-3.82084 -1.48096,-5.43157c0.18018,-0.75541 0.64307,-1.08462 1.28174,-1.44708z" fill="#f2f6f7"/><path d="M225.33105,91.37726c0.42188,0.2794 0.2666,0.52436 0.20068,0.95964c0.46143,0.46356 0.64453,0.04762 1.19238,0.42664c-0.12451,0.46063 -1.19824,1.45148 -1.59668,1.85951c-0.23145,-0.07413 -0.12451,-0.03267 -0.31787,-0.27339l0.16113,-0.59762c-0.3252,-0.56773 -0.68408,-0.02403 -1.1792,-0.5648c0.1626,-0.46854 1.14404,-1.39595 1.53955,-1.80999z" fill="#306ffd"/><path d="M184.771,72.53443c1.49268,-0.02564 7.27002,-0.55366 8.29688,0.68523c0.65771,0.79452 0.43945,2.57111 -0.63574,3.35098c-2.16064,0.09875 -4.36084,0.07838 -6.52148,0.08043c-2.41113,0.00234 -2.81982,-3.00053 -1.13965,-4.11664z" fill="#f2f6f7"/><path d="M189.67969,73.75442l0.56543,0.30489c0.51416,-0.05714 0.73535,-0.05641 1.24219,-0.04014c0.28711,0.28379 0.35303,0.66633 0.25488,1.04389l-0.25781,-0.05201c-0.2417,-0.03355 -0.2915,-0.00352 -0.53467,0.03531c-0.14648,-0.27397 -0.17725,-0.38649 -0.44092,-0.55879l-0.24316,0.47323c-0.36328,0.24174 -0.19189,0.1994 -0.64746,0.14168l-0.20801,-0.30635c-0.06006,-0.4766 0.05566,-0.62516 0.26953,-1.04169z" fill="#37ba8a"/><path d="M70.52344,72.53428c1.49458,-0.02491 7.27397,-0.5522 8.30229,0.68479c0.68906,0.82895 0.42422,2.52657 -0.65142,3.35142c-1.78066,0.03809 -3.69551,0.05831 -5.43208,0.11076c-2.30317,0.06959 -3.6063,-0.5648 -3.07134,-3.10148c0.12729,-0.60392 0.36621,-0.71644 0.85254,-1.0455z" fill="#f2f6f7"/><path d="M241.9043,72.54483c1.38428,-0.07633 7.37109,-0.53242 8.34961,0.66398c0.63428,0.77694 0.4292,2.54972 -0.57715,3.34073c-1.58203,0.10007 -3.26367,0.08234 -4.75488,0.11604c-1.99805,0.04498 -4.28613,0.15647 -3.87451,-2.55924c0.14941,-0.98821 0.06592,-0.90704 0.85693,-1.56151z" fill="#f2f6f7"/><path d="M127.75649,71.82327c2.37319,-0.02168 4.77378,-0.09289 7.1436,0.02051c1.50615,0.07208 1.47832,1.69556 1.37139,2.81768c-0.05713,0.59996 -0.50801,0.90441 -0.9564,1.2134c-1.47202,-0.00703 -7.35776,0.6423 -8.27124,-0.80214c-0.54771,-0.86617 -0.43081,-2.55763 0.71265,-3.24945z" fill="#f2f6f7"/><path d="M270.13184,2.11926c2.31885,-0.03226 4.57324,-0.37555 4.45752,2.87392c-0.01904,0.52744 0.07764,1.27451 -0.16113,1.74108c-2.44922,0.04491 -1.06494,0.96017 -1.70215,1.76004c-1.23047,0.03636 -2.31885,0.2084 -3.41602,-0.4476c-2.00977,-1.20282 -1.64648,-5.42057 0.82178,-5.92744z" fill="#1a5efa"/><path d="M72.36328,141.15425c1.02554,-0.01377 2.39634,-0.11384 3.3249,0.19515c0.3356,0.25756 0.623,0.6319 0.67251,1.05165c0.18604,1.57967 0.56631,3.92413 -1.35308,4.37729c-0.81694,0.01612 -3.02417,0.15823 -3.61509,-0.31133c-1.00679,-0.80009 -0.89502,-3.9042 -0.16216,-4.89212c0.27437,-0.36979 0.73315,-0.37785 1.13291,-0.42063z" fill="#fef2c5"/><path d="M73.10596,143.04629l0.37222,-0.30269c1.75605,0.2939 1.43203,1.51521 0.33472,2.43676c-0.9709,0.1531 -1.52036,-0.89137 -1.34209,-1.81907c0.20186,-0.17098 0.18398,-0.17977 0.44224,-0.21552z" fill="#f3972b"/><path d="M73.10596,143.04629l0.0873,0.23588c0.47285,-0.17156 0.38423,-0.10563 0.94087,0.00234c0.24053,0.32642 0.24639,0.78266 0.05127,1.1463l-0.32153,-0.92111l0.02153,0.05186l-0.32886,-0.22929l-0.03296,0.03531l0.32124,0.1238l-0.37954,-0.04425l-0.38188,0.85108l-0.16274,-0.04395c-0.11396,-0.46224 -0.20845,-0.66662 -0.00762,-1.1085z" fill="#fef2c5"/><path d="M71.81382,116.06042c3.90747,-0.10549 5.16006,-0.49726 4.51113,4.42139c-0.08247,0.62589 -0.29648,0.80405 -0.79102,1.14c-1.03887,0.03253 -2.55205,0.11721 -3.54272,0.01685c-1.66362,-0.16863 -1.36304,-3.34336 -1.11489,-4.42988c0.1481,-0.64875 0.3939,-0.81767 0.9375,-1.14835z" fill="#e0e9f1"/><path d="M72.51152,117.65724l2.26655,0.00952c0.03208,0.67263 0.10122,1.77321 -0.10781,2.38504c-0.69946,0.04044 -1.56577,0.00264 -2.27798,-0.00908c-0.01523,-0.6927 -0.08789,-1.75944 0.11924,-2.38548z" fill="#22a0dd"/><path d="M71.60347,128.65005c1.10171,-0.02666 3.49409,-0.39939 4.31001,0.42649c0.66753,0.67571 0.53599,2.16044 0.51328,3.04653c-0.02754,1.077 -0.04028,1.30848 -0.83013,2.04645c-1.62554,0.06505 -4.86958,0.6864 -4.84219,-1.60634c0.01611,-1.35331 -0.30264,-2.96332 0.84902,-3.91314z" fill="#ede9fd"/><path d="M72.37896,130.19631c0.75732,0.07912 2.24985,-0.10109 2.42329,0.636l-0.2335,0.26899c-0.51738,0.04556 -0.38452,0.01934 -0.90688,-0.25039l-0.26191,0.20467c-0.06138,0.55689 -0.10752,0.36833 0.08906,0.81592c0.21621,-0.19383 0.37134,-0.54853 0.52046,-0.82031c0.42539,0.11779 0.47739,0.18944 0.7938,0.50473c0.14341,0.43528 0.16099,0.27368 0.00073,0.63395c-0.54712,0.37785 -1.78433,0.63512 -2.34478,0.20131c0.00542,-0.72493 -0.04204,-1.46994 -0.08027,-2.19487z" fill="#9045fe"/><path d="M4.9447,2.51113c1.40514,-0.06451 3.03019,-0.25563 3.92042,1.08108c1.05079,1.57778 0.34153,3.4818 -1.11007,4.47061c-1.46502,0.095 -3.10342,0.31648 -3.98974,-1.13693c-0.98077,-1.60833 -0.3208,-3.46401 1.17939,-4.41476z" fill="#1a5efa"/><path d="M5.311,4.43879c1.30499,0.29242 0.42316,0.40268 1.14089,0.73343c0.15576,-0.42213 0.15913,-0.51677 0.47391,-0.81488l0.35347,0.19588c0.30955,0.66448 0.21652,1.25716 0.00778,1.93897c-0.82375,-0.8543 -0.65021,-0.10366 -1.82424,-0.41206c-0.29697,-0.57872 -0.17452,-0.93176 -0.1518,-1.64135z" fill="#f2f6f7"/><path d="M206.57959,89.14136c0.80566,-0.03633 1.84717,-0.13831 2.53418,0.31837c1.99658,1.32724 1.7168,4.78927 -0.85547,5.28917c-0.89209,0.05816 -1.87354,0.17039 -2.61768,-0.38298c-1.8208,-1.35522 -1.64062,-4.85594 0.93896,-5.22455z" fill="#f2f6f7"/><path d="M207.26807,90.65789c1.82959,0.43162 1.5498,1.54715 0.42627,2.6303c-0.47021,-0.05304 -0.9126,-0.28115 -1.18359,-0.67556c-0.22559,-0.32393 -0.29004,-0.73387 -0.17285,-1.11113c0.17285,-0.54414 0.43506,-0.56919 0.93018,-0.84361z" fill="#37ba8a"/><path d="M207.104,90.86975c1.35498,0.39646 1.37256,0.9951 0.65918,2.11004c-0.20801,-0.04703 -0.47607,-0.13171 -0.68701,-0.19237c-0.68262,-0.72054 -0.59619,-1.18029 0.02783,-1.91767z" fill="#f2f6f7"/><path d="M61.90283,2.5079c1.36113,-0.05755 3.27803,-0.25478 4.04268,1.28689c0.78809,1.5888 0.2042,3.33078 -1.29595,4.2822c-0.97515,0.06906 -1.82666,0.03179 -2.80005,0.00239c-1.97197,-1.46094 -2.08418,-4.22114 0.05332,-5.57148z" fill="#1a5efa"/><path d="M62.00596,4.1127l2.58735,-0.01153c0.03105,0.52898 0.09023,1.03017 -0.01758,1.54794c-0.37676,0.42919 -0.23584,0.30291 -0.90396,0.41209l0.06196,0.25025l-0.29795,0.14496c-1.46602,-0.14083 -1.52681,-1.21126 -1.42983,-2.34371z" fill="#bbcffc"/><path d="M62.23989,4.36822c0.56719,-0.0235 1.3541,-0.12028 1.83984,0.11201c0.32139,0.50164 0.21284,0.50665 0.22617,1.20168c-0.5291,0.03368 -1.34517,0.14374 -1.79766,-0.0609c-0.35991,-0.49246 -0.24053,-0.52193 -0.26836,-1.25278z" fill="#1a5efa"/><path d="M4.87557,113.72622c0.63813,-0.02828 2.41963,-0.15677 2.92677,0.07399c1.58735,0.72259 1.4827,4.04105 -0.0791,4.8404c-0.84064,0.03956 -1.69644,0.09787 -2.535,-0.00908c-1.7405,-0.22211 -1.5273,-2.46152 -1.2474,-3.70422c0.1594,-0.70764 0.32977,-0.83584 0.93473,-1.20109z" fill="#f2f6f7"/><path d="M5.02882,87.3576c0.74338,-0.03897 1.68212,-0.10358 2.41671,0.06227c2.1374,0.4826 1.97292,4.11533 0.18691,4.87117c-1.02535,0.03355 -3.18259,0.3402 -3.59498,-0.80024c-0.49833,-1.37808 -0.53353,-3.46379 0.99135,-4.1332z" fill="#f2f6f7"/><path d="M5.05808,122.50467c0.75889,-0.03384 1.70325,-0.10666 2.44796,0.07428c2.07605,0.50458 1.89107,4.21349 0.09439,4.85271c-0.63146,0.02168 -2.45041,0.14036 -2.9093,-0.14592c-1.40985,-0.87906 -1.33075,-4.14419 0.36694,-4.78107z" fill="#f2f6f7"/><path d="M6.32013,123.71866l0.12158,0.00542c0.77209,0.46839 1.32699,0.99231 0.93416,1.96236c-0.43191,0.18665 -0.56654,0.25507 -0.95117,0.50458l-0.0935,0.06153c-0.44747,-0.23163 -0.60832,-0.29009 -1.02634,-0.59703c-0.51149,-1.12022 0.23389,-1.43697 1.01527,-1.93687z" fill="#b1bcce"/><path d="M5.36776,60.98474c1.3865,-0.02036 3.05777,-0.15589 3.51734,1.47521c0.34673,1.23054 -0.00801,3.08375 -1.37773,3.48401c-0.82705,0.01392 -2.67357,0.22944 -3.14982,-0.41858c-1.00768,-1.37119 -1.00983,-4.13364 1.01021,-4.54065z" fill="#f2f6f7"/><path d="M6.13091,62.09206c0.64091,0.33126 1.11495,0.01963 1.49643,0.53886l-0.17228,0.37038l0.2122,0.5015c-0.14678,0.32965 -0.08036,0.21977 -0.4459,0.43396l-0.38402,-0.126c-0.30718,0.48495 0.17174,0.05025 -0.15338,1.02748c-0.81208,-0.26343 -0.91948,-0.00132 -1.39296,-0.22929c-0.11087,-0.42678 -0.23196,-0.84214 -0.2918,-1.27874l0.36696,-0.28863l0.44602,0.08292c0.33151,-0.39646 -0.12139,-0.1534 0.31875,-1.03246z" fill="#8897ad"/><path d="M4.67055,25.94154c0.80112,-0.05377 1.69409,-0.13069 2.48559,-0.09816c1.77756,0.07296 1.74923,1.87636 1.65943,3.17634c-0.06563,0.95012 -0.14328,1.10923 -0.83651,1.72252c-3.33343,0.32569 -4.78642,0.18284 -4.01237,-3.81381c0.09445,-0.48773 0.344,-0.68303 0.70386,-0.98689z" fill="#f2f6f7"/><path d="M5.26037,27.04711c0.17849,-0.0082 0.35707,-0.01406 0.53571,-0.01773c1.91046,-0.03707 1.6234,1.16358 1.59385,2.63088l-2.17099,0.00147c-0.01206,-0.90397 0.00782,-1.71256 0.04143,-2.61462z" fill="#e0e9f1"/><path d="M6.26424,52.22328c0.55531,-0.01363 1.42856,-0.08629 1.86195,0.31661c1.09841,1.02132 1.11447,3.06543 0.16447,4.18785c-0.38515,0.45506 -0.97386,0.42298 -1.51578,0.44085c-0.36917,0.00996 -0.78611,0.02652 -1.13064,0.01187c-2.19627,-0.09362 -2.58615,-3.16008 -1.23999,-4.51149c0.5655,-0.56758 1.17196,-0.44217 1.85999,-0.44568z" fill="#f2f6f7"/><path d="M5.27281,53.49118l2.20197,-0.00117c0.01846,0.80185 0.05594,1.52209 -0.04935,2.32204l-2.2759,0.03384c-0.0116,-0.73841 -0.07907,-1.66377 0.12328,-2.35471z" fill="#8897ad"/><path d="M5.44342,53.78127c0.56347,-0.01055 1.06652,-0.03633 1.62633,0.04161c0.25957,0.45931 0.23646,0.27808 0.18688,0.72127c-0.30886,-0.00982 -0.32476,-0.00381 -0.63003,0.0589l0.09984,0.2287c0.28,0.02549 0.35947,0.08952 0.6036,0.21991l0.08603,0.04659c-0.31194,0.60758 -0.12702,0.4218 -0.79091,0.69519c-1.33216,-0.01392 -1.20703,-1.1063 -1.18175,-2.01217z" fill="#e0e9f1"/><path d="M5.53548,96.14704c2.09455,-0.04234 3.84996,0.16761 3.37364,3.0688c-0.15886,0.9677 -0.46349,1.71256 -1.54833,1.86727c-0.75403,0.02051 -2.34437,0.15677 -2.91289,-0.31749c-1.06764,-0.89049 -0.86536,-3.17019 -0.10236,-4.19737c0.25688,-0.34591 0.79034,-0.3714 1.18994,-0.42122z" fill="#f2f6f7"/><path d="M6.22692,97.71998l0.06221,0.00073c0.35643,0.25346 0.88885,0.19295 1.07014,0.62677c0.42488,1.01649 -0.14383,1.26116 -0.88027,1.42144c-0.5851,-0.03633 -0.97805,-0.02916 -1.37585,-0.4596c-0.08329,-0.7179 0.37327,-1.21032 1.04033,-1.38027z" fill="#e0e9f1"/><path d="M4.59788,34.74241c2.17937,-0.12629 4.42315,-0.70017 4.24958,2.4057c-0.07005,1.25354 0.10478,1.45748 -0.87942,2.40116c-2.43826,0.109 -4.41656,0.60245 -4.15976,-2.73696c0.0824,-1.07143 -0.00702,-1.25896 0.78959,-2.0699z" fill="#f2f6f7"/><path d="M6.07383,35.86981c0.65058,0.04454 0.95974,0.07194 1.33915,0.59512c0.07683,0.55791 0.07189,0.69314 -0.14074,1.2216l0.08692,-0.04425c-0.19875,0.61183 -0.1506,0.43177 -0.87218,0.82852c-1.17999,-0.17552 -1.62047,-0.70076 -1.25823,-1.87196c0.16715,-0.54048 0.34948,-0.47894 0.84508,-0.72903z" fill="#b1bcce"/><path d="M5.85152,78.59688c0.36176,-0.01802 1.07941,-0.07179 1.41234,-0.01436c2.33279,0.40246 2.43458,4.72525 -0.19603,4.93271c-0.74859,0.01392 -2.09045,0.14094 -2.66547,-0.37756c-1.06425,-0.95964 -0.83903,-3.2178 0.05395,-4.21979c0.3091,-0.34679 0.94686,-0.30811 1.39521,-0.321z" fill="#f2f6f7"/><path d="M5.14734,79.92514l0.19359,0.15735c0.16521,0.51469 0.09665,1.36899 0.08476,1.94053c0.85903,-0.0063 1.38009,0.00088 2.24944,0.0964c-0.72113,0.1279 -1.76263,0.07897 -2.51807,0.07135c-0.03422,-0.72332 -0.01277,-1.53469 -0.00973,-2.26563z" fill="#8897ad"/><path d="M6.41852,80.07326c0.30371,0.48832 0.15916,1.25398 0.10233,1.81643c-0.30716,-0.66545 -0.23748,-1.13311 -0.10233,-1.81643z" fill="#8897ad"/><path d="M4.59152,69.89578c2.41507,-0.14255 4.67834,-0.6716 4.25751,2.74003c-0.12763,1.0348 -0.05979,1.3498 -0.92104,2.04352l-0.7656,0.03487c-1.96783,0.08366 -3.38329,0.25449 -3.364,-2.28087c0.00853,-1.1189 -0.0394,-1.71856 0.79312,-2.53756z" fill="#f2f6f7"/><path d="M5.58098,72.07527c0.17297,0.17391 0.43726,0.21874 0.65792,0.11164c0.31652,0.31221 0.51451,0.44583 0.63593,0.87071c-0.52121,-0.27368 -0.84571,-0.41081 -1.38936,-0.26709l-0.26279,0.45623l-0.26641,-0.23867c0.14911,-0.4388 0.28545,-0.42576 0.71376,-0.7516z" fill="#e0e9f1"/><path d="M5.58098,72.07527c-0.17615,-0.17713 -0.21769,-0.44774 -0.10277,-0.66955c0.1149,-0.22182 0.35994,-0.34386 0.60617,-0.3021c0.24623,0.0419 0.43721,0.23793 0.47249,0.48524c0.03529,0.24731 -0.09325,0.48905 -0.31796,0.59805c-0.22066,0.1071 -0.48495,0.06227 -0.65792,-0.11164z" fill="#8897ad"/><path d="M5.64483,104.95348c0.59525,-0.02124 1.66228,-0.11018 2.1906,0.18021c1.5102,0.82998 1.38434,2.77051 0.64002,4.08353c-0.30422,0.53667 -0.76206,0.52114 -1.2976,0.62164c-0.70053,0.01729 -2.20393,0.11267 -2.72553,-0.28364c-1.06879,-0.81211 -0.84605,-3.16931 -0.13852,-4.15444c0.31657,-0.44085 0.86017,-0.41887 1.33103,-0.4473z" fill="#f2f6f7"/><path d="M4.61522,43.51705c2.16387,-0.09259 4.43956,-0.65563 4.22641,2.43002c-0.08395,1.21545 0.12322,1.44064 -0.85121,2.36218l-1.0331,0.04571c-2.0729,0.08351 -3.20262,0.09084 -3.15406,-2.42943c0.02134,-1.10732 -0.02054,-1.60663 0.81195,-2.40848z" fill="#f2f6f7"/><path d="M5.8074,44.69558c0.43749,-0.03765 1.3484,-0.00967 1.82162,-0.01011c0.02117,0.72874 0.22061,2.03722 -0.32467,2.48013c-2.58974,0.10153 -2.88149,-0.21464 -1.49695,-2.47002z" fill="#8897ad"/><path d="M5.73489,44.82436c0.63214,-0.02666 1.00132,-0.10783 1.47204,0.23515c0.26026,0.48334 0.13563,1.38188 0.10617,1.96807c-0.68225,0.01465 -0.95325,0.09391 -1.47795,-0.23735c-0.26002,-0.47528 -0.13112,-1.38496 -0.10025,-1.96587z" fill="#e0e9f1"/><path d="M71.20356,55.81263c2.62061,0.12248 2.67026,3.52328 0.81328,4.73697c-2.9814,-0.01275 -2.9105,-3.56928 -0.81328,-4.73697z" fill="#121b2e"/><path d="M71.32998,56.74766c1.01323,0.3947 0.58887,2.21172 0.2915,2.97152c-0.098,-0.06959 -0.26602,-0.24394 -0.36006,-0.33492c-0.27759,-1.0559 -0.17153,-1.56605 0.06855,-2.6366z" fill="#f2f6f7"/><path d="M242.58838,55.81102c2.62646,0.13332 2.65576,3.5246 0.81738,4.73931c-2.96484,-0.01553 -2.91357,-3.56547 -0.81738,-4.73931z" fill="#121b2e"/><path d="M242.70557,56.74546c1.02832,0.39909 0.61963,2.19502 0.30322,2.97225c-0.83936,-0.46561 -0.47168,-2.20454 -0.30322,-2.97225z" fill="#f2f6f7"/><path d="M185.46094,55.81117c2.61768,0.12995 2.64111,3.55068 0.81299,4.73741c-2.96777,-0.00879 -2.91064,-3.56752 -0.81299,-4.73741z" fill="#121b2e"/><path d="M185.59131,56.74517c0.97705,0.4807 0.60205,2.14681 0.30469,2.97357c-0.90527,-0.49887 -0.51562,-2.17216 -0.30469,-2.97357z" fill="#f2f6f7"/><path d="M278.61182,3.54744l0.1582,-0.03421c0.09375,0.1736 0.10547,0.19307 0.13477,0.38245l0.02051,0.14125c0.74414,-0.14116 1.48096,-0.02438 2.23535,0.0511l0.89502,-0.73677l0.69287,0.71392c0.52441,-0.01338 0.5874,-0.0362 1.06201,-0.26335c0.15234,-0.2148 0.18164,-0.29588 0.4292,-0.39545l0.29297,0.32717l0.27979,-0.1236c0.77637,0.71557 -0.09082,0.01424 0.37061,1.14439l-0.20654,0.15932l-0.31201,-0.17247c-0.04248,-0.21282 -0.04248,-0.34242 -0.19482,-0.49346c-0.06006,0.24168 -0.104,0.40479 -0.18604,0.63955l-0.17285,-0.22779l-0.11719,-0.26214c-0.22852,0.0716 -0.56982,0.36318 -1.15283,0.52695c-0.37646,-0.13098 -0.25195,-0.07686 -0.51123,-0.50627c-0.1333,0.39427 -0.03809,0.31157 -0.32666,0.4743c-0.45264,0.01735 -0.94189,0.10471 -1.29346,-0.12489l-0.09082,-0.51475l-0.1333,0.02623l-0.10254,0.50549l-0.19189,0.10805l-0.13037,-0.28511c-0.65625,0.28813 -2.15186,0.5797 -2.77148,0.14759c-0.13477,-0.42577 -0.08203,-0.59559 -0.01318,-1.02437c0.38525,-0.35009 0.54639,-0.13239 1.25391,-0.17731z" fill="#060508"/><path d="M76.64912,3.59098c0.82354,0.04596 0.5915,0.20271 1.25977,0.44807l0.1396,-0.33889l0.26807,-0.04759l0.43887,0.52741l0.24888,-0.46853c0.38745,-0.02834 0.90308,-0.12793 1.20674,0.05239l-0.19058,0.44711l0.11426,0.18577l0.28872,-0.01288c0.13608,-0.35863 0.13784,-0.44331 0.421,-0.67798c0.50493,-0.00605 0.92007,-0.04047 1.41094,0.08024c0.03867,0.28186 0.07822,0.52517 0.1333,0.80428l0.30571,0.13447c0.44282,-0.26624 -0.03545,-0.49518 0.35698,-1.03011c0.47153,-0.05783 0.30337,-0.10638 0.65464,0.13143l-0.02241,0.40734l-0.12817,0.10114c0.19453,0.43664 0.19585,0.26536 0.05332,0.64923c-0.43213,0.09057 -0.26089,0.09041 -0.71499,-0.10815c-0.404,0.07151 -3.17695,0.11922 -3.48955,-0.02908l0.34351,-0.33101c-0.27261,-0.25236 -0.12056,-0.1832 -0.44766,-0.25878c0.01729,0.36332 0.03984,0.40466 -0.13594,0.70463l-0.27627,0.01991c-0.17871,-0.2377 -0.21958,-0.29115 -0.44121,-0.48737l-0.18721,0.45525l-0.2417,0.02045l-0.16113,-0.33473c-0.554,0.17734 -0.95098,0.42873 -1.43188,0.08818c-0.09082,-0.47015 0.04673,-0.6962 0.22441,-1.13222z" fill="#121b2e"/><path d="M71.31079,27.99649c1.78594,-0.04351 3.53481,0.12981 2.47559,2.46357c-0.84185,0.59307 -1.45518,0.47411 -2.47178,0.45638z" fill="#121b2e"/><path d="M72.20977,28.58283c0.37339,0.08483 0.42686,0.1427 0.75557,0.35558c0.26514,0.42825 0.18135,0.69373 0.11997,1.18673c-0.36958,0.06886 -0.41294,0.09919 -0.74941,-0.02916c-0.25342,-0.37272 -0.14941,-1.02543 -0.12612,-1.51316z" fill="#f2f6f7"/><path d="M94.85552,28.02374c0.51958,-0.14138 1.07505,0.00908 1.45239,0.39323c0.37734,0.38415 0.51782,0.94221 0.36724,1.45939c-0.15044,0.51703 -0.56836,0.91261 -1.09292,1.03422c-0.79028,0.18328 -1.58159,-0.30005 -1.77964,-1.08681c-0.19805,-0.78676 0.27026,-1.58729 1.05293,-1.80002z" fill="#121b2e"/><path d="M94.91177,28.59338c0.59546,0.19266 0.46055,0.06139 0.83291,0.50106c0.10356,0.51938 0.00864,0.68948 -0.16304,1.17531c-0.61011,-0.14959 -0.46816,-0.02403 -0.83643,-0.44803c-0.11953,-0.44173 0.03369,-0.79277 0.16655,-1.22834z" fill="#f2f6f7"/><path d="M128.45889,55.21414l0.60117,-0.01084c0.38408,0.48466 0.41338,3.90713 -0.1894,4.5361c-0.42847,0.04073 -0.48779,0.0482 -0.86807,-0.14695c0.01802,-0.7913 0.09346,-2.10726 -0.03853,-2.84596c-0.4686,-0.00234 -0.5562,-0.01201 -1.00781,-0.13596l-0.13887,-0.28013c0.42773,-0.68743 0.8313,-0.72405 1.6415,-1.11626z" fill="#121b2e"/><path d="M88.23516,34.28808c0.26558,-0.06608 0.23306,-0.02549 0.53862,0.06051c0.70605,-0.20438 0.85239,-0.0797 1.56577,0.16819c0.35684,-0.22621 0.56484,-0.42429 0.9709,-0.39382c0.69727,1.0622 0.71836,0.0901 1.68442,0.08058c0.14722,0.36598 0.1229,0.21185 0.02681,0.62955c-0.30205,0.03912 -0.37075,0.04747 -0.65698,0.14666l0.05171,0.22445c0.25723,0.02139 0.28916,-0.00147 0.48442,0.16951l-0.09331,0.15735c-0.45205,-0.07428 -0.56719,-0.11941 -0.90864,-0.42576l-0.00937,-0.04073c-0.44883,0.44905 -0.22705,0.33478 -0.82939,0.45125l-0.19849,0.47455l-0.15908,0.02608c-0.08818,-0.27925 -0.17344,-0.55381 -0.271,-0.82983c-0.32007,0.15735 -0.63164,0.3213 -0.97939,0.4073l-0.09668,0.4473l-0.15981,0.04527c-0.1207,-0.31412 -0.19878,-0.50517 -0.35112,-0.80478c-0.48003,0.17318 -0.48267,0.25522 -0.95332,0.17933l-0.18633,-0.29185c0.15381,-0.63615 0.28066,-0.11706 0.68745,-0.63703l-0.41587,-0.10578z" fill="#b1bcce"/><path d="M80.23975,89.59525c0.59971,0.39807 0.33706,0.86646 0.46406,0.88785c1.073,0.18094 1.89272,-0.50605 2.83945,0.20775c0.15176,0.51396 0.19321,0.36979 0.03765,0.78149l-0.28799,0.0838l-0.26836,-0.27104c0.02197,-0.2687 0.02329,-0.13728 -0.13447,-0.42913l-0.01846,0.1282l0.12363,-0.1216l-0.1002,-0.00791l0.05244,0.35748l0.07383,-0.28394l-0.0063,0.229c-0.32183,0.39191 -0.21753,0.40173 -0.58037,0.43792l-0.20068,-0.39162c-0.82617,0.43777 -0.4979,0.38591 -1.38633,0.34298l-0.05508,-0.12028c-0.20713,0.00278 -1.1502,0.21845 -1.29551,0.09289c-0.34028,-0.29463 -0.39434,-0.82456 -0.84771,-0.93517c-0.14048,0.26445 -0.18838,0.24057 -0.14282,0.46942c0.23101,0.16717 0.29385,0.19706 0.46626,0.43631c-0.34556,0.14959 -0.27114,0.0945 -0.7043,0.04073c-0.35142,-0.36715 -0.26865,-0.18504 -0.31846,-0.68201c0.64907,-1.19259 1.26064,-0.31749 2.26846,-0.69094z" fill="#121b2e"/><path d="M131.70366,62.48837l0.43667,0.43909c0.84565,0.15691 1.12222,-0.1405 1.74097,0.12585c-0.0564,0.48217 -0.10928,0.77138 -0.58916,0.90954l-0.15703,-0.34782c-0.36606,-0.21141 -0.17563,-0.17889 -0.58931,-0.10402l0.40137,0.3632c-0.21079,0.40041 -0.74766,0.03941 -1.09849,-0.10124c-0.49937,-0.20028 -0.5981,-0.04176 -1.10742,0.13567l-0.04541,-0.12864l-0.35654,0.17625l-0.27817,-0.09875c-0.14531,0.37463 -0.16421,0.42664 -0.47725,0.67468l-0.18853,-0.0504c-0.2918,-0.67995 -0.31304,-0.93752 -1.07065,-1.00887l-0.0186,0.09509l0.48838,0.22108l-0.23013,0.2098l-0.31333,-0.0734c-0.29355,-0.38869 -0.38291,-0.61417 -0.09155,-1.01151c0.49849,-0.06476 0.29282,-0.08922 0.80581,0.18211c0.5228,-0.36217 1.86753,-0.14343 2.57813,-0.0838c0.02842,-0.19706 0.09141,-0.33888 0.16025,-0.52392z" fill="#e0e9f1"/><path d="M260.58398,3.64405c0.44238,-0.00491 0.51855,0.01105 0.94482,0.13075c0.57715,0.49639 1.16016,1.58216 0.88037,2.32037l-0.4585,0.06441c-0.55811,0.02168 -1.3667,0.10842 -1.85889,-0.08568c-0.73682,-0.72539 -0.06006,-1.71489 0.49219,-2.42984z" fill="#8897ad"/><path d="M260.85938,3.9279l0.5874,0.23795c0.36182,0.49403 0.56982,0.94525 0.50391,1.57383l-0.2959,0.10366l-1.02539,-0.00201c-0.41162,-0.29698 -0.2959,-0.1262 -0.41602,-0.65713c0.20068,-0.59247 0.23438,-0.7787 0.646,-1.2563z" fill="#f2f6f7"/><path d="M90.11338,29.26908c0.52749,-0.33038 0.60059,-0.35558 1.21919,-0.42547c0.54126,-0.38444 0.15264,-0.74676 0.77681,-1.22878c0.5792,0.35851 0.42261,0.80376 0.36973,1.43082c0.00703,0.54722 0.07295,1.28255 -0.13579,1.7568c-0.50581,0.28408 -0.62915,0.32525 -1.20498,0.12673c-1.05513,-0.36378 -1.08267,-0.6319 -1.02495,-1.66011z" fill="#121b2e"/><path d="M81.03032,29.01489l0.02124,-1.09179c0.34219,-0.23486 0.196,-0.17332 0.69756,-0.12732c0.38511,0.61769 -0.07778,0.72347 0.25313,1.16417c0.65815,-0.0797 0.55239,-0.16072 1.09907,0.07282c0.28535,0.37814 0.42554,0.50546 0.44106,0.991c-0.47959,0.90089 -1.62437,1.03715 -2.54531,0.82866z" fill="#121b2e"/><path d="M101.63335,28.80406c0.4522,0.08117 2.0688,-0.07472 2.36001,0.14841c0.19102,0.14636 0.14326,0.81313 0.41382,1.03715c0.11807,-0.48055 0.15293,-0.7387 0.43857,-1.15582c0.37676,-0.09596 0.21855,-0.10109 0.60894,0.0756c0.02725,0.41799 -0.34658,1.36357 -0.49746,1.81057c-0.97119,1.11861 -1.2542,-0.92257 -1.97256,-1.25618c-0.65845,0.35426 -0.24771,0.4826 -0.69639,1.45617l-0.27832,0.0904l-0.25781,-0.15237c-0.18721,-0.46678 -0.12202,-1.50158 -0.1188,-2.05393z" fill="#121b2e"/><path d="M80.67012,30.93344c-0.4459,-0.01626 -0.53555,0.02652 -0.79468,-0.30386c0.04438,-0.4826 0.12847,-0.75658 -0.11543,-1.16183c-0.2127,0.45521 -0.5855,1.33617 -1.02261,1.51902c-0.33574,-0.39001 -0.48853,-2.68187 0.20771,-3.21297l0.41499,0.08703c0.26221,0.48334 -0.01113,-0.00806 -0.06885,0.67717c0.52734,0.46839 0.52295,0.32686 1.34678,0.40144l0.39229,0.07545l-0.03325,1.83753z" fill="#121b2e"/><path d="M80.63804,28.93943l0.39229,0.07545l-0.03325,1.83753l-0.32695,0.08102c0.07456,-0.83862 0.05054,-1.14849 -0.03208,-1.994z" fill="#e0e9f1"/><path d="M19.03125,4.46225c0.62212,0.24127 1.40273,0.11259 1.62759,0.23919c0.09038,0.32471 0.09858,0.50628 0.34014,0.71607l0.23159,-0.73859c0.32139,-0.18503 0.18545,-0.14025 0.60527,-0.0932l0.16523,0.31686c-0.00557,0.4771 0.0293,0.95405 -0.17153,1.38399l-0.17739,-0.02034l-0.20889,-0.42724l-0.06665,-0.09678c-0.196,0.40377 -0.10444,0.36526 -0.42759,0.57687c-0.24683,-0.16538 -0.2959,-0.22083 -0.44429,-0.47844c-0.78604,0.49994 -1.85376,0.96626 -2.12139,-0.35867c0.12114,-0.54074 0.26675,-0.64106 0.6479,-1.01973z" fill="#121b2e"/><path d="M143.19946,62.66916c0.39478,0.32686 0.30776,0.22621 0.9312,0.24042l0.06138,0.17127l-0.25562,0.1408c0.36694,0.29405 0.29678,0.14973 0.37061,0.54194c-0.3293,0.32481 -0.15542,0.24628 -0.67412,0.26006c-0.36738,-0.1512 -0.43975,-0.29815 -0.65332,-0.62047l-0.07104,-0.10827l-0.13696,-0.02769l-0.04702,0.65695l-0.17534,0.04234c-0.06826,-0.47044 0.01406,-0.35763 -0.25342,-0.68098l0.05552,-0.08117c-0.15264,0.32027 -0.22324,0.47821 -0.4229,0.76903c-0.1106,-0.20072 -0.05127,-0.14505 -0.22354,-0.27998l-0.25913,0.26929c-0.4793,0.06344 -0.32856,0.05172 -0.82471,-0.28452l-0.10459,0.18651c-0.42642,0.16101 -1.5293,0.11369 -1.89858,-0.19325c-0.09023,-0.48363 -0.13198,-0.31016 0.10474,-0.66428c0.75161,-0.08512 1.20205,-0.28877 1.70918,0.07135c0.25371,0.00777 0.18604,-0.00483 0.44326,-0.17479c0.05625,0.33097 0.04907,0.43118 0.22676,0.70574l0.18179,-0.04981c0.03574,-0.33478 0.02886,-0.39221 0.16479,-0.69402c0.07822,0.22006 0.10005,0.38122 0.29326,0.49799l0.10576,-0.4347c0.38335,-0.17054 0.41499,-0.07238 0.89531,0.04893z" fill="#b1bcce"/><path d="M108.99111,28.73417c0.3687,0.05597 0.50215,0.09377 0.85605,0.21332l0.23481,1.01693c0.00015,-0.00029 0.00029,-0.00073 0.00044,-0.00088c0.22515,-0.30313 0.17168,-0.68142 0.39727,-1.0266c0.43638,-0.13464 0.24976,-0.12102 0.7251,-0.01465c0.11104,0.25361 0.17388,0.37609 0.31084,0.6171c0.08687,-0.43997 0.19922,-0.68933 0.6627,-0.72435l0.18926,0.20365l-0.01787,0.38137c-0.14692,0.61974 -0.1812,1.41675 -0.88799,1.50026c-0.22793,-0.23573 -0.45205,-0.47513 -0.67236,-0.7179c-0.54902,0.44612 -0.40591,0.62618 -1.0314,0.82046c-0.40796,-0.34283 -0.61831,-1.65322 -0.76685,-2.26871z" fill="#121b2e"/><path d="M145.79868,89.72609c0.38628,0.05289 0.43652,0.03751 0.72524,0.27427l-0.34043,0.2939l0.02124,0.20687l0.43784,0.25376c0.15674,-0.12937 0.28857,-0.25537 0.43506,-0.39441c0.81299,-0.06725 0.70459,0.32437 0.91699,0.31558c0.33398,-0.01406 1.16309,-0.47411 1.69629,-0.29932l0.08203,0.70559l0.16553,0.023l0.13477,-0.68874l0.21533,-0.09977c0.40723,0.275 0.2959,0.11398 0.40869,0.6086c-0.22705,0.53081 -0.08203,0.36042 -0.52295,0.6801c-0.49512,-0.01421 -0.36914,0.05714 -0.73828,-0.17918c-0.11426,-0.43909 -0.1084,-0.58003 -0.46143,-0.86133l-0.12744,0.08629c-0.01611,0.39382 0.02637,0.67219 -0.21826,0.95818c-0.73975,-0.29917 -0.14795,-0.49052 -0.8833,-0.62838l-0.26221,0.17962l0.03223,-0.17288l-0.12451,0.05699l0.41016,0.40862l-0.14209,0.13655c-0.61084,-0.03912 -0.40283,0.00601 -0.93164,-0.38034c-0.33516,0.25068 -0.40664,0.29654 -0.79351,0.45447c-0.40884,-0.13992 -0.27568,-0.03575 -0.50933,-0.38371c0.32021,-0.0586 0.27891,-0.00396 0.49819,-0.18607l-0.44194,-0.50839c-0.04146,-0.48495 -0.00791,-0.36496 0.31772,-0.85987z" fill="#121b2e"/><path d="M25.30049,4.44109c1.36802,0.22548 0.49951,0.36693 1.01528,0.91289c0.37192,-0.1684 -0.0189,-0.45513 0.56089,-0.86258c0.43359,0.09312 0.27217,0.00127 0.59312,0.43326c0.62534,-0.38749 0.52866,-0.43282 1.12969,-0.35187l0.12202,0.17823l-0.4771,0.19755c0.03325,0.66283 0.29019,0.00973 0.57261,1.15078c-0.30059,0.13461 -0.37588,0.17301 -0.69712,0.1598c-0.39653,-0.01544 -0.79321,-0.02734 -1.18989,-0.03566l-0.16348,-0.7276c-0.07441,0.22533 -0.12686,0.44221 -0.1853,0.67144l-0.29238,0.13155c-0.39111,-0.22671 -0.2625,-0.09034 -0.45483,-0.56733l-0.16963,0.52039l-0.14619,0.03477c-0.27495,-0.64988 -0.22412,-1.14722 -0.21768,-1.84562z" fill="#1a5efa"/><path d="M14.61132,4.50838c0.95396,0.04633 0.59947,-0.06016 1.42359,0.4498l0.78516,-0.41464c0.47183,0.01458 0.53218,0.01881 0.89971,0.30984c0.30337,0.90565 -0.22324,1.25383 -0.90806,1.62289c-1.18711,-1.06218 -0.42715,-0.75831 -0.83892,-1.18175l-0.18809,0.14642c0.12686,0.34165 0.16318,0.44163 0.2269,0.7983l-0.17944,0.08602l-0.58799,-0.35331c-0.19951,0.13003 -0.26353,0.15596 -0.47476,0.25053c-0.22658,-0.30972 -0.15754,-1.26658 -0.15812,-1.71411z" fill="#121b2e"/><path d="M253.38135,3.76731c0.5127,0.48962 0.07178,0.75806 0.3501,1.09557c0.375,0.45698 0.79248,0.15573 1.13672,0.72489c-0.13916,0.44154 -0.54199,0.68995 -0.90967,0.98103c-2.07861,-0.01264 -2.42578,-1.80764 -0.57715,-2.8015z" fill="#8897ad"/><path d="M253.06348,4.22502l0.0835,0.17446c0.49805,1.05071 0.55811,0.61218 1.18359,1.35544l-0.19922,0.45439c-0.86865,-0.00362 -1.31982,-0.05494 -1.61133,-0.91368c0.06006,-0.54201 0.20508,-0.66283 0.54346,-1.07061z" fill="#f2f6f7"/><path d="M82.24878,63.41197c0.47725,0.35587 0.58213,0.0775 1.06216,0.28101l-0.19717,0.22284l0.31216,0.41843l-0.09082,0.19515c-0.44238,0.16907 -0.61948,0.12981 -1.07842,0.0945c-0.23145,-0.34708 -0.25591,-0.46488 -0.39434,-0.86514l-0.22515,-0.01817l-0.16025,0.16116l0.37588,0.32247l-0.0334,0.25522l-0.3022,0.16863c-0.48091,-0.12234 0.06431,-0.11325 -0.27554,-0.52612l-0.08452,0.15457c-0.79277,0.68244 -0.80947,-0.04893 -1.80674,0.32306c-0.18018,0.23061 -0.21255,0.29009 -0.46099,0.46429c-0.15161,-0.40964 -0.11279,-0.52026 -0.046,-0.95818c0.81343,-0.91247 1.53618,-0.08512 3.29824,-0.65812z" fill="#b1bcce"/><path d="M84.04658,28.88068c0.93354,-0.0693 1.62246,-0.12571 1.92905,0.91188c-0.06372,0.57373 -0.19893,0.67365 -0.57949,1.10498c-1.58438,0.09787 -2.54062,-0.53198 -1.34956,-2.01686z" fill="#121b2e"/><path d="M69.54595,89.73766c1.48052,0.25405 1.46763,1.12989 2.00698,1.37676l0.20991,-0.6968l0.18633,-0.03648l0.18926,0.33712c0.00586,0.88844 -0.27979,0.83965 -0.98862,1.0159c-0.16289,-0.2161 -0.28345,-0.52128 -0.39741,-0.77445c-0.12466,0.49213 -0.07119,0.65593 -0.39844,0.93122c-0.63794,-0.4388 -1.10039,-0.49535 -1.41152,-1.06484c0.06812,-0.53843 0.25444,-0.68831 0.60352,-1.08842z" fill="#121b2e"/><path d="M152.92236,90.02643c0.45703,0.48759 0.93457,0.57432 1.55859,0.44964l0.06592,-0.01377c0.02344,0.67321 -0.25049,1.4843 -0.94775,1.68692l-0.21387,-0.13933c0.17578,-0.16131 0.30908,-0.24306 0.35742,-0.47191c-0.19336,-0.46649 -0.15674,-0.59322 -0.51562,-0.86119c-0.21387,0.24833 -0.13037,0.37199 -0.11719,0.78134c-0.18018,0.11955 -0.08643,0.06959 -0.36914,0.05333c-0.12158,-0.34782 -0.12598,-0.36217 -0.36475,-0.63717l-0.21387,0.11193l-0.12598,0.50092c-0.12891,-0.29742 -0.2168,-0.54355 -0.41309,-0.80478l-0.24902,0.09274c-0.10693,0.41726 -0.14209,0.5103 -0.34277,0.89122l-0.20947,-0.07311c-0.12451,-0.19281 -0.14648,-0.4618 -0.19043,-0.69548c0.46289,-1.00374 1.38428,-0.14666 2.29102,-0.8713z" fill="#121b2e"/><path d="M69.40415,3.63332c0.55342,-0.01824 0.65156,0.00621 1.15693,0.23411l0.12451,0.05711l0.33486,-0.31378l0.31831,0.01317c0.53247,0.94405 0.36431,0.19824 1.08721,0.13078c0.21929,0.39956 0.12729,0.84774 0.09741,1.3265c-1.01279,-0.59754 -1.61763,0.015 -2.90889,-0.23804c-0.33691,-0.42151 -0.21182,-0.52474 -0.21035,-1.20985z" fill="#121b2e"/><path d="M147.09521,93.55249c1.05176,0.28687 2.29834,0.13699 3.39258,0.15911c0.14795,0.12805 0.27393,0.23837 0.38086,0.33082l-0.14355,0.27544l-0.44824,-0.04908c-0.10693,0.17962 -0.09961,0.22035 -0.28418,0.30079l-0.17432,-0.53857l0.01172,0.3654c-0.18604,0.15794 -0.15967,0.1238 -0.38818,0.2287l-0.11426,-0.36159l-0.22412,-0.07765l-0.25928,0.16541c0.13477,0.14065 0.1333,0.14358 0.22559,0.31646c-0.49219,-0.05143 -0.31055,0.03033 -0.67969,-0.31734l-0.21973,0.33419l-0.2959,-0.33067c-0.41602,0.03721 -0.66943,0.24233 -1.2627,0.29595c-0.3958,-0.39279 -0.28096,-0.19295 -0.38467,-0.81269l0.1251,-0.13406l0.20391,0.30958c0.25635,-0.10065 0.33545,-0.24409 0.53906,-0.46019z" fill="#e0e9f1"/><path d="M107.34536,28.8568c0.69229,-0.03384 1.85376,0.00249 1.59565,1.0348c-0.36841,0.22475 -0.44048,0.24291 -0.86704,0.33478l-0.10796,0.02212c0.84434,-0.04732 -0.02622,0.10519 0.84521,0.18607l-0.11865,0.28423c-0.87759,0.65226 -2.7479,-0.11677 -1.34722,-1.862z" fill="#121b2e"/><path d="M74.39971,28.91453c0.91436,-0.09772 1.34004,-0.21742 1.91631,0.653c0.2061,0.31148 0.24595,0.48466 0.17329,0.84815c-0.18647,0.31104 -0.1957,0.3169 -0.54126,0.45726c-0.41367,-0.07267 -0.63735,-0.10607 -1.06113,-0.04l-0.38232,-0.01787c-0.32593,-0.40115 -0.25898,-0.212 -0.27012,-0.7072c0.31655,-0.50458 0.48442,-0.35617 1.13159,-0.71468c-0.50054,-0.11794 -0.36548,0.01861 -0.87905,-0.1071z" fill="#121b2e"/><path d="M99.82427,28.83834c0.74619,-0.01494 0.94116,-0.0397 1.46235,0.41287c0.10928,0.52817 0.14092,0.35206 -0.01143,0.78529l-0.81577,0.1953l0.91479,0.16482c-0.69067,1.29618 -3.16406,0.20467 -1.54995,-1.55828z" fill="#121b2e"/><path d="M88.15767,31.00186c-0.76201,-0.2164 -1.69702,0.03516 -2.17148,-0.6108c0.08643,-0.4303 0.06577,-0.30005 0.44136,-0.66677c0.34863,-0.08102 0.57979,-0.09186 0.82295,-0.34591l-0.82646,-0.03472l-0.13521,-0.18387c0.34629,-0.61373 1.38311,-0.27207 1.898,-0.01406z" fill="#121b2e"/><path d="M110.70571,33.5967c0.50464,0.09787 0.78809,0.17654 1.30737,0.14299l0.08628,-0.0063c0.37588,0.23222 0.44868,0.63043 0.6104,1.07202l0.14634,-0.0359c0.15586,-0.42722 0.22793,-0.636 0.46084,-1.04125l0.26602,-0.00147c0.1894,0.36247 0.20347,1.32211 -0.0293,1.67256c0.01816,0.01597 0.03633,0.03194 0.05464,0.04791l-0.4043,-0.69314l-0.34717,0.6341l-0.20054,0.01201l-0.43696,-0.48304c-0.02256,0.21156 -0.08086,0.32877 -0.15688,0.52377l-0.21138,-0.08952c-0.04409,-0.57168 0.01333,-1.15201 -0.49746,-1.45397c-0.50083,0.10153 -0.73374,0.32701 -0.84902,0.79438c0.28916,0.53403 0.73374,0.39807 0.93442,0.7305c-0.71865,0.25478 -1.06245,-0.19501 -1.25801,-0.80932c0.05464,-0.50487 0.20874,-0.63468 0.52471,-1.01634z" fill="#b1bcce"/><path d="M96.83408,28.82794l0.52295,0.01128c0.5874,0.42517 0.27773,0.49447 0.71367,1.15245l0.27861,-0.97869c0.35391,-0.26035 0.19805,-0.22504 0.58403,-0.19002l0.20391,0.25478l-0.12158,0.40686c-0.20728,0.73739 -0.29927,1.4881 -1.19883,1.39844c-0.70239,-0.49506 -0.78105,-1.23288 -0.98276,-2.0551z" fill="#121b2e"/><path d="M11.09556,4.42698l0.72727,0.17761c0.05465,0.34683 0.03609,0.52911 0.27847,0.74846c0.34693,-0.12313 -0.005,-0.5047 0.57656,-0.8141c0.91223,0.26684 0.70916,1.47276 0.07291,1.87362l-0.0375,-0.32207l-0.1571,-0.11689l0.03205,-0.37999c-0.12231,0.41329 -0.11227,0.48038 -0.43113,0.73567c-0.47177,-0.10673 -0.16812,-0.20491 -0.55453,-0.48321l-0.21312,0.46754l-0.17206,-0.02417c-0.20684,-0.40947 -0.12962,-1.35091 -0.1218,-1.86248z" fill="#121b2e"/><path d="M101.79814,33.96107l0.29355,0.20629c-0.05522,0.4555 -0.11045,0.75394 -0.20581,1.19728l-0.12437,0.06461c-0.04731,-0.26577 -0.06182,-0.64787 -0.22339,-0.79452c-0.14019,0.27339 -0.25708,0.53125 -0.3835,0.81108l-0.19468,-0.02124l-0.2458,-0.33595l0.1062,-0.25127c-0.0312,0.35031 -0.36782,0.57505 -0.69126,0.61578l-0.27114,-0.33111l-0.09814,0.20951l-0.38394,0.10402l-0.19424,-0.12395l-0.20039,-0.94089l0.45762,0.35778c0.18823,-0.20585 0.23848,-0.33507 0.36299,-0.57828l0.20142,0.08747l0.18486,0.53491l0.1834,0.03179c0.08335,-0.38474 0.01113,-0.29976 0.24536,-0.56348c0.54141,0.00234 0.72378,0.03824 1.18125,-0.27983z" fill="#b1bcce"/><path d="M51.21401,157.57322l0.4686,0.27544c0.13081,0.56113 -0.30059,0.41609 -0.30454,0.59483c-0.00747,0.34283 -0.04717,0.72669 -0.12129,1.09736c-0.34292,0.26079 -0.98101,0.17581 -1.45767,0.16995c-0.09961,-0.62706 -0.22251,-1.01678 0.13213,-1.52078c0.65493,-0.24028 0.82646,0.10402 1.23105,-0.15677z" fill="#e0e9f1"/><path d="M88.52739,28.90295c0.56572,-0.04146 0.8231,-0.02051 1.38896,0.02725c0.09668,0.14182 0.1459,0.18197 0.19702,0.33888c-1.28452,0.74163 -0.40752,1.07788 -1.0355,1.63388l-0.47607,0.0104l-0.44414,0.08849l0.02915,-1.85614z" fill="#121b2e"/><path d="M88.18682,29.14572l0.34058,-0.24277c-0.03867,0.63966 -0.12891,1.41104 0.07441,2.01041l-0.44414,0.08849z" fill="#e0e9f1"/><path d="M147.32373,73.6189l0.22412,-0.09992c0.10986,0.24306 0.0293,0.53022 -0.00293,0.83496c-0.45703,-0.06271 -0.58301,-0.16277 -0.98145,-0.37946l-0.12275,0.42664l-0.21196,0.02256l-0.08804,-0.3421c-0.43594,0.38093 -0.8439,0.37389 -1.3771,0.30313l-0.07617,-0.41448l-0.16626,0.21097c-0.17271,0.18299 -0.10005,0.12014 -0.346,0.22123l-0.05742,-0.43147l-0.17271,-0.07106c-0.07676,0.35045 -0.01611,0.37096 -0.23086,0.54531l-0.26104,-0.18724l-0.01245,-0.26914c0.4916,-0.62575 3.21504,-0.41814 3.65742,-0.19061z" fill="#b1bcce"/><path d="M154.24365,93.62648l0.08643,-0.01905l0.18896,0.13435c0.01172,0 0.18896,-0.00513 0.20654,0.00117c1.03418,0.37345 1.2041,-0.65182 2.04639,0.10446c0.14209,0.52172 0.18457,0.36833 0.00293,0.76508l-0.20068,0.00483l-0.24902,-0.66193l-0.23437,-0.09201c-0.34424,0.19413 -0.24316,0.05714 -0.36475,0.378l0.35596,0.26357l-0.07031,0.10446c-0.28564,-0.08615 -0.39404,-0.14373 -0.63281,-0.32042l-0.30176,0.1156l0.24316,0.03018c-0.18018,0.11765 -0.19922,0.16336 -0.39111,0.1909l-0.44824,-0.46546l0.01611,0.40671l-0.16846,0.08527l-0.27832,-0.29478c-0.19336,0.11911 -0.38965,0.23295 -0.5874,0.34152l-0.28711,-0.14299c-0.17725,-0.48978 -0.18018,-0.30416 -0.07178,-0.74486l0.36035,-0.17874l0.47607,0.21918z" fill="#b1bcce"/><path d="M76.78857,28.87819c0.5543,-0.03839 0.69946,-0.05523 1.25625,0.0397l0.12935,0.23969c-0.20918,0.25874 -0.18311,0.17772 -0.61597,0.25581l0.6479,0.50575c0.17241,0.43924 0.08628,0.38151 -0.12056,0.91862c-0.44795,0.0838 -1.06816,0.17669 -1.45269,-0.08703l-0.00542,-0.26504c0.26045,-0.03868 0.54053,-0.04835 0.75059,-0.19061l-0.68188,-0.49374c-0.13125,-0.4788 -0.07397,-0.38049 0.09243,-0.92316z" fill="#121b2e"/><path d="M69.09023,93.25347c0.48501,0.03868 0.43813,-0.03751 0.78428,0.19969l-0.70664,0.60465l0.02109,0.22621c1.12031,0.30093 0.49746,-0.4092 1.40859,-0.70105c0.16787,0.14973 0.33867,0.29624 0.5124,0.43924c0.09771,-0.33404 0.0104,-0.21727 0.35815,-0.41184c0.4478,0.0208 0.55723,-0.01289 0.90103,0.23647l0.01802,0.45609l-0.15103,0.12922l-0.18179,-0.44041l-0.18999,0.58458l-0.19307,0.04l-0.0832,-0.5018l-0.15615,-0.0882l-0.11074,0.54722c-0.87363,0.07003 -1.55947,0.22431 -2.26582,-0.23163c-0.18442,-0.42913 -0.08232,-0.6445 0.03486,-1.08842z" fill="#e0e9f1"/><path d="M97.23999,4.4496c1.89272,1.62544 0.82148,0.48496 1.99761,0.49641c0.31465,0.41303 0.21943,0.35937 0.2647,0.95829c-0.62974,0.18523 -0.67046,0.0892 -1.13027,-0.29422c-0.34409,0.26277 -0.53804,0.46743 -0.97588,0.47619c-0.24492,-0.35999 -0.15454,-1.12319 -0.15615,-1.63667z" fill="#b1bcce"/><path d="M85.4877,93.49638l0.16948,0.00923l0.10415,0.29361l0.08042,-0.04527c0.47827,-0.00586 0.2918,-0.05436 0.70752,0.18548c-0.08467,0.61402 -0.44165,0.61124 -0.91963,0.68831c-0.3876,0.04498 -0.63618,0.0545 -1.02671,0.05714c-0.28125,-0.23867 -0.29268,-0.2454 -0.40195,-0.58839l0.17754,-0.212c0.62153,-0.19369 0.39067,-0.20599 0.93706,-0.05406z" fill="#e0e9f1"/><path d="M13.41042,80.37947c0.24535,-0.17215 0.56531,-0.19574 0.83328,-0.06153c0.26795,0.1342 0.44077,0.40466 0.44985,0.70427c0.00923,0.29961 -0.14669,0.58003 -0.40594,0.73035c-0.37772,0.21903 -0.86096,0.10168 -1.09607,-0.26636c-0.23511,-0.36803 -0.1386,-0.85591 0.21888,-1.10674z" fill="#8897ad"/><path d="M184.06787,51.16547c0.51123,0.13962 0.4292,0.27749 0.85107,0.54648c0.25049,-0.30079 0.26367,-0.35514 0.62256,-0.44949l0.15527,0.21083c0.04834,0.51249 0.06152,0.6152 -0.03955,1.1378c-0.50244,-0.22401 -0.77344,0.05992 -1.52637,-0.06505c-0.25049,-0.53564 -0.12305,-0.69841 -0.06299,-1.38057z" fill="#b1bcce"/><path d="M244.021,63.26341c0.16846,0.33404 0.13916,0.80244 0.00293,1.14131c-0.2915,0.09772 -1.53809,0.21508 -2.00537,0.29536c-0.02051,-0.25595 -0.01465,-0.51674 -0.01611,-0.77445c0.61084,-0.70867 0.56104,0.47469 2.01855,-0.66223z" fill="#b1bcce"/><path d="M280.8999,100.81296l0.28564,-0.07047l0.30469,0.32349c0.22998,-0.17684 0.38232,-0.27544 0.62988,-0.42796c0.30322,0.11457 0.20215,0.06417 0.3999,0.42664c0.0249,0.45858 0.04102,0.53623 -0.22266,0.90455l-0.25781,0.04249l-0.22266,-0.25815c-0.17578,-0.24262 -0.15967,-0.22826 -0.43506,-0.34606c-0.11865,0.32364 -0.1084,0.31544 -0.32666,0.57886l-0.37939,0.00601l-0.12305,-0.21083l0.26367,-0.48495c-0.01611,-0.26152 -0.03516,-0.25493 0.0835,-0.48363z" fill="#b1bcce"/><path d="M82.66479,118.13164c0.48413,0.03912 0.91304,0.00161 1.26724,0.33082c0.22515,0.42444 0.10913,0.68933 0.00103,1.15216c-0.42319,0.06593 -0.6605,0.1364 -1.07388,-0.00308c-0.30425,-0.50033 -0.19336,-0.81328 -0.19438,-1.4799z" fill="#4b596c"/><path d="M72.05581,63.06254c0.38379,0.69973 0.60923,0.17889 0.91641,1.33061c-0.20845,0.1597 -1.74111,0.24203 -2.13574,0.27661c0.00337,-0.4848 -0.08086,-0.74676 0.14502,-1.09927c0.1875,0.13948 0.18838,0.46107 0.24507,0.75043l0.15952,0.07633c0.07676,-0.34474 0.10166,-0.44612 0.23657,-0.77064l0.19863,0.0693l0.15308,-0.17772l-0.05215,0.37785c-0.00381,0.00542 0.12979,-0.70296 0.13359,-0.8335z" fill="#b1bcce"/><path d="M9.15756,159.47785c0.45398,0.02344 0.82967,-0.00293 1.19791,0.26811c0.26764,0.55674 0.1753,0.4659 0.13119,1.16036c-0.45577,0.0923 -0.72584,0.20365 -1.14486,0.02784c-0.28811,-0.38532 -0.19455,-0.93474 -0.18423,-1.45631z" fill="#4b596c"/><path d="M12.13692,44.91198c0.34973,0.31851 0.27482,0.46883 0.38413,1.02337c0.13866,-0.0589 0.27869,-0.11457 0.41996,-0.16702c0.51958,-0.18958 0.46501,-0.24086 0.85909,-0.04893c0.10912,0.43894 -0.03804,0.6779 -0.20739,1.09121c-0.13504,-0.00806 -1.11182,-0.28775 -1.34988,-0.35631c-0.27812,-0.52612 -0.14629,-0.87979 -0.10589,-1.54231z" fill="#8897ad"/><path d="M105.72905,28.73901c0.58374,0.09596 0.44458,-0.00513 0.81401,0.31046c0.2521,0.53784 0.10254,1.28138 0.03882,1.89467c-0.34219,-0.0082 -0.36577,-0.017 -0.69302,-0.12717c-0.29941,-0.48685 -0.17329,-1.44899 -0.15981,-2.07795z" fill="#121b2e"/><path d="M249.92432,130.32803c0.30176,0.02696 0.53027,0.06622 0.8291,0.11867c0.44238,0.64538 0.38232,0.80273 0.12451,1.47492c-0.41455,0.30738 -0.21387,0.23984 -0.77197,0.22211c0.24023,-0.16336 0.22559,-0.14959 0.38232,-0.39455c-0.24609,-0.14358 -0.49072,-0.29097 -0.73242,-0.44217c-0.09229,-0.43279 0.00439,-0.56524 0.16846,-0.97898z" fill="#4b596c"/><path d="M97.13833,34.07696l0.65332,0.13581c0.51328,0.51689 0.44502,1.20651 -0.0397,1.71988c-0.55107,0.14417 -0.32036,0.13362 -0.9457,-0.06945c0.38101,0.0022 0.39741,0.00733 0.72979,-0.16204c-0.27202,-0.22826 -0.44004,-0.42796 -0.67207,-0.68845c-0.05625,-0.44891 0.03398,-0.54106 0.27437,-0.93576z" fill="#b1bcce"/><path d="M90.28477,118.17442c0.35142,-0.01245 0.57964,0.01743 0.92593,0.05392c0.33618,0.33741 0.29429,0.78515 0.41104,1.36943c-0.46377,0.08146 -0.70269,0.17024 -1.14448,0.01685c-0.30322,-0.52524 -0.18896,-0.73958 -0.19248,-1.4402z" fill="#4b596c"/><path d="M3.66151,159.49543l0.82591,0.05567c0.44511,0.34137 0.39606,0.69885 0.51428,1.34057c-0.47221,0.11281 -0.73521,0.23588 -1.16832,0.04688c-0.27227,-0.39558 -0.18318,-0.92741 -0.17187,-1.44313z" fill="#4b596c"/><path d="M254.62793,129.96395l0.07471,-0.03106l0.1333,0.08996l0.01758,0.13083c0.07471,0.56846 0.1333,0.98865 -0.22852,1.46349l-0.62256,0.00469c-0.25195,-0.05128 -0.31348,-0.16028 -0.48926,-0.35119l0.0249,-0.33917c0.4834,-0.65842 0.74414,-0.4407 1.08984,-0.96755z" fill="#4b596c"/><path d="M74.27168,89.57269l0.2436,0.12761c0.67734,1.25413 0.6832,0.0734 0.87041,1.87401c-0.6208,-0.24057 -0.73857,0.00249 -1.24189,-0.3821c-0.14502,-0.4763 0.03179,-1.11055 0.12788,-1.61952z" fill="#121b2e"/><path d="M248.27783,130.36509c0.29004,0.02608 0.58008,0.05567 0.87012,0.08879c0.46143,0.35646 0.37646,0.18856 0.47021,0.63512c-0.19629,0.39836 -0.35303,0.45535 -0.73389,0.67688l-0.09961,-0.0293c-0.11133,0.22035 -0.19189,0.30987 -0.34131,0.49843c-0.22266,-0.38151 -0.15674,-1.34775 -0.16553,-1.86991z" fill="#4b596c"/><path d="M187.65967,51.25939c0.45996,0.02256 0.81885,-0.00703 1.18213,0.28086c0.2168,0.41917 0.11865,0.64128 0.03076,1.11626c-0.44385,0.04791 -0.646,0.1008 -1.0708,-0.06783c-0.25488,-0.37228 -0.1626,-0.84624 -0.14209,-1.32929z" fill="#b1bcce"/><path d="M71.69897,51.33191c0.24653,-0.0923 0.52397,-0.04205 0.72246,0.13098c0.19849,0.17288 0.28623,0.44085 0.22852,0.69783c-0.05757,0.25683 -0.25137,0.46151 -0.50479,0.53315c-0.37002,0.10446 -0.75659,-0.10153 -0.87627,-0.46693c-0.11982,-0.3654 0.07002,-0.76024 0.43008,-0.89503z" fill="#b1bcce"/><path d="M82.23149,51.34378c0.24229,-0.09933 0.51958,-0.05802 0.72231,0.10769c0.20288,0.1657 0.29868,0.42913 0.24976,0.6864c-0.04893,0.25727 -0.23481,0.46722 -0.48442,0.54678c-0.36489,0.11648 -0.75674,-0.07604 -0.88784,-0.43616c-0.13096,-0.35998 0.0457,-0.75936 0.4002,-0.9047z" fill="#b1bcce"/><path d="M92.55293,4.50563c0.45615,0.01357 0.61597,-0.00576 1.0314,0.21612c0.27144,0.48351 0.17651,0.4926 0.1771,1.12576c-0.41733,0.11832 -0.59297,0.20053 -1.02319,0.08862c-0.29766,-0.53517 -0.18472,-0.72772 -0.1853,-1.4305z" fill="#b1bcce"/><path d="M87.94746,143.20598c0.37046,0.01802 0.7752,-0.01714 1.05059,0.19134l-0.6394,0.32525l0.05874,0.13171l0.56997,0.07736l0.27422,0.46458c-0.29546,0.30943 -0.37588,0.31382 -0.79907,0.40671c-0.46787,-0.11369 -0.30015,-0.01231 -0.62285,-0.40232c-0.17153,-0.53945 -0.08379,-0.68069 0.10781,-1.19464z" fill="#4b596c"/><path d="M13.92466,63.23557c0.3123,0.01319 0.5577,0.04307 0.86807,0.08175c0.39917,0.41711 0.43638,0.74105 0.26279,1.27874c-0.34146,0.35558 -0.17021,0.26665 -0.63952,0.34928l-0.28037,-0.14944c0.33281,-0.03516 0.35449,-0.02666 0.59558,-0.2394l-0.66283,-0.24702c-0.24318,-0.43587 -0.15305,-0.5166 -0.14372,-1.07392z" fill="#8897ad"/><path d="M119.3603,33.8758l0.15747,0.00396c0.18398,1.16901 0.19556,1.45455 -0.90688,1.72867c-0.23467,-0.40569 -0.26338,-0.45946 -0.28682,-0.92551c0.30557,-0.48597 0.6145,-0.3528 1.03623,-0.80712z" fill="#b1bcce"/><path d="M257.20459,129.78799c0.646,0.04747 1.16162,0.06373 1.229,0.79716c-0.18164,0.40071 -0.41748,0.46034 -0.81152,0.64303c-0.03516,0.14812 -0.11279,0.27251 -0.18311,0.41125l-0.13037,-0.08351c-0.15381,-0.57344 -0.11279,-1.17237 -0.104,-1.76794z" fill="#4b596c"/><path d="M88.87251,130.58061c0.10078,0.02242 0.19072,-0.00088 0.2918,-0.017l0.20039,0.27588l0.22251,-0.0778l0.03296,0.10769l-0.58975,0.37858c-0.12437,0.33976 -0.13521,0.18402 -0.02666,0.48158c0.39668,-0.28408 -0.21431,-0.20717 0.71763,-0.56494c0.06812,0.35617 0.07544,0.41067 0.0249,0.76889c-0.398,0.35968 -0.20127,0.27764 -0.73945,0.30621c-0.46597,-0.30474 -0.31567,-0.13479 -0.55503,-0.6593c-0.00806,-0.48202 0.1415,-0.61988 0.4207,-0.99979z" fill="#4b596c"/><path d="M273.54199,7.11146c0.22559,-0.11942 0.49951,-0.10543 0.71338,0.03645c0.2124,0.1419 0.33105,0.38901 0.30908,0.64416c-0.02197,0.25515 -0.18311,0.47754 -0.41748,0.57971c-0.3457,0.15004 -0.74707,0.00041 -0.90967,-0.33869c-0.1626,-0.33911 -0.02783,-0.74626 0.30469,-0.92164z" fill="#37ba8a"/><path d="M147.25928,103.95677c0.2373,-0.10695 0.51563,-0.07135 0.71924,0.09215c0.20361,0.16351 0.29883,0.42737 0.24609,0.68318c-0.05273,0.25581 -0.24463,0.46048 -0.49658,0.52993c-0.3501,0.0967 -0.71631,-0.09303 -0.83936,-0.43514c-0.12305,-0.3421 0.03809,-0.72142 0.37061,-0.87012z" fill="#37ba8a"/><path d="M14.06972,45.49802l0.74219,0.08263c0.4188,0.38107 0.45366,0.79863 0.29795,1.31889c-0.3542,0.40744 -0.16641,0.3106 -0.70096,0.36335l-0.24617,-0.15603l0.56714,-0.11486c-0.10131,-0.32232 -0.33177,-0.32818 -0.6871,-0.62721z" fill="#8897ad"/><path d="M147.25488,113.32815c0.23584,-0.10871 0.5127,-0.07589 0.71631,0.08498c0.20508,0.16087 0.30176,0.42268 0.25049,0.67761c-0.0498,0.25507 -0.23877,0.46034 -0.48926,0.53139c-0.34717,0.09889 -0.71191,-0.08659 -0.83789,-0.42547c-0.12451,-0.33902 0.03223,-0.71746 0.36035,-0.86851z" fill="#f3972b"/><path d="M155.63672,89.73576l0.58887,0.11926l0.10986,0.32686l-0.15674,-0.06842c0.375,0.76508 0.47607,0.8773 0.1084,1.61733c-0.37793,-0.10695 -0.74121,-0.12322 -0.90674,-0.38327l0.57129,-0.27896c-0.71777,-0.62018 -0.66797,-0.50487 -0.31494,-1.3328z" fill="#121b2e"/><path d="M83.17031,73.89712l0.23071,0.17523c0.0479,0.35954 0.05757,0.36877 0.28198,0.66369l0.05142,-0.01289l0.00425,-0.31236l0.22617,-0.12688c0.39258,0.0274 0.84155,0.03091 1.20557,0.15706l0.13125,0.41404c-0.42612,0.3024 -0.24814,0.25595 -0.70063,0.27412l0.12451,-0.29844l-0.13608,-0.15735c-0.24404,0.13523 -0.28169,0.25551 -0.38789,0.49579c-0.41133,0.03223 -0.248,0.07443 -0.6,-0.13992l-0.24814,0.11311l-0.15278,-0.11618z" fill="#b1bcce"/><path d="M147.26367,122.70158c0.31934,-0.14417 0.6958,-0.02476 0.87305,0.27734c0.17871,0.30196 0.09961,0.68918 -0.18164,0.89811c-0.21094,0.15662 -0.49219,0.17904 -0.7251,0.05787c-0.23291,-0.12116 -0.37646,-0.36481 -0.36914,-0.62736c0.00732,-0.2624 0.16406,-0.4977 0.40283,-0.60597z" fill="#306ffd"/><path d="M22.45166,4.4691c0.32739,0.03677 0.34072,0.04445 0.65259,0.15827l0.03838,0.33486l-0.15176,-0.07182c0.32988,0.81967 0.47944,0.74171 0.27012,1.46075c-0.36021,-0.00577 -0.40811,-0.00834 -0.75483,-0.0986l-0.13887,-0.35076l0.21475,0.16474c-0.36577,-0.5757 -0.36738,-1.00777 -0.13037,-1.59744z" fill="#121b2e"/><path d="M244.86182,51.20913c0.37793,0.05421 0.4585,0.07047 0.81006,0.21537l-0.06152,0.18929l-0.4585,0.16336l0.5918,0.20907l0.17725,0.58018c-0.62402,0.235 -1.0459,0.2309 -1.40186,-0.32818c-0.03369,-0.52509 0.0542,-0.613 0.34277,-1.02909z" fill="#b1bcce"/><path d="M246.71631,129.771c0.43799,0.66193 -0.20801,1.14044 0.61377,1.55609c0.36768,-0.49447 -0.00293,-0.93576 0.41602,-1.42979l0.28271,0.23735c-0.04248,0.81562 -0.02051,1.37881 -0.96826,1.49103c-0.77783,-0.52084 -0.68262,-1.03539 -0.34424,-1.85467z" fill="#4b596c"/><path d="M94.03535,118.11713c0.70137,0.2016 0.97617,0.74046 0.84272,1.46994l-0.196,-0.07619c-0.36328,0.07648 -0.60293,0.17318 -0.94058,0.04381c-0.14326,-0.41697 0.13169,-0.94309 0.29385,-1.43756z" fill="#4b596c"/><path d="M84.22734,51.1684c0.27788,0.08498 0.39067,0.08835 0.56543,0.31998l-0.44531,0.26386l0.07939,0.14138c0.24697,0.03194 0.28989,0.01846 0.5064,0.149l0.12891,0.61227c-0.70342,0.04981 -1.10171,0.17142 -1.43379,-0.5437c0.15864,-0.61241 0.12407,-0.44407 0.59897,-0.94279z" fill="#b1bcce"/><path d="M150.6123,113.20714c0.54053,0.62355 0.00879,0.63849 0.41016,1.32123c0.41162,-0.08322 0.69873,-0.45697 0.89063,-0.81269l0.47461,-0.08879c0.11572,0.321 0.10547,0.39206 0.12158,0.73812c-0.55371,0.69343 -1.09863,0.65637 -1.78564,0.16409c-0.27246,-0.57285 -0.15967,-0.59835 -0.11133,-1.32196z" fill="#4b596c"/><path d="M106.11387,34.19812c0.34248,-0.11003 0.71045,0.07106 0.83203,0.40964c0.12173,0.33859 -0.04687,0.71263 -0.38101,0.84566c-0.22646,0.0901 -0.48413,0.04967 -0.67192,-0.10578c-0.18779,-0.1553 -0.27598,-0.40085 -0.22998,-0.64025c0.046,-0.2394 0.21885,-0.43455 0.45088,-0.50927z" fill="#b1bcce"/><path d="M117.329,34.19651c0.32563,-0.09684 0.67178,0.06769 0.80229,0.38151c0.13037,0.31368 0.00293,0.67527 -0.29531,0.83804c-0.22295,0.12146 -0.49556,0.10519 -0.70254,-0.0419c-0.20698,-0.14724 -0.31187,-0.39953 -0.27026,-0.65007c0.0416,-0.25039 0.22251,-0.45535 0.46582,-0.52758z" fill="#b1bcce"/><path d="M198.16699,113.32039c0.46436,0.01758 0.61816,-0.00044 1.03564,0.23632c0.2373,0.37302 0.17139,0.54985 0.12744,0.99832c-0.41455,0.11472 -0.54492,0.17918 -0.95508,0.07369c-0.29004,-0.36496 -0.21094,-0.80859 -0.20801,-1.30834z" fill="#f3972b"/><path d="M87.1686,23.81436c0.18105,-0.15515 0.43154,-0.20087 0.65566,-0.1197c0.22427,0.08117 0.38745,0.27646 0.42744,0.51161c0.03999,0.235 -0.04951,0.47337 -0.23423,0.62413c-0.28096,0.22914 -0.6939,0.18958 -0.92637,-0.08864c-0.23247,-0.27822 -0.1979,-0.69167 0.07749,-0.92741z" fill="#e0e9f1"/><path d="M224.55469,100.71538c0.35449,-0.06725 0.69727,0.1679 0.76172,0.52348c0.06299,0.35573 -0.17432,0.69563 -0.53027,0.75716c-0.35156,0.06066 -0.68701,-0.17391 -0.75146,-0.52553c-0.06299,-0.35162 0.16846,-0.68874 0.52002,-0.75511z" fill="#b1bcce"/><path d="M127.32026,50.43366c0.52207,0.17772 0.89941,0.9762 0.74897,1.48459l-0.30513,-0.10446c-0.35845,-0.00147 -0.40635,0.17962 -0.80391,0.02901c-0.14326,-0.50707 0.11514,-0.81328 0.36006,-1.40914z" fill="#b1bcce"/><path d="M190.88818,51.15361c0.58154,0.26489 1.01074,0.85049 0.75879,1.48737l-0.31201,-0.13801c-0.31934,0.09391 -0.44385,0.16893 -0.74854,0.07912c-0.15381,-0.42151 0.12744,-0.92272 0.30176,-1.42847z" fill="#b1bcce"/><path d="M207.52002,113.47437c0.21094,-0.13142 0.47607,-0.13171 0.68701,-0.00059c0.20947,0.13113 0.3252,0.37052 0.30029,0.61666c-0.02637,0.24599 -0.19043,0.45565 -0.42334,0.53974c-0.31055,0.11237 -0.65625,-0.02769 -0.80127,-0.32481c-0.14502,-0.29698 -0.04248,-0.65549 0.2373,-0.83101z" fill="#f3972b"/><path d="M199.61719,104.10065c0.21094,-0.11897 0.46875,-0.11076 0.6709,0.02139c0.20215,0.13215 0.31348,0.36613 0.29004,0.60641c-0.0249,0.24028 -0.18164,0.44656 -0.40723,0.53491c-0.31494,0.1238 -0.67236,-0.01729 -0.81738,-0.3232c-0.14648,-0.30591 -0.03076,-0.67248 0.26367,-0.8395z" fill="#37ba8a"/><path d="M14.94302,54.07912l0.14604,0.05128c0.06006,0.58502 0.14019,0.89752 -0.11367,1.42584l-0.53399,0.1427c-0.37273,-0.16497 -0.41732,-0.38268 -0.44325,-0.72508c0.39009,-0.56992 0.55189,-0.29859 0.94487,-0.89474z" fill="#8897ad"/><path d="M75.14575,51.17265c0.56763,0.25522 0.97412,0.88683 0.71909,1.46979l-0.24771,-0.11398c-0.48662,0.00879 -0.31069,0.19603 -0.81694,-0.00557c-0.11177,-0.53125 0.10137,-0.74295 0.34556,-1.35024z" fill="#b1bcce"/><path d="M243.16553,51.16386c0.57275,0.25669 0.98145,0.89313 0.71484,1.47624l-0.23145,-0.13127c-0.50098,0.02373 -0.3252,0.2038 -0.8335,0.01817c-0.09668,-0.45023 0.16113,-0.86646 0.3501,-1.36313z" fill="#b1bcce"/><path d="M88.85186,23.80337c0.19043,-0.14475 0.44546,-0.17171 0.66196,-0.07003c0.2165,0.10182 0.35845,0.31544 0.3687,0.55439c0.01011,0.23896 -0.11338,0.46385 -0.32036,0.58355c-0.2937,0.16981 -0.6687,0.08205 -0.85664,-0.20043c-0.18779,-0.28247 -0.12378,-0.66223 0.14634,-0.86749z" fill="#b1bcce"/><path d="M72.86147,23.81553c0.27964,-0.22006 0.68496,-0.16995 0.90249,0.11179c0.21738,0.28174 0.16333,0.68669 -0.12041,0.90148c-0.27993,0.21185 -0.67822,0.15867 -0.89268,-0.11926c-0.2146,-0.27793 -0.16523,-0.67673 0.1106,-0.89401z" fill="#b1bcce"/><path d="M24.32446,4.44576c0.21826,0.04326 0.39521,0.11823 0.60264,0.19568c-0.15044,0.56362 -0.52603,0.44627 -0.59956,1.12376c0.39507,0.27591 0.24419,0.19057 0.84404,0.20733c-0.24023,0.37548 -0.52939,0.37263 -0.90601,0.33016c-0.75806,-0.71997 -0.52632,-1.17737 0.05889,-1.85693z" fill="#1a5efa"/><path d="M136.93037,50.47834l0.22881,0.21039c0.08408,0.40788 0.08379,0.55879 0.33369,0.88815c0.06782,-0.30284 0.1314,-0.60655 0.19087,-0.91115l0.19863,-0.04615l0.31699,0.26006c-0.14648,0.70618 -0.11851,0.74046 -0.60806,1.10015c-0.48516,-0.00601 -0.30234,0.06622 -0.67764,-0.29346c-0.19834,-0.48949 -0.10312,-0.70501 0.0167,-1.20798z" fill="#b1bcce"/><path d="M241.11182,51.22803c0.49219,0.02593 1.35791,0.12981 1.18359,0.81269l-0.37207,0.19999c-0.375,0.3339 -0.22266,0.28701 -0.66943,0.37697c-0.24316,-0.44715 -0.14502,-0.81665 -0.14209,-1.38965z" fill="#b1bcce"/><path d="M228.66797,100.54938l0.38379,0.16585l0.08643,0.28775l-0.1626,-0.06402c0.06006,0.17508 0.43506,0.40422 0.64014,0.84595c-0.375,0.17713 -0.4834,0.16819 -0.90088,0.19281c-0.4541,-0.19969 -0.31787,-0.06417 -0.51709,-0.49931c0.02637,-0.47367 0.16553,-0.58077 0.47021,-0.92902z" fill="#b1bcce"/><path d="M76.06362,23.5543c0.5001,0.06696 0.63193,0.06256 1.03594,0.39646c0.15703,0.47059 0.14502,0.26929 0.03076,0.76566c-0.49541,0.22768 -0.39126,0.26826 -0.86235,0.2016c-0.25884,-0.33609 -0.19541,-0.89957 -0.20435,-1.36372z" fill="#f2f6f7"/><path d="M25.17495,80.61711c0.14619,0.02579 0.34731,0.09333 0.49526,0.13684c-0.21592,0.28863 -0.34834,0.40891 -0.41543,0.75233c0.29971,0.18914 0.82793,0.21508 1.11533,0.01143l-0.29517,-0.57007l0.1459,-0.20013l0.40342,-0.00777l-0.17329,0.28115c0.22031,0.21039 0.32578,0.27207 0.40679,0.56758c-0.53218,0.52011 -1.30898,0.4262 -1.84248,-0.04527c-0.12158,-0.5078 -0.08364,-0.36115 0.15967,-0.92609z" fill="#b1bcce"/><path d="M99.14648,23.58697c0.38042,0.06432 0.51709,0.11398 0.87993,0.24877c0.26089,0.47 0.16714,0.4136 0.11104,1.04271c-0.39536,0.09538 -0.4251,0.11721 -0.81401,0.04c-0.26147,-0.42385 -0.16802,-0.762 -0.17695,-1.33148z" fill="#b1bcce"/><path d="M12.32673,36.84c0.29118,-0.1783 0.67181,-0.08483 0.84725,0.20819c0.17544,0.29287 0.07834,0.67263 -0.21617,0.84536c-0.29058,0.17039 -0.66417,0.07487 -0.83729,-0.2142c-0.17312,-0.28906 -0.08111,-0.66354 0.20621,-0.83936z" fill="#8897ad"/><path d="M102.39595,33.5948c0.15103,0.07208 0.72612,0.55483 0.89839,0.69197c0.15454,0.3232 0.40386,0.76976 0.08188,1.04755l0.05039,-0.38708l-0.3353,-0.361l-0.24814,0.0715l-0.31406,0.71131l-0.07515,-0.14417l0.14985,-0.1427l-0.03662,0.10182l-0.14092,-0.14431c-0.08013,-0.40334 -0.0394,-1.01707 -0.03032,-1.44488z" fill="#b1bcce"/><path d="M150.95947,122.54321c0.47314,0.23178 0.82324,1.00726 0.67969,1.49309l-0.18164,-0.27808c-0.32666,0.09494 -0.51123,0.15545 -0.84814,0.19779l-0.10547,-0.2227z" fill="#4b596c"/><path d="M248.18408,3.15716l0.22852,0.23251c0.11133,1.19031 0.04541,2.76638 0.02637,3.99312c-0.47754,-0.58017 -0.27246,-3.27739 -0.25488,-4.22563z" fill="#e0e9f1"/><path d="M18.95493,116.09969c0.24521,-0.2246 0.62578,-0.20878 0.85166,0.03531c0.22573,0.24409 0.21196,0.62472 -0.03076,0.85196c-0.24463,0.229 -0.62886,0.21508 -0.85649,-0.03091c-0.22764,-0.24599 -0.21167,-0.63014 0.0356,-0.85635z" fill="#8897ad"/><path d="M89.49712,143.23939c0.26982,-0.00938 0.46831,0.01568 0.73359,0.04176l0.13154,0.27573l-0.13184,-0.05816c0.21255,0.6067 0.35098,0.65182 0.29399,1.28988c-0.23877,-0.0044 -0.49307,-0.03179 -0.73228,-0.05201l-0.12466,-0.2668l0.13022,0.04425c-0.18794,-0.62252 -0.29927,-0.59849 -0.30059,-1.27464z" fill="#394456"/><path d="M155.59277,104.36935l0.17432,-0.00249c0.83203,-0.00894 0.97998,-0.09186 1.51611,0.43323l-0.05566,0.35866l-0.19336,0.07164l-0.21533,-0.41873l-0.14648,-0.06197l-0.09814,0.5163l-0.12305,0.0797c-0.09375,-0.21537 -0.17285,-0.46986 -0.34131,-0.62076c-0.06006,0.14783 -0.18018,0.48773 -0.271,0.59102c-0.24609,-0.33272 -0.18896,-0.48656 -0.24609,-0.9466z" fill="#4b596c"/><path d="M78.97617,143.23631l0.65435,0.01875l0.15952,0.21596c-0.14312,0.1597 0.24844,0.59498 0.1916,1.33764l-0.67529,-0.05626l-0.1522,-0.23002l0.08994,-0.02066c-0.17051,-0.61476 -0.26646,-0.59674 -0.26792,-1.26541z" fill="#4b596c"/><path d="M14.16122,156.06123c0.5612,0.12453 0.38919,0.01905 0.77067,0.35309c0.11309,0.43953 -0.02446,0.62706 -0.21606,1.02997l-0.66467,-0.13039l-0.1545,-0.23881c0.11266,-0.36188 0.18231,-0.64318 0.26457,-1.01385z" fill="#b1bcce"/><path d="M250.8252,63.09712c0.17725,0.13581 0.12012,0.05245 0.15527,0.2643c0.29883,0.12248 0.48193,-0.01319 0.85986,-0.12864l-0.05127,0.29024l-0.0542,-0.2454l-0.0498,0.02461l0.1084,0.20775l-0.31494,0.9595l-0.07178,0.0838c-0.09961,-0.25229 -0.11719,-0.43191 -0.15967,-0.69563l-0.22412,0.02623l-0.24902,0.62677l0.03809,-0.14519l-0.20215,-0.126c-0.08496,-0.57168 -0.06885,-0.63805 0.21533,-1.14234z" fill="#b1bcce"/><path d="M83.41509,33.81178l0.29165,0.36144c-0.05317,0.47865 -0.06226,0.96111 -0.02725,1.44137c-0.38965,-0.27031 -0.61143,-0.37917 -0.81943,-0.81606c0.07148,-0.59351 0.09419,-0.45594 0.55503,-0.98675z" fill="#e0e9f1"/><path d="M246.27979,29.34849c0.80273,-0.03194 0.8584,-0.11149 1.22754,0.62853c-0.08203,0.40832 0.00293,0.30972 -0.2666,0.50458l-0.33545,-0.34064c0.03516,-0.23808 0.06152,-0.12761 -0.03955,-0.33961c-0.1626,0.34503 -0.19189,0.39792 -0.45264,0.67541c-0.23145,-0.3525 -0.15527,-0.68757 -0.1333,-1.12828z" fill="#394456"/><path d="M158.24121,103.83751c0.16992,0.13787 0.29297,0.42415 0.40576,0.63366c0.40283,-0.04263 0.36621,-0.1323 0.70313,-0.48656c-0.3252,0.3906 0.10254,0.07956 0.10254,0.33536c-0.00146,0.24672 -0.00439,0.72845 -0.00586,0.96667c-0.63721,-0.08937 0.03076,-0.02256 -0.51709,-0.56802c-0.38232,0.0986 -0.37354,0.23002 -0.65625,0.60831l-0.0835,-0.23764l0.15234,0.12644l-0.1582,-0.1657l0.21533,0.0586l-0.22266,-0.20922c-0.01172,-0.22621 0.04688,-0.80756 0.06445,-1.06191z" fill="#394456"/><path d="M79.22856,93.69564c0.33867,-0.01245 0.57539,-0.0189 0.91318,0.00059c0.05728,0.29566 0.12114,0.59 0.1916,0.88272c-0.40854,0.12307 -0.4686,0.17523 -0.84653,0.03912c-0.31128,-0.46444 -0.22236,-0.3169 -0.25825,-0.92243z" fill="#e0e9f1"/><path d="M114.18589,33.65032c0.40049,0.04864 0.61392,0.00586 0.89326,0.22768c-0.34072,0.09435 -0.41777,0.08908 -0.66035,0.32701c0.17754,0.34445 0.19834,0.27134 0.59458,0.50839c0.20596,0.38957 0.12188,0.35324 0.01362,0.86368l-0.90703,-0.16966l-0.02344,-0.15208c0.41484,-0.0167 0.3936,0.04981 0.68262,-0.14592c-0.10664,-0.33859 -0.26147,-0.39865 -0.56177,-0.60392l-0.11177,-0.0756c-0.11895,-0.39778 -0.06782,-0.30225 0.08027,-0.77958z" fill="#b1bcce"/><path d="M10.73757,71.44967l0.18215,0.17288c0.04006,0.50649 0.06041,0.96155 0.4932,1.2575c0.4696,-0.51323 0.20878,-0.41316 0.35285,-1.28665l0.27391,-0.0274c0.00727,0.16233 0.01047,0.32467 0.00961,0.487c-0.00857,0.58223 -0.1268,0.6612 -0.47167,0.99715c-0.45306,0.04513 -0.26832,0.09142 -0.6927,-0.23515c-0.27078,-0.4114 -0.18092,-0.87042 -0.14736,-1.36533z" fill="#8897ad"/><path d="M78.03354,63.29608c0.05874,0.15647 0.07749,0.70823 0.09111,0.9088c-0.27642,0.54048 -0.12144,0.37287 -0.77754,0.61476c-0.11104,-0.25039 -0.15293,-0.49008 -0.21431,-0.75643c0.20244,-0.44598 0.40327,-0.39411 0.90073,-0.76713z" fill="#b1bcce"/><path d="M254.62646,73.80453l0.15674,0.15237c0.05859,0.26943 0.07471,0.4889 0.28857,0.68464l-0.02637,0.01187l0.38379,-0.29302l-0.21533,0.08615c0.13623,-0.1408 0.11426,-0.08454 0.37207,-0.14124l0.45117,0.31046c-0.30615,0.59322 -0.64746,0.75336 -1.2334,0.43704c-0.3501,-0.56582 -0.23291,-0.45623 -0.17725,-1.24827z" fill="#b1bcce"/><path d="M129.01304,50.44494c0.33955,0.07076 0.42085,0.05714 0.64541,0.29639c-0.2335,0.2917 -0.30088,0.34987 -0.58828,0.59234c0.17432,0.32379 0.14092,0.2246 0.6022,0.3903l-0.04468,0.19032l-0.35918,0.09538c-0.53364,-0.19969 -0.35771,-0.05465 -0.65669,-0.55029c-0.01436,-0.49286 0.12275,-0.62252 0.40122,-1.01444z" fill="#b1bcce"/><path d="M284.08301,6.25709c0.20068,-0.21647 0.53467,-0.23736 0.76025,-0.04743c0.22559,0.18994 0.26074,0.52347 0.08203,0.75708c-0.12451,0.16078 -0.3252,0.24067 -0.52588,0.208c-0.20068,-0.03269 -0.36621,-0.17266 -0.43213,-0.36441c-0.06592,-0.19174 -0.02197,-0.40427 0.11572,-0.55324z" fill="#b1bcce"/><path d="M81.18647,130.70383c0.42847,-0.0208 0.72026,-0.00396 1.14111,0.02183l0.09814,0.15706c-0.2417,0.41843 -0.27378,0.4892 -0.38232,0.94646l-0.02388,0.10549l-0.01802,0.22958c-0.43228,-0.11589 0.03325,-0.57124 -0.81504,-1.46041z" fill="#394456"/><path d="M117.72114,23.63606l0.63823,0.12673c0.34687,0.43689 0.2335,0.41008 0.25576,1.09253c-0.35464,0.09728 -0.33486,0.10021 -0.69097,0.01685c-0.28843,-0.48876 -0.18853,-0.58502 -0.20303,-1.23611z" fill="#b1bcce"/><path d="M96.10034,4.34967c0.13594,0.38267 0.30249,0.45565 0.63867,0.66508l0.11587,0.0712c0.18047,0.49988 0.16816,0.29151 0.07017,0.79309l-0.17886,0.04785l-0.2584,-0.34827l-0.10811,-0.25987c-0.06665,0.26359 -0.11382,0.41071 -0.20801,0.66545l-0.1645,-0.20249c-0.05845,-0.64992 -0.02871,-0.78554 0.09316,-1.43205z" fill="#b1bcce"/><path d="M81.61318,143.23939c0.52148,0.0082 0.87876,-0.09567 1.17524,0.1846c-0.20684,0.4451 -0.24272,0.61212 -0.35186,1.07275l0.00015,0.15955c-0.46904,-0.01861 0.0394,-0.4848 -0.82354,-1.4169z" fill="#394456"/><path d="M12.0299,88.87823c0.39229,0.31558 0.96201,0.96829 0.97182,1.50788l-0.19692,0.09889l-0.24596,-0.42898c0.00095,-0.18123 0.01027,-0.11179 -0.0697,-0.28189c-0.14058,0.31295 -0.15961,0.39675 -0.38706,0.64552c-0.17766,-0.42107 -0.09519,-1.05971 -0.07219,-1.54143z" fill="#8897ad"/><path d="M72.75249,5.95583c0.17754,-0.08073 0.38496,-0.05768 0.54053,0.06004c0.15542,0.11772 0.23394,0.31119 0.20435,0.50398c-0.02944,0.19278 -0.1623,0.35388 -0.34585,0.41966c-0.26807,0.09605 -0.56426,-0.03647 -0.67134,-0.3004c-0.10708,-0.26395 0.01304,-0.56537 0.27231,-0.68328z" fill="#b1bcce"/><path d="M108.14663,34.09103c0.29033,0.25097 0.2981,0.68244 0.24009,1.03275c-0.32329,0.36847 -0.15381,0.2728 -0.6375,0.35851c-0.58242,-0.27456 -0.39829,-0.15017 -0.74487,-0.78193c0.20376,-0.31763 0.1103,-0.28218 0.39111,-0.36071l0.43638,0.90206c0.22207,-0.30357 0.24976,-0.76053 0.31479,-1.15069z" fill="#b1bcce"/><path d="M75.52471,3.56997c0.24653,0.03396 0.44956,0.09816 0.68774,0.16484c-0.10049,0.28893 -0.1979,0.28991 -0.47681,0.52369l0.02637,0.23935l0.39565,0.3155l0.00366,0.04558l-0.12817,0.13466c-0.54756,-0.07558 -0.36182,0.02505 -0.71411,-0.35536c-0.07544,-0.62177 -0.05391,-0.44113 0.20566,-1.06825z" fill="#121b2e"/><path d="M29.4835,11.52432l0.1812,0.14321c0.09507,0.38893 0.09653,0.41547 0.31143,0.74695c0.05273,-0.33806 0.05156,-0.44864 0.2001,-0.75119l0.3627,-0.01081c-0.02432,0.69674 -0.00952,0.82427 -0.5937,1.12504l-0.33369,-0.15644c-0.26104,-0.53791 -0.1752,-0.43245 -0.12803,-1.09676z" fill="#b1bcce"/><path d="M11.06886,36.23359c0.33478,0.04351 0.42929,0.02886 0.69722,0.21449c-0.37639,0.21727 -0.69439,0.33624 -0.87319,0.71292c0.24902,0.47557 0.17849,0.33741 0.70866,0.63263c0.05947,0.02784 0.08542,0.08087 0.13384,0.14211c-0.66751,0.04923 -0.79371,0.05069 -1.05631,-0.51542c0.01066,-0.6152 0.03354,-0.68508 0.38978,-1.18673z" fill="#8897ad"/><path d="M11.99984,80.16937c0.31238,0.01949 0.17653,-0.03619 0.41314,0.18929l0.22392,-0.09333l0.08836,0.04527c-0.14593,0.09494 -0.25056,0.1723 -0.39105,0.27485l0.01655,0.25288l0.36335,0.15222l-0.04463,0.2205l-0.02014,-0.17698c-0.05625,0.31763 0.02347,0.2035 -0.21179,0.37492l0.00454,0.08849c0.10242,0.09904 0.20716,0.17991 0.32738,0.25625c-0.33898,0.18548 -0.1909,0.14666 -0.63577,0.06183c-0.23436,-0.42766 -0.13915,-1.09736 -0.13386,-1.64619z" fill="#8897ad"/><path d="M252.92871,29.1926c0.36914,0.05787 0.35449,0.05348 0.68408,0.22973c-0.36035,0.38693 -0.37354,0.27148 -0.37354,0.66325l0.43945,0.33126c-0.1626,0.14724 -0.24463,0.13318 -0.47754,0.19149l-0.29004,-0.20746c-0.20801,-0.739 -0.19922,-0.44187 0.01758,-1.20827z" fill="#4b596c"/><path d="M157.40771,122.53559c0.38965,0.08776 0.31641,0.00733 0.50098,0.25932l-0.1333,0.06534c0.17578,0.32935 0.38232,0.62985 0.40137,0.99158l-0.28564,0.0775l-0.34277,0.08161l-0.12451,-0.09802l0.43359,-0.0148l-0.29736,-0.12922c-0.30322,-0.77343 -0.35742,-0.56465 -0.15234,-1.23332z" fill="#4b596c"/><path d="M13.47612,36.6992c0.42541,0.02051 0.5889,-0.01597 0.91063,0.25507c0.18167,0.49755 0.22286,0.3717 0.09896,0.78339l-0.15382,-0.02872l-0.151,-0.57681l-0.2202,-0.02227c-0.20394,0.27266 -0.2353,0.44832 -0.34241,0.7765c-0.22654,-0.41433 -0.16414,-0.70926 -0.14218,-1.18717z" fill="#8897ad"/><path d="M190.72705,63.09053c0.10986,0.07575 0.44678,0.75306 0.56982,0.94191l-0.07617,-0.3462c0.38672,0.38928 0.26807,0.2961 0.30615,0.98806l-0.29443,-0.31016c-0.15088,-0.00117 -0.21387,-0.00498 -0.36328,0.04307l-0.17432,-0.1512z" fill="#b1bcce"/><path d="M10.95948,88.85098c0.22623,0.05069 0.45265,0.12234 0.67554,0.18783c-0.2918,0.93942 -0.36116,0.55264 -0.37047,1.70069c-0.44114,-0.33565 -0.15151,-1.18893 -0.58781,-1.61659z" fill="#8897ad"/><path d="M15.55942,116.25382l0.2269,-0.02403c0.03223,0.27925 0.01919,0.43572 0.19541,0.65314c0.65273,-0.28218 0.01377,-0.22592 0.56719,-0.61813c0.05054,0.37067 0.08145,0.41668 -0.08525,0.72977c-0.43125,0.20497 -0.24565,0.19105 -0.69492,0.05934c-0.29106,-0.38898 -0.2124,-0.20717 -0.20933,-0.80009z" fill="#8897ad"/><path d="M249.16406,28.6407l0.20508,0.16131c0.19189,0.44275 0.1084,1.24666 0.08789,1.76149l-0.22559,-0.1723c-0.18604,-0.44568 -0.09375,-1.23904 -0.06738,-1.7505z" fill="#394456"/><path d="M252.49805,63.46808c0.30615,0.04307 0.29883,0.04879 0.57861,0.18841c-0.2373,0.24072 -0.28418,0.25962 -0.37354,0.57359l0.24756,0.31661c-0.06445,0.05875 -0.25342,0.09391 -0.35303,0.12087l-0.18018,-0.18035c-0.16113,-0.65241 -0.17871,-0.38166 0.08057,-1.01913z" fill="#e0e9f1"/><path d="M95.85234,23.94871l0.24067,0.00234l0.02622,0.66179l0.19072,0.11472l0.23701,-0.10666l0.07588,-0.52011l0.20728,-0.13332c0.06079,0.60333 0.04819,0.70457 -0.44121,0.97429l-0.3186,-0.10505c-0.29048,-0.48641 -0.21841,-0.26562 -0.21797,-0.888z" fill="#b1bcce"/><path d="M284.41113,108.09832l0.10986,0.15486c-0.00439,0.48348 -0.30029,0.95569 -0.52295,1.40899l-0.1875,-0.19676c0.03516,-0.50063 0.34277,-0.92492 0.60059,-1.36709z" fill="#b1bcce"/><path d="M21.87964,80.09656l0.13213,0.10886c0.20859,0.43572 0.12202,1.10967 0.10122,1.61982l-0.19834,-0.15984c-0.18018,-0.44686 -0.07515,-1.07187 -0.03501,-1.56883z" fill="#8897ad"/><path d="M110.1665,23.66785l0.22412,0.1931c0.05273,0.47953 0.03662,0.75541 0.36475,1.11905l-0.44663,-0.05743c-0.26997,-0.46517 -0.15879,-0.62164 -0.14224,-1.25471z" fill="#b1bcce"/><path d="M13.61594,106.7264l0.20981,0.16541c0.17139,0.42341 0.087,0.9633 0.06094,1.44049l-0.15205,-0.11838c-0.20461,-0.36701 -0.12911,-1.02792 -0.1187,-1.48752z" fill="#8897ad"/></g></svg></svg>