<svg id="svg" version="1.1" viewBox="0 0 300 105.2734375" width="300" height="105.2734375" xmlns="http://www.w3.org/2000/svg"><svg xmlns="http://www.w3.org/2000/svg"><defs><clipPath id="clip-1"><rect x="0" y="0" transform="scale(0.14648,0.14642)" width="2048" height="719" fill="none"/></clipPath></defs><g clip-path="url(#clip-1)" fill="none" fill-rule="nonzero" stroke="none" stroke-width="1" stroke-linecap="butt" stroke-linejoin="miter" stroke-miterlimit="10" stroke-dasharray="" stroke-dashoffset="0" font-family="none" font-weight="none" font-size="none" text-anchor="none" style="mix-blend-mode: normal"><path d="M148.16895,18.07131c0.46875,-0.01962 0.9375,-0.02797 1.40625,-0.02504c6.8042,0.02679 13.31543,2.77532 18.08057,7.6321c5.15479,5.28563 6.73828,11.18314 6.65186,18.35989c-2.21338,-0.47541 -4.85156,-1.29989 -7.17041,-1.84851c-0.09229,-1.97677 -0.16992,-3.12131 -0.65918,-5.03116c-4.06201,4.43481 -9.78223,6.43515 -15.62256,7.03282l-0.2666,0.00893c-7.49736,0.23251 -12.96094,-1.94792 -18.38364,-7.03619c-0.46992,1.93402 -0.62007,3.03712 -0.68086,5.02809c-2.3874,0.53193 -4.69702,1.31233 -7.07798,1.8324c-0.66577,-14.30035 9.60381,-24.99607 23.72256,-25.95334zM147.79688,27.42776c-0.9873,-0.48888 -1.79092,-0.93502 -2.7397,-1.48144c0.09624,0.98831 0.12407,1.67486 0.12437,2.66917c-0.60571,-0.09166 -1.53516,-0.35037 -1.97915,-0.10644c-0.08057,0.40909 0.08145,0.77659 0.21255,1.17455l-2.36807,0.09459l2.13853,2.27765l-2.91284,1.1154c0.87012,0.60792 1.74272,1.22712 2.61943,1.8242l-1.46924,1.29784c-4.01865,-1.76637 -6.1623,-3.53347 -7.57397,-7.8507c0.15747,1.85539 0.27744,3.29788 1.05952,5.03526c2.75669,6.12402 9.03062,7.97984 15.21768,7.95832c5.44043,-0.47717 10.81641,-2.37546 13.33008,-7.71395c0.84082,-1.78408 0.95215,-3.33625 1.12354,-5.25562c-1.13965,3.52834 -2.95459,5.70439 -6.30762,7.43679c-0.29443,0.15066 -0.59326,0.29225 -0.89648,0.42475l-1.73877,-1.38393c0.88037,-0.58449 1.71094,-1.13034 2.55322,-1.77354l-2.87109,-1.10808c0.71924,-0.73076 1.56738,-1.55143 2.23682,-2.3125l-2.39502,-0.10161l0.33545,-1.41878l-2.26758,0.47102c0.06885,-0.88743 0.15234,-1.80268 0.19922,-2.68894c-0.85107,0.48932 -1.74316,1.0236 -2.60156,1.48891c-0.39404,-0.77074 -1.16162,-2.37078 -1.58643,-3.04429z" fill="#cb172b"/><path d="M93.7519,30.13031c2.87754,-0.08551 6.02256,0.02665 8.92822,-0.00717c1.97227,-0.02299 5.3042,-0.10893 7.18242,0.10117c1.20029,0.12972 2.37598,0.42988 3.4916,0.89124c4.22871,1.79624 5.74204,6.16311 4.08105,10.47097c-0.89458,2.32012 -3.22646,3.46231 -5.43223,4.3228c2.06572,2.89509 4.90972,6.29488 7.14814,9.10666l-3.02563,0.0101l-3.4459,0.00674c-2.03511,-1.99653 -4.74067,-6.55843 -6.73989,-8.59948l-6.61934,0.0082l0.02812,8.58542l-5.58164,0.00849zM99.34819,41.93104c2.79258,0.12885 9.68716,0.50484 11.81528,-0.94278c1.82666,-1.91791 1.50952,-5.21843 -1.14272,-5.88155c-3.06431,-0.76605 -7.42031,-0.42651 -10.68149,-0.40587z" fill="#cb172b"/><path d="M235.50879,29.52356c1.74609,-0.11655 4.37695,-0.04378 6.18896,-0.05125l0.00879,25.58247l-5.70703,0.00351v-12.56092l-0.00879,-4.72252c-3.37207,4.18693 -6.90381,9.15088 -10.12646,13.50004c-0.57275,-0.54467 -2.56641,-3.25469 -3.11572,-3.98546l-7.06494,-9.5528c-0.04834,5.76676 -0.05273,11.53381 -0.01611,17.30072l-5.62354,0.00117l0.00146,-25.49403l1.54248,-0.03968c1.5249,-0.0369 3.05127,-0.03616 4.57617,0.00234c0.98438,1.16591 2.49463,3.45279 3.4541,4.8092l6.18311,8.6844c3.24316,-4.47566 6.38525,-9.06171 9.70752,-13.4772z" fill="#023d91"/><path d="M57.60894,30.12372l5.77515,0.00176l-0.04307,24.88699c-1.81362,0.02782 -3.67251,0.01083 -5.49023,0.01552c0.01802,-3.77213 0.0126,-7.54425 -0.01611,-11.31624c0.03706,-1.78628 -0.01099,-3.63757 -0.03486,-5.42927c-0.8395,1.234 -2.36968,3.0768 -3.31494,4.30245c-2.19976,2.83462 -4.36685,5.69458 -6.50054,8.57927c-0.9772,-1.05142 -2.76519,-3.58061 -3.67837,-4.79353c-2.09106,-2.76683 -4.19722,-5.52239 -6.31831,-8.26653c-0.18794,5.17699 -0.03486,11.66925 0.02358,16.92399l-5.53213,-0.00073c-0.11689,-8.25935 -0.00293,-16.62208 -0.03896,-24.90178l5.76108,0.00776c3.31934,4.26262 6.39038,8.69406 9.81343,12.8908c3.0145,-4.15969 6.42788,-8.89319 9.59429,-12.90046z" fill="#cb172b"/><path d="M132.95098,40.39528l3.56089,1.99185c0.00688,3.19803 0.52764,5.5893 2.8125,8.00459c6.09258,6.44027 19.06479,5.09895 22.27573,-3.66246c0.5127,-1.39945 0.5376,-2.93199 0.55371,-4.40318c1.20996,-0.62315 2.41553,-1.25259 3.61963,-1.88848c0.0498,1.09256 0.05127,2.30313 0.07471,3.40579c2.29248,0.38859 6.2124,1.67793 8.42285,2.42144c-3.11719,1.07074 -6.26807,2.03651 -9.44971,2.89524c2.1167,1.74733 4.81055,4.00698 6.76465,5.90834c-2.70703,0.00981 -7.22168,-0.85536 -10.15723,-1.09446c1.16016,2.53388 2.30566,5.34669 3.32959,7.9368c-1.34326,-0.65741 -2.79199,-1.46651 -4.12207,-2.17531l-5.06396,-2.7456c-0.06738,2.79963 -0.33691,6.13968 -0.55957,8.94678c-1.87061,-2.21997 -3.7793,-5.36763 -5.63086,-7.79346c-1.9292,2.44047 -3.57671,5.3931 -5.60654,7.89126c-0.29502,-2.79319 -0.43843,-6.16077 -0.57275,-8.98734c-2.93862,1.59945 -6.09243,3.35909 -9.07075,4.848c1.04575,-2.66039 2.13179,-5.30481 3.25737,-7.9324c-3.23394,0.38522 -7.07534,0.95302 -10.26357,1.11072l6.52544,-5.84773c-2.97129,-0.92989 -6.33809,-1.90971 -9.23145,-2.97313c2.64683,-0.95068 5.72109,-1.7611 8.45156,-2.44325c-0.00747,-1.21042 -0.00776,-2.20181 0.07983,-3.41399z" fill="#023d91"/><path d="M88.76865,30.08624l0.49116,0.06501c0.40503,0.42022 0.24595,3.76305 0.24097,4.53627c-5.27974,0.07101 -10.70977,0.00512 -16.00151,0.00381c-0.02695,1.84104 -0.00469,3.73669 -0.00615,5.58257l14.62559,0.02431l-0.02021,4.53569c-4.68472,0.12167 -9.87891,0.03939 -14.59189,0.02167l-0.02329,5.59223l11.00156,-0.00644l5.17485,0.00322l0.03208,4.59103l-21.86807,0.00146l-0.01377,-24.92609c6.87231,0.0142 14.10483,0.10864 20.95869,-0.02474z" fill="#cb172b"/><path d="M256.20557,28.76029c4.11914,-0.25403 7.77393,0.78128 11.34229,2.77547c-0.97559,1.3933 -1.96582,2.77693 -2.96777,4.15105c-2.12402,-1.13912 -4.14551,-2.04353 -6.61523,-2.09947c-1.45898,-0.03309 -3.88037,0.01772 -4.97021,1.06181c-0.4292,0.41084 -1.04443,1.45992 -0.95654,1.96388c0.54785,3.18104 8.11377,3.06538 10.7124,4.20874c1.46191,0.47717 2.6748,1.08041 3.7998,2.17092c2.60889,2.52964 2.40088,7.40106 -0.21973,9.87872c-2.92529,2.76581 -6.73682,2.93477 -10.54834,2.89509c-4.14258,-0.33764 -7.12354,-1.21936 -10.53662,-3.63376c0.88037,-1.32302 2.12256,-2.85922 3.1084,-4.14124c3.65332,2.56888 7.88818,3.73992 12.31201,2.51661c0.94482,-0.2615 2.18555,-1.73943 1.99805,-2.72071c-0.43652,-2.05276 -3.73682,-2.83814 -5.8418,-3.0746c-7.15723,-0.80441 -13.86328,-5.0767 -8.76416,-12.81349c1.36816,-2.07648 5.4624,-2.95029 8.14746,-3.13902z" fill="#023d91"/><path d="M194.59424,28.76293c4.49854,-0.07745 7.83398,0.99959 11.37891,3.75075c-1.15576,1.29022 -2.28223,2.60636 -3.37793,3.9471c-2.18555,-1.71454 -3.59619,-2.50021 -6.375,-2.82101c-12.15381,-1.40311 -14.31006,16.15911 -2.07422,17.30862c3.37939,0.31743 5.85059,-0.79006 8.39648,-2.96684c0.56689,0.26911 3.0249,2.93726 3.63721,3.56509c-5.75977,5.33981 -15.79834,5.74172 -21.79102,0.51919c-5.36426,-4.67478 -5.56641,-13.64558 -0.79102,-18.81129c2.96777,-3.21077 6.74707,-4.29996 10.99658,-4.49162z" fill="#023d91"/></g></svg></svg>